<?xml version="1.0" encoding="UTF-8" standalone="no"?>
<svg
   width="2976.38"
   height="4209.45"
   version="1.2"
   id="svg60"
   sodipodi:docname="1._Любви_той_хвала.svg"
   inkscape:version="1.2 (dc2aedaf03, 2022-05-15)"
   xmlns:inkscape="http://www.inkscape.org/namespaces/inkscape"
   xmlns:sodipodi="http://sodipodi.sourceforge.net/DTD/sodipodi-0.dtd"
   xmlns="http://www.w3.org/2000/svg"
   xmlns:svg="http://www.w3.org/2000/svg">
  <defs
     id="defs64" />
  <sodipodi:namedview
     id="namedview62"
     pagecolor="#ffffff"
     bordercolor="#666666"
     borderopacity="1.0"
     inkscape:showpageshadow="2"
     inkscape:pageopacity="0.0"
     inkscape:pagecheckerboard="0"
     inkscape:deskcolor="#d1d1d1"
     showgrid="false"
     inkscape:zoom="0.18696028"
     inkscape:cx="1489.6212"
     inkscape:cy="2110.0738"
     inkscape:current-layer="svg60" />
  <path
     class="StaffLines"
     fill="none"
     stroke="#000"
     stroke-width="2.73"
     stroke-linejoin="bevel"
     d="M357.055 609.449H2763.78M357.055 634.252H2763.78M357.055 659.055H2763.78M357.055 683.858H2763.78M357.055 708.661H2763.78M357.055 1085.31H2763.78M357.055 1110.11H2763.78M357.055 1134.92H2763.78M357.055 1159.72H2763.78M357.055 1184.52H2763.78M233.039 1370.55H2763.78M233.039 1395.35H2763.78M233.039 1420.15H2763.78M233.039 1444.96H2763.78M233.039 1469.76H2763.78M233.039 1801.37H2763.78M233.039 1826.18H2763.78M233.039 1850.98H2763.78M233.039 1875.78H2763.78M233.039 1900.58H2763.78M233.039 2086.61H2763.78M233.039 2111.41H2763.78M233.039 2136.21H2763.78M233.039 2161.02H2763.78M233.039 2185.82H2763.78M233.039 2517.83H2763.78M233.039 2542.64H2763.78M233.039 2567.44H2763.78M233.039 2592.24H2763.78M233.039 2617.05H2763.78"
     id="path2" />
  <path
     class="MeasureNumber"
     d="M247.633 1306.38c1.891-.6 2.641-.92 3.609-1.57 1.875-1.23 3.032-3.43 3.032-5.67 0-3.79-3.032-6.36-7.516-6.36-4.359 0-8.047 2.72-8.047 6 0 1.64 1 2.77 2.531 2.77 1.313 0 2.282-.97 2.282-2.28 0-.69-.203-1.17-.844-1.8-.406-.37-.563-.64-.563-.92 0-.97 2-1.97 3.875-1.97 2.688 0 4.282 1.48 4.282 3.97 0 3.55-2.516 6.91-5.203 6.91-.11 0-.469-.04-.907-.08-1.172-.08-1.172-.08-1.406-.08-.875 0-1.359.41-1.359 1.12 0 .64.437 1.04 1.156 1.04.203 0 .484-.04.797-.08a8.865 8.865 0 0 1 1.531-.16c1.875 0 3.156 1.69 3.156 4.16 0 1.92-.437 3.76-1.328 5.28-1.187 2.15-3.031 3.2-5.64 3.2-2.235 0-4.157-1.12-4.157-2.4 0-.44.172-.6.797-.88 1.172-.52 1.641-1.23 1.641-2.31 0-1.41-1.11-2.49-2.547-2.49-1.719 0-2.844 1.36-2.844 3.44 0 3.88 2.953 6.31 7.75 6.31 6.047 0 10.641-4.03 10.641-9.39 0-1.43-.438-2.68-1.281-3.68-.875-1.04-1.672-1.52-3.438-2.08M238.352 2023.61c.687-3.53 1.484-5.72 3-8.4 1.812-3.16 3.969-4.77 6.359-4.77 1.25 0 2 .48 2 1.25 0 .28-.078.44-.359.95-.36.69-.516 1.16-.516 1.77 0 1.28.953 2.15 2.313 2.15 1.64 0 2.765-1.2 2.765-3 0-2.71-2.562-4.71-6.125-4.71-3.75 0-7.109 2-9.828 5.84-2.797 3.95-4.484 9.03-4.484 13.47 0 5.89 2.922 9.44 7.797 9.44 3 0 5.687-1.19 7.609-3.32 1.75-2 2.828-4.87 2.828-7.51 0-4.08-2.75-6.92-6.75-6.92-2.797 0-4.969 1.2-6.609 3.76m5.328-1.45c2.484 0 3.844 1.72 3.844 4.84 0 5.08-2.688 8.96-6.25 8.96-2.563 0-4.078-1.88-4.078-5.08 0-5 2.765-8.72 6.484-8.72"
     id="path4" />
  <path
     class="SlurSegment"
     stroke="#000"
     stroke-width="1.74"
     stroke-linecap="round"
     stroke-linejoin="round"
     fill-rule="evenodd"
     d="M1999.31 1234.13c63.3 36.44 230.27 8.54 278.29-46.51-46.87 61.9-213.84 89.8-278.29 46.51M1329.25 1912.99c48.54 41.42 149.25 46.07 201.41 9.3-52.48 43.71-153.19 39.06-201.41-9.3M2021.5 992.744c56.28-57.386 233.67-66.687 295.65-15.502-61.61-44.25-239-34.949-295.65 15.502M1361.48 1742.46c48.23-48.36 148.94-53.01 201.41-9.3-52.15-36.77-152.86-32.12-201.41 9.3M1343.17 2431.02c78.24-58.09 308.6-52.51 383.94 9.3-75.5-54.86-305.87-60.44-383.94-9.3M1991.99 813.47c63.1 42.334 240.49 27.452 295.65-24.804-54.58 59.177-231.97 74.059-295.65 24.804M1310.93 2235.43c75.51 54.86 305.87 60.44 383.94 9.3-78.24 58.09-308.6 52.51-383.94-9.3M2031.55 587.746c57.42-51.149 224.4-45.568 278.28 9.301-54.12-47.928-221.09-53.509-278.28-9.301M1361.48 1339.54c52.48-43.71 153.19-39.06 201.41 9.3-48.54-41.42-149.25-46.07-201.41-9.3M1343.17 2064.91c78.24-58.09 308.6-52.51 383.94 9.3-75.5-54.87-305.87-60.45-383.94-9.3"
     id="path6" />
  <path
     class="BarLine"
     stroke="#000"
     stroke-width="4.46"
     stroke-linejoin="bevel"
     d="M359.287 1083.95v101.94M992.691 1083.95v101.94M1940.67 1083.95v101.94M2761.55 1083.95v101.94M235.272 1800.01v101.94M1271.61 1800.01v101.94M1979.12 1800.01v101.94M2761.55 1800.01v101.94M235.272 2516.47v101.94M1253.79 2516.47v101.94M1956.6 2516.47v101.94M2739.6 2516.47v101.94"
     id="path8" />
  <path
     class="BarLine"
     stroke="#000"
     stroke-width="13.64"
     stroke-linejoin="bevel"
     d="M2756.96 2516.47v101.94"
     id="path10" />
  <path
     class="BarLine"
     stroke="#000"
     stroke-width="4.46"
     stroke-linejoin="bevel"
     d="M359.287 608.085v477.225M992.691 608.085v477.225M1940.67 608.085v477.225M2761.55 608.085v477.225M235.272 1369.18v432.19M1271.61 1369.18v432.19M1979.12 1369.18v432.19M2761.55 1369.18v432.19M235.272 2085.24v432.59M1253.79 2085.24v432.59M1956.6 2085.24v432.59M2739.6 2085.24v432.59"
     id="path12" />
  <path
     class="BarLine"
     stroke="#000"
     stroke-width="13.64"
     stroke-linejoin="bevel"
     d="M2756.96 2085.24v432.59"
     id="path14" />
  <path
     class="Accidental"
     d="M2262.523 1446.85c.605-.109 1.101-.806 1.101-1.396v-5.86c0-.79-.604-1.379-1.395-1.379h-.202l-3.27.698v-14.79h-2.775v15.379l-8.837 1.782v-13.982h-2.774v14.587l-3.876.79c-.589.094-1.085.791-1.085 1.38v5.953-.186c0 .79.59 1.38 1.395 1.38h.295l3.27-.698v16.37l-3.875.806c-.589.093-1.085.79-1.085 1.38v5.751c0 .806.59 1.395 1.395 1.395h.295l3.27-.697v14.789h2.775v-15.378l8.837-1.783v13.983h2.774v-14.588l3.767-.697c.605-.093 1.101-.79 1.101-1.38v-5.86c0-.79-.604-1.38-1.395-1.38h-.202l-3.27.683v-16.37l3.766-.682m-15.378 19.532v-16.463l8.837-1.783v16.37l-8.837 1.876"
     id="path16" />
  <path
     class="LedgerLine"
     stroke="#000"
     stroke-width="3.97"
     stroke-linejoin="bevel"
     d="M2129.77 1060.51h49.6M2277.6 1060.51h49.59M2261.14 1776.57h49.6M446.292 2493.03h49.599M711.822 2493.03h49.598M977.352 2493.03h49.598M1293.57 2493.03h49.6M1694.87 2493.03h49.6"
     id="path18" />
  <path
     class="Stem"
     stroke="#000"
     stroke-width="2.73"
     stroke-linejoin="bevel"
     d="M2524.16 1113.45v80.37M1759.48 1829.51v80.38M706.838 1113.45v80.37M1058.01 1163.05v67.98M1329.33 1163.05v67.98M1600.65 1175.45v64.88M1991.99 1175.45v64.88M2287.64 1113.45v80.37M456.337 1841.91v77.28M689.024 1841.91v77.28M834.453 1854.31v71.08M979.882 1866.71v64.88M1125.31 1841.91v77.28M1321.93 1841.91v77.28M1540.7 1854.31v74.18M2026.44 1792.3v154.79M2271.19 1804.71v151.68M2515.93 1817.11v148.58M456.337 2558.37v77.28M721.867 2583.18v71.07M987.397 2558.37v77.28M1303.62 2545.97v80.38M2118.38 2595.58v67.97M736.346 1106.94v-68.14M1087.52 1106.94v-68.14M1358.84 1106.94v-68.14M1630.16 1106.94v-68.14M2021.5 1106.94v-89.84M2169.32 1044.93v-58.833M2317.15 1057.33v-55.73M2553.67 1106.94v-68.14M485.845 1798.2v-61.94M718.532 1798.2v-71.24M863.961 1785.8v-65.04M1009.39 1798.2v-61.94M1351.44 1798.2v-61.94M1570.21 1785.8v-58.84M1788.98 1823v-68.13M2055.95 1785.8v-58.84M2300.69 1773.39v-55.73M2545.44 1785.8v-58.84M485.845 2489.86v-55.74M751.375 2489.86v-55.74M1016.9 2489.86v-55.74M1333.13 2477.45v-52.63M1734.43 2489.86v-55.74M2147.88 2502.26v-58.84M706.838 699.593v64.876M1058.01 724.397v58.674M1329.33 724.397v58.674M1600.65 711.995v61.775M1991.99 724.397v64.875M2139.82 699.593v64.876M2287.64 699.593v64.876M2524.16 699.593v64.876M456.337 1460.69v64.88M689.024 1460.69v64.88M979.882 1460.69v64.88M1321.93 1460.69v64.88M1759.48 1460.69v64.88M2026.44 1460.69v64.88M2271.19 1460.69v64.88M2515.93 1448.29v67.97M456.337 2164.35v67.98M721.867 2164.35v67.98M987.397 2164.35v67.98M1303.62 2176.75v64.88M1704.92 2189.15v61.78M2118.38 2201.56v58.67M736.346 693.085v-83.636M1087.52 655.88v-74.335M1358.84 655.88v-74.335M1630.16 631.077v-71.234M1799.73 643.479v-77.436M2021.5 655.88v-74.335M2317.15 668.282v-77.436M2553.67 693.085v-83.636M485.845 1404.58v-71.24M718.532 1404.58v-77.44M863.961 1392.17v-71.23M1009.39 1379.77v-65.03M1154.82 1404.58v-65.04M1351.44 1404.58v-71.24M1570.21 1416.98v-74.34M1788.98 1454.18v-83.63M2055.95 1392.17v-68.13M2300.69 1392.17v-68.13M2545.44 1392.17v-68.13M485.845 2133.04v-74.34M751.375 2095.84v-65.04M1016.9 2120.64v-71.24M1333.13 2133.04v-74.34M1734.43 2145.44v-77.43M2147.88 2133.04v-74.34"
     id="path20" />
  <path
     class="Note"
     d="M2554.052 1102.08c-1.783-3.286-5.55-5.07-10.123-5.07-3.364 0-7.038.993-10.619 2.884-6.541 3.473-10.51 9.317-10.51 14.386 0 1.38.295 2.775.992 4.062 1.783 3.27 5.55 4.96 10.123 4.96 3.364 0 7.038-.883 10.619-2.775 6.542-3.472 10.51-9.332 10.51-14.386 0-1.395-.294-2.774-.992-4.061M1789.362 1818.15c-1.783-3.286-5.55-5.07-10.123-5.07-3.364 0-7.038.993-10.619 2.884-6.541 3.473-10.51 9.317-10.51 14.386 0 1.38.295 2.775.992 4.062 1.783 3.27 5.55 4.96 10.123 4.96 3.364 0 7.038-.883 10.619-2.775 6.542-3.472 10.51-9.332 10.51-14.386 0-1.395-.294-2.774-.992-4.061M736.726 1102.08c-1.783-3.286-5.55-5.07-10.123-5.07-3.364 0-7.038.993-10.619 2.884-6.541 3.473-10.51 9.317-10.51 14.386 0 1.38.295 2.775.992 4.062 1.783 3.27 5.55 4.96 10.123 4.96 3.364 0 7.038-.883 10.619-2.775 6.542-3.472 10.51-9.332 10.51-14.386 0-1.395-.294-2.774-.992-4.061M1087.902 1151.69c-1.783-3.286-5.55-5.07-10.123-5.07-3.364 0-7.038.993-10.619 2.884-6.541 3.473-10.51 9.317-10.51 14.386 0 1.38.295 2.775.992 4.062 1.783 3.27 5.55 4.96 10.123 4.96 3.364 0 7.038-.883 10.619-2.775 6.542-3.472 10.51-9.332 10.51-14.386 0-1.395-.294-2.774-.992-4.061M1359.222 1151.69c-1.783-3.286-5.55-5.07-10.123-5.07-3.364 0-7.038.993-10.619 2.884-6.541 3.473-10.51 9.317-10.51 14.386 0 1.38.295 2.775.992 4.062 1.783 3.27 5.55 4.96 10.123 4.96 3.364 0 7.038-.883 10.619-2.775 6.542-3.472 10.51-9.332 10.51-14.386 0-1.395-.294-2.774-.992-4.061M1630.542 1164.09c-1.783-3.286-5.55-5.07-10.123-5.07-3.364 0-7.038.993-10.619 2.884-6.541 3.473-10.51 9.317-10.51 14.386 0 1.38.295 2.775.992 4.062 1.783 3.27 5.55 4.96 10.123 4.96 3.364 0 7.038-.883 10.619-2.775 6.542-3.472 10.51-9.332 10.51-14.386 0-1.395-.294-2.774-.992-4.061M2021.882 1164.09c-1.783-3.286-5.55-5.07-10.123-5.07-3.364 0-7.038.993-10.619 2.884-6.541 3.473-10.51 9.317-10.51 14.386 0 1.38.295 2.775.992 4.062 1.783 3.27 5.55 4.96 10.123 4.96 3.364 0 7.038-.883 10.619-2.775 6.542-3.472 10.51-9.332 10.51-14.386 0-1.395-.294-2.774-.992-4.061M2317.532 1102.08c-1.783-3.286-5.55-5.07-10.123-5.07-3.364 0-7.038.993-10.619 2.884-6.541 3.473-10.51 9.317-10.51 14.386 0 1.38.295 2.775.992 4.062 1.783 3.27 5.55 4.96 10.123 4.96 3.364 0 7.038-.883 10.619-2.775 6.542-3.472 10.51-9.332 10.51-14.386 0-1.395-.294-2.774-.992-4.061M486.225 1830.55c-1.783-3.286-5.55-5.07-10.123-5.07-3.364 0-7.038.993-10.619 2.884-6.541 3.473-10.51 9.317-10.51 14.386 0 1.38.295 2.775.992 4.062 1.783 3.27 5.55 4.96 10.123 4.96 3.364 0 7.038-.883 10.619-2.775 6.542-3.472 10.51-9.332 10.51-14.386 0-1.395-.294-2.774-.992-4.061M718.912 1830.55c-1.783-3.286-5.55-5.07-10.123-5.07-3.364 0-7.038.993-10.619 2.884-6.541 3.473-10.51 9.317-10.51 14.386 0 1.38.295 2.775.992 4.062 1.783 3.27 5.55 4.96 10.123 4.96 3.364 0 7.038-.883 10.619-2.775 6.542-3.472 10.51-9.332 10.51-14.386 0-1.395-.294-2.774-.992-4.061M864.341 1842.95c-1.783-3.286-5.55-5.07-10.123-5.07-3.364 0-7.038.993-10.619 2.884-6.541 3.473-10.51 9.317-10.51 14.386 0 1.38.295 2.775.992 4.062 1.783 3.27 5.55 4.96 10.123 4.96 3.364 0 7.038-.883 10.619-2.775 6.542-3.472 10.51-9.332 10.51-14.386 0-1.395-.294-2.774-.992-4.061M1009.77 1855.35c-1.783-3.286-5.55-5.07-10.123-5.07-3.364 0-7.038.993-10.619 2.884-6.541 3.473-10.51 9.317-10.51 14.386 0 1.38.295 2.775.992 4.062 1.783 3.27 5.55 4.96 10.123 4.96 3.364 0 7.038-.883 10.619-2.775 6.542-3.472 10.51-9.332 10.51-14.386 0-1.395-.294-2.774-.992-4.061M1155.202 1830.55c-1.783-3.286-5.55-5.07-10.123-5.07-3.364 0-7.038.993-10.619 2.884-6.541 3.473-10.51 9.317-10.51 14.386 0 1.38.295 2.775.992 4.062 1.783 3.27 5.55 4.96 10.123 4.96 3.364 0 7.038-.883 10.619-2.775 6.542-3.472 10.51-9.332 10.51-14.386 0-1.395-.294-2.774-.992-4.061M1351.822 1830.55c-1.783-3.286-5.55-5.07-10.123-5.07-3.364 0-7.038.993-10.619 2.884-6.541 3.473-10.51 9.317-10.51 14.386 0 1.38.295 2.775.992 4.062 1.783 3.27 5.55 4.96 10.123 4.96 3.364 0 7.038-.883 10.619-2.775 6.542-3.472 10.51-9.332 10.51-14.386 0-1.395-.294-2.774-.992-4.061M1570.592 1842.95c-1.783-3.286-5.55-5.07-10.123-5.07-3.364 0-7.038.993-10.619 2.884-6.541 3.473-10.51 9.317-10.51 14.386 0 1.38.295 2.775.992 4.062 1.783 3.27 5.55 4.96 10.123 4.96 3.364 0 7.038-.883 10.619-2.775 6.542-3.472 10.51-9.332 10.51-14.386 0-1.395-.294-2.774-.992-4.061M2056.332 1867.75c-1.783-3.286-5.55-5.07-10.123-5.07-3.364 0-7.038.993-10.619 2.884-6.541 3.473-10.51 9.317-10.51 14.386 0 1.38.295 2.775.992 4.062 1.783 3.27 5.55 4.96 10.123 4.96 3.364 0 7.038-.883 10.619-2.775 6.542-3.472 10.51-9.332 10.51-14.386 0-1.395-.294-2.774-.992-4.061M2056.332 1780.94c-1.783-3.286-5.55-5.07-10.123-5.07-3.364 0-7.038.993-10.619 2.884-6.541 3.473-10.51 9.317-10.51 14.386 0 1.38.295 2.775.992 4.062 1.783 3.27 5.55 4.96 10.123 4.96 3.364 0 7.038-.883 10.619-2.775 6.542-3.472 10.51-9.332 10.51-14.386 0-1.395-.294-2.774-.992-4.061M2301.072 1880.15c-1.783-3.286-5.55-5.07-10.123-5.07-3.364 0-7.038.993-10.619 2.884-6.541 3.473-10.51 9.317-10.51 14.386 0 1.38.295 2.775.992 4.062 1.783 3.27 5.55 4.96 10.123 4.96 3.364 0 7.038-.883 10.619-2.775 6.542-3.472 10.51-9.332 10.51-14.386 0-1.395-.294-2.774-.992-4.061M2301.072 1793.34c-1.783-3.286-5.55-5.07-10.123-5.07-3.364 0-7.038.993-10.619 2.884-6.541 3.473-10.51 9.317-10.51 14.386 0 1.38.295 2.775.992 4.062 1.783 3.27 5.55 4.96 10.123 4.96 3.364 0 7.038-.883 10.619-2.775 6.542-3.472 10.51-9.332 10.51-14.386 0-1.395-.294-2.774-.992-4.061M2545.822 1892.55c-1.783-3.286-5.55-5.07-10.123-5.07-3.364 0-7.038.993-10.619 2.884-6.541 3.473-10.51 9.317-10.51 14.386 0 1.38.295 2.775.992 4.062 1.783 3.27 5.55 4.96 10.123 4.96 3.364 0 7.038-.883 10.619-2.775 6.542-3.472 10.51-9.332 10.51-14.386 0-1.395-.294-2.774-.992-4.061M2545.822 1805.74c-1.783-3.286-5.55-5.07-10.123-5.07-3.364 0-7.038.993-10.619 2.884-6.541 3.473-10.51 9.317-10.51 14.386 0 1.38.295 2.775.992 4.062 1.783 3.27 5.55 4.96 10.123 4.96 3.364 0 7.038-.883 10.619-2.775 6.542-3.472 10.51-9.332 10.51-14.386 0-1.395-.294-2.774-.992-4.061M486.225 2547.01c-1.783-3.286-5.55-5.07-10.123-5.07-3.364 0-7.038.993-10.619 2.884-6.541 3.473-10.51 9.317-10.51 14.386 0 1.38.295 2.775.992 4.062 1.783 3.27 5.55 4.96 10.123 4.96 3.364 0 7.038-.883 10.619-2.775 6.542-3.472 10.51-9.332 10.51-14.386 0-1.395-.294-2.774-.992-4.061M751.755 2571.81c-1.783-3.286-5.55-5.07-10.123-5.07-3.364 0-7.038.993-10.619 2.884-6.541 3.473-10.51 9.317-10.51 14.386 0 1.38.295 2.775.992 4.062 1.783 3.27 5.55 4.96 10.123 4.96 3.364 0 7.038-.883 10.619-2.775 6.542-3.472 10.51-9.332 10.51-14.386 0-1.395-.294-2.774-.992-4.061M1017.285 2547.01c-1.783-3.286-5.55-5.07-10.123-5.07-3.364 0-7.038.993-10.619 2.884-6.541 3.473-10.51 9.317-10.51 14.386 0 1.38.295 2.775.992 4.062 1.783 3.27 5.55 4.96 10.123 4.96 3.364 0 7.038-.883 10.619-2.775 6.542-3.472 10.51-9.332 10.51-14.386 0-1.395-.294-2.774-.992-4.061M1333.502 2534.563c-1.783-3.27-5.55-5.053-10.123-5.053-3.364 0-7.038.992-10.619 2.868-6.541 3.472-10.51 9.332-10.51 14.386 0 1.395.295 2.79.992 4.077 1.783 3.286 5.55 4.976 10.123 4.976 3.364 0 7.038-.9 10.619-2.775 6.542-3.488 10.51-9.348 10.51-14.417 0-1.38-.294-2.775-.992-4.062m-4.263 6.744c-1.69 1.69-5.07 3.767-8.635 5.767-3.565 1.984-7.146 3.472-9.518 3.968-.496.109-.992.202-1.488.202-1.597 0-2.79-.59-3.473-1.892a3.213 3.213 0 0 1-.496-1.69c0-1.084.683-2.387 1.783-3.472 1.69-1.69 4.96-3.767 8.526-5.751 3.581-1.984 7.147-3.472 9.534-3.969.496-.108.992-.201 1.488-.201 1.581 0 2.868.589 3.566 1.876.294.496.403 1.1.403 1.69 0 1.1-.605 2.278-1.69 3.472M2148.262 2584.163c-1.783-3.27-5.55-5.053-10.123-5.053-3.364 0-7.038.992-10.619 2.868-6.541 3.472-10.51 9.332-10.51 14.386 0 1.395.295 2.79.992 4.077 1.783 3.286 5.55 4.976 10.123 4.976 3.364 0 7.038-.9 10.619-2.775 6.542-3.488 10.51-9.348 10.51-14.417 0-1.38-.294-2.775-.992-4.062m-4.263 6.744c-1.69 1.69-5.07 3.767-8.635 5.767-3.565 1.984-7.146 3.472-9.518 3.968-.496.109-.992.202-1.488.202-1.597 0-2.79-.59-3.473-1.892a3.213 3.213 0 0 1-.496-1.69c0-1.084.683-2.387 1.783-3.472 1.69-1.69 4.96-3.767 8.526-5.751 3.581-1.984 7.147-3.472 9.534-3.969.496-.108.992-.201 1.488-.201 1.581 0 2.868.589 3.566 1.876.294.496.403 1.1.403 1.69 0 1.1-.605 2.278-1.69 3.472"
     id="path22" />
  <path
     class="Note"
     d="M736.726 1102.08c-1.783-3.286-5.55-5.07-10.123-5.07-3.364 0-7.038.993-10.619 2.884-6.541 3.473-10.51 9.317-10.51 14.386 0 1.38.295 2.775.992 4.062 1.783 3.27 5.55 4.96 10.123 4.96 3.364 0 7.038-.883 10.619-2.775 6.542-3.472 10.51-9.332 10.51-14.386 0-1.395-.294-2.774-.992-4.061M1087.902 1102.08c-1.783-3.286-5.55-5.07-10.123-5.07-3.364 0-7.038.993-10.619 2.884-6.541 3.473-10.51 9.317-10.51 14.386 0 1.38.295 2.775.992 4.062 1.783 3.27 5.55 4.96 10.123 4.96 3.364 0 7.038-.883 10.619-2.775 6.542-3.472 10.51-9.332 10.51-14.386 0-1.395-.294-2.774-.992-4.061M1359.222 1102.08c-1.783-3.286-5.55-5.07-10.123-5.07-3.364 0-7.038.993-10.619 2.884-6.541 3.473-10.51 9.317-10.51 14.386 0 1.38.295 2.775.992 4.062 1.783 3.27 5.55 4.96 10.123 4.96 3.364 0 7.038-.883 10.619-2.775 6.542-3.472 10.51-9.332 10.51-14.386 0-1.395-.294-2.774-.992-4.061M1630.542 1102.08c-1.783-3.286-5.55-5.07-10.123-5.07-3.364 0-7.038.993-10.619 2.884-6.541 3.473-10.51 9.317-10.51 14.386 0 1.38.295 2.775.992 4.062 1.783 3.27 5.55 4.96 10.123 4.96 3.364 0 7.038-.883 10.619-2.775 6.542-3.472 10.51-9.332 10.51-14.386 0-1.395-.294-2.774-.992-4.061M2021.882 1102.08c-1.783-3.286-5.55-5.07-10.123-5.07-3.364 0-7.038.993-10.619 2.884-6.541 3.473-10.51 9.317-10.51 14.386 0 1.38.295 2.775.992 4.062 1.783 3.27 5.55 4.96 10.123 4.96 3.364 0 7.038-.883 10.619-2.775 6.542-3.472 10.51-9.332 10.51-14.386 0-1.395-.294-2.774-.992-4.061M2169.702 1040.07c-1.783-3.286-5.55-5.07-10.123-5.07-3.364 0-7.038.993-10.619 2.884-6.541 3.473-10.51 9.317-10.51 14.386 0 1.38.295 2.775.992 4.062 1.783 3.27 5.55 4.96 10.123 4.96 3.364 0 7.038-.883 10.619-2.775 6.542-3.472 10.51-9.332 10.51-14.386 0-1.395-.294-2.774-.992-4.061M2317.532 1052.48c-1.783-3.286-5.55-5.07-10.123-5.07-3.364 0-7.038.993-10.619 2.884-6.541 3.473-10.51 9.317-10.51 14.386 0 1.38.295 2.775.992 4.062 1.783 3.27 5.55 4.96 10.123 4.96 3.364 0 7.038-.883 10.619-2.775 6.542-3.472 10.51-9.332 10.51-14.386 0-1.395-.294-2.774-.992-4.061M2554.052 1102.08c-1.783-3.286-5.55-5.07-10.123-5.07-3.364 0-7.038.993-10.619 2.884-6.541 3.473-10.51 9.317-10.51 14.386 0 1.38.295 2.775.992 4.062 1.783 3.27 5.55 4.96 10.123 4.96 3.364 0 7.038-.883 10.619-2.775 6.542-3.472 10.51-9.332 10.51-14.386 0-1.395-.294-2.774-.992-4.061M486.225 1793.34c-1.783-3.286-5.55-5.07-10.123-5.07-3.364 0-7.038.993-10.619 2.884-6.541 3.473-10.51 9.317-10.51 14.386 0 1.38.295 2.775.992 4.062 1.783 3.27 5.55 4.96 10.123 4.96 3.364 0 7.038-.883 10.619-2.775 6.542-3.472 10.51-9.332 10.51-14.386 0-1.395-.294-2.774-.992-4.061M718.912 1793.34c-1.783-3.286-5.55-5.07-10.123-5.07-3.364 0-7.038.993-10.619 2.884-6.541 3.473-10.51 9.317-10.51 14.386 0 1.38.295 2.775.992 4.062 1.783 3.27 5.55 4.96 10.123 4.96 3.364 0 7.038-.883 10.619-2.775 6.542-3.472 10.51-9.332 10.51-14.386 0-1.395-.294-2.774-.992-4.061M864.341 1780.94c-1.783-3.286-5.55-5.07-10.123-5.07-3.364 0-7.038.993-10.619 2.884-6.541 3.473-10.51 9.317-10.51 14.386 0 1.38.295 2.775.992 4.062 1.783 3.27 5.55 4.96 10.123 4.96 3.364 0 7.038-.883 10.619-2.775 6.542-3.472 10.51-9.332 10.51-14.386 0-1.395-.294-2.774-.992-4.061M1009.77 1793.34c-1.783-3.286-5.55-5.07-10.123-5.07-3.364 0-7.038.993-10.619 2.884-6.541 3.473-10.51 9.317-10.51 14.386 0 1.38.295 2.775.992 4.062 1.783 3.27 5.55 4.96 10.123 4.96 3.364 0 7.038-.883 10.619-2.775 6.542-3.472 10.51-9.332 10.51-14.386 0-1.395-.294-2.774-.992-4.061M1351.822 1793.34c-1.783-3.286-5.55-5.07-10.123-5.07-3.364 0-7.038.993-10.619 2.884-6.541 3.473-10.51 9.317-10.51 14.386 0 1.38.295 2.775.992 4.062 1.783 3.27 5.55 4.96 10.123 4.96 3.364 0 7.038-.883 10.619-2.775 6.542-3.472 10.51-9.332 10.51-14.386 0-1.395-.294-2.774-.992-4.061M1570.592 1780.94c-1.783-3.286-5.55-5.07-10.123-5.07-3.364 0-7.038.993-10.619 2.884-6.541 3.473-10.51 9.317-10.51 14.386 0 1.38.295 2.775.992 4.062 1.783 3.27 5.55 4.96 10.123 4.96 3.364 0 7.038-.883 10.619-2.775 6.542-3.472 10.51-9.332 10.51-14.386 0-1.395-.294-2.774-.992-4.061M1789.362 1818.15c-1.783-3.286-5.55-5.07-10.123-5.07-3.364 0-7.038.993-10.619 2.884-6.541 3.473-10.51 9.317-10.51 14.386 0 1.38.295 2.775.992 4.062 1.783 3.27 5.55 4.96 10.123 4.96 3.364 0 7.038-.883 10.619-2.775 6.542-3.472 10.51-9.332 10.51-14.386 0-1.395-.294-2.774-.992-4.061M2056.332 1780.94c-1.783-3.286-5.55-5.07-10.123-5.07-3.364 0-7.038.993-10.619 2.884-6.541 3.473-10.51 9.317-10.51 14.386 0 1.38.295 2.775.992 4.062 1.783 3.27 5.55 4.96 10.123 4.96 3.364 0 7.038-.883 10.619-2.775 6.542-3.472 10.51-9.332 10.51-14.386 0-1.395-.294-2.774-.992-4.061M2301.072 1768.54c-1.783-3.286-5.55-5.07-10.123-5.07-3.364 0-7.038.993-10.619 2.884-6.541 3.473-10.51 9.317-10.51 14.386 0 1.38.295 2.775.992 4.062 1.783 3.27 5.55 4.96 10.123 4.96 3.364 0 7.038-.883 10.619-2.775 6.542-3.472 10.51-9.332 10.51-14.386 0-1.395-.294-2.774-.992-4.061M2545.822 1780.94c-1.783-3.286-5.55-5.07-10.123-5.07-3.364 0-7.038.993-10.619 2.884-6.541 3.473-10.51 9.317-10.51 14.386 0 1.38.295 2.775.992 4.062 1.783 3.27 5.55 4.96 10.123 4.96 3.364 0 7.038-.883 10.619-2.775 6.542-3.472 10.51-9.332 10.51-14.386 0-1.395-.294-2.774-.992-4.061M486.225 2485c-1.783-3.286-5.55-5.07-10.123-5.07-3.364 0-7.038.993-10.619 2.884-6.541 3.473-10.51 9.317-10.51 14.386 0 1.38.295 2.775.992 4.062 1.783 3.27 5.55 4.96 10.123 4.96 3.364 0 7.038-.883 10.619-2.775 6.542-3.472 10.51-9.332 10.51-14.386 0-1.395-.294-2.774-.992-4.061M751.755 2485c-1.783-3.286-5.55-5.07-10.123-5.07-3.364 0-7.038.993-10.619 2.884-6.541 3.473-10.51 9.317-10.51 14.386 0 1.38.295 2.775.992 4.062 1.783 3.27 5.55 4.96 10.123 4.96 3.364 0 7.038-.883 10.619-2.775 6.542-3.472 10.51-9.332 10.51-14.386 0-1.395-.294-2.774-.992-4.061M1017.285 2485c-1.783-3.286-5.55-5.07-10.123-5.07-3.364 0-7.038.993-10.619 2.884-6.541 3.473-10.51 9.317-10.51 14.386 0 1.38.295 2.775.992 4.062 1.783 3.27 5.55 4.96 10.123 4.96 3.364 0 7.038-.883 10.619-2.775 6.542-3.472 10.51-9.332 10.51-14.386 0-1.395-.294-2.774-.992-4.061M1333.502 2472.553c-1.783-3.27-5.55-5.053-10.123-5.053-3.364 0-7.038.992-10.619 2.868-6.541 3.472-10.51 9.332-10.51 14.386 0 1.395.295 2.79.992 4.077 1.783 3.286 5.55 4.976 10.123 4.976 3.364 0 7.038-.9 10.619-2.775 6.542-3.488 10.51-9.348 10.51-14.417 0-1.38-.294-2.775-.992-4.062m-4.263 6.744c-1.69 1.69-5.07 3.767-8.635 5.767-3.565 1.984-7.146 3.472-9.518 3.968-.496.109-.992.202-1.488.202-1.597 0-2.79-.59-3.473-1.892a3.213 3.213 0 0 1-.496-1.69c0-1.084.683-2.387 1.783-3.472 1.69-1.69 4.96-3.767 8.526-5.751 3.581-1.984 7.147-3.472 9.534-3.969.496-.108.992-.201 1.488-.201 1.581 0 2.868.589 3.566 1.876.294.496.403 1.1.403 1.69 0 1.1-.605 2.278-1.69 3.472M1734.802 2485c-1.783-3.286-5.55-5.07-10.123-5.07-3.364 0-7.038.993-10.619 2.884-6.541 3.473-10.51 9.317-10.51 14.386 0 1.38.295 2.775.992 4.062 1.783 3.27 5.55 4.96 10.123 4.96 3.364 0 7.038-.883 10.619-2.775 6.542-3.472 10.51-9.332 10.51-14.386 0-1.395-.294-2.774-.992-4.061M2148.262 2497.353c-1.783-3.27-5.55-5.053-10.123-5.053-3.364 0-7.038.992-10.619 2.868-6.541 3.472-10.51 9.332-10.51 14.386 0 1.395.295 2.79.992 4.077 1.783 3.286 5.55 4.976 10.123 4.976 3.364 0 7.038-.9 10.619-2.775 6.542-3.488 10.51-9.348 10.51-14.417 0-1.38-.294-2.775-.992-4.062m-4.263 6.744c-1.69 1.69-5.07 3.767-8.635 5.767-3.565 1.984-7.146 3.472-9.518 3.968-.496.109-.992.202-1.488.202-1.597 0-2.79-.59-3.473-1.892a3.213 3.213 0 0 1-.496-1.69c0-1.084.683-2.387 1.783-3.472 1.69-1.69 4.96-3.767 8.526-5.751 3.581-1.984 7.147-3.472 9.534-3.969.496-.108.992-.201 1.488-.201 1.581 0 2.868.589 3.566 1.876.294.496.403 1.1.403 1.69 0 1.1-.605 2.278-1.69 3.472M736.726 688.23c-1.783-3.286-5.55-5.07-10.123-5.07-3.364 0-7.038.993-10.619 2.884-6.541 3.473-10.51 9.317-10.51 14.386 0 1.38.295 2.775.992 4.062 1.783 3.27 5.55 4.96 10.123 4.96 3.364 0 7.038-.883 10.619-2.775 6.542-3.472 10.51-9.332 10.51-14.386 0-1.395-.294-2.774-.992-4.061M1087.902 713.033c-1.783-3.286-5.55-5.07-10.123-5.07-3.364 0-7.038.993-10.619 2.884-6.541 3.473-10.51 9.317-10.51 14.386 0 1.38.295 2.775.992 4.062 1.783 3.27 5.55 4.96 10.123 4.96 3.364 0 7.038-.883 10.619-2.775 6.542-3.472 10.51-9.332 10.51-14.386 0-1.395-.294-2.774-.992-4.061M1359.222 713.033c-1.783-3.286-5.55-5.07-10.123-5.07-3.364 0-7.038.993-10.619 2.884-6.541 3.473-10.51 9.317-10.51 14.386 0 1.38.295 2.775.992 4.062 1.783 3.27 5.55 4.96 10.123 4.96 3.364 0 7.038-.883 10.619-2.775 6.542-3.472 10.51-9.332 10.51-14.386 0-1.395-.294-2.774-.992-4.061M1630.542 700.631c-1.783-3.286-5.55-5.07-10.123-5.07-3.364 0-7.038.993-10.619 2.884-6.541 3.473-10.51 9.317-10.51 14.386 0 1.38.295 2.775.992 4.062 1.783 3.27 5.55 4.96 10.123 4.96 3.364 0 7.038-.883 10.619-2.775 6.542-3.472 10.51-9.332 10.51-14.386 0-1.395-.294-2.774-.992-4.061M2021.882 713.033c-1.783-3.286-5.55-5.07-10.123-5.07-3.364 0-7.038.993-10.619 2.884-6.541 3.473-10.51 9.317-10.51 14.386 0 1.38.295 2.775.992 4.062 1.783 3.27 5.55 4.96 10.123 4.96 3.364 0 7.038-.883 10.619-2.775 6.542-3.472 10.51-9.332 10.51-14.386 0-1.395-.294-2.774-.992-4.061M2169.702 688.23c-1.783-3.286-5.55-5.07-10.123-5.07-3.364 0-7.038.993-10.619 2.884-6.541 3.473-10.51 9.317-10.51 14.386 0 1.38.295 2.775.992 4.062 1.783 3.27 5.55 4.96 10.123 4.96 3.364 0 7.038-.883 10.619-2.775 6.542-3.472 10.51-9.332 10.51-14.386 0-1.395-.294-2.774-.992-4.061M2317.532 688.23c-1.783-3.286-5.55-5.07-10.123-5.07-3.364 0-7.038.993-10.619 2.884-6.541 3.473-10.51 9.317-10.51 14.386 0 1.38.295 2.775.992 4.062 1.783 3.27 5.55 4.96 10.123 4.96 3.364 0 7.038-.883 10.619-2.775 6.542-3.472 10.51-9.332 10.51-14.386 0-1.395-.294-2.774-.992-4.061M2554.052 688.23c-1.783-3.286-5.55-5.07-10.123-5.07-3.364 0-7.038.993-10.619 2.884-6.541 3.473-10.51 9.317-10.51 14.386 0 1.38.295 2.775.992 4.062 1.783 3.27 5.55 4.96 10.123 4.96 3.364 0 7.038-.883 10.619-2.775 6.542-3.472 10.51-9.332 10.51-14.386 0-1.395-.294-2.774-.992-4.061M486.225 1449.33c-1.783-3.286-5.55-5.07-10.123-5.07-3.364 0-7.038.993-10.619 2.884-6.541 3.473-10.51 9.317-10.51 14.386 0 1.38.295 2.775.992 4.062 1.783 3.27 5.55 4.96 10.123 4.96 3.364 0 7.038-.883 10.619-2.775 6.542-3.472 10.51-9.332 10.51-14.386 0-1.395-.294-2.774-.992-4.061M718.912 1449.33c-1.783-3.286-5.55-5.07-10.123-5.07-3.364 0-7.038.993-10.619 2.884-6.541 3.473-10.51 9.317-10.51 14.386 0 1.38.295 2.775.992 4.062 1.783 3.27 5.55 4.96 10.123 4.96 3.364 0 7.038-.883 10.619-2.775 6.542-3.472 10.51-9.332 10.51-14.386 0-1.395-.294-2.774-.992-4.061M1009.77 1449.33c-1.783-3.286-5.55-5.07-10.123-5.07-3.364 0-7.038.993-10.619 2.884-6.541 3.473-10.51 9.317-10.51 14.386 0 1.38.295 2.775.992 4.062 1.783 3.27 5.55 4.96 10.123 4.96 3.364 0 7.038-.883 10.619-2.775 6.542-3.472 10.51-9.332 10.51-14.386 0-1.395-.294-2.774-.992-4.061M1351.822 1449.283c-1.783-3.27-5.55-5.053-10.123-5.053-3.364 0-7.038.992-10.619 2.868-6.541 3.472-10.51 9.332-10.51 14.386 0 1.395.295 2.79.992 4.077 1.783 3.286 5.55 4.976 10.123 4.976 3.364 0 7.038-.9 10.619-2.775 6.542-3.488 10.51-9.348 10.51-14.417 0-1.38-.294-2.775-.992-4.062m-4.263 6.744c-1.69 1.69-5.07 3.767-8.635 5.767-3.565 1.984-7.146 3.472-9.518 3.968-.496.109-.992.202-1.488.202-1.597 0-2.79-.59-3.473-1.892a3.213 3.213 0 0 1-.496-1.69c0-1.084.683-2.387 1.783-3.472 1.69-1.69 4.96-3.767 8.526-5.751 3.581-1.984 7.147-3.472 9.534-3.969.496-.108.992-.201 1.488-.201 1.581 0 2.868.589 3.566 1.876.294.496.403 1.1.403 1.69 0 1.1-.605 2.278-1.69 3.472M1789.362 1449.33c-1.783-3.286-5.55-5.07-10.123-5.07-3.364 0-7.038.993-10.619 2.884-6.541 3.473-10.51 9.317-10.51 14.386 0 1.38.295 2.775.992 4.062 1.783 3.27 5.55 4.96 10.123 4.96 3.364 0 7.038-.883 10.619-2.775 6.542-3.472 10.51-9.332 10.51-14.386 0-1.395-.294-2.774-.992-4.061M2056.332 1449.33c-1.783-3.286-5.55-5.07-10.123-5.07-3.364 0-7.038.993-10.619 2.884-6.541 3.473-10.51 9.317-10.51 14.386 0 1.38.295 2.775.992 4.062 1.783 3.27 5.55 4.96 10.123 4.96 3.364 0 7.038-.883 10.619-2.775 6.542-3.472 10.51-9.332 10.51-14.386 0-1.395-.294-2.774-.992-4.061M2301.072 1449.33c-1.783-3.286-5.55-5.07-10.123-5.07-3.364 0-7.038.993-10.619 2.884-6.541 3.473-10.51 9.317-10.51 14.386 0 1.38.295 2.775.992 4.062 1.783 3.27 5.55 4.96 10.123 4.96 3.364 0 7.038-.883 10.619-2.775 6.542-3.472 10.51-9.332 10.51-14.386 0-1.395-.294-2.774-.992-4.061M2545.822 1436.93c-1.783-3.286-5.55-5.07-10.123-5.07-3.364 0-7.038.993-10.619 2.884-6.541 3.473-10.51 9.317-10.51 14.386 0 1.38.295 2.775.992 4.062 1.783 3.27 5.55 4.96 10.123 4.96 3.364 0 7.038-.883 10.619-2.775 6.542-3.472 10.51-9.332 10.51-14.386 0-1.395-.294-2.774-.992-4.061M486.225 2152.99c-1.783-3.286-5.55-5.07-10.123-5.07-3.364 0-7.038.993-10.619 2.884-6.541 3.473-10.51 9.317-10.51 14.386 0 1.38.295 2.775.992 4.062 1.783 3.27 5.55 4.96 10.123 4.96 3.364 0 7.038-.883 10.619-2.775 6.542-3.472 10.51-9.332 10.51-14.386 0-1.395-.294-2.774-.992-4.061M751.755 2152.99c-1.783-3.286-5.55-5.07-10.123-5.07-3.364 0-7.038.993-10.619 2.884-6.541 3.473-10.51 9.317-10.51 14.386 0 1.38.295 2.775.992 4.062 1.783 3.27 5.55 4.96 10.123 4.96 3.364 0 7.038-.883 10.619-2.775 6.542-3.472 10.51-9.332 10.51-14.386 0-1.395-.294-2.774-.992-4.061M1017.285 2152.99c-1.783-3.286-5.55-5.07-10.123-5.07-3.364 0-7.038.993-10.619 2.884-6.541 3.473-10.51 9.317-10.51 14.386 0 1.38.295 2.775.992 4.062 1.783 3.27 5.55 4.96 10.123 4.96 3.364 0 7.038-.883 10.619-2.775 6.542-3.472 10.51-9.332 10.51-14.386 0-1.395-.294-2.774-.992-4.061M1333.502 2165.343c-1.783-3.27-5.55-5.053-10.123-5.053-3.364 0-7.038.992-10.619 2.868-6.541 3.472-10.51 9.332-10.51 14.386 0 1.395.295 2.79.992 4.077 1.783 3.286 5.55 4.976 10.123 4.976 3.364 0 7.038-.9 10.619-2.775 6.542-3.488 10.51-9.348 10.51-14.417 0-1.38-.294-2.775-.992-4.062m-4.263 6.744c-1.69 1.69-5.07 3.767-8.635 5.767-3.565 1.984-7.146 3.472-9.518 3.968-.496.109-.992.202-1.488.202-1.597 0-2.79-.59-3.473-1.892a3.213 3.213 0 0 1-.496-1.69c0-1.084.683-2.387 1.783-3.472 1.69-1.69 4.96-3.767 8.526-5.751 3.581-1.984 7.147-3.472 9.534-3.969.496-.108.992-.201 1.488-.201 1.581 0 2.868.589 3.566 1.876.294.496.403 1.1.403 1.69 0 1.1-.605 2.278-1.69 3.472M1734.802 2177.79c-1.783-3.286-5.55-5.07-10.123-5.07-3.364 0-7.038.993-10.619 2.884-6.541 3.473-10.51 9.317-10.51 14.386 0 1.38.295 2.775.992 4.062 1.783 3.27 5.55 4.96 10.123 4.96 3.364 0 7.038-.883 10.619-2.775 6.542-3.472 10.51-9.332 10.51-14.386 0-1.395-.294-2.774-.992-4.061M2148.262 2190.143c-1.783-3.27-5.55-5.053-10.123-5.053-3.364 0-7.038.992-10.619 2.868-6.541 3.472-10.51 9.332-10.51 14.386 0 1.395.295 2.79.992 4.077 1.783 3.286 5.55 4.976 10.123 4.976 3.364 0 7.038-.9 10.619-2.775 6.542-3.488 10.51-9.348 10.51-14.417 0-1.38-.294-2.775-.992-4.062m-4.263 6.744c-1.69 1.69-5.07 3.767-8.635 5.767-3.565 1.984-7.146 3.472-9.518 3.968-.496.109-.992.202-1.488.202-1.597 0-2.79-.59-3.473-1.892a3.213 3.213 0 0 1-.496-1.69c0-1.084.683-2.387 1.783-3.472 1.69-1.69 4.96-3.767 8.526-5.751 3.581-1.984 7.147-3.472 9.534-3.969.496-.108.992-.201 1.488-.201 1.581 0 2.868.589 3.566 1.876.294.496.403 1.1.403 1.69 0 1.1-.605 2.278-1.69 3.472M1087.902 651.025c-1.783-3.286-5.55-5.07-10.123-5.07-3.364 0-7.038.993-10.619 2.884-6.541 3.473-10.51 9.317-10.51 14.386 0 1.38.295 2.775.992 4.062 1.783 3.27 5.55 4.96 10.123 4.96 3.364 0 7.038-.883 10.619-2.775 6.542-3.472 10.51-9.332 10.51-14.386 0-1.395-.294-2.774-.992-4.061M1359.222 651.025c-1.783-3.286-5.55-5.07-10.123-5.07-3.364 0-7.038.993-10.619 2.884-6.541 3.473-10.51 9.317-10.51 14.386 0 1.38.295 2.775.992 4.062 1.783 3.27 5.55 4.96 10.123 4.96 3.364 0 7.038-.883 10.619-2.775 6.542-3.472 10.51-9.332 10.51-14.386 0-1.395-.294-2.774-.992-4.061M1630.542 626.222c-1.783-3.286-5.55-5.07-10.123-5.07-3.364 0-7.038.993-10.619 2.884-6.541 3.473-10.51 9.317-10.51 14.386 0 1.38.295 2.775.992 4.062 1.783 3.27 5.55 4.96 10.123 4.96 3.364 0 7.038-.883 10.619-2.775 6.542-3.472 10.51-9.332 10.51-14.386 0-1.395-.294-2.774-.992-4.061M1800.112 638.624c-1.783-3.286-5.55-5.07-10.123-5.07-3.364 0-7.038.993-10.619 2.884-6.541 3.473-10.51 9.317-10.51 14.386 0 1.38.295 2.775.992 4.062 1.783 3.27 5.55 4.96 10.123 4.96 3.364 0 7.038-.883 10.619-2.775 6.542-3.472 10.51-9.332 10.51-14.386 0-1.395-.294-2.774-.992-4.061M2021.882 651.025c-1.783-3.286-5.55-5.07-10.123-5.07-3.364 0-7.038.993-10.619 2.884-6.541 3.473-10.51 9.317-10.51 14.386 0 1.38.295 2.775.992 4.062 1.783 3.27 5.55 4.96 10.123 4.96 3.364 0 7.038-.883 10.619-2.775 6.542-3.472 10.51-9.332 10.51-14.386 0-1.395-.294-2.774-.992-4.061"
     id="path24" />
  <path
     class="Note"
     d="M2317.532 663.427c-1.783-3.286-5.55-5.07-10.123-5.07-3.364 0-7.038.993-10.619 2.884-6.541 3.473-10.51 9.317-10.51 14.386 0 1.38.295 2.775.992 4.062 1.783 3.27 5.55 4.96 10.123 4.96 3.364 0 7.038-.883 10.619-2.775 6.542-3.472 10.51-9.332 10.51-14.386 0-1.395-.294-2.774-.992-4.061M2554.052 688.23c-1.783-3.286-5.55-5.07-10.123-5.07-3.364 0-7.038.993-10.619 2.884-6.541 3.473-10.51 9.317-10.51 14.386 0 1.38.295 2.775.992 4.062 1.783 3.27 5.55 4.96 10.123 4.96 3.364 0 7.038-.883 10.619-2.775 6.542-3.472 10.51-9.332 10.51-14.386 0-1.395-.294-2.774-.992-4.061M486.225 1399.72c-1.783-3.286-5.55-5.07-10.123-5.07-3.364 0-7.038.993-10.619 2.884-6.541 3.473-10.51 9.317-10.51 14.386 0 1.38.295 2.775.992 4.062 1.783 3.27 5.55 4.96 10.123 4.96 3.364 0 7.038-.883 10.619-2.775 6.542-3.472 10.51-9.332 10.51-14.386 0-1.395-.294-2.774-.992-4.061M718.912 1399.72c-1.783-3.286-5.55-5.07-10.123-5.07-3.364 0-7.038.993-10.619 2.884-6.541 3.473-10.51 9.317-10.51 14.386 0 1.38.295 2.775.992 4.062 1.783 3.27 5.55 4.96 10.123 4.96 3.364 0 7.038-.883 10.619-2.775 6.542-3.472 10.51-9.332 10.51-14.386 0-1.395-.294-2.774-.992-4.061M864.341 1387.32c-1.783-3.286-5.55-5.07-10.123-5.07-3.364 0-7.038.993-10.619 2.884-6.541 3.473-10.51 9.317-10.51 14.386 0 1.38.295 2.775.992 4.062 1.783 3.27 5.55 4.96 10.123 4.96 3.364 0 7.038-.883 10.619-2.775 6.542-3.472 10.51-9.332 10.51-14.386 0-1.395-.294-2.774-.992-4.061M1009.77 1374.92c-1.783-3.286-5.55-5.07-10.123-5.07-3.364 0-7.038.993-10.619 2.884-6.541 3.473-10.51 9.317-10.51 14.386 0 1.38.295 2.775.992 4.062 1.783 3.27 5.55 4.96 10.123 4.96 3.364 0 7.038-.883 10.619-2.775 6.542-3.472 10.51-9.332 10.51-14.386 0-1.395-.294-2.774-.992-4.061M1155.202 1399.72c-1.783-3.286-5.55-5.07-10.123-5.07-3.364 0-7.038.993-10.619 2.884-6.541 3.473-10.51 9.317-10.51 14.386 0 1.38.295 2.775.992 4.062 1.783 3.27 5.55 4.96 10.123 4.96 3.364 0 7.038-.883 10.619-2.775 6.542-3.472 10.51-9.332 10.51-14.386 0-1.395-.294-2.774-.992-4.061M1351.822 1399.72c-1.783-3.286-5.55-5.07-10.123-5.07-3.364 0-7.038.993-10.619 2.884-6.541 3.473-10.51 9.317-10.51 14.386 0 1.38.295 2.775.992 4.062 1.783 3.27 5.55 4.96 10.123 4.96 3.364 0 7.038-.883 10.619-2.775 6.542-3.472 10.51-9.332 10.51-14.386 0-1.395-.294-2.774-.992-4.061M1570.592 1412.12c-1.783-3.286-5.55-5.07-10.123-5.07-3.364 0-7.038.993-10.619 2.884-6.541 3.473-10.51 9.317-10.51 14.386 0 1.38.295 2.775.992 4.062 1.783 3.27 5.55 4.96 10.123 4.96 3.364 0 7.038-.883 10.619-2.775 6.542-3.472 10.51-9.332 10.51-14.386 0-1.395-.294-2.774-.992-4.061M1789.362 1449.33c-1.783-3.286-5.55-5.07-10.123-5.07-3.364 0-7.038.993-10.619 2.884-6.541 3.473-10.51 9.317-10.51 14.386 0 1.38.295 2.775.992 4.062 1.783 3.27 5.55 4.96 10.123 4.96 3.364 0 7.038-.883 10.619-2.775 6.542-3.472 10.51-9.332 10.51-14.386 0-1.395-.294-2.774-.992-4.061M2056.332 1387.32c-1.783-3.286-5.55-5.07-10.123-5.07-3.364 0-7.038.993-10.619 2.884-6.541 3.473-10.51 9.317-10.51 14.386 0 1.38.295 2.775.992 4.062 1.783 3.27 5.55 4.96 10.123 4.96 3.364 0 7.038-.883 10.619-2.775 6.542-3.472 10.51-9.332 10.51-14.386 0-1.395-.294-2.774-.992-4.061M2301.072 1387.32c-1.783-3.286-5.55-5.07-10.123-5.07-3.364 0-7.038.993-10.619 2.884-6.541 3.473-10.51 9.317-10.51 14.386 0 1.38.295 2.775.992 4.062 1.783 3.27 5.55 4.96 10.123 4.96 3.364 0 7.038-.883 10.619-2.775 6.542-3.472 10.51-9.332 10.51-14.386 0-1.395-.294-2.774-.992-4.061M2545.822 1387.32c-1.783-3.286-5.55-5.07-10.123-5.07-3.364 0-7.038.993-10.619 2.884-6.541 3.473-10.51 9.317-10.51 14.386 0 1.38.295 2.775.992 4.062 1.783 3.27 5.55 4.96 10.123 4.96 3.364 0 7.038-.883 10.619-2.775 6.542-3.472 10.51-9.332 10.51-14.386 0-1.395-.294-2.774-.992-4.061M486.225 2128.18c-1.783-3.286-5.55-5.07-10.123-5.07-3.364 0-7.038.993-10.619 2.884-6.541 3.473-10.51 9.317-10.51 14.386 0 1.38.295 2.775.992 4.062 1.783 3.27 5.55 4.96 10.123 4.96 3.364 0 7.038-.883 10.619-2.775 6.542-3.472 10.51-9.332 10.51-14.386 0-1.395-.294-2.774-.992-4.061M751.755 2090.98c-1.783-3.286-5.55-5.07-10.123-5.07-3.364 0-7.038.993-10.619 2.884-6.541 3.473-10.51 9.317-10.51 14.386 0 1.38.295 2.775.992 4.062 1.783 3.27 5.55 4.96 10.123 4.96 3.364 0 7.038-.883 10.619-2.775 6.542-3.472 10.51-9.332 10.51-14.386 0-1.395-.294-2.774-.992-4.061M1017.285 2115.78c-1.783-3.286-5.55-5.07-10.123-5.07-3.364 0-7.038.993-10.619 2.884-6.541 3.473-10.51 9.317-10.51 14.386 0 1.38.295 2.775.992 4.062 1.783 3.27 5.55 4.96 10.123 4.96 3.364 0 7.038-.883 10.619-2.775 6.542-3.472 10.51-9.332 10.51-14.386 0-1.395-.294-2.774-.992-4.061M1333.502 2128.133c-1.783-3.27-5.55-5.053-10.123-5.053-3.364 0-7.038.992-10.619 2.868-6.541 3.472-10.51 9.332-10.51 14.386 0 1.395.295 2.79.992 4.077 1.783 3.286 5.55 4.976 10.123 4.976 3.364 0 7.038-.9 10.619-2.775 6.542-3.488 10.51-9.348 10.51-14.417 0-1.38-.294-2.775-.992-4.062m-4.263 6.744c-1.69 1.69-5.07 3.767-8.635 5.767-3.565 1.984-7.146 3.472-9.518 3.968-.496.109-.992.202-1.488.202-1.597 0-2.79-.59-3.473-1.892a3.213 3.213 0 0 1-.496-1.69c0-1.084.683-2.387 1.783-3.472 1.69-1.69 4.96-3.767 8.526-5.751 3.581-1.984 7.147-3.472 9.534-3.969.496-.108.992-.201 1.488-.201 1.581 0 2.868.589 3.566 1.876.294.496.403 1.1.403 1.69 0 1.1-.605 2.278-1.69 3.472M1734.802 2140.59c-1.783-3.286-5.55-5.07-10.123-5.07-3.364 0-7.038.993-10.619 2.884-6.541 3.473-10.51 9.317-10.51 14.386 0 1.38.295 2.775.992 4.062 1.783 3.27 5.55 4.96 10.123 4.96 3.364 0 7.038-.883 10.619-2.775 6.542-3.472 10.51-9.332 10.51-14.386 0-1.395-.294-2.774-.992-4.061M2148.262 2128.133c-1.783-3.27-5.55-5.053-10.123-5.053-3.364 0-7.038.992-10.619 2.868-6.541 3.472-10.51 9.332-10.51 14.386 0 1.395.295 2.79.992 4.077 1.783 3.286 5.55 4.976 10.123 4.976 3.364 0 7.038-.9 10.619-2.775 6.542-3.488 10.51-9.348 10.51-14.417 0-1.38-.294-2.775-.992-4.062m-4.263 6.744c-1.69 1.69-5.07 3.767-8.635 5.767-3.565 1.984-7.146 3.472-9.518 3.968-.496.109-.992.202-1.488.202-1.597 0-2.79-.59-3.473-1.892a3.213 3.213 0 0 1-.496-1.69c0-1.084.683-2.387 1.783-3.472 1.69-1.69 4.96-3.767 8.526-5.751 3.581-1.984 7.147-3.472 9.534-3.969.496-.108.992-.201 1.488-.201 1.581 0 2.868.589 3.566 1.876.294.496.403 1.1.403 1.69 0 1.1-.605 2.278-1.69 3.472M736.726 688.23c-1.783-3.286-5.55-5.07-10.123-5.07-3.364 0-7.038.993-10.619 2.884-6.541 3.473-10.51 9.317-10.51 14.386 0 1.38.295 2.775.992 4.062 1.783 3.27 5.55 4.96 10.123 4.96 3.364 0 7.038-.883 10.619-2.775 6.542-3.472 10.51-9.332 10.51-14.386 0-1.395-.294-2.774-.992-4.061"
     id="path26" />
  <path
     class="Clef"
     d="M406.568 1085.214c-7.55 0-13.595 4.356-13.703 4.356-5.752 4.263-8.03 9.332-8.93 12.805-.496 1.782-.682 3.565-.682 5.255 0 2.387.388 4.557 1.287 6.449 1.194 2.681 3.472 4.557 6.449 5.55 1.193.402 2.48.604 3.767.604 2.185 0 4.464-.605 6.356-1.69 3.069-1.69 4.96-5.255 4.96-9.13 0-3.473-1.798-6.65-4.774-8.527-2.078-1.395-4.062-1.782-5.752-1.782-1.193 0-2.278.186-3.178.496-.992.387-2.666 1.38-3.472 2.077.31-1.891 1.488-4.76 2.589-6.356 1.085-1.581 3.27-3.565 4.96-4.464 2.48-1.38 5.659-1.985 9.131-1.985 10.123 0 15.084 8.139 15.084 24.803 0 9.24-3.473 18.06-6.45 23.92-3.286 6.542-7.642 12.805-11.517 16.277-10.325 9.425-20.044 13.89-20.137 13.89 0 0-1.489.883-1.101 2.372.31.992 1.194 1.193 1.798 1.193.093 0 .388-.093.496-.093.093 0 11.41-4.666 20.432-11.72 5.07-3.658 9.627-7.626 13.595-11.905a73.567 73.567 0 0 0 9.13-12.2c4.357-7.44 6.837-15.176 6.837-21.827 0-8.231-2.17-15.083-6.247-19.935-4.666-5.565-11.704-8.433-20.928-8.433m31.144 12.587c0 2.79 2.185 4.961 4.774 4.961 2.574 0 4.76-2.17 4.76-4.96 0-2.775-2.186-5.054-4.76-5.054-2.589 0-4.774 2.279-4.774 5.053m0 24.51c0 2.774 2.185 5.068 4.774 5.068 2.574 0 4.76-2.294 4.76-5.069s-2.186-5.054-4.76-5.054c-2.589 0-4.774 2.28-4.774 5.054M282.552 1801.284c-7.55 0-13.595 4.356-13.703 4.356-5.752 4.263-8.03 9.332-8.93 12.805-.496 1.782-.682 3.565-.682 5.255 0 2.387.388 4.557 1.287 6.449 1.194 2.681 3.472 4.557 6.449 5.55 1.193.402 2.48.604 3.767.604 2.185 0 4.464-.605 6.356-1.69 3.069-1.69 4.96-5.255 4.96-9.13 0-3.473-1.798-6.65-4.774-8.527-2.078-1.395-4.062-1.782-5.752-1.782-1.193 0-2.278.186-3.178.496-.992.387-2.666 1.38-3.472 2.077.31-1.891 1.488-4.76 2.589-6.356 1.085-1.581 3.27-3.565 4.96-4.464 2.48-1.38 5.659-1.985 9.131-1.985 10.123 0 15.084 8.139 15.084 24.803 0 9.24-3.473 18.06-6.45 23.92-3.286 6.542-7.642 12.805-11.517 16.277-10.325 9.425-20.044 13.89-20.137 13.89 0 0-1.489.883-1.101 2.372.31.992 1.194 1.193 1.798 1.193.093 0 .388-.093.496-.093.093 0 11.41-4.666 20.432-11.72 5.07-3.658 9.627-7.626 13.595-11.905a73.567 73.567 0 0 0 9.13-12.2c4.357-7.44 6.837-15.176 6.837-21.827 0-8.231-2.17-15.083-6.247-19.935-4.666-5.565-11.704-8.433-20.928-8.433m31.144 12.587c0 2.79 2.185 4.961 4.774 4.961 2.574 0 4.76-2.17 4.76-4.96 0-2.775-2.186-5.054-4.76-5.054-2.589 0-4.774 2.279-4.774 5.053m0 24.51c0 2.774 2.185 5.068 4.774 5.068 2.574 0 4.76-2.294 4.76-5.069s-2.186-5.054-4.76-5.054c-2.589 0-4.774 2.28-4.774 5.054M282.552 2517.744c-7.55 0-13.595 4.356-13.703 4.356-5.752 4.263-8.03 9.332-8.93 12.805-.496 1.782-.682 3.565-.682 5.255 0 2.387.388 4.557 1.287 6.449 1.194 2.681 3.472 4.557 6.449 5.55 1.193.402 2.48.604 3.767.604 2.185 0 4.464-.605 6.356-1.69 3.069-1.69 4.96-5.255 4.96-9.13 0-3.473-1.798-6.65-4.774-8.527-2.078-1.395-4.062-1.782-5.752-1.782-1.193 0-2.278.186-3.178.496-.992.387-2.666 1.38-3.472 2.077.31-1.891 1.488-4.76 2.589-6.356 1.085-1.581 3.27-3.565 4.96-4.464 2.48-1.38 5.659-1.985 9.131-1.985 10.123 0 15.084 8.139 15.084 24.803 0 9.24-3.473 18.06-6.45 23.92-3.286 6.542-7.642 12.805-11.517 16.277-10.325 9.425-20.044 13.89-20.137 13.89 0 0-1.489.883-1.101 2.372.31.992 1.194 1.193 1.798 1.193.093 0 .388-.093.496-.093.093 0 11.41-4.666 20.432-11.72 5.07-3.658 9.627-7.626 13.595-11.905a73.567 73.567 0 0 0 9.13-12.2c4.357-7.44 6.837-15.176 6.837-21.827 0-8.231-2.17-15.083-6.247-19.935-4.666-5.565-11.704-8.433-20.928-8.433m31.144 12.587c0 2.79 2.185 4.961 4.774 4.961 2.574 0 4.76-2.17 4.76-4.96 0-2.775-2.186-5.054-4.76-5.054-2.589 0-4.774 2.279-4.774 5.053m0 24.51c0 2.774 2.185 5.068 4.774 5.068 2.574 0 4.76-2.294 4.76-5.069s-2.186-5.054-4.76-5.054c-2.589 0-4.774 2.28-4.774 5.054M444.223 677.983c-1.225-5.38-3.845-9.177-4.62-10.2-3.163-4.248-7.147-7.07-11.797-8.418-3.085-.868-6.061-.992-8.464-.806a2314.44 2314.44 0 0 1-2.93-17.207c5.41-6.124 9.007-11.875 11.27-16.138 3.441-6.526 4.573-11.068 4.635-11.27 1.705-5.178 2.062-12.82.961-20.959-.992-7.487-3.07-14.152-5.41-17.377-1.008-1.41-2.062-2.14-3.085-2.14-1.21 0-3.705 1.225-6.573 3.984-2.279 2.17-5.519 6.03-8.06 11.999-2.977 7.007-3.194 16.417-2.838 23.082.372 7.224 1.473 12.867 1.489 12.914.015.093.279 1.58.713 4.123-.217.233-.465.45-.713.698-1.024.992-2.202 2.108-3.581 3.488-.853.852-1.799 1.751-2.79 2.713-8.372 8.076-21.068 20.307-21.068 39.312 0 4.667.9 9.054 2.666 13.038 1.566 3.565 3.845 6.82 6.76 9.673 7.673 7.503 18.183 10.68 25.174 10.526 2.93-.078 5.55-.31 7.922-.76 1.814 9.534 2.945 16.51 2.976 21.811.047 6.465-1.596 10.418-5.456 13.162-2.419 1.72-5.21 2.666-8.278 2.805-2.574.124-4.822-.34-6.232-.744h-.016s-.279-.093-.294-.279c-.016-.186.34-.232.34-.232h.032c1.907-.434 5.441-1.659 7.782-4.93 1.782-2.511 2.65-7.1.821-11.006-1.1-2.372-3.58-5.302-9.161-5.751-2.48-.202-4.728.31-6.713 1.503-1.798 1.07-3.286 2.698-4.325 4.682-2.433 4.666-1.984 10.355 1.116 14.169 2.946 3.596 7.519 5.89 12.914 6.464.852.093 1.69.124 2.526.124 4.403 0 8.759-1.194 12.309-3.38 3.627-2.557 5.736-6.51 6.402-12.091.558-4.604.17-10.48-1.209-18.494-.356-2.077-.899-5.085-1.55-8.805 5.705-1.907 9.828-5.457 13.564-11.27 3.271-5.69 4.201-11.75 2.79-18.013m-33.949 26.012c-4.604-1.21-9.006-3.69-12.727-7.177-1.302-1.21-3.162-3.364-4.62-6.728-1.348-3.147-2.015-6.558-1.953-10.107.062-4.667 1.364-9.457 3.845-14.2 2.899-5.535 7.425-11.022 13.44-16.308a89.217 89.217 0 0 0 4.077-3.814c.76 4.232 1.581 8.883 2.45 13.72-3.814 1.255-8.527 4.386-11.612 9.998-3.519 6.511-3.38 11.999-2.65 15.456.93 4.418 3.44 8.154 6.867 10.23.93.559 5.022 2.667 6.852 2.094a1.16 1.16 0 0 0 .775-.667c.511-1.163-.512-1.798-2.046-2.744a27.277 27.277 0 0 1-1.985-1.317c-3.302-2.465-4.743-6.883-3.674-11.24a12.438 12.438 0 0 1 3.674-6.216c1.643-1.534 3.674-2.62 6.03-3.255 2.031 11.161 4.078 22.23 5.705 30.523.124.682.264 1.349.388 2.016-4.34.93-8.65.837-12.836-.264m11.24-32.942c10.261-.465 14.493 6.914 15.377 11.704.465 2.527.465 6.93-1.07 11.115-1.162 3.147-3.596 7.193-8.696 9.24-.062-.42-.14-.853-.217-1.272a12578.27 12578.27 0 0 1-5.395-30.787m-7.27-70.394c1.767-5.69 4.48-8.914 6.464-10.634 1.736-1.504 3.364-2.217 4.279-2.217.14 0 .263.03.356.062.465.14.992.697 1.457 1.565 2.295 4.248 1.55 10.914.217 15.316-1.612 5.364-4.51 10.93-13.238 20.463-.17-1.1-.326-2.14-.48-3.116-1.241-8.216-.916-15.44.945-21.44M320.207 1439.085c-1.225-5.38-3.845-9.177-4.62-10.2-3.163-4.248-7.147-7.07-11.797-8.418-3.085-.868-6.061-.992-8.464-.806a2314.44 2314.44 0 0 1-2.93-17.207c5.41-6.124 9.007-11.875 11.27-16.138 3.441-6.526 4.573-11.068 4.635-11.27 1.705-5.178 2.062-12.82.961-20.959-.992-7.487-3.07-14.152-5.41-17.377-1.008-1.41-2.062-2.14-3.085-2.14-1.21 0-3.705 1.225-6.573 3.984-2.279 2.17-5.519 6.03-8.06 11.999-2.977 7.007-3.194 16.417-2.838 23.082.372 7.224 1.473 12.867 1.489 12.914.015.093.279 1.58.713 4.123-.217.233-.465.45-.713.698-1.024.992-2.202 2.108-3.581 3.488-.853.852-1.799 1.751-2.79 2.713-8.372 8.076-21.068 20.307-21.068 39.312 0 4.667.9 9.054 2.666 13.038 1.566 3.565 3.845 6.82 6.76 9.673 7.673 7.503 18.183 10.68 25.174 10.526 2.93-.078 5.55-.31 7.922-.76 1.814 9.534 2.945 16.51 2.976 21.811.047 6.465-1.596 10.418-5.456 13.162-2.419 1.72-5.21 2.666-8.278 2.805-2.574.124-4.822-.34-6.232-.744h-.016s-.279-.093-.294-.279c-.016-.186.34-.232.34-.232h.032c1.907-.434 5.441-1.659 7.782-4.93 1.782-2.511 2.65-7.1.821-11.006-1.1-2.372-3.58-5.302-9.161-5.751-2.48-.202-4.728.31-6.713 1.503-1.798 1.07-3.286 2.698-4.325 4.682-2.433 4.666-1.984 10.355 1.116 14.169 2.946 3.596 7.519 5.89 12.914 6.464.852.093 1.69.124 2.526.124 4.403 0 8.759-1.194 12.309-3.38 3.627-2.557 5.736-6.51 6.402-12.091.558-4.604.17-10.48-1.209-18.494-.356-2.077-.899-5.085-1.55-8.805 5.705-1.907 9.828-5.457 13.564-11.27 3.271-5.69 4.201-11.75 2.79-18.013m-33.949 26.012c-4.604-1.21-9.006-3.69-12.727-7.177-1.302-1.21-3.162-3.364-4.62-6.728-1.348-3.147-2.015-6.558-1.953-10.107.062-4.667 1.364-9.457 3.845-14.2 2.899-5.535 7.425-11.022 13.44-16.308a89.217 89.217 0 0 0 4.077-3.814c.76 4.232 1.581 8.883 2.45 13.72-3.814 1.255-8.527 4.386-11.612 9.998-3.519 6.511-3.38 11.999-2.65 15.456.93 4.418 3.44 8.154 6.867 10.23.93.559 5.022 2.667 6.852 2.094a1.16 1.16 0 0 0 .775-.667c.511-1.163-.512-1.798-2.046-2.744a27.277 27.277 0 0 1-1.985-1.317c-3.302-2.465-4.743-6.883-3.674-11.24a12.438 12.438 0 0 1 3.674-6.216c1.643-1.534 3.674-2.62 6.03-3.255 2.031 11.161 4.078 22.23 5.705 30.523.124.682.264 1.349.388 2.016-4.34.93-8.65.837-12.836-.264m11.24-32.942c10.261-.465 14.493 6.914 15.377 11.704.465 2.527.465 6.93-1.07 11.115-1.162 3.147-3.596 7.193-8.696 9.24-.062-.42-.14-.853-.217-1.272a12578.27 12578.27 0 0 1-5.395-30.787m-7.27-70.394c1.767-5.69 4.48-8.914 6.464-10.634 1.736-1.504 3.364-2.217 4.279-2.217.14 0 .263.03.356.062.465.14.992.697 1.457 1.565 2.295 4.248 1.55 10.914.217 15.316-1.612 5.364-4.51 10.93-13.238 20.463-.17-1.1-.326-2.14-.48-3.116-1.241-8.216-.916-15.44.945-21.44M320.207 2155.145c-1.225-5.38-3.845-9.177-4.62-10.2-3.163-4.248-7.147-7.07-11.797-8.418-3.085-.868-6.061-.992-8.464-.806a2314.44 2314.44 0 0 1-2.93-17.207c5.41-6.124 9.007-11.875 11.27-16.138 3.441-6.526 4.573-11.068 4.635-11.27 1.705-5.178 2.062-12.82.961-20.959-.992-7.487-3.07-14.152-5.41-17.377-1.008-1.41-2.062-2.14-3.085-2.14-1.21 0-3.705 1.225-6.573 3.984-2.279 2.17-5.519 6.03-8.06 11.999-2.977 7.007-3.194 16.417-2.838 23.082.372 7.224 1.473 12.867 1.489 12.914.015.093.279 1.58.713 4.123-.217.233-.465.45-.713.698-1.024.992-2.202 2.108-3.581 3.488-.853.852-1.799 1.751-2.79 2.713-8.372 8.076-21.068 20.307-21.068 39.312 0 4.667.9 9.054 2.666 13.038 1.566 3.565 3.845 6.82 6.76 9.673 7.673 7.503 18.183 10.68 25.174 10.526 2.93-.078 5.55-.31 7.922-.76 1.814 9.534 2.945 16.51 2.976 21.811.047 6.465-1.596 10.418-5.456 13.162-2.419 1.72-5.21 2.666-8.278 2.805-2.574.124-4.822-.34-6.232-.744h-.016s-.279-.093-.294-.279c-.016-.186.34-.232.34-.232h.032c1.907-.434 5.441-1.659 7.782-4.93 1.782-2.511 2.65-7.1.821-11.006-1.1-2.372-3.58-5.302-9.161-5.751-2.48-.202-4.728.31-6.713 1.503-1.798 1.07-3.286 2.698-4.325 4.682-2.433 4.666-1.984 10.355 1.116 14.169 2.946 3.596 7.519 5.89 12.914 6.464.852.093 1.69.124 2.526.124 4.403 0 8.759-1.194 12.309-3.38 3.627-2.557 5.736-6.51 6.402-12.091.558-4.604.17-10.48-1.209-18.494-.356-2.077-.899-5.085-1.55-8.805 5.705-1.907 9.828-5.457 13.564-11.27 3.271-5.69 4.201-11.75 2.79-18.013m-33.949 26.012c-4.604-1.21-9.006-3.69-12.727-7.177-1.302-1.21-3.162-3.364-4.62-6.728-1.348-3.147-2.015-6.558-1.953-10.107.062-4.667 1.364-9.457 3.845-14.2 2.899-5.535 7.425-11.022 13.44-16.308a89.217 89.217 0 0 0 4.077-3.814c.76 4.232 1.581 8.883 2.45 13.72-3.814 1.255-8.527 4.386-11.612 9.998-3.519 6.511-3.38 11.999-2.65 15.456.93 4.418 3.44 8.154 6.867 10.23.93.559 5.022 2.667 6.852 2.094a1.16 1.16 0 0 0 .775-.667c.511-1.163-.512-1.798-2.046-2.744a27.277 27.277 0 0 1-1.985-1.317c-3.302-2.465-4.743-6.883-3.674-11.24a12.438 12.438 0 0 1 3.674-6.216c1.643-1.534 3.674-2.62 6.03-3.255 2.031 11.161 4.078 22.23 5.705 30.523.124.682.264 1.349.388 2.016-4.34.93-8.65.837-12.836-.264m11.24-32.942c10.261-.465 14.493 6.914 15.377 11.704.465 2.527.465 6.93-1.07 11.115-1.162 3.147-3.596 7.193-8.696 9.24-.062-.42-.14-.853-.217-1.272a12578.27 12578.27 0 0 1-5.395-30.787m-7.27-70.394c1.767-5.69 4.48-8.914 6.464-10.634 1.736-1.504 3.364-2.217 4.279-2.217.14 0 .263.03.356.062.465.14.992.697 1.457 1.565 2.295 4.248 1.55 10.914.217 15.316-1.612 5.364-4.51 10.93-13.238 20.463-.17-1.1-.326-2.14-.48-3.116-1.241-8.216-.916-15.44.945-21.44"
     id="path28" />
  <path
     class="KeySig"
     d="M516.78 1114.666c-.59-3.86-2.977-7.534-8.03-7.534-4.961 0-7.844 3.07-8.34 3.674l.403-31.857c0-.79-.59-1.38-1.396-1.38h-1.178c-.806 0-1.395.59-1.395 1.38l.496 59.637c0 .79.59 1.38 1.395 1.38.186 0 .59-.094.79-.187.388-.201 6.837-3.38 12.2-9.425 3.768-4.279 5.256-9.13 5.256-13.208 0-.883-.093-1.674-.201-2.48m-6.837 3.875c0 1.489-.403 6.046-2.883 9.829-1.69 2.573-5.054 5.255-6.945 6.743l.294-19.346c.202-.9 1.69-3.767 5.659-3.767 3.58 0 3.875 3.364 3.875 5.456v1.085M491.977 1151.876c-.59-3.86-2.977-7.534-8.03-7.534-4.961 0-7.844 3.07-8.34 3.674l.403-31.857c0-.79-.59-1.38-1.396-1.38h-1.178c-.806 0-1.395.59-1.395 1.38l.496 59.637c0 .79.59 1.38 1.395 1.38.186 0 .59-.094.79-.187.388-.201 6.837-3.38 12.2-9.425 3.768-4.279 5.256-9.13 5.256-13.208 0-.883-.093-1.674-.201-2.48m-6.837 3.875c0 1.489-.403 6.046-2.883 9.829-1.69 2.573-5.054 5.255-6.945 6.743l.294-19.346c.202-.9 1.69-3.767 5.659-3.767 3.58 0 3.875 3.364 3.875 5.456v1.085M392.764 1830.736c-.59-3.86-2.977-7.534-8.03-7.534-4.961 0-7.844 3.07-8.34 3.674l.403-31.857c0-.79-.59-1.38-1.396-1.38h-1.178c-.806 0-1.395.59-1.395 1.38l.496 59.637c0 .79.59 1.38 1.395 1.38.186 0 .59-.094.79-.187.388-.201 6.837-3.38 12.2-9.425 3.768-4.279 5.256-9.13 5.256-13.208 0-.883-.093-1.674-.201-2.48m-6.837 3.875c0 1.489-.403 6.046-2.883 9.829-1.69 2.573-5.054 5.255-6.945 6.743l.294-19.346c.202-.9 1.69-3.767 5.659-3.767 3.58 0 3.875 3.364 3.875 5.456v1.085M367.96 1867.936c-.589-3.86-2.976-7.534-8.03-7.534-4.96 0-7.843 3.07-8.34 3.674l.404-31.857c0-.79-.59-1.38-1.396-1.38h-1.178c-.806 0-1.395.59-1.395 1.38l.496 59.637c0 .79.59 1.38 1.395 1.38.186 0 .59-.094.79-.187.388-.201 6.837-3.38 12.2-9.425 3.768-4.279 5.256-9.13 5.256-13.208 0-.883-.093-1.674-.201-2.48m-6.837 3.875c0 1.489-.403 6.046-2.883 9.829-1.69 2.573-5.054 5.255-6.945 6.743l.294-19.346c.202-.9 1.69-3.767 5.659-3.767 3.58 0 3.875 3.364 3.875 5.456v1.085M392.764 2547.196c-.59-3.86-2.977-7.534-8.03-7.534-4.961 0-7.844 3.07-8.34 3.674l.403-31.857c0-.79-.59-1.38-1.396-1.38h-1.178c-.806 0-1.395.59-1.395 1.38l.496 59.637c0 .79.59 1.38 1.395 1.38.186 0 .59-.094.79-.187.388-.201 6.837-3.38 12.2-9.425 3.768-4.279 5.256-9.13 5.256-13.208 0-.883-.093-1.674-.201-2.48m-6.837 3.875c0 1.489-.403 6.046-2.883 9.829-1.69 2.573-5.054 5.255-6.945 6.743l.294-19.346c.202-.9 1.69-3.767 5.659-3.767 3.58 0 3.875 3.364 3.875 5.456v1.085M367.96 2584.396c-.589-3.86-2.976-7.534-8.03-7.534-4.96 0-7.843 3.07-8.34 3.674l.404-31.857c0-.79-.59-1.38-1.396-1.38h-1.178c-.806 0-1.395.59-1.395 1.38l.496 59.637c0 .79.59 1.38 1.395 1.38.186 0 .59-.094.79-.187.388-.201 6.837-3.38 12.2-9.425 3.768-4.279 5.256-9.13 5.256-13.208 0-.883-.093-1.674-.201-2.48m-6.837 3.875c0 1.489-.403 6.046-2.883 9.829-1.69 2.573-5.054 5.255-6.945 6.743l.294-19.346c.202-.9 1.69-3.767 5.659-3.767 3.58 0 3.875 3.364 3.875 5.456v1.085M516.78 614.006c-.59-3.86-2.977-7.534-8.03-7.534-4.961 0-7.844 3.07-8.34 3.674l.403-31.857c0-.79-.59-1.38-1.396-1.38h-1.178c-.806 0-1.395.59-1.395 1.38l.496 59.637c0 .79.59 1.38 1.395 1.38.186 0 .59-.094.79-.187.388-.201 6.837-3.38 12.2-9.425 3.768-4.279 5.256-9.13 5.256-13.208 0-.883-.093-1.674-.201-2.48m-6.837 3.875c0 1.489-.403 6.046-2.883 9.829-1.69 2.573-5.054 5.255-6.945 6.743l.294-19.346c.202-.9 1.69-3.767 5.659-3.767 3.58 0 3.875 3.364 3.875 5.456v1.085M491.977 651.211c-.59-3.86-2.977-7.534-8.03-7.534-4.961 0-7.844 3.07-8.34 3.674l.403-31.857c0-.79-.59-1.38-1.396-1.38h-1.178c-.806 0-1.395.59-1.395 1.38l.496 59.637c0 .79.59 1.38 1.395 1.38.186 0 .59-.094.79-.187.388-.201 6.837-3.38 12.2-9.425 3.768-4.279 5.256-9.13 5.256-13.208 0-.883-.093-1.674-.201-2.48m-6.837 3.875c0 1.489-.403 6.046-2.883 9.829-1.69 2.573-5.054 5.255-6.945 6.743l.294-19.346c.202-.9 1.69-3.767 5.659-3.767 3.58 0 3.875 3.364 3.875 5.456v1.085M392.764 1375.106c-.59-3.86-2.977-7.534-8.03-7.534-4.961 0-7.844 3.07-8.34 3.674l.403-31.857c0-.79-.59-1.38-1.396-1.38h-1.178c-.806 0-1.395.59-1.395 1.38l.496 59.637c0 .79.59 1.38 1.395 1.38.186 0 .59-.094.79-.187.388-.201 6.837-3.38 12.2-9.425 3.768-4.279 5.256-9.13 5.256-13.208 0-.883-.093-1.674-.201-2.48m-6.837 3.875c0 1.489-.403 6.046-2.883 9.829-1.69 2.573-5.054 5.255-6.945 6.743l.294-19.346c.202-.9 1.69-3.767 5.659-3.767 3.58 0 3.875 3.364 3.875 5.456v1.085M367.96 1412.306c-.589-3.86-2.976-7.534-8.03-7.534-4.96 0-7.843 3.07-8.34 3.674l.404-31.857c0-.79-.59-1.38-1.396-1.38h-1.178c-.806 0-1.395.59-1.395 1.38l.496 59.637c0 .79.59 1.38 1.395 1.38.186 0 .59-.094.79-.187.388-.201 6.837-3.38 12.2-9.425 3.768-4.279 5.256-9.13 5.256-13.208 0-.883-.093-1.674-.201-2.48m-6.837 3.875c0 1.489-.403 6.046-2.883 9.829-1.69 2.573-5.054 5.255-6.945 6.743l.294-19.346c.202-.9 1.69-3.767 5.659-3.767 3.58 0 3.875 3.364 3.875 5.456v1.085M392.764 2091.166c-.59-3.86-2.977-7.534-8.03-7.534-4.961 0-7.844 3.07-8.34 3.674l.403-31.857c0-.79-.59-1.38-1.396-1.38h-1.178c-.806 0-1.395.59-1.395 1.38l.496 59.637c0 .79.59 1.38 1.395 1.38.186 0 .59-.094.79-.187.388-.201 6.837-3.38 12.2-9.425 3.768-4.279 5.256-9.13 5.256-13.208 0-.883-.093-1.674-.201-2.48m-6.837 3.875c0 1.489-.403 6.046-2.883 9.829-1.69 2.573-5.054 5.255-6.945 6.743l.294-19.346c.202-.9 1.69-3.767 5.659-3.767 3.58 0 3.875 3.364 3.875 5.456v1.085M367.96 2128.366c-.589-3.86-2.976-7.534-8.03-7.534-4.96 0-7.843 3.07-8.34 3.674l.404-31.857c0-.79-.59-1.38-1.396-1.38h-1.178c-.806 0-1.395.59-1.395 1.38l.496 59.637c0 .79.59 1.38 1.395 1.38.186 0 .59-.094.79-.187.388-.201 6.837-3.38 12.2-9.425 3.768-4.279 5.256-9.13 5.256-13.208 0-.883-.093-1.674-.201-2.48m-6.837 3.875c0 1.489-.403 6.046-2.883 9.829-1.69 2.573-5.054 5.255-6.945 6.743l.294-19.346c.202-.9 1.69-3.767 5.659-3.767 3.58 0 3.875 3.364 3.875 5.456v1.085"
     id="path30" />
  <path
     class="TimeSig"
     d="M571.145 1109.029h.201c7.937-3.085 8.434-8.247 8.434-10.03v-.496c0-.884-.295-12.107-17.363-12.107-17.067 0-16.571 12.107-16.571 12.107h.108l-.108.201c0 3.566 2.883 6.356 6.449 6.356 3.58 0 6.355-2.79 6.355-6.356 0-2.883-2.185-5.658-4.96-6.247l.294-.294c1.395-.993 3.271-1.489 5.162-1.489 4.17 0 8.635 2.48 8.635 7.829 0 6.247-4.666 7.146-5.86 7.348-1.193.201-6.743.589-7.937.589-1.193 0-1.286 1.395-1.286 1.395v1.984s.201 1.086 1.286 1.194c1.69.093 3.969.093 7.147.59 4.356.588 6.65 3.565 6.65 10.51 0 6.65-4.465 8.433-8.635 8.433-2.774 0-5.363-.791-6.448-1.582 3.27-.201 5.952-3.069 5.952-6.355 0-3.566-2.775-6.45-6.355-6.45a6.444 6.444 0 0 0-6.45 6.45s-.495 4.464 3.876 8.541c3.86 3.566 8.728 3.674 10.914 3.674 9.518 0 19.842-3.286 19.842-14.091 0-7.24-4.96-10.325-9.332-11.704M543.985 1172.116h17.037v7.394h-8.154c-.775 0-1.41.62-1.41 1.395v1.891c0 .776.635 1.396 1.41 1.396h30.012a1.39 1.39 0 0 0 1.395-1.396v-1.89a1.39 1.39 0 0 0-1.395-1.396h-8.867v-7.394h8.867a1.39 1.39 0 0 0 1.395-1.396v-1.89a1.39 1.39 0 0 0-1.395-1.396h-8.867v-15.843c0-.527-.31-1.008-.775-1.24l-1.21-.605a1.446 1.446 0 0 0-1.58.233l-8.976 8.247c-.28.279-.45.635-.45 1.038v8.17h-11.425s11.038-11.937 22.788-27.578c.853-1.147.357-2.186.17-2.372l-2.154-2.186a1.41 1.41 0 0 0-.992-.418c-.59 0-14.045.03-14.758 0-.713-.016-1.24.604-1.318 1.209 0 0-.527 7.301-3.116 15.378-2.573 8.045-5.487 12.99-8.123 16.587 0 0-.542.977-.186 1.72.341.745.977 1.815.977 1.815s.248.527 1.1.527M571.145 633.167h.201c7.937-3.085 8.434-8.247 8.434-10.03v-.496c0-.884-.295-12.107-17.363-12.107-17.067 0-16.571 12.107-16.571 12.107h.108l-.108.201c0 3.566 2.883 6.356 6.449 6.356 3.58 0 6.355-2.79 6.355-6.356 0-2.883-2.185-5.658-4.96-6.247l.294-.294c1.395-.993 3.271-1.489 5.162-1.489 4.17 0 8.635 2.48 8.635 7.829 0 6.247-4.666 7.146-5.86 7.348-1.193.201-6.743.589-7.937.589-1.193 0-1.286 1.395-1.286 1.395v1.984s.201 1.086 1.286 1.194c1.69.093 3.969.093 7.147.59 4.356.588 6.65 3.565 6.65 10.51 0 6.65-4.465 8.433-8.635 8.433-2.774 0-5.363-.791-6.448-1.582 3.27-.201 5.952-3.069 5.952-6.355 0-3.566-2.775-6.45-6.355-6.45a6.444 6.444 0 0 0-6.45 6.45s-.495 4.464 3.876 8.541c3.86 3.566 8.728 3.674 10.914 3.674 9.518 0 19.842-3.286 19.842-14.091 0-7.24-4.96-10.325-9.332-11.704M543.985 696.253h17.037v7.394h-8.154c-.775 0-1.41.62-1.41 1.395v1.891c0 .776.635 1.396 1.41 1.396h30.012a1.39 1.39 0 0 0 1.395-1.396v-1.89a1.39 1.39 0 0 0-1.395-1.396h-8.867v-7.394h8.867a1.39 1.39 0 0 0 1.395-1.396v-1.89a1.39 1.39 0 0 0-1.395-1.396h-8.867v-15.843c0-.527-.31-1.008-.775-1.24l-1.21-.605a1.446 1.446 0 0 0-1.58.233l-8.976 8.247c-.28.279-.45.635-.45 1.038v8.17h-11.425s11.038-11.937 22.788-27.578c.853-1.147.357-2.186.17-2.372l-2.154-2.186a1.41 1.41 0 0 0-.992-.418c-.59 0-14.045.03-14.758 0-.713-.016-1.24.604-1.318 1.209 0 0-.527 7.301-3.116 15.378-2.573 8.045-5.487 12.99-8.123 16.587 0 0-.542.977-.186 1.72.341.745.977 1.815.977 1.815s.248.527 1.1.527"
     id="path32" />
  <path
     class="Rest"
     d="m2521.79 2633.823-.201-.31c-.093-.093-.295-.294-.59-.682l-11.409-14.091c-.31-.295-.201-1.1 0-1.488l10.108-15.285c.108-.202.201-.496.201-.698v-.884c0-.294-.093-.604-.294-.79l-16.076-21.734s-.79-1.194-1.783-.295c-.992.791-.201 2.078-.201 2.078l7.55 10.324c.387.59.387 1.783 0 2.372l-10.03 15.285c-.093.201-.202.589-.202.79v.9c0 .294.109.589.31.79l11.1 13.797c-.388-.109-1.287-.31-2.48-.31-1.675 0-3.86.403-5.644 1.984-2.185 1.984-3.379 4.775-3.379 7.255 0 1.38.295 2.775 1.085 3.86 2.093 3.178 9.534 12.603 9.534 12.603s.884 1.1 1.783.403c.899-.697.697-1.597.403-2.093-.31-.496-3.473-6.247-3.473-6.247s-.697-1.395-.697-3.178c0-1.286.387-2.868 1.69-4.17 1.178-1.178 2.573-1.581 3.86-1.581 1.286 0 2.387.403 3.177.9l3.876 2.48s1.178.588 1.782-.31c.496-.791.295-1.179 0-1.675M2521.79 2534.603l-.201-.31c-.093-.093-.295-.294-.59-.682l-11.409-14.091c-.31-.295-.201-1.1 0-1.488l10.108-15.285c.108-.202.201-.496.201-.698v-.884c0-.294-.093-.604-.294-.79l-16.076-21.734s-.79-1.194-1.783-.295c-.992.791-.201 2.078-.201 2.078l7.55 10.324c.387.59.387 1.783 0 2.372l-10.03 15.285c-.093.201-.202.589-.202.79v.9c0 .294.109.589.31.79l11.1 13.797c-.388-.109-1.287-.31-2.48-.31-1.675 0-3.86.403-5.644 1.984-2.185 1.984-3.379 4.775-3.379 7.255 0 1.38.295 2.775 1.085 3.86 2.093 3.178 9.534 12.603 9.534 12.603s.884 1.1 1.783.403c.899-.697.697-1.597.403-2.093-.31-.496-3.473-6.247-3.473-6.247s-.697-1.395-.697-3.178c0-1.286.387-2.868 1.69-4.17 1.178-1.178 2.573-1.581 3.86-1.581 1.286 0 2.387.403 3.177.9l3.876 2.48s1.178.588 1.782-.31c.496-.791.295-1.179 0-1.675M2521.79 2152.983l-.201-.31c-.093-.093-.295-.294-.59-.682l-11.409-14.091c-.31-.295-.201-1.1 0-1.488l10.108-15.285c.108-.202.201-.496.201-.698v-.884c0-.294-.093-.604-.294-.79l-16.076-21.734s-.79-1.194-1.783-.295c-.992.791-.201 2.078-.201 2.078l7.55 10.324c.387.59.387 1.783 0 2.372l-10.03 15.285c-.093.201-.202.589-.202.79v.9c0 .294.109.589.31.79l11.1 13.797c-.388-.109-1.287-.31-2.48-.31-1.675 0-3.86.403-5.644 1.984-2.185 1.984-3.379 4.775-3.379 7.255 0 1.38.295 2.775 1.085 3.86 2.093 3.178 9.534 12.603 9.534 12.603s.884 1.1 1.783.403c.899-.697.697-1.597.403-2.093-.31-.496-3.473-6.247-3.473-6.247s-.697-1.395-.697-3.178c0-1.286.387-2.868 1.69-4.17 1.178-1.178 2.573-1.581 3.86-1.581 1.286 0 2.387.403 3.177.9l3.876 2.48s1.178.588 1.782-.31c.496-.791.295-1.179 0-1.675"
     id="path34" />
  <path
     class="Articulation"
     d="M2428.31 1073.252v26.989a.9.9 0 0 0 .9.899h2.975a.887.887 0 0 0 .884-.9v-26.988a.873.873 0 0 0-.884-.884h-2.976c-.496 0-.899.388-.899.884M1650.27 1783.862v26.989a.9.9 0 0 0 .9.899h2.975a.887.887 0 0 0 .884-.9v-26.988a.873.873 0 0 0-.884-.884h-2.976c-.496 0-.899.388-.899.884M2439.97 593.318v26.989a.9.9 0 0 0 .9.899h2.975a.887.887 0 0 0 .884-.9v-26.988a.873.873 0 0 0-.884-.884h-2.976c-.496 0-.899.388-.899.884M1658.04 1356.772v26.989a.9.9 0 0 0 .9.899h2.975a.887.887 0 0 0 .884-.9v-26.988a.873.873 0 0 0-.884-.884h-2.976c-.496 0-.899.388-.899.884"
     id="path36" />
  <path
     class="Beam"
     fill-rule="evenodd"
     d="m687.66 1912.98 148.157 6.32v12.41l-148.157-6.32v-12.41M978.518 1925.37l148.162-12.64v12.45l-148.162 12.63v-12.44M2020.14 1011.34l150.55-31.579v12.672l-150.55 31.577v-12.67M717.168 1720.87l148.157-6.31v12.41l-148.157 6.32v-12.42M1990.63 782.984l150.55-25.261v12.575l-150.55 25.261v-12.575M1628.8 553.538l172.3 6.3v12.41l-172.3-6.3v-12.41M717.168 1321.05l148.157-6.32v12.42l-148.157 6.31v-12.41M1008.03 1307.98l148.15 25.27v12.58l-148.15-25.27v-12.58"
     id="path38" />
  <path
     class="Lyrics"
     d="M681.092 858.576v2.359h.906c2.844.047 3.797.203 4.187.703.313.438.313.547.313 3.094v23.797c0 2.562 0 2.656-.313 3.109-.39.5-1.343.703-4.187.703h-.906v2.344h18.156c8.641 0 13.844-3.656 13.844-9.797 0-5-3.141-7.859-10-9.047 2.406-.5 3.5-.953 4.797-1.906 2.062-1.547 3.312-4 3.312-6.5 0-3.25-2-6.406-4.906-7.656-1.797-.797-4.297-1.203-7.25-1.203h-17.953m11 16.265v-11.406c0-1.953.656-2.453 3.297-2.5h2c2.296 0 4.203.391 5.25 1.047 1.796 1.094 2.75 3.203 2.75 6 0 4.953-2.391 6.859-8.844 6.859h-4.453m0 2.344h4.406c7.641 0 10.453 2.047 10.453 7.547 0 3.203-1.109 5.5-3.062 6.453-1.547.797-3.641 1.156-6.797 1.156h-2.094c-2.5 0-3-.5-2.906-3.156v-12m36.093-6.547c-6.14 0-10.89 5.453-10.89 12.453 0 6.844 4.797 12.344 10.797 12.344 6 0 10.797-5.5 10.797-12.406 0-6.844-4.797-12.391-10.704-12.391m0 2.141c3.5 0 5.454 3.656 5.454 10.25 0 6.656-1.954 10.25-5.547 10.25-3.594 0-5.547-3.594-5.547-10.188 0-6.812 1.89-10.312 5.64-10.312m31.75 14.562c-1.593 3.594-3.296 5.047-5.89 5.047-4 0-6.5-3.656-6.5-9.5 0-6.109 2.453-10.109 6.14-10.109 1.5 0 2.813.703 2.813 1.5 0 .156-.063.312-.313.609-.796.953-1 1.453-1 2.297 0 1.656 1.25 2.797 3 2.797 1.813 0 3.063-1.391 3.063-3.391 0-3.406-3.359-5.953-7.813-5.953-6.5 0-11.14 5.297-11.14 12.797 0 7.094 4.25 12 10.453 12 4.437 0 7-2.047 9.141-7.344l-1.954-.75M1030.61 871.388v1.797h.2c3.3.094 3.75.344 3.75 2.156v15.547c-.04.75-.09 1.047-.29 1.297-.35.453-1.3.656-3.46.703h-.2v1.797h12.66v-1.797h-.21c-3.34-.109-3.79-.359-3.79-2.156v-15.391c.04-.75.2-1.109.59-1.359.41-.297 1.31-.391 3.11-.453h3.59c3.21.109 3.66.359 3.71 1.953v15.406c-.05.75-.1 1.047-.3 1.297-.36.453-1.36.656-3.5.703h-.2v1.797h12.65v-1.797h-.2c-3.3-.109-3.75-.359-3.75-2.156v-15.594c.05-.703.09-1 .3-1.25.36-.453 1.29-.656 3.45-.703h.2v-1.797h-28.31m42.25-.75c-6.14 0-10.89 5.453-10.89 12.453 0 6.844 4.8 12.344 10.8 12.344 6 0 10.79-5.5 10.79-12.406 0-6.844-4.79-12.391-10.7-12.391m0 2.141c3.5 0 5.45 3.656 5.45 10.25 0 6.656-1.95 10.25-5.54 10.25-3.6 0-5.55-3.594-5.55-10.188 0-6.812 1.89-10.312 5.64-10.312m33.41 5.703v12.406c-.05.75-.1 1.047-.3 1.297-.36.453-1.36.656-3.5.703h-.2v1.797h12.65v-1.797h-.2c-3.3-.109-3.75-.359-3.75-2.156V875.185c.05-.75.09-1.047.3-1.297.36-.453 1.29-.656 3.45-.703h.2v-1.797h-12.65v1.797h.2c3.34.094 3.8.344 3.8 2.156l-11 12.75V875.185c.04-.75.09-1.047.29-1.297.36-.453 1.36-.656 3.5-.703h.21v-1.797h-12.66v1.797h.2c3.3.094 3.75.344 3.75 2.156v15.547c-.04.75-.09 1.047-.29 1.297-.35.453-1.3.656-3.46.703h-.2v1.797h12.66v-1.797h-.21c-3.09-.047-3.7-.359-3.79-1.703l11-12.703m-10.25-18.406c-1.66 0-2.96 1.203-2.96 2.703 0 3 3.3 5.156 7.86 5.156 4.75 0 8.05-2.109 8.05-5.156 0-1.5-1.3-2.703-2.95-2.703-1.41 0-2.55 1-2.55 2.312 0 .844.3 1.344 1.09 1.75.36.141.5.297.5.547 0 .75-1.54 1.25-4.04 1.25s-4.05-.5-4.05-1.25c0-.25.14-.406.5-.547.8-.406 1.09-.906 1.09-1.75 0-1.312-1.14-2.312-2.54-2.312M1338.34 892.888h-.35c-3.36-.109-3.81-.359-3.81-2.156v-16c0-.953.61-1.453 1.66-1.453 1.2 0 2.4.562 3.4 1.609 1.35 1.391 1.94 3.047 2.19 6.141h2l-.5-9.641h-22.19l-.5 9.641h2c.19-2.891.64-4.391 1.85-5.797 1-1.203 2.45-1.953 3.75-1.953 1.04 0 1.65.5 1.65 1.453v16.156c-.06.75-.11 1.047-.31 1.297-.34.453-1.3.656-3.44.703h-.36v1.797h12.96v-1.797m29.5-9.453c.04-7.5-4.21-12.797-10.3-12.797-6.41 0-11.2 5.547-11.2 13.047 0 7.047 4.54 11.75 11.29 11.75 4.8 0 8.16-2.344 10.21-7.094l-1.75-.953c-2.05 3.844-4.16 5.344-7.5 5.344-2.55 0-4.41-1.047-5.71-3.297-.89-1.5-1.29-3.25-1.25-6h16.21m-16.16-2.156c0-1.547.2-2.641.7-4.047 1.05-3 2.66-4.453 5.11-4.453 3 0 5 2.656 5 6.703 0 1.406-.45 1.797-2.06 1.797h-8.75M1590.36 881.935l5.7-6.656c1.25-1.438 2.39-2.094 3.75-2.094h.44v-1.797h-10.34v1.797h.95c1.5 0 2.25.344 2.25 1.094 0 .5-.36 1.203-1 2l-3.16 3.812-3.84-4.906c-.3-.406-.5-.797-.5-1.094 0-.656.64-.906 2.2-.906h.69v-1.797h-11.84v1.797c1.84.156 2.54.594 4.15 2.703l6.1 7.641-5.75 6.703c-1.71 1.906-3.16 2.703-4.5 2.656h-.3v1.797h10.55v-1.797h-.75c-1.16 0-1.41-.047-1.75-.203-.41-.25-.71-.703-.71-1.156 0-.344.16-.797.41-1.094l4.2-5 3.8 5.047c.34.5.64 1.156.64 1.5 0 .656-.75.906-2.64.906h-.36v1.797h12.61v-1.797h-.34c-1.77 0-2.91-.656-4.36-2.453l-6.3-8.5m12.89-10.547v1.797h.2c3.3.094 3.75.344 3.75 2.156v15.547c-.04.75-.09 1.047-.29 1.297-.35.453-1.3.656-3.46.703h-.2v1.797h12.95c2.66 0 4.96-.297 6.16-.797 2.55-1.047 3.95-3.047 3.95-5.609 0-1.594-.56-2.938-1.65-3.938-1.05-.953-2.25-1.359-4.91-1.703 4.16-.797 5.91-2.453 5.91-5.609 0-3.688-2.8-5.641-8.25-5.641h-14.16m8.66 10.141v-6.688c0-1.109.2-1.312 1.15-1.312h2.75c3.05 0 4.6 1.359 4.6 3.906 0 2.703-1.71 4.094-4.96 4.094h-3.54m0 2.156h3.5c3.9 0 5.65 1.344 5.65 4.344 0 2.812-1.86 4.5-5 4.5h-2.25c-1.65 0-1.86-.188-1.9-1.438v-7.406m38.59-5.094c0-3.156-.55-4.75-2-5.953-1.64-1.359-4.09-2-7.3-2-5.64 0-9.75 2.641-9.75 6.297 0 1.844 1.16 3.047 2.91 3.047 1.59 0 2.7-1.047 2.7-2.547 0-.656-.25-1.344-.75-2.047-.31-.359-.36-.453-.36-.703 0-1 2-1.906 4.41-1.906 1.59 0 3.34.5 4.14 1.25.95.812 1.31 2 1.31 4.25v1.953c-5.2.906-6.86 1.297-9.31 2.25-4.34 1.609-6.39 3.906-6.39 7.109 0 3.594 2.8 5.844 7.25 5.844 3.45 0 6.55-1.406 8.7-3.953.8 2.547 2.05 3.547 4.39 3.547 2.25 0 4.61-1.438 4.61-2.891 0-.359-.2-.609-.5-.609-.2 0-.4.062-.75.203-.7.297-1 .359-1.4.359-1.41 0-1.91-.906-1.91-3.453v-10.047m-4.69 6.094c0 3-.15 3.703-1 5-1.25 1.844-3.5 3.094-5.7 3.094-2.3 0-3.95-1.641-3.95-3.891 0-2.109 1.04-3.609 3.25-4.656 1.54-.75 3.5-1.203 7.4-1.844v2.297M1792.57 878.591c0-3.156-.54-4.75-2-5.953-1.64-1.359-4.09-2-7.29-2-5.64 0-9.75 2.641-9.75 6.297 0 1.844 1.15 3.047 2.9 3.047 1.6 0 2.71-1.047 2.71-2.547 0-.656-.25-1.344-.75-2.047-.32-.359-.36-.453-.36-.703 0-1 2-1.906 4.4-1.906 1.6 0 3.35.5 4.14 1.25.96.812 1.32 2 1.32 4.25v1.953c-5.21.906-6.86 1.297-9.32 2.25-4.34 1.609-6.39 3.906-6.39 7.109 0 3.594 2.8 5.844 7.25 5.844 3.46 0 6.55-1.406 8.71-3.953.79 2.547 2.04 3.547 4.39 3.547 2.25 0 4.61-1.438 4.61-2.891 0-.359-.21-.609-.5-.609-.21 0-.41.062-.75.203-.71.297-1 .359-1.41.359-1.41 0-1.91-.906-1.91-3.453v-10.047m-4.68 6.094c0 3-.16 3.703-1 5-1.25 1.844-3.5 3.094-5.71 3.094-2.29 0-3.95-1.641-3.95-3.891 0-2.109 1.05-3.609 3.25-4.656 1.55-.75 3.5-1.203 7.41-1.844v2.297M1983.5 871.388v1.797h.2c3.39.094 3.8.344 3.75 2.406v4.5c0 4.641-.3 7.891-.91 9.797-.54 1.797-1.45 2.844-2.45 2.844-.5 0-.75-.25-.75-.703 0-.094 0-.141.06-.25.1-.438.1-.5.1-.75 0-1.297-1.05-2.188-2.5-2.188-1.66 0-2.75 1.141-2.75 2.891 0 2.203 1.79 3.656 4.54 3.656 3.3 0 5.55-1.906 6.41-5.359.64-2.641.84-4.938.84-9.844v-3.547c.11-2.797.3-3 3.91-3.109h.64c3.2.109 3.66.359 3.7 1.953v15.406c-.04.75-.09 1.047-.29 1.297-.35.453-1.35.656-3.5.703h-.21v1.797h12.66v-1.797h-.2c-3.3-.109-3.75-.359-3.75-2.156V875.185c.04-.75.09-1.047.29-1.297.36-.453 1.32-.656 3.46-.703h.2v-1.797h-23.45m39.75 16.953-5.5-12.859c-.21-.5-.3-.75-.3-1 0-.953.59-1.297 2.3-1.297h1.04v-1.797h-11.89v1.797h.55c1.7.047 2.34.547 3.39 2.703l8.16 18.453-.85 1.75c-1.81 3.797-4.15 6.438-5.75 6.438-.45 0-.81-.188-.81-.5 0-.094.06-.25.11-.438.14-.453.25-.906.25-1.312 0-1.297-1.05-2.25-2.55-2.25-1.75 0-3 1.312-3 3.109 0 2.25 1.89 3.844 4.55 3.844 2.64 0 4.89-1.297 6.89-4 1.56-2.047 2.56-4.141 4.75-9.594l5.7-14.156c1.16-2.953 2.25-4 4.21-4.047h.29v-1.797h-10v1.797h.8c1.91 0 2.7.547 2.7 1.844 0 .562-.14 1.156-.5 2l-4.54 11.312M2303.89 888.341l-5.5-12.859c-.2-.5-.29-.75-.29-1 0-.953.59-1.297 2.29-1.297h1.05v-1.797h-11.89v1.797h.55c1.7.047 2.34.547 3.39 2.703l8.15 18.453-.84 1.75c-1.81 3.797-4.16 6.438-5.75 6.438-.45 0-.81-.188-.81-.5 0-.094.06-.25.11-.438.14-.453.25-.906.25-1.312 0-1.297-1.05-2.25-2.55-2.25-1.75 0-3 1.312-3 3.109 0 2.25 1.89 3.844 4.55 3.844 2.64 0 4.89-1.297 6.89-4 1.56-2.047 2.56-4.141 4.75-9.594l5.7-14.156c1.16-2.953 2.25-4 4.2-4.047h.3v-1.797h-10v1.797h.8c1.9 0 2.7.547 2.7 1.844 0 .562-.14 1.156-.5 2l-4.55 11.312M2544.41 878.482v12.406c-.04.75-.09 1.047-.29 1.297-.36.453-1.36.656-3.5.703h-.21v1.797h12.66v-1.797h-.2c-3.3-.109-3.75-.359-3.75-2.156V875.185c.04-.75.09-1.047.29-1.297.36-.453 1.3-.656 3.46-.703h.2v-1.797h-12.66v1.797h.21c3.34.094 3.79.344 3.79 2.156l-11 12.75V875.185c.05-.75.1-1.047.3-1.297.36-.453 1.36-.656 3.5-.703h.2v-1.797h-12.65v1.797h.2c3.3.094 3.75.344 3.75 2.156v15.547c-.05.75-.09 1.047-.3 1.297-.34.453-1.29.656-3.45.703h-.2v1.797h12.65v-1.797h-.2c-3.09-.047-3.7-.359-3.8-1.703l11-12.703M427.435 1649.63v2.4c-.047.71-.094 1-.344 1.25-.296.46-1.296.66-3.453.71h-.203v1.79h12.656v-1.79h-.203c-3.297-.11-3.75-.36-3.75-2.16V1636.28c.047-.75.11-1.04.297-1.29.36-.46 1.313-.66 3.453-.71h.203v-1.79h-12.656v1.79h.203c3.36.1 3.797.35 3.797 2.16v7.59c-2.547 1.1-3.937 1.46-5.75 1.46-3.187 0-4.594-1.16-4.594-3.75v-5.46c.047-.75.094-1.04.297-1.29.36-.46 1.297-.66 3.5-.71h.203v-1.79h-12.656v1.79h.203c3.297.1 3.75.35 3.75 2.16v5.55c0 3.84 2.407 5.7 7.407 5.7 2.75 0 5.343-.56 7.64-1.61v3.55m32.906-5.1c.047-7.5-4.203-12.79-10.296-12.79-6.407 0-11.204 5.54-11.204 13.04 0 7.05 4.547 11.75 11.297 11.75 4.797 0 8.157-2.34 10.203-7.09l-1.75-.95c-2.046 3.84-4.156 5.34-7.5 5.34-2.546 0-4.406-1.05-5.703-3.3-.89-1.5-1.297-3.25-1.25-6h16.203m-16.156-2.15c0-1.55.203-2.64.703-4.05 1.047-3 2.657-4.45 5.11-4.45 3 0 5 2.65 5 6.7 0 1.41-.453 1.8-2.063 1.8h-8.75m37.25 6.06c-1.594 3.59-3.297 5.05-5.89 5.05-4 0-6.5-3.66-6.5-9.5 0-6.11 2.453-10.11 6.14-10.11 1.5 0 2.813.7 2.813 1.5 0 .15-.063.31-.313.61-.797.95-1 1.45-1 2.29 0 1.66 1.25 2.8 3 2.8 1.813 0 3.063-1.39 3.063-3.39 0-3.41-3.36-5.95-7.813-5.95-6.5 0-11.14 5.29-11.14 12.79 0 7.1 4.25 12 10.453 12 4.437 0 7-2.04 9.14-7.34l-1.953-.75m22.406 5.55h-.343c-3.36-.11-3.813-.36-3.813-2.16v-16c0-.95.61-1.45 1.656-1.45 1.204 0 2.407.56 3.407 1.61 1.343 1.39 1.937 3.04 2.187 6.14h2l-.5-9.64h-22.187l-.5 9.64h2c.187-2.89.64-4.39 1.843-5.8 1-1.2 2.454-1.95 3.75-1.95 1.047 0 1.657.5 1.657 1.45v16.16c-.063.75-.11 1.04-.313 1.29-.344.46-1.297.66-3.437.71h-.36v1.79h12.953v-1.79m7.594 1.79h14.156c5.594 0 9.094-2.65 9.094-6.84 0-1.86-.75-3.45-2.094-4.61-1.453-1.2-3.343-1.7-6.593-1.7h-5.907v-6.39c.047-.71.094-1 .297-1.25.36-.46 1.36-.66 3.5-.71h.203v-1.79h-12.656v1.79h.203c3.297.1 3.75.35 3.75 2.16V1651.99c-.047.75-.093 1.04-.297 1.29-.343.46-1.296.66-3.453.71h-.203v1.79m8.656-11h4.954c2.703 0 4.39 1.66 4.39 4.3 0 2.8-1.937 4.55-5.047 4.55h-2.5c-1.25-.05-1.797-.55-1.797-1.69v-7.16M707.075 1633.38l-1.047-13.71h-29.5v2.36h.906c2.844.05 3.797.21 4.188.71.312.43.312.54.312 3.09v23.8c0 2.56 0 2.65-.312 3.11-.391.5-1.344.7-4.188.7h-.906v2.34h16.406v-2.34h-.906c-2.844 0-3.797-.2-4.203-.7-.297-.46-.297-.61-.297-3.11v-25.21c-.156-1.79.594-2.29 3.594-2.39h2.109c7.75.14 10 2.35 11.656 11.35h2.188m11.297-1.64c-6.141 0-10.891 5.45-10.891 12.45 0 6.84 4.797 12.34 10.797 12.34 6 0 10.797-5.5 10.797-12.4 0-6.85-4.797-12.39-10.703-12.39m0 2.14c3.5 0 5.453 3.65 5.453 10.25 0 6.65-1.953 10.25-5.547 10.25-3.594 0-5.547-3.6-5.547-10.19 0-6.81 1.891-10.31 5.641-10.31M849.301 1631.74c-6.141 0-10.891 5.45-10.891 12.45 0 6.84 4.797 12.34 10.797 12.34 6 0 10.797-5.5 10.797-12.4 0-6.85-4.797-12.39-10.703-12.39m0 2.14c3.5 0 5.453 3.65 5.453 10.25 0 6.65-1.953 10.25-5.547 10.25-3.594 0-5.547-3.6-5.547-10.19 0-6.81 1.891-10.31 5.641-10.31M974.98 1648.44c-1.594 3.59-3.297 5.05-5.891 5.05-4 0-6.5-3.66-6.5-9.5 0-6.11 2.453-10.11 6.141-10.11 1.5 0 2.812.7 2.812 1.5 0 .15-.062.31-.312.61-.797.95-1 1.45-1 2.29 0 1.66 1.25 2.8 3 2.8 1.812 0 3.062-1.39 3.062-3.39 0-3.41-3.359-5.95-7.812-5.95-6.5 0-11.141 5.29-11.141 12.79 0 7.1 4.25 12 10.453 12 4.438 0 7-2.04 9.141-7.34l-1.953-.75m4-15.95v1.79h.203c3.297.1 3.75.35 3.75 2.16V1651.99c-.047.75-.094 1.04-.297 1.29-.344.46-1.297.66-3.453.71h-.203v1.79h12.656v-1.79h-.203c-3.344-.11-3.797-.36-3.797-2.16V1636.44c.047-.75.203-1.11.594-1.36.406-.3 1.312-.39 3.109-.45h3.594c3.203.11 3.656.36 3.703 1.95v15.41c-.047.75-.094 1.04-.297 1.29-.359.46-1.359.66-3.5.71h-.203v1.79h12.654v-1.79h-.2c-3.3-.11-3.75-.36-3.75-2.16v-15.59c.05-.71.09-1 .3-1.25.36-.46 1.29-.66 3.45-.71h.2v-1.79h-28.31m42.25-.75c-6.14 0-10.89 5.45-10.89 12.45 0 6.84 4.8 12.34 10.8 12.34 6 0 10.79-5.5 10.79-12.4 0-6.85-4.79-12.39-10.7-12.39m0 2.14c3.5 0 5.45 3.65 5.45 10.25 0 6.65-1.95 10.25-5.54 10.25-3.6 0-5.55-3.6-5.55-10.19 0-6.81 1.89-10.31 5.64-10.31M1140.16 1631.74c-6.14 0-10.89 5.45-10.89 12.45 0 6.84 4.79 12.34 10.79 12.34 6 0 10.8-5.5 10.8-12.4 0-6.85-4.8-12.39-10.7-12.39m0 2.14c3.5 0 5.45 3.65 5.45 10.25 0 6.65-1.95 10.25-5.55 10.25-3.59 0-5.54-3.6-5.54-10.19 0-6.81 1.89-10.31 5.64-10.31M1311.98 1634.28h.2c3.41.1 3.8.35 3.75 2.41v1.89c-.15 5.3-.95 10.11-2.09 12.66-.81 2.04-1.95 2.75-4.45 2.75h-.21v9.14h1.85c.36-5.44 2.45-7.44 7.61-7.35h7.34c5.11-.09 7.2 1.91 7.61 7.35h1.84v-9.14h-.2c-3.3-.11-3.75-.36-3.75-2.16V1636.28c.05-.75.11-1.04.3-1.29.36-.46 1.31-.66 3.45-.71h.2v-1.79h-23.45v1.79m2.75 19.35c2-1.85 3.3-7.55 3.5-14.94v-.95c.11-2.8.3-3 3.91-3.11h.95c3.19.11 3.64.36 3.69 1.95V1651.83c-.05.75-.19 1.11-.6 1.36-.4.3-1.29.39-3.09.44h-8.36m37.45-4.19-5.5-12.86c-.2-.5-.29-.75-.29-1 0-.95.59-1.3 2.29-1.3h1.05v-1.79h-11.89v1.79h.55c1.7.05 2.34.55 3.39 2.71l8.15 18.45-.84 1.75c-1.81 3.8-4.16 6.44-5.75 6.44-.45 0-.81-.19-.81-.5 0-.1.06-.25.11-.44.14-.45.25-.91.25-1.31 0-1.3-1.05-2.25-2.55-2.25-1.75 0-3 1.31-3 3.11 0 2.25 1.89 3.84 4.55 3.84 2.64 0 4.89-1.3 6.89-4 1.56-2.05 2.56-4.14 4.75-9.59l5.7-14.16c1.16-2.95 2.25-4 4.2-4.05h.3v-1.79h-10v1.79h.8c1.9 0 2.7.55 2.7 1.85 0 .56-.14 1.15-.5 2l-4.55 11.31M1556.96 1649.44l-5.5-12.86c-.21-.5-.3-.75-.3-1 0-.95.59-1.3 2.3-1.3h1.04v-1.79h-11.89v1.79h.55c1.7.05 2.34.55 3.39 2.71l8.16 18.45-.85 1.75c-1.81 3.8-4.15 6.44-5.75 6.44-.45 0-.81-.19-.81-.5 0-.1.06-.25.11-.44.14-.45.25-.91.25-1.31 0-1.3-1.05-2.25-2.55-2.25-1.75 0-3 1.31-3 3.11 0 2.25 1.89 3.84 4.55 3.84 2.64 0 4.89-1.3 6.89-4 1.56-2.05 2.56-4.14 4.75-9.59l5.7-14.16c1.16-2.95 2.25-4 4.21-4.05h.29v-1.79h-10v1.79h.8c1.91 0 2.7.55 2.7 1.85 0 .56-.14 1.15-.5 2l-4.54 11.31M1736.78 1622.03h.9c2.85 0 3.8.14 4.21.71.34.43.34.59.34 3.09v2.55c-.3 8.15-2 17.75-3.7 20.9-1.64 3.16-3.46 4.25-6.8 4.16v12.75h2.45c.39-7.36 3.25-10.45 9.5-10.41h12.75c6.25-.04 9.1 3.05 9.5 10.41h2.46v-12.75h-1.25c-2.5-.06-3.5-.2-3.86-.7-.3-.46-.3-.55-.3-3.11v-23.8c0-2.55 0-2.66.3-3.09.45-.57 1.36-.71 4.2-.71h.91v-2.36h-31.61v2.36m2.45 31.05c3.2-2.95 5.41-12.55 5.91-25.59v-1.32c0-2.5 0-2.64.29-3.09.35-.5 1.35-.7 4-.7h3.6c1.95 0 3.15.15 3.61.36.75.43.75.54.75 3.43v23.11c0 2.8 0 2.91-.61 3.35-.39.31-1.6.45-3.75.45h-13.8m43.09-21.34c-6.14 0-10.89 5.45-10.89 12.45 0 6.84 4.8 12.34 10.8 12.34 6 0 10.8-5.5 10.8-12.4 0-6.85-4.8-12.39-10.71-12.39m0 2.14c3.5 0 5.46 3.65 5.46 10.25 0 6.65-1.96 10.25-5.55 10.25s-5.55-3.6-5.55-10.19c0-6.81 1.89-10.31 5.64-10.31m31.75 14.56c-1.59 3.59-3.29 5.05-5.89 5.05-4 0-6.5-3.66-6.5-9.5 0-6.11 2.46-10.11 6.14-10.11 1.5 0 2.82.7 2.82 1.5 0 .15-.07.31-.32.61-.79.95-1 1.45-1 2.29 0 1.66 1.25 2.8 3 2.8 1.82 0 3.07-1.39 3.07-3.39 0-3.41-3.36-5.95-7.82-5.95-6.5 0-11.14 5.29-11.14 12.79 0 7.1 4.25 12 10.46 12 4.43 0 7-2.04 9.14-7.34l-1.96-.75M2035.44 1653.99h-.34c-3.36-.11-3.81-.36-3.81-2.16v-16c0-.95.61-1.45 1.65-1.45 1.21 0 2.41.56 3.41 1.61 1.34 1.39 1.94 3.04 2.19 6.14h2l-.5-9.64h-22.19l-.5 9.64h2c.19-2.89.64-4.39 1.84-5.8 1-1.2 2.46-1.95 3.75-1.95 1.05 0 1.66.5 1.66 1.45v16.16c-.06.75-.11 1.04-.31 1.29-.35.46-1.3.66-3.44.71h-.36v1.79h12.95v-1.79m18.85-22.25c-6.14 0-10.89 5.45-10.89 12.45 0 6.84 4.79 12.34 10.79 12.34 6 0 10.8-5.5 10.8-12.4 0-6.85-4.8-12.39-10.7-12.39m0 2.14c3.5 0 5.45 3.65 5.45 10.25 0 6.65-1.95 10.25-5.55 10.25-3.59 0-5.54-3.6-5.54-10.19 0-6.81 1.89-10.31 5.64-10.31M2275.94 1639.58v12.41c-.05.75-.09 1.04-.3 1.29-.36.46-1.36.66-3.5.71h-.2v1.79h12.66v-1.79h-.21c-3.29-.11-3.75-.36-3.75-2.16V1636.28c.05-.75.1-1.04.3-1.29.36-.46 1.3-.66 3.45-.71h.21v-1.79h-12.66v1.79h.2c3.35.1 3.8.35 3.8 2.16l-11 12.75v-12.91c.05-.75.09-1.04.3-1.29.36-.46 1.36-.66 3.5-.71h.2v-1.79h-12.66v1.79h.21c3.29.1 3.75.35 3.75 2.16V1651.99c-.05.75-.1 1.04-.3 1.29-.34.46-1.3.66-3.45.71h-.21v1.79h12.66v-1.79h-.2c-3.1-.05-3.71-.36-3.8-1.71l11-12.7m20 3.05v-6.39c.05-.71.09-1 .3-1.25.36-.46 1.36-.66 3.5-.71h.2v-1.79h-12.66v1.79h.21c3.29.1 3.75.35 3.75 2.16V1651.99c-.05.7-.1 1.04-.3 1.29-.34.46-1.3.66-3.45.71h-.21v1.79h12.66v-1.79h-.2c-3.35-.11-3.8-.36-3.8-2.16v-7.05h11V1651.99c-.05.7-.09 1.04-.3 1.29-.36.46-1.36.66-3.5.71h-.2v1.79h12.66v-1.79h-.21c-3.29-.11-3.75-.36-3.75-2.16v-15.59c.05-.71.1-1 .3-1.25.36-.46 1.3-.66 3.45-.71h.21v-1.79h-12.66v1.79h.2c3.35.1 3.8.35 3.8 2.16V1642.63h-11M2471.44 1632.49v1.79h.2c3.39.1 3.8.35 3.75 2.41v4.5c0 4.64-.3 7.89-.91 9.8-.54 1.79-1.45 2.84-2.45 2.84-.5 0-.75-.25-.75-.7 0-.1 0-.14.06-.25.1-.44.1-.5.1-.75 0-1.3-1.05-2.19-2.5-2.19-1.66 0-2.75 1.14-2.75 2.89 0 2.2 1.79 3.66 4.54 3.66 3.3 0 5.55-1.91 6.41-5.36.64-2.64.84-4.94.84-9.85v-3.54c.11-2.8.3-3 3.91-3.11h.64c3.2.11 3.66.36 3.7 1.95v15.41c-.04.75-.09 1.04-.29 1.29-.35.46-1.35.66-3.5.71h-.21v1.79h12.66v-1.79h-.2c-3.3-.11-3.75-.36-3.75-2.16V1636.28c.04-.75.09-1.04.29-1.29.36-.46 1.32-.66 3.46-.71h.2v-1.79h-23.45m45.75 7.09v12.41c-.05.75-.1 1.04-.3 1.29-.36.46-1.36.66-3.5.71h-.2v1.79h12.65v-1.79h-.2c-3.3-.11-3.75-.36-3.75-2.16V1636.28c.05-.75.09-1.04.3-1.29.36-.46 1.29-.66 3.45-.71h.2v-1.79h-12.65v1.79h.2c3.34.1 3.8.35 3.8 2.16l-11 12.75v-12.91c.04-.75.09-1.04.29-1.29.36-.46 1.36-.66 3.5-.71h.21v-1.79h-12.66v1.79h.2c3.3.1 3.75.35 3.75 2.16V1651.99c-.04.75-.09 1.04-.29 1.29-.35.46-1.3.66-3.46.71h-.2v1.79h12.66v-1.79h-.21c-3.09-.05-3.7-.36-3.79-1.71l11-12.7m11.34 16.2h40.66v-1.79h-.21c-3.29-.11-3.75-.36-3.75-2.21v-15.5c.07-.7.11-1.04.32-1.29.34-.46 1.29-.66 3.43-.71h.21v-1.79h-12.3v1.79h.2c3.05.16 3.46.41 3.46 2.16V1651.83c-.07.75-.21 1.11-.61 1.36-.39.25-1.3.39-3.1.44h-1.9c-3.25-.1-3.71-.35-3.71-2.14V1636.28c.05-.75.11-1 .3-1.29.31-.41 1.2-.66 3.11-.71h.2v-1.79h-12v1.79h.19c3.11.16 3.5.41 3.5 2.21v15.34c-.05.75-.19 1.11-.59 1.36-.46.3-1.3.39-3.16.44h-1.89c-3.25-.1-3.7-.35-3.7-2.14V1636.28c.04-.75.09-1 .29-1.29.3-.46 1.21-.66 3.16-.71h.2v-1.79h-12.31v1.79h.2c3.3.1 3.75.35 3.75 2.16V1652.03c-.04.71-.09 1-.29 1.25-.35.46-1.3.66-3.46.71h-.2v1.79m43 0h14.16c5.59 0 9.09-2.65 9.09-6.84 0-1.86-.75-3.45-2.09-4.61-1.46-1.2-3.35-1.7-6.6-1.7h-5.9v-6.39c.04-.71.09-1 .29-1.25.36-.46 1.36-.66 3.5-.71h.21v-1.79h-12.66v1.79h.2c3.3.1 3.75.35 3.75 2.16V1651.99c-.04.75-.09 1.04-.29 1.29-.35.46-1.3.66-3.46.71h-.2v1.79m8.66-11h4.95c2.7 0 4.39 1.66 4.39 4.3 0 2.8-1.94 4.55-5.05 4.55h-2.5c-1.25-.05-1.79-.55-1.79-1.69v-7.16M455.248 2334.99c-4.453 0-8.313 1.4-11.313 4.2-3.844 3.55-6.094 8.95-6.094 14.65 0 5.6 2.297 11.05 6.094 14.55 3 2.75 6.813 4.2 11.11 4.2 9.796 0 17.203-8.09 17.203-18.79 0-10.61-7.407-18.81-17-18.81m-.063 2.35c3.36 0 6.156 1.5 7.953 4.3 1.86 2.95 2.5 6 2.5 12.16 0 6.09-.64 9.14-2.5 12.14-1.797 2.81-4.547 4.31-8.093 4.31-3.547 0-6.297-1.5-8.11-4.31-1.89-3.05-2.5-6-2.5-12.25 0-6 .656-9.05 2.5-12.05 1.86-2.9 4.5-4.3 8.25-4.3m29.406 21.35v-6.39c.047-.71.094-1 .297-1.25.36-.46 1.36-.66 3.5-.71h.203v-1.79h-12.656v1.79h.203c3.297.1 3.75.35 3.75 2.16V2368.05c-.047.7-.093 1.04-.297 1.29-.343.46-1.296.66-3.453.71h-.203v1.79h12.656v-1.79h-.203c-3.343-.11-3.797-.36-3.797-2.16v-7.05h11V2368.05c-.046.7-.093 1.04-.296 1.29-.36.46-1.36.66-3.5.71h-.204v1.79h12.657v-1.79h-.203c-3.297-.11-3.75-.36-3.75-2.16v-15.59c.046-.71.093-1 .296-1.25.36-.46 1.297-.66 3.454-.71h.203v-1.79h-12.657v1.79h.204c3.343.1 3.796.35 3.796 2.16V2358.69h-11M709.965 2348.55v1.79h.203c3.297.1 3.75.35 3.75 2.16V2368.05c-.047.75-.094 1.04-.297 1.29-.344.46-1.297.66-3.453.71h-.203v1.79h12.656v-1.79h-.203c-3.344-.11-3.797-.36-3.797-2.16V2352.5c.047-.75.203-1.11.594-1.36.406-.3 1.312-.39 3.109-.45h3.594c3.203.11 3.656.36 3.703 1.95v15.41c-.047.75-.094 1.04-.297 1.29-.359.46-1.359.66-3.5.71h-.203v1.79h12.656v-1.79h-.203c-3.297-.11-3.75-.36-3.75-2.16v-15.59c.047-.71.094-1 .297-1.25.36-.46 1.297-.66 3.453-.71h.203v-1.79h-28.312m42.25-.75c-6.141 0-10.891 5.45-10.891 12.45 0 6.84 4.797 12.34 10.797 12.34 6 0 10.797-5.5 10.797-12.4 0-6.85-4.797-12.39-10.703-12.39m0 2.14c3.5 0 5.453 3.65 5.453 10.25 0 6.65-1.953 10.25-5.547 10.25-3.594 0-5.547-3.6-5.547-10.19 0-6.81 1.891-10.31 5.641-10.31M971.745 2359.05v-6.71c.062-.75.109-1.04.312-1.29.344-.46 1.344-.66 3.5-.71h.188v-1.79h-12.688v1.79h.188c3.359.1 3.812.35 3.812 2.16V2368.05c-.062.75-.109 1.04-.312 1.29-.344.46-1.344.66-3.5.71h-.188v1.79h12.688v-1.79h-.188c-3.359-.11-3.812-.36-3.812-2.16v-6.7h1.203c4.047-.14 4.859.61 6.156 5.81.547 2.25.75 2.84 1.203 3.64.75 1.3 1.844 1.91 3.438 1.91 2.75 0 4.609-2.21 4.609-5.55v-1.11h-1.859v.95c0 1.6-.641 2.75-1.594 2.75-.75 0-1.094-.59-1.75-3.2-1.047-4.3-2.5-5.89-6-6.45 2.047-.64 2.797-1.69 3.594-5.1.75-3.29.953-3.7 1.453-3.7.359 0 .609.25.609.5 0 .11 0 .2-.062.36-.094.3-.094.44-.094.59 0 1.1 1.094 2 2.406 2 1.844 0 3.047-1.25 3.047-3.09 0-2-1.5-3.25-3.953-3.25-2.594 0-4.203 1.44-5 4.55-1.297 5.84-1.656 6.2-6 6.25h-1.406m21.656-10.5v1.79h.203c3.391.1 3.797.35 3.75 2.41v4.5c0 4.64-.297 7.89-.906 9.8-.547 1.79-1.453 2.84-2.453 2.84-.5 0-.75-.25-.75-.7 0-.1 0-.14.062-.25.094-.44.094-.5.094-.75 0-1.3-1.047-2.19-2.5-2.19-1.656 0-2.75 1.14-2.75 2.89 0 2.2 1.797 3.66 4.547 3.66 3.297 0 5.547-1.91 6.406-5.36.641-2.64.844-4.94.844-9.85v-3.54c.112-2.8.292-3 3.902-3.11h.64c3.21.11 3.66.36 3.71 1.95v15.41c-.05.75-.1 1.04-.3 1.29-.34.46-1.34.66-3.5.71h-.2v1.79h12.65v-1.79h-.2c-3.3-.11-3.75-.36-3.75-2.16V2352.34c.05-.75.09-1.04.3-1.29.36-.46 1.31-.66 3.45-.71h.2v-1.79h-23.449m37.339-.75c-6.14 0-10.89 5.45-10.89 12.45 0 6.84 4.8 12.34 10.8 12.34 6 0 10.8-5.5 10.8-12.4 0-6.85-4.8-12.39-10.71-12.39m0 2.14c3.5 0 5.46 3.65 5.46 10.25 0 6.65-1.96 10.25-5.55 10.25s-5.55-3.6-5.55-10.19c0-6.81 1.89-10.31 5.64-10.31M1300.37 2358.69v-6.39c.05-.71.1-1 .3-1.25.36-.46 1.36-.66 3.5-.71h.2v-1.79h-12.65v1.79h.2c3.3.1 3.75.35 3.75 2.16V2368.05c-.05.7-.1 1.04-.3 1.29-.34.46-1.3.66-3.45.71h-.2v1.79h12.65v-1.79h-.2c-3.35-.11-3.8-.36-3.8-2.16v-7.05h11V2368.05c-.05.7-.09 1.04-.3 1.29-.35.46-1.35.66-3.5.71h-.2v1.79h12.66v-1.79h-.21c-3.29-.11-3.75-.36-3.75-2.16v-15.59c.05-.71.1-1 .3-1.25.36-.46 1.3-.66 3.45-.71h.21v-1.79h-12.66v1.79h.2c3.35.1 3.8.35 3.8 2.16V2358.69h-11m44.25 1.9c.05-7.5-4.2-12.79-10.3-12.79-6.4 0-11.2 5.54-11.2 13.04 0 7.05 4.55 11.75 11.3 11.75 4.8 0 8.15-2.34 10.2-7.09l-1.75-.95c-2.05 3.84-4.15 5.34-7.5 5.34-2.55 0-4.4-1.05-5.7-3.3-.89-1.5-1.3-3.25-1.25-6h16.2m-16.15-2.15c0-1.55.2-2.64.7-4.05 1.05-3 2.65-4.45 5.11-4.45 3 0 5 2.65 5 6.7 0 1.41-.46 1.8-2.06 1.8h-8.75M1730.42 2360.59c.05-7.5-4.2-12.79-10.3-12.79-6.4 0-11.2 5.54-11.2 13.04 0 7.05 4.55 11.75 11.3 11.75 4.8 0 8.15-2.34 10.2-7.09l-1.75-.95c-2.05 3.84-4.15 5.34-7.5 5.34-2.55 0-4.4-1.05-5.7-3.3-.89-1.5-1.3-3.25-1.25-6h16.2m-16.15-2.15c0-1.55.2-2.64.7-4.05 1.05-3 2.65-4.45 5.11-4.45 3 0 5 2.65 5 6.7 0 1.41-.46 1.8-2.06 1.8h-8.75M2101.13 2358.69v-6.39c.05-.71.09-1 .3-1.25.36-.46 1.36-.66 3.5-.71h.2v-1.79h-12.66v1.79h.21c3.29.1 3.75.35 3.75 2.16V2368.05c-.05.7-.1 1.04-.3 1.29-.34.46-1.3.66-3.45.71h-.21v1.79h12.66v-1.79h-.2c-3.35-.11-3.8-.36-3.8-2.16v-7.05h11V2368.05c-.05.7-.09 1.04-.3 1.29-.36.46-1.36.66-3.5.71h-.2v1.79h12.66v-1.79h-.21c-3.29-.11-3.75-.36-3.75-2.16v-15.59c.05-.71.1-1 .3-1.25.36-.46 1.3-.66 3.45-.71h.21v-1.79h-12.66v1.79h.2c3.35.1 3.8.35 3.8 2.16V2358.69h-11m22.34 13.15h14.16c5.59 0 9.09-2.65 9.09-6.84 0-1.86-.75-3.45-2.09-4.61-1.45-1.2-3.34-1.7-6.59-1.7h-5.91v-6.39c.05-.71.09-1 .3-1.25.36-.46 1.36-.66 3.5-.71h.2v-1.79h-12.66v1.79h.21c3.29.1 3.75.35 3.75 2.16V2368.05c-.05.75-.1 1.04-.3 1.29-.34.46-1.3.66-3.45.71h-.21v1.79m8.66-11h4.95c2.71 0 4.39 1.66 4.39 4.3 0 2.8-1.93 4.55-5.04 4.55h-2.5c-1.25-.05-1.8-.55-1.8-1.69v-7.16m14.34 4.5c.25 5.1 1.71 7.21 5.11 7.21 2.64 0 3.5-1 4.39-5.11 1-4.94 1.96-6.1 5.07-6.1h4.34V2368.05c-.05.75-.09 1.04-.3 1.29-.36.46-1.36.66-3.5.71h-.2v1.79h12.66v-1.79h-.21c-3.29-.11-3.75-.36-3.75-2.21v-15.5c.05-.75.1-1.04.3-1.29.34-.46 1.3-.66 3.45-.71h.21v-1.79h-14.16c-5.55 0-9.09 2.5-9.09 6.45 0 3 2.5 5.14 6.14 5.39-2.35.3-4 1.86-4.71 4.36-.93 4-1.25 4.64-2.18 4.64-.96 0-1.36-1.05-1.61-4.05h-1.96m18.91-6.15h-4.95c-2.71 0-4.39-1.6-4.39-4.14 0-2.66 1.93-4.36 5.04-4.36h2.5c1.25.06 1.8.56 1.8 1.7v6.8"
     id="path40" />
  <path
     class="LyricsLineSegment"
     fill="none"
     stroke="#000"
     stroke-width="3.72"
     stroke-linejoin="bevel"
     d="M886.509 882.099h19.842M1207.51 882.099h19.84M2152.15 882.099h19.84M1704.02 882.099h19.84M1878.19 882.099h19.84M1070.68 1643.2h19.84M1220.45 1643.2h19.85M2150.9 1643.2h19.84M898.75 1643.2h19.843M1443.15 1643.2h19.84M1906.79 1643.2h19.84M774.821 1643.2h19.843M852.965 2359.26h19.842M1156.84 2359.26h19.84M1516.85 2359.26h19.84M1901.73 2359.26h19.84"
     id="path42" />
  <path
     class="NoteDot"
     d="M1346.89 2555.04a4.955 4.955 0 0 0 4.96 4.96 4.955 4.955 0 0 0 4.961-4.96 4.955 4.955 0 0 0-4.96-4.96 4.955 4.955 0 0 0-4.961 4.96"
     id="path44" />
  <path
     class="Bracket"
     fill="none"
     stroke="#000"
     stroke-width="10.91"
     stroke-linejoin="bevel"
     d="M343.661 591.591v610.789"
     id="path48" />
  <path
     class="Bracket"
     d="M386.23 569.562c-.201-.093-.496-.202-.698-.202-.403 0-.852.156-1.085.496-.201.295-10.122 15.58-29.081 15.58H339.6c-.806 0-1.395.496-1.395 1.287v10.324h12.107c30.554 0 36.414-25.485 36.507-25.795.031-.093.109-.295.109-.496 0-.496-.31-.9-.698-1.194M386.23 1224.405c.388-.294.698-.698.698-1.194 0-.201-.078-.403-.109-.496-.093-.31-5.953-25.795-36.507-25.795h-12.107v10.325c0 .79.59 1.286 1.395 1.286h15.766c18.959 0 28.88 15.285 29.081 15.58.233.34.682.496 1.085.496.202 0 .497-.109.698-.202"
     id="path50" />
  <path
     class="Bracket"
     fill="none"
     stroke="#000"
     stroke-width="10.91"
     stroke-linejoin="bevel"
     d="M219.646 1352.69v565.75"
     id="path52" />
  <path
     class="Bracket"
     d="M262.214 1330.655c-.201-.093-.496-.202-.698-.202-.403 0-.852.156-1.085.496-.201.295-10.122 15.58-29.081 15.58h-15.766c-.806 0-1.395.496-1.395 1.287v10.324h12.107c30.554 0 36.414-25.485 36.507-25.795.031-.093.109-.295.109-.496 0-.496-.31-.9-.698-1.194M262.214 1940.475c.388-.294.698-.698.698-1.194 0-.201-.078-.403-.109-.496-.093-.31-5.953-25.795-36.507-25.795h-12.107v10.325c0 .79.59 1.286 1.395 1.286h15.766c18.959 0 28.88 15.285 29.081 15.58.233.34.682.496 1.085.496.202 0 .497-.109.698-.202"
     id="path54" />
  <path
     class="Bracket"
     fill="none"
     stroke="#000"
     stroke-width="10.91"
     stroke-linejoin="bevel"
     d="M219.646 2068.75v566.15"
     id="path56" />
  <path
     class="Bracket"
     d="M262.214 2046.725c-.201-.093-.496-.202-.698-.202-.403 0-.852.156-1.085.496-.201.295-10.122 15.58-29.081 15.58h-15.766c-.806 0-1.395.496-1.395 1.287v10.324h12.107c30.554 0 36.414-25.485 36.507-25.795.031-.093.109-.295.109-.496 0-.496-.31-.9-.698-1.194M262.214 2656.935c.388-.294.698-.698.698-1.194 0-.201-.078-.403-.109-.496-.093-.31-5.953-25.795-36.507-25.795h-12.107v10.325c0 .79.59 1.286 1.395 1.286h15.766c18.959 0 28.88 15.285 29.081 15.58.233.34.682.496 1.085.496.202 0 .497-.109.698-.202"
     id="path58" />
</svg>
