<svg width="2349.96" height="1139.596" version="1.2" xmlns="http://www.w3.org/2000/svg"><path class="StaffLines" fill="none" stroke="#000" stroke-width="2.812" stroke-linejoin="bevel" transform="matrix(.94237 0 0 1 -254.535 -587.746)" d="M352.094 634.252H2763.78M352.094 659.055H2763.78M352.094 683.858H2763.78M352.094 708.661H2763.78M352.094 733.465H2763.78"/><path class="StaffLines" fill="none" stroke="#000" stroke-width="2.812" stroke-linejoin="bevel" transform="matrix(.94237 0 0 1 -254.535 -672.844)" d="M352.094 1057.18H2763.78M352.094 1081.98H2763.78M352.094 1106.79H2763.78M352.094 1131.59H2763.78M352.094 1156.39H2763.78"/><path class="StaffLines" fill="none" stroke="#000" stroke-width="2.836" stroke-linejoin="bevel" transform="matrix(.92654 0 0 1 -210.796 -837.366)" d="M228.079 1480.11H2763.78M228.079 1504.91H2763.78M228.079 1529.72H2763.78M228.079 1554.52H2763.78M228.079 1579.32H2763.78"/><path class="StaffLines" fill="none" stroke="#000" stroke-width="2.836" stroke-linejoin="bevel" transform="matrix(.92654 0 0 1 -210.796 -918.464)" d="M228.079 1903.04H2763.78M228.079 1927.84H2763.78M228.079 1952.65H2763.78M228.079 1977.45H2763.78M228.079 2002.25H2763.78"/><path class="MeasureNumber" d="M23.335 577.824c-1.25.75-1.609 1.24-1.609 2.03 0 .77.64 1.33 1.437 1.33 1.047 0 1.641-.76 1.766-2.25 1.234-1 2.562-1.44 4.156-1.44 2.969 0 4.609 1.85 4.609 5.16 0 5.2-3.359 9.44-7.484 9.44-2.359 0-4.281-1.11-4.281-2.44 0-.23.047-.31.234-.44 1.047-.48 1.047-.48 1.328-.67.641-.48 1-1.2 1-2.05 0-1.28-1-2.23-2.406-2.23-1.75 0-3.078 1.47-3.078 3.39 0 3.53 3.047 6.08 7.328 6.08 6.469 0 11.719-5.16 11.719-11.55 0-4.05-3.078-6.89-7.438-6.89-1.734 0-3.125.36-5.047 1.33l2.235-7.56c2.125.43 3.812.64 5.25.64 2.64 0 5-.85 6.312-2.24.688-.79 1.078-1.48 1.078-2 0-.25-.125-.48-.281-.48-.109 0-.203.04-.437.15-1.313.64-3 1-4.563 1-2.39 0-5.234-.39-8.187-1.15l-3.641 12.84"/><path class="BarLine" fill="none" stroke="#000" stroke-width="4.46" stroke-linejoin="bevel" d="M96.842 382.976v101.94M545.784 382.976v101.94M1097.15 382.976v101.94M1476.737 382.976v101.94M2022.62 382.976v101.94M2347.73 382.976v101.94M21.083 983.216v101.94M963.955 983.216v101.94M1400.898 983.216v101.94M2025.058 983.216v101.94M2325.78 983.216v101.94"/><path class="BarLine" fill="none" stroke="#000" stroke-width="13.64" stroke-linejoin="bevel" d="M2343.14 983.216v101.94"/><path class="BarLine" fill="none" stroke="#000" stroke-width="4.46" stroke-linejoin="bevel" d="M96.842 45.142v424.292M545.784 45.142v101.941M1097.15 45.142v101.941M1476.737 45.142v101.941M2022.62 45.142v101.941M2347.73 45.142v101.941M21.083 641.384v424.29M963.955 641.384v101.94M1400.898 641.384v101.94M2025.058 641.384v101.94M2325.78 641.384v101.94"/><path class="BarLine" fill="none" stroke="#000" stroke-width="13.64" stroke-linejoin="bevel" d="M2343.14 641.384v101.94"/><path class="Accidental" d="M1282.925 1016.033c-.186-.201-.496-.294-.79-.294-.094 0-.295.093-.388.093l-12.51 3.472v-17.362h-2.775v49.11c0 .79.589 1.287 1.395 1.287h.387l12.51-3.472v17.362h2.667v-49.11c0-.388-.186-.884-.496-1.086m-2.17 24.602-11.518 3.178v-16.277l11.518-3.271v16.37M1282.925 674.201c-.186-.201-.496-.294-.79-.294-.094 0-.295.093-.388.093l-12.51 3.472V660.11h-2.775v49.11c0 .79.589 1.287 1.395 1.287h.387l12.51-3.473v17.362h2.667v-49.11c0-.387-.186-.883-.496-1.085m-2.17 24.602-11.518 3.178v-16.278l11.518-3.27v16.37" style="stroke-width:.992126"/><path class="LedgerLine" fill="none" stroke="#000" stroke-width="3.97" stroke-linejoin="bevel" d="M1265.56 170.522h49.59M2081.838 766.764h49.59"/><path class="Stem" fill="none" stroke="#000" stroke-width="2.73" stroke-linejoin="bevel" d="M453.778 424.876v77.28M607.607 474.486v64.87M735.923 449.676v71.08M864.233 424.876v77.28M992.553 424.876v77.28M1147.97 424.876v77.28M1275.6 474.486v64.87M1369.12 424.876v77.28M1536.567 424.876v77.28M1665.427 424.876v77.28M1794.287 474.486v64.87M1923.147 449.676v71.08M2073.44 424.876v77.28M2238.94 424.876v77.28M404.861 1049.916v71.08M550.09 1049.916v71.08M695.32 1062.316v67.98M840.547 1074.716v64.88M1012.775 1037.516v74.18M1140.342 1037.516v74.18M1290.992 1037.516v74.18M1453.718 1025.116v77.27M1592.398 1025.116v77.27M1731.078 1025.116v77.27M1904.418 1025.116v77.27M2091.878 1074.716v64.88M483.286 418.366v-71.23M637.115 381.166V319.23M765.433 381.166V319.23M893.743 381.166V319.23M1022.063 393.566v-65.04M1177.48 393.566v-65.04M1305.11 381.166V319.23M1398.63 418.366v-71.23M1566.077 367.81v-58.827M1694.937 367.81v-58.827M1823.797 381.166V319.23M1952.657 381.166V319.23M2102.95 393.566v-65.04M2268.44 418.366v-71.23M434.37 981.396v-61.93M579.598 981.396v-61.93M724.827 993.806v-65.04M870.055 993.806v-65.04M1042.285 981.396v-61.93M1169.852 981.396v-61.93M1320.492 981.396v-61.93M1483.228 981.396v-61.93M1621.908 981.396v-61.93M1760.578 993.806v-65.04M1933.928 993.806v-65.04M2121.388 981.396v-61.93M453.778 149.052v61.775M607.607 149.052v61.775M735.923 149.052v61.775M864.233 149.052v61.775M992.553 161.454v58.674M1147.97 161.454v58.674M1275.6 173.855v55.574M1369.12 149.052v61.775M1536.567 124.25v67.974M1665.427 124.25v67.974M1794.287 111.847v71.076M1923.147 149.052v61.775M2073.44 149.052v61.775M2238.94 149.052v61.775M404.861 745.294v61.77M550.09 745.294v61.77M695.32 745.294v61.77M840.547 745.294v61.77M1012.775 732.894v64.87M1140.342 732.894v64.87M1290.992 732.894v64.87M1453.718 745.294v61.77M1592.398 745.294v61.77M1731.078 757.694v64.87M1817.748 745.294v71.07M1904.418 757.694v58.67M2091.878 770.094v55.57M483.286 142.544V58.908M637.115 80.536V9.301M765.433 80.536V9.301M893.743 80.536V9.301M1022.063 92.937V18.602M1177.48 92.937V18.602M1305.11 105.34V27.903M1398.63 142.544V58.908M1566.077 68.134V0M1694.937 68.134V0M1823.797 80.536V9.301M1952.657 80.536V9.301M2102.95 92.937V18.602M2268.44 142.544V58.908M434.37 651.974v-65.04M579.598 651.974v-65.04M724.827 664.374v-68.14M870.055 676.774v-71.23M1042.285 639.574v-61.94M1169.852 689.174v-74.33M1320.492 689.174v-74.33M1483.228 676.774v-71.23M1621.908 676.774v-71.23M1760.578 689.174v-71.23M1847.258 676.774v-65.03M1933.928 689.174v-74.33M2121.388 701.574v-77.43"/><path class="Note" d="M483.666 413.516c-1.783-3.286-5.55-5.069-10.123-5.069-3.364 0-7.038.992-10.618 2.884-6.542 3.472-10.51 9.316-10.51 14.385 0 1.38.294 2.775.991 4.062 1.783 3.27 5.55 4.96 10.123 4.96 3.364 0 7.038-.883 10.619-2.774 6.542-3.473 10.51-9.333 10.51-14.386 0-1.395-.294-2.775-.992-4.062M637.495 463.116c-1.782-3.286-5.55-5.069-10.122-5.069-3.364 0-7.038.992-10.62 2.884-6.541 3.472-10.51 9.316-10.51 14.385 0 1.38.295 2.775.992 4.062 1.783 3.27 5.55 4.96 10.123 4.96 3.364 0 7.038-.883 10.62-2.774 6.54-3.473 10.51-9.333 10.51-14.386 0-1.395-.295-2.775-.993-4.062M765.805 438.316c-1.782-3.286-5.55-5.069-10.122-5.069-3.364 0-7.038.992-10.62 2.884-6.541 3.472-10.51 9.316-10.51 14.385 0 1.38.295 2.775.992 4.062 1.783 3.27 5.55 4.96 10.123 4.96 3.364 0 7.038-.883 10.62-2.774 6.54-3.473 10.51-9.333 10.51-14.386 0-1.395-.295-2.775-.993-4.062M894.125 413.516c-1.782-3.286-5.55-5.069-10.122-5.069-3.364 0-7.038.992-10.62 2.884-6.541 3.472-10.51 9.316-10.51 14.385 0 1.38.295 2.775.992 4.062 1.783 3.27 5.55 4.96 10.123 4.96 3.364 0 7.038-.883 10.62-2.774 6.54-3.473 10.51-9.333 10.51-14.386 0-1.395-.295-2.775-.993-4.062M1022.435 413.516c-1.782-3.286-5.55-5.069-10.122-5.069-3.364 0-7.038.992-10.62 2.884-6.541 3.472-10.51 9.316-10.51 14.385 0 1.38.295 2.775.992 4.062 1.783 3.27 5.55 4.96 10.123 4.96 3.364 0 7.038-.883 10.62-2.774 6.54-3.473 10.51-9.333 10.51-14.386 0-1.395-.295-2.775-.993-4.062M1177.861 413.47c-1.782-3.271-5.55-5.054-10.122-5.054-3.364 0-7.038.992-10.62 2.868-6.541 3.472-10.51 9.332-10.51 14.386 0 1.395.295 2.79.993 4.077 1.782 3.286 5.55 4.976 10.122 4.976 3.364 0 7.038-.899 10.62-2.775 6.541-3.488 10.51-9.348 10.51-14.417 0-1.38-.295-2.775-.993-4.061m-4.263 6.743c-1.69 1.69-5.069 3.767-8.634 5.767-3.566 1.984-7.146 3.472-9.518 3.968-.496.109-.992.202-1.488.202-1.597 0-2.79-.59-3.473-1.891a3.213 3.213 0 0 1-.496-1.69c0-1.085.682-2.387 1.783-3.472 1.69-1.69 4.96-3.767 8.526-5.752 3.58-1.984 7.146-3.472 9.534-3.968.496-.109.992-.202 1.488-.202 1.58 0 2.868.59 3.565 1.876.295.496.403 1.1.403 1.69 0 1.1-.604 2.279-1.69 3.472M1305.492 463.116c-1.783-3.286-5.55-5.069-10.123-5.069-3.364 0-7.038.992-10.62 2.884-6.541 3.472-10.51 9.316-10.51 14.385 0 1.38.295 2.775.993 4.062 1.782 3.27 5.55 4.96 10.122 4.96 3.364 0 7.038-.883 10.62-2.774 6.541-3.473 10.51-9.333 10.51-14.386 0-1.395-.295-2.775-.992-4.062M1399.002 413.516c-1.783-3.286-5.55-5.069-10.123-5.069-3.364 0-7.038.992-10.62 2.884-6.541 3.472-10.51 9.316-10.51 14.385 0 1.38.295 2.775.993 4.062 1.782 3.27 5.55 4.96 10.122 4.96 3.364 0 7.038-.883 10.62-2.774 6.541-3.473 10.51-9.333 10.51-14.386 0-1.395-.295-2.775-.992-4.062M1566.449 413.516c-1.783-3.286-5.55-5.069-10.123-5.069-3.364 0-7.038.992-10.619 2.884-6.541 3.472-10.51 9.316-10.51 14.385 0 1.38.295 2.775.992 4.062 1.783 3.27 5.55 4.96 10.123 4.96 3.364 0 7.038-.883 10.619-2.774 6.542-3.473 10.51-9.333 10.51-14.386 0-1.395-.294-2.775-.992-4.062M1695.309 413.516c-1.783-3.286-5.55-5.069-10.123-5.069-3.364 0-7.038.992-10.619 2.884-6.541 3.472-10.51 9.316-10.51 14.385 0 1.38.295 2.775.992 4.062 1.783 3.27 5.55 4.96 10.123 4.96 3.364 0 7.038-.883 10.619-2.774 6.542-3.473 10.51-9.333 10.51-14.386 0-1.395-.294-2.775-.992-4.062M1824.169 463.116c-1.783-3.286-5.55-5.069-10.123-5.069-3.364 0-7.038.992-10.619 2.884-6.541 3.472-10.51 9.316-10.51 14.385 0 1.38.295 2.775.992 4.062 1.783 3.27 5.55 4.96 10.123 4.96 3.364 0 7.038-.883 10.619-2.774 6.541-3.473 10.51-9.333 10.51-14.386 0-1.395-.295-2.775-.992-4.062M1953.039 438.316c-1.783-3.286-5.55-5.069-10.123-5.069-3.364 0-7.038.992-10.619 2.884-6.541 3.472-10.51 9.316-10.51 14.385 0 1.38.295 2.775.992 4.062 1.783 3.27 5.55 4.96 10.123 4.96 3.364 0 7.038-.883 10.619-2.774 6.542-3.473 10.51-9.333 10.51-14.386 0-1.395-.294-2.775-.992-4.062M2103.332 413.47c-1.783-3.271-5.55-5.054-10.123-5.054-3.364 0-7.038.992-10.619 2.868-6.542 3.472-10.51 9.332-10.51 14.386 0 1.395.294 2.79.992 4.077 1.783 3.286 5.55 4.976 10.123 4.976 3.364 0 7.038-.899 10.619-2.775 6.542-3.488 10.51-9.348 10.51-14.417 0-1.38-.295-2.775-.992-4.061m-4.263 6.743c-1.69 1.69-5.07 3.767-8.635 5.767-3.565 1.984-7.146 3.472-9.518 3.968-.496.109-.992.202-1.488.202-1.597 0-2.79-.59-3.472-1.891a3.212 3.212 0 0 1-.497-1.69c0-1.085.683-2.387 1.783-3.472 1.69-1.69 4.96-3.767 8.526-5.752 3.581-1.984 7.147-3.472 9.534-3.968.496-.109.992-.202 1.488-.202 1.581 0 2.868.59 3.566 1.876.294.496.403 1.1.403 1.69 0 1.1-.605 2.279-1.69 3.472M2268.822 413.516c-1.783-3.286-5.55-5.069-10.123-5.069-3.364 0-7.038.992-10.619 2.883-6.542 3.473-10.51 9.317-10.51 14.386 0 1.38.294 2.775.992 4.062 1.783 3.27 5.55 4.96 10.123 4.96 3.364 0 7.038-.883 10.619-2.774 6.541-3.473 10.51-9.333 10.51-14.386 0-1.395-.295-2.775-.992-4.062M434.75 1038.556c-1.784-3.286-5.55-5.069-10.124-5.069-3.364 0-7.038.992-10.618 2.883-6.542 3.473-10.51 9.317-10.51 14.386 0 1.38.294 2.775.991 4.062 1.783 3.27 5.55 4.96 10.123 4.96 3.364 0 7.038-.883 10.619-2.774 6.542-3.473 10.51-9.333 10.51-14.386 0-1.395-.294-2.775-.992-4.062M579.978 1038.556c-1.783-3.286-5.55-5.069-10.123-5.069-3.364 0-7.038.992-10.618 2.883-6.542 3.473-10.51 9.317-10.51 14.386 0 1.38.294 2.775.991 4.062 1.783 3.27 5.55 4.96 10.123 4.96 3.364 0 7.038-.883 10.619-2.774 6.542-3.473 10.51-9.333 10.51-14.386 0-1.395-.294-2.775-.992-4.062M725.206 1050.956c-1.783-3.286-5.55-5.069-10.123-5.069-3.364 0-7.038.992-10.618 2.883-6.542 3.473-10.51 9.317-10.51 14.386 0 1.38.294 2.775.991 4.062 1.783 3.27 5.55 4.96 10.123 4.96 3.364 0 7.038-.883 10.619-2.774 6.542-3.473 10.51-9.333 10.51-14.386 0-1.395-.294-2.775-.992-4.062M870.435 1063.356c-1.783-3.286-5.55-5.069-10.123-5.069-3.364 0-7.038.992-10.618 2.883-6.542 3.473-10.51 9.317-10.51 14.386 0 1.38.294 2.775.991 4.062 1.783 3.27 5.55 4.96 10.123 4.96 3.364 0 7.038-.883 10.619-2.774 6.542-3.473 10.51-9.333 10.51-14.386 0-1.395-.294-2.775-.992-4.062M1042.657 1026.11c-1.782-3.271-5.55-5.054-10.122-5.054-3.364 0-7.038.992-10.62 2.868-6.541 3.472-10.51 9.332-10.51 14.386 0 1.395.295 2.79.993 4.077 1.782 3.286 5.55 4.976 10.122 4.976 3.364 0 7.038-.9 10.62-2.775 6.541-3.488 10.51-9.348 10.51-14.417 0-1.38-.295-2.775-.993-4.061m-4.263 6.743c-1.69 1.69-5.069 3.767-8.634 5.767-3.566 1.984-7.147 3.472-9.518 3.968-.496.109-.993.202-1.489.202-1.596 0-2.79-.59-3.472-1.891a3.213 3.213 0 0 1-.496-1.69c0-1.085.682-2.387 1.783-3.473 1.69-1.69 4.96-3.767 8.526-5.75 3.58-1.985 7.146-3.473 9.533-3.97.497-.108.993-.2 1.489-.2 1.58 0 2.867.588 3.565 1.875.295.496.403 1.1.403 1.69 0 1.1-.605 2.278-1.69 3.472M1170.234 1026.156c-1.783-3.286-5.55-5.069-10.123-5.069-3.364 0-7.038.992-10.619 2.883-6.542 3.473-10.51 9.317-10.51 14.386 0 1.38.294 2.775.992 4.062 1.783 3.27 5.55 4.96 10.123 4.96 3.364 0 7.038-.883 10.619-2.774 6.541-3.473 10.51-9.333 10.51-14.386 0-1.395-.295-2.775-.992-4.062M1320.874 1026.156c-1.783-3.286-5.55-5.069-10.123-5.069-3.364 0-7.038.992-10.619 2.883-6.542 3.473-10.51 9.317-10.51 14.386 0 1.38.294 2.775.992 4.062 1.783 3.27 5.55 4.96 10.123 4.96 3.364 0 7.038-.883 10.619-2.774 6.541-3.473 10.51-9.333 10.51-14.386 0-1.395-.295-2.775-.992-4.062M1483.61 1013.746c-1.782-3.286-5.55-5.069-10.122-5.069-3.364 0-7.038.992-10.62 2.883-6.541 3.473-10.51 9.317-10.51 14.386 0 1.38.295 2.775.993 4.062 1.782 3.27 5.55 4.96 10.122 4.96 3.364 0 7.038-.883 10.62-2.774 6.541-3.473 10.51-9.333 10.51-14.386 0-1.395-.295-2.775-.993-4.062M1622.28 1013.746c-1.782-3.286-5.55-5.069-10.122-5.069-3.364 0-7.038.992-10.62 2.883-6.541 3.473-10.51 9.317-10.51 14.386 0 1.38.295 2.775.993 4.062 1.782 3.27 5.55 4.96 10.122 4.96 3.364 0 7.038-.883 10.62-2.774 6.541-3.473 10.51-9.333 10.51-14.386 0-1.395-.295-2.775-.993-4.062M1760.96 1013.746c-1.782-3.286-5.55-5.069-10.122-5.069-3.364 0-7.038.992-10.62 2.883-6.541 3.473-10.51 9.317-10.51 14.386 0 1.38.295 2.775.992 4.062 1.783 3.27 5.55 4.96 10.123 4.96 3.364 0 7.038-.883 10.62-2.774 6.541-3.473 10.51-9.333 10.51-14.386 0-1.395-.295-2.775-.993-4.062M1934.31 1013.746c-1.782-3.286-5.55-5.069-10.122-5.069-3.364 0-7.038.992-10.62 2.883-6.541 3.473-10.51 9.317-10.51 14.386 0 1.38.295 2.775.993 4.062 1.782 3.27 5.55 4.96 10.122 4.96 3.364 0 7.038-.883 10.62-2.774 6.541-3.473 10.51-9.333 10.51-14.386 0-1.395-.295-2.775-.993-4.062M2121.77 1063.31c-1.783-3.271-5.55-5.054-10.123-5.054-3.364 0-7.038.992-10.619 2.868-6.542 3.472-10.51 9.332-10.51 14.386 0 1.395.294 2.79.992 4.077 1.783 3.286 5.55 4.976 10.123 4.976 3.364 0 7.038-.9 10.618-2.775 6.542-3.488 10.51-9.348 10.51-14.417 0-1.38-.294-2.775-.991-4.061m-4.263 6.743c-1.69 1.69-5.07 3.767-8.635 5.767-3.565 1.984-7.146 3.472-9.518 3.968-.496.109-.992.202-1.488.202-1.597 0-2.79-.59-3.473-1.891a3.213 3.213 0 0 1-.496-1.69c0-1.085.682-2.387 1.783-3.473 1.69-1.69 4.96-3.767 8.526-5.75 3.581-1.985 7.146-3.473 9.534-3.97.496-.108.992-.2 1.488-.2 1.581 0 2.868.588 3.565 1.875.295.496.403 1.1.403 1.69 0 1.1-.604 2.278-1.69 3.472" style="stroke-width:.992126"/><path class="Note" d="M483.666 413.516c-1.783-3.286-5.55-5.069-10.123-5.069-3.364 0-7.038.992-10.618 2.884-6.542 3.472-10.51 9.316-10.51 14.385 0 1.38.294 2.775.991 4.062 1.783 3.27 5.55 4.96 10.123 4.96 3.364 0 7.038-.883 10.619-2.774 6.542-3.473 10.51-9.333 10.51-14.386 0-1.395-.294-2.775-.992-4.062M637.495 376.306c-1.782-3.286-5.55-5.069-10.122-5.069-3.364 0-7.038.992-10.62 2.883-6.541 3.473-10.51 9.317-10.51 14.386 0 1.38.295 2.775.992 4.062 1.783 3.27 5.55 4.96 10.123 4.96 3.364 0 7.038-.883 10.62-2.774 6.54-3.473 10.51-9.333 10.51-14.386 0-1.395-.295-2.775-.993-4.062M765.805 376.306c-1.782-3.286-5.55-5.069-10.122-5.069-3.364 0-7.038.992-10.62 2.883-6.541 3.473-10.51 9.317-10.51 14.386 0 1.38.295 2.775.992 4.062 1.783 3.27 5.55 4.96 10.123 4.96 3.364 0 7.038-.883 10.62-2.774 6.54-3.473 10.51-9.333 10.51-14.386 0-1.395-.295-2.775-.993-4.062M894.125 376.306c-1.782-3.286-5.55-5.069-10.122-5.069-3.364 0-7.038.992-10.62 2.883-6.541 3.473-10.51 9.317-10.51 14.386 0 1.38.295 2.775.992 4.062 1.783 3.27 5.55 4.96 10.123 4.96 3.364 0 7.038-.883 10.62-2.774 6.54-3.473 10.51-9.333 10.51-14.386 0-1.395-.295-2.775-.993-4.062M1022.435 388.706c-1.782-3.286-5.55-5.069-10.122-5.069-3.364 0-7.038.992-10.62 2.884-6.541 3.472-10.51 9.316-10.51 14.385 0 1.38.295 2.775.992 4.062 1.783 3.27 5.55 4.96 10.123 4.96 3.364 0 7.038-.883 10.62-2.774 6.54-3.473 10.51-9.333 10.51-14.386 0-1.395-.295-2.775-.993-4.062M1177.861 388.66c-1.782-3.271-5.55-5.054-10.122-5.054-3.364 0-7.038.992-10.62 2.868-6.541 3.472-10.51 9.332-10.51 14.386 0 1.395.295 2.79.993 4.077 1.782 3.286 5.55 4.976 10.122 4.976 3.364 0 7.038-.9 10.62-2.775 6.541-3.488 10.51-9.348 10.51-14.417 0-1.38-.295-2.775-.993-4.061m-4.263 6.743c-1.69 1.69-5.069 3.767-8.634 5.767-3.566 1.984-7.146 3.472-9.518 3.968-.496.109-.992.202-1.488.202-1.597 0-2.79-.59-3.473-1.891a3.213 3.213 0 0 1-.496-1.69c0-1.085.682-2.387 1.783-3.472 1.69-1.69 4.96-3.767 8.526-5.752 3.58-1.984 7.146-3.472 9.534-3.968.496-.109.992-.202 1.488-.202 1.58 0 2.868.59 3.565 1.876.295.496.403 1.1.403 1.69 0 1.1-.604 2.279-1.69 3.472M1305.492 376.306c-1.783-3.286-5.55-5.069-10.123-5.069-3.364 0-7.038.992-10.62 2.883-6.541 3.473-10.51 9.317-10.51 14.386 0 1.38.295 2.775.993 4.062 1.782 3.27 5.55 4.96 10.122 4.96 3.364 0 7.038-.883 10.62-2.774 6.541-3.473 10.51-9.333 10.51-14.386 0-1.395-.295-2.775-.992-4.062M1399.002 413.516c-1.783-3.286-5.55-5.069-10.123-5.069-3.364 0-7.038.992-10.62 2.884-6.541 3.472-10.51 9.316-10.51 14.385 0 1.38.295 2.775.993 4.062 1.782 3.27 5.55 4.96 10.122 4.96 3.364 0 7.038-.883 10.62-2.774 6.541-3.473 10.51-9.333 10.51-14.386 0-1.395-.295-2.775-.992-4.062M1566.449 363.906c-1.783-3.286-5.55-5.069-10.123-5.069-3.364 0-7.038.992-10.619 2.883-6.541 3.473-10.51 9.317-10.51 14.386 0 1.38.295 2.775.992 4.062 1.783 3.27 5.55 4.96 10.123 4.96 3.364 0 7.038-.883 10.619-2.774 6.542-3.473 10.51-9.333 10.51-14.386 0-1.395-.294-2.775-.992-4.062M1695.309 363.906c-1.783-3.286-5.55-5.069-10.123-5.069-3.364 0-7.038.992-10.619 2.883-6.541 3.473-10.51 9.317-10.51 14.386 0 1.38.295 2.775.992 4.062 1.783 3.27 5.55 4.96 10.123 4.96 3.364 0 7.038-.883 10.619-2.774 6.542-3.473 10.51-9.333 10.51-14.386 0-1.395-.294-2.775-.992-4.062M1824.169 376.306c-1.783-3.286-5.55-5.069-10.123-5.069-3.364 0-7.038.992-10.619 2.883-6.541 3.473-10.51 9.317-10.51 14.386 0 1.38.295 2.775.992 4.062 1.783 3.27 5.55 4.96 10.123 4.96 3.364 0 7.038-.883 10.619-2.774 6.541-3.473 10.51-9.333 10.51-14.386 0-1.395-.295-2.775-.992-4.062M1953.039 376.306c-1.783-3.286-5.55-5.069-10.123-5.069-3.364 0-7.038.992-10.619 2.883-6.541 3.473-10.51 9.317-10.51 14.386 0 1.38.295 2.775.992 4.062 1.783 3.27 5.55 4.96 10.123 4.96 3.364 0 7.038-.883 10.619-2.774 6.542-3.473 10.51-9.333 10.51-14.386 0-1.395-.294-2.775-.992-4.062M2103.332 388.66c-1.783-3.271-5.55-5.054-10.123-5.054-3.364 0-7.038.992-10.619 2.868-6.542 3.472-10.51 9.332-10.51 14.386 0 1.395.294 2.79.992 4.077 1.783 3.286 5.55 4.976 10.123 4.976 3.364 0 7.038-.9 10.619-2.775 6.542-3.488 10.51-9.348 10.51-14.417 0-1.38-.295-2.775-.992-4.061m-4.263 6.743c-1.69 1.69-5.07 3.767-8.635 5.767-3.565 1.984-7.146 3.472-9.518 3.968-.496.109-.992.202-1.488.202-1.597 0-2.79-.59-3.472-1.891a3.212 3.212 0 0 1-.497-1.69c0-1.085.683-2.387 1.783-3.472 1.69-1.69 4.96-3.767 8.526-5.752 3.581-1.984 7.147-3.472 9.534-3.968.496-.109.992-.202 1.488-.202 1.581 0 2.868.59 3.566 1.876.294.496.403 1.1.403 1.69 0 1.1-.605 2.279-1.69 3.472M2268.822 413.516c-1.783-3.286-5.55-5.069-10.123-5.069-3.364 0-7.038.992-10.619 2.883-6.542 3.473-10.51 9.317-10.51 14.386 0 1.38.294 2.775.992 4.062 1.783 3.27 5.55 4.96 10.123 4.96 3.364 0 7.038-.883 10.619-2.774 6.541-3.473 10.51-9.333 10.51-14.386 0-1.395-.295-2.775-.992-4.062M434.75 976.546c-1.784-3.286-5.55-5.069-10.124-5.069-3.364 0-7.038.992-10.618 2.883-6.542 3.473-10.51 9.317-10.51 14.386 0 1.38.294 2.775.991 4.062 1.783 3.27 5.55 4.96 10.123 4.96 3.364 0 7.038-.883 10.619-2.775 6.542-3.472 10.51-9.332 10.51-14.385 0-1.396-.294-2.775-.992-4.062M579.978 976.546c-1.783-3.286-5.55-5.069-10.123-5.069-3.364 0-7.038.992-10.618 2.883-6.542 3.473-10.51 9.317-10.51 14.386 0 1.38.294 2.775.991 4.062 1.783 3.27 5.55 4.96 10.123 4.96 3.364 0 7.038-.883 10.619-2.775 6.542-3.472 10.51-9.332 10.51-14.385 0-1.396-.294-2.775-.992-4.062M725.206 988.946c-1.783-3.286-5.55-5.069-10.123-5.069-3.364 0-7.038.992-10.618 2.883-6.542 3.473-10.51 9.317-10.51 14.386 0 1.38.294 2.775.991 4.062 1.783 3.27 5.55 4.96 10.123 4.96 3.364 0 7.038-.883 10.619-2.774 6.542-3.473 10.51-9.333 10.51-14.386 0-1.396-.294-2.775-.992-4.062M870.435 988.946c-1.783-3.286-5.55-5.069-10.123-5.069-3.364 0-7.038.992-10.618 2.883-6.542 3.473-10.51 9.317-10.51 14.386 0 1.38.294 2.775.991 4.062 1.783 3.27 5.55 4.96 10.123 4.96 3.364 0 7.038-.883 10.619-2.774 6.542-3.473 10.51-9.333 10.51-14.386 0-1.396-.294-2.775-.992-4.062M1042.657 976.5c-1.782-3.271-5.55-5.054-10.122-5.054-3.364 0-7.038.992-10.62 2.868-6.541 3.472-10.51 9.332-10.51 14.386 0 1.395.295 2.79.993 4.077 1.782 3.286 5.55 4.976 10.122 4.976 3.364 0 7.038-.9 10.62-2.775 6.541-3.488 10.51-9.348 10.51-14.417 0-1.38-.295-2.775-.993-4.061m-4.263 6.743c-1.69 1.69-5.069 3.767-8.634 5.767-3.566 1.984-7.147 3.472-9.518 3.968-.496.109-.993.202-1.489.202-1.596 0-2.79-.59-3.472-1.892a3.213 3.213 0 0 1-.496-1.69c0-1.084.682-2.387 1.783-3.472 1.69-1.69 4.96-3.767 8.526-5.75 3.58-1.985 7.146-3.473 9.533-3.97.497-.108.993-.2 1.489-.2 1.58 0 2.867.588 3.565 1.875.295.496.403 1.1.403 1.69 0 1.1-.605 2.278-1.69 3.472M1170.234 976.546c-1.783-3.286-5.55-5.069-10.123-5.069-3.364 0-7.038.992-10.619 2.883-6.542 3.473-10.51 9.317-10.51 14.386 0 1.38.294 2.775.992 4.062 1.783 3.27 5.55 4.96 10.123 4.96 3.364 0 7.038-.883 10.619-2.775 6.541-3.472 10.51-9.332 10.51-14.385 0-1.396-.295-2.775-.992-4.062M1320.874 976.546c-1.783-3.286-5.55-5.069-10.123-5.069-3.364 0-7.038.992-10.619 2.883-6.542 3.473-10.51 9.317-10.51 14.386 0 1.38.294 2.775.992 4.062 1.783 3.27 5.55 4.96 10.123 4.96 3.364 0 7.038-.883 10.619-2.775 6.541-3.472 10.51-9.332 10.51-14.385 0-1.396-.295-2.775-.992-4.062M1483.61 976.546c-1.782-3.286-5.55-5.069-10.122-5.069-3.364 0-7.038.992-10.62 2.883-6.541 3.473-10.51 9.317-10.51 14.386 0 1.38.295 2.775.993 4.062 1.782 3.27 5.55 4.96 10.122 4.96 3.364 0 7.038-.883 10.62-2.775 6.541-3.472 10.51-9.332 10.51-14.385 0-1.396-.295-2.775-.993-4.062M1622.28 976.546c-1.782-3.286-5.55-5.069-10.122-5.069-3.364 0-7.038.992-10.62 2.883-6.541 3.473-10.51 9.317-10.51 14.386 0 1.38.295 2.775.993 4.062 1.782 3.27 5.55 4.96 10.122 4.96 3.364 0 7.038-.883 10.62-2.775 6.541-3.472 10.51-9.332 10.51-14.385 0-1.396-.295-2.775-.993-4.062M1760.96 988.946c-1.782-3.286-5.55-5.069-10.122-5.069-3.364 0-7.038.992-10.62 2.883-6.541 3.473-10.51 9.317-10.51 14.386 0 1.38.295 2.775.992 4.062 1.783 3.27 5.55 4.96 10.123 4.96 3.364 0 7.038-.883 10.62-2.774 6.541-3.473 10.51-9.333 10.51-14.386 0-1.396-.295-2.775-.993-4.062M1934.31 988.946c-1.782-3.286-5.55-5.069-10.122-5.069-3.364 0-7.038.992-10.62 2.883-6.541 3.473-10.51 9.317-10.51 14.386 0 1.38.295 2.775.993 4.062 1.782 3.27 5.55 4.96 10.122 4.96 3.364 0 7.038-.883 10.62-2.774 6.541-3.473 10.51-9.333 10.51-14.386 0-1.396-.295-2.775-.993-4.062M2121.77 976.5c-1.783-3.271-5.55-5.054-10.123-5.054-3.364 0-7.038.992-10.619 2.868-6.542 3.472-10.51 9.332-10.51 14.386 0 1.395.294 2.79.992 4.077 1.783 3.286 5.55 4.976 10.123 4.976 3.364 0 7.038-.9 10.618-2.775 6.542-3.488 10.51-9.348 10.51-14.417 0-1.38-.294-2.775-.991-4.061m-4.263 6.743c-1.69 1.69-5.07 3.767-8.635 5.767-3.565 1.984-7.146 3.472-9.518 3.968-.496.109-.992.202-1.488.202-1.597 0-2.79-.59-3.473-1.891a3.213 3.213 0 0 1-.496-1.69c0-1.085.682-2.388 1.783-3.473 1.69-1.69 4.96-3.767 8.526-5.75 3.581-1.985 7.146-3.473 9.534-3.97.496-.108.992-.2 1.488-.2 1.581 0 2.868.588 3.565 1.875.295.496.403 1.1.403 1.69 0 1.1-.604 2.278-1.69 3.472M483.666 137.689c-1.783-3.286-5.55-5.07-10.123-5.07-3.364 0-7.038.993-10.618 2.884-6.542 3.473-10.51 9.317-10.51 14.386 0 1.38.294 2.775.991 4.062 1.783 3.27 5.55 4.96 10.123 4.96 3.364 0 7.038-.883 10.619-2.775 6.542-3.472 10.51-9.332 10.51-14.385 0-1.396-.294-2.775-.992-4.062M637.495 137.689c-1.782-3.286-5.55-5.07-10.122-5.07-3.364 0-7.038.993-10.62 2.884-6.541 3.473-10.51 9.317-10.51 14.386 0 1.38.295 2.775.992 4.062 1.783 3.27 5.55 4.96 10.123 4.96 3.364 0 7.038-.883 10.62-2.775 6.54-3.472 10.51-9.332 10.51-14.385 0-1.396-.295-2.775-.993-4.062M765.805 137.689c-1.782-3.286-5.55-5.07-10.122-5.07-3.364 0-7.038.993-10.62 2.884-6.541 3.473-10.51 9.317-10.51 14.386 0 1.38.295 2.775.992 4.062 1.783 3.27 5.55 4.96 10.123 4.96 3.364 0 7.038-.883 10.62-2.775 6.54-3.472 10.51-9.332 10.51-14.385 0-1.396-.295-2.775-.993-4.062M894.125 137.689c-1.782-3.286-5.55-5.07-10.122-5.07-3.364 0-7.038.993-10.62 2.884-6.541 3.473-10.51 9.317-10.51 14.386 0 1.38.295 2.775.992 4.062 1.783 3.27 5.55 4.96 10.123 4.96 3.364 0 7.038-.883 10.62-2.775 6.54-3.472 10.51-9.332 10.51-14.385 0-1.396-.295-2.775-.993-4.062M1022.435 150.09c-1.782-3.286-5.55-5.07-10.122-5.07-3.364 0-7.038.993-10.62 2.884-6.541 3.473-10.51 9.317-10.51 14.386 0 1.38.295 2.775.992 4.062 1.783 3.27 5.55 4.96 10.123 4.96 3.364 0 7.038-.883 10.62-2.775 6.54-3.472 10.51-9.332 10.51-14.385 0-1.396-.295-2.775-.993-4.062M1177.861 150.044c-1.782-3.271-5.55-5.054-10.122-5.054-3.364 0-7.038.992-10.62 2.868-6.541 3.472-10.51 9.332-10.51 14.386 0 1.395.295 2.79.993 4.077 1.782 3.286 5.55 4.976 10.122 4.976 3.364 0 7.038-.9 10.62-2.775 6.541-3.488 10.51-9.348 10.51-14.417 0-1.38-.295-2.775-.993-4.061m-4.263 6.743c-1.69 1.69-5.069 3.767-8.634 5.767-3.566 1.984-7.146 3.472-9.518 3.968-.496.109-.992.202-1.488.202-1.597 0-2.79-.59-3.473-1.892a3.213 3.213 0 0 1-.496-1.69c0-1.084.682-2.387 1.783-3.472 1.69-1.69 4.96-3.767 8.526-5.751 3.58-1.984 7.146-3.472 9.534-3.968.496-.109.992-.202 1.488-.202 1.58 0 2.868.59 3.565 1.876.295.496.403 1.1.403 1.69 0 1.1-.604 2.278-1.69 3.472M1305.492 162.492c-1.783-3.286-5.55-5.07-10.123-5.07-3.364 0-7.038.993-10.62 2.884-6.541 3.473-10.51 9.317-10.51 14.386 0 1.38.295 2.775.993 4.062 1.782 3.27 5.55 4.96 10.122 4.96 3.364 0 7.038-.883 10.62-2.775 6.541-3.472 10.51-9.332 10.51-14.385 0-1.396-.295-2.775-.992-4.062M1399.002 137.689c-1.783-3.286-5.55-5.07-10.123-5.07-3.364 0-7.038.993-10.62 2.884-6.541 3.473-10.51 9.317-10.51 14.386 0 1.38.295 2.775.993 4.062 1.782 3.27 5.55 4.96 10.122 4.96 3.364 0 7.038-.883 10.62-2.775 6.541-3.472 10.51-9.332 10.51-14.385 0-1.396-.295-2.775-.992-4.062M1566.449 112.885c-1.783-3.286-5.55-5.07-10.123-5.07-3.364 0-7.038.993-10.619 2.884-6.541 3.473-10.51 9.317-10.51 14.386 0 1.38.295 2.775.992 4.062 1.783 3.27 5.55 4.96 10.123 4.96 3.364 0 7.038-.883 10.619-2.775 6.542-3.472 10.51-9.332 10.51-14.385 0-1.396-.294-2.775-.992-4.062M1695.309 112.885c-1.783-3.286-5.55-5.07-10.123-5.07-3.364 0-7.038.993-10.619 2.884-6.541 3.473-10.51 9.317-10.51 14.386 0 1.38.295 2.775.992 4.062 1.783 3.27 5.55 4.96 10.123 4.96 3.364 0 7.038-.883 10.619-2.775 6.542-3.472 10.51-9.332 10.51-14.385 0-1.396-.294-2.775-.992-4.062M1824.169 100.484c-1.783-3.286-5.55-5.07-10.123-5.07-3.364 0-7.038.993-10.619 2.884-6.541 3.473-10.51 9.317-10.51 14.386 0 1.38.295 2.775.992 4.062 1.783 3.27 5.55 4.96 10.123 4.96 3.364 0 7.038-.883 10.619-2.775 6.541-3.472 10.51-9.332 10.51-14.385 0-1.396-.295-2.775-.992-4.062M1953.039 137.689c-1.783-3.286-5.55-5.07-10.123-5.07-3.364 0-7.038.993-10.619 2.884-6.541 3.473-10.51 9.317-10.51 14.386 0 1.38.295 2.775.992 4.062 1.783 3.27 5.55 4.96 10.123 4.96 3.364 0 7.038-.883 10.619-2.775 6.542-3.472 10.51-9.332 10.51-14.385 0-1.396-.294-2.775-.992-4.062M2103.332 137.643c-1.783-3.271-5.55-5.054-10.123-5.054-3.364 0-7.038.992-10.619 2.868-6.542 3.472-10.51 9.332-10.51 14.386 0 1.395.294 2.79.992 4.077 1.783 3.286 5.55 4.976 10.123 4.976 3.364 0 7.038-.9 10.619-2.775 6.542-3.488 10.51-9.348 10.51-14.417 0-1.38-.295-2.775-.992-4.061m-4.263 6.743c-1.69 1.69-5.07 3.767-8.635 5.767-3.565 1.984-7.146 3.472-9.518 3.968-.496.109-.992.202-1.488.202-1.597 0-2.79-.59-3.472-1.892a3.212 3.212 0 0 1-.497-1.69c0-1.084.683-2.387 1.783-3.472 1.69-1.69 4.96-3.767 8.526-5.751 3.581-1.984 7.147-3.472 9.534-3.968.496-.109.992-.202 1.488-.202 1.581 0 2.868.59 3.566 1.876.294.496.403 1.1.403 1.69 0 1.1-.605 2.278-1.69 3.472M2268.822 137.689c-1.783-3.286-5.55-5.07-10.123-5.07-3.364 0-7.038.993-10.619 2.884-6.542 3.473-10.51 9.317-10.51 14.386 0 1.38.294 2.775.992 4.062 1.783 3.27 5.55 4.96 10.123 4.96 3.364 0 7.038-.883 10.619-2.775 6.541-3.472 10.51-9.332 10.51-14.385 0-1.396-.295-2.775-.992-4.062M434.75 733.924c-1.784-3.287-5.55-5.07-10.124-5.07-3.364 0-7.038.993-10.618 2.884-6.542 3.473-10.51 9.317-10.51 14.386 0 1.38.294 2.775.991 4.061 1.783 3.271 5.55 4.961 10.123 4.961 3.364 0 7.038-.883 10.619-2.775 6.542-3.472 10.51-9.332 10.51-14.386 0-1.395-.294-2.774-.992-4.061M579.978 733.924c-1.783-3.287-5.55-5.07-10.123-5.07-3.364 0-7.038.993-10.618 2.884-6.542 3.473-10.51 9.317-10.51 14.386 0 1.38.294 2.775.991 4.061 1.783 3.271 5.55 4.961 10.123 4.961 3.364 0 7.038-.883 10.619-2.775 6.542-3.472 10.51-9.332 10.51-14.386 0-1.395-.294-2.774-.992-4.061M725.206 733.924c-1.783-3.287-5.55-5.07-10.123-5.07-3.364 0-7.038.993-10.618 2.884-6.542 3.473-10.51 9.317-10.51 14.386 0 1.38.294 2.775.991 4.061 1.783 3.271 5.55 4.961 10.123 4.961 3.364 0 7.038-.883 10.619-2.775 6.542-3.472 10.51-9.332 10.51-14.386 0-1.395-.294-2.774-.992-4.061M870.435 733.924c-1.783-3.287-5.55-5.07-10.123-5.07-3.364 0-7.038.993-10.618 2.884-6.542 3.473-10.51 9.317-10.51 14.386 0 1.38.294 2.775.991 4.061 1.783 3.271 5.55 4.961 10.123 4.961 3.364 0 7.038-.883 10.619-2.775 6.542-3.472 10.51-9.332 10.51-14.386 0-1.395-.294-2.774-.992-4.061M1042.657 721.477c-1.782-3.27-5.55-5.053-10.122-5.053-3.364 0-7.038.992-10.62 2.868-6.541 3.472-10.51 9.332-10.51 14.385 0 1.396.295 2.79.993 4.077 1.782 3.287 5.55 4.977 10.122 4.977 3.364 0 7.038-.9 10.62-2.775 6.541-3.488 10.51-9.348 10.51-14.417 0-1.38-.295-2.775-.993-4.062m-4.263 6.744c-1.69 1.69-5.069 3.767-8.634 5.766-3.566 1.985-7.147 3.473-9.518 3.97-.496.108-.993.2-1.489.2-1.596 0-2.79-.589-3.472-1.89a3.213 3.213 0 0 1-.496-1.69c0-1.086.682-2.388 1.783-3.473 1.69-1.69 4.96-3.767 8.526-5.751 3.58-1.984 7.146-3.473 9.533-3.969.497-.108.993-.201 1.489-.201 1.58 0 2.867.589 3.565 1.876.295.496.403 1.1.403 1.69 0 1.1-.605 2.278-1.69 3.472M1170.234 721.524c-1.783-3.287-5.55-5.07-10.123-5.07-3.364 0-7.038.993-10.619 2.884-6.542 3.473-10.51 9.317-10.51 14.386 0 1.38.294 2.775.992 4.061 1.783 3.271 5.55 4.961 10.123 4.961 3.364 0 7.038-.883 10.619-2.775 6.541-3.472 10.51-9.332 10.51-14.386 0-1.395-.295-2.774-.992-4.061M1320.874 721.524c-1.783-3.287-5.55-5.07-10.123-5.07-3.364 0-7.038.993-10.619 2.884-6.542 3.473-10.51 9.317-10.51 14.386 0 1.38.294 2.775.992 4.061 1.783 3.271 5.55 4.961 10.123 4.961 3.364 0 7.038-.883 10.619-2.775 6.541-3.472 10.51-9.332 10.51-14.386 0-1.395-.295-2.774-.992-4.061M1483.61 733.924c-1.782-3.287-5.55-5.07-10.122-5.07-3.364 0-7.038.993-10.62 2.884-6.541 3.473-10.51 9.317-10.51 14.386 0 1.38.295 2.775.993 4.061 1.782 3.271 5.55 4.961 10.122 4.961 3.364 0 7.038-.883 10.62-2.775 6.541-3.472 10.51-9.332 10.51-14.386 0-1.395-.295-2.774-.993-4.061M1622.28 733.924c-1.782-3.287-5.55-5.07-10.122-5.07-3.364 0-7.038.993-10.62 2.884-6.541 3.473-10.51 9.317-10.51 14.386 0 1.38.295 2.775.993 4.061 1.782 3.271 5.55 4.961 10.122 4.961 3.364 0 7.038-.883 10.62-2.775 6.541-3.472 10.51-9.332 10.51-14.386 0-1.395-.295-2.774-.993-4.061M1760.96 746.324c-1.782-3.287-5.55-5.07-10.122-5.07-3.364 0-7.038.993-10.62 2.884-6.541 3.473-10.51 9.317-10.51 14.386 0 1.38.295 2.775.992 4.061 1.783 3.271 5.55 4.961 10.123 4.961 3.364 0 7.038-.883 10.62-2.775 6.541-3.472 10.51-9.332 10.51-14.386 0-1.395-.295-2.774-.993-4.061M1847.63 733.924c-1.782-3.287-5.55-5.07-10.122-5.07-3.364 0-7.038.993-10.62 2.884-6.541 3.473-10.51 9.317-10.51 14.386 0 1.38.295 2.775.993 4.061 1.782 3.271 5.55 4.961 10.122 4.961 3.364 0 7.038-.883 10.62-2.775 6.541-3.472 10.51-9.332 10.51-14.386 0-1.395-.295-2.774-.993-4.061M1934.31 746.324c-1.782-3.287-5.55-5.07-10.122-5.07-3.364 0-7.038.993-10.62 2.884-6.541 3.473-10.51 9.317-10.51 14.386 0 1.38.295 2.775.993 4.061 1.782 3.271 5.55 4.961 10.122 4.961 3.364 0 7.038-.883 10.62-2.775 6.541-3.472 10.51-9.332 10.51-14.386 0-1.395-.295-2.774-.993-4.061M2121.77 758.687c-1.783-3.27-5.55-5.053-10.123-5.053-3.364 0-7.038.992-10.619 2.868-6.542 3.472-10.51 9.332-10.51 14.385 0 1.396.294 2.79.992 4.077 1.783 3.287 5.55 4.977 10.123 4.977 3.364 0 7.038-.9 10.618-2.775 6.542-3.488 10.51-9.348 10.51-14.417 0-1.38-.294-2.775-.991-4.062m-4.263 6.744c-1.69 1.69-5.07 3.767-8.635 5.767-3.565 1.984-7.146 3.472-9.518 3.968-.496.109-.992.202-1.488.202-1.597 0-2.79-.59-3.473-1.892a3.213 3.213 0 0 1-.496-1.69c0-1.085.682-2.387 1.783-3.472 1.69-1.69 4.96-3.767 8.526-5.751 3.581-1.984 7.146-3.473 9.534-3.969.496-.108.992-.201 1.488-.201 1.581 0 2.868.589 3.565 1.876.295.496.403 1.1.403 1.69 0 1.1-.604 2.278-1.69 3.472" style="stroke-width:.992126"/><path class="Note" d="M483.666 137.689c-1.783-3.286-5.55-5.07-10.123-5.07-3.364 0-7.038.993-10.618 2.884-6.542 3.473-10.51 9.317-10.51 14.386 0 1.38.294 2.775.991 4.062 1.783 3.27 5.55 4.96 10.123 4.96 3.364 0 7.038-.883 10.619-2.775 6.542-3.472 10.51-9.332 10.51-14.385 0-1.396-.294-2.775-.992-4.062M637.495 75.681c-1.782-3.286-5.55-5.07-10.122-5.07-3.364 0-7.038.993-10.62 2.884-6.541 3.473-10.51 9.317-10.51 14.386 0 1.38.295 2.775.992 4.062 1.783 3.27 5.55 4.96 10.123 4.96 3.364 0 7.038-.883 10.62-2.775 6.54-3.472 10.51-9.332 10.51-14.385 0-1.396-.295-2.775-.993-4.062M765.805 75.681c-1.782-3.286-5.55-5.07-10.122-5.07-3.364 0-7.038.993-10.62 2.884-6.541 3.473-10.51 9.317-10.51 14.386 0 1.38.295 2.775.992 4.062 1.783 3.27 5.55 4.96 10.123 4.96 3.364 0 7.038-.883 10.62-2.775 6.54-3.472 10.51-9.332 10.51-14.385 0-1.396-.295-2.775-.993-4.062M894.125 75.681c-1.782-3.286-5.55-5.07-10.122-5.07-3.364 0-7.038.993-10.62 2.884-6.541 3.473-10.51 9.317-10.51 14.386 0 1.38.295 2.775.992 4.062 1.783 3.27 5.55 4.96 10.123 4.96 3.364 0 7.038-.883 10.62-2.775 6.54-3.472 10.51-9.332 10.51-14.385 0-1.396-.295-2.775-.993-4.062M1022.435 88.082c-1.782-3.286-5.55-5.07-10.122-5.07-3.364 0-7.038.993-10.62 2.884-6.541 3.473-10.51 9.317-10.51 14.386 0 1.38.295 2.775.992 4.062 1.783 3.27 5.55 4.96 10.123 4.96 3.364 0 7.038-.883 10.62-2.775 6.54-3.472 10.51-9.332 10.51-14.385 0-1.396-.295-2.775-.993-4.062M1177.861 88.036c-1.782-3.271-5.55-5.054-10.122-5.054-3.364 0-7.038.992-10.62 2.868-6.541 3.472-10.51 9.332-10.51 14.386 0 1.395.295 2.79.993 4.077 1.782 3.286 5.55 4.976 10.122 4.976 3.364 0 7.038-.9 10.62-2.775 6.541-3.488 10.51-9.348 10.51-14.417 0-1.38-.295-2.775-.993-4.061m-4.263 6.743c-1.69 1.69-5.069 3.767-8.634 5.767-3.566 1.984-7.146 3.472-9.518 3.968-.496.109-.992.202-1.488.202-1.597 0-2.79-.59-3.473-1.892a3.213 3.213 0 0 1-.496-1.69c0-1.084.682-2.387 1.783-3.472 1.69-1.69 4.96-3.767 8.526-5.751 3.58-1.984 7.146-3.472 9.534-3.968.496-.109.992-.202 1.488-.202 1.58 0 2.868.59 3.565 1.876.295.496.403 1.1.403 1.69 0 1.1-.604 2.278-1.69 3.472M1305.492 100.484c-1.783-3.286-5.55-5.07-10.123-5.07-3.364 0-7.038.993-10.62 2.884-6.541 3.473-10.51 9.317-10.51 14.386 0 1.38.295 2.775.993 4.062 1.782 3.27 5.55 4.96 10.122 4.96 3.364 0 7.038-.883 10.62-2.775 6.541-3.472 10.51-9.332 10.51-14.385 0-1.396-.295-2.775-.992-4.062M1399.002 137.689c-1.783-3.286-5.55-5.07-10.123-5.07-3.364 0-7.038.993-10.62 2.884-6.541 3.473-10.51 9.317-10.51 14.386 0 1.38.295 2.775.993 4.062 1.782 3.27 5.55 4.96 10.122 4.96 3.364 0 7.038-.883 10.62-2.775 6.541-3.472 10.51-9.332 10.51-14.385 0-1.396-.295-2.775-.992-4.062M1566.449 63.279c-1.783-3.286-5.55-5.07-10.123-5.07-3.364 0-7.038.993-10.619 2.884-6.541 3.473-10.51 9.317-10.51 14.386 0 1.38.295 2.775.992 4.062 1.783 3.27 5.55 4.96 10.123 4.96 3.364 0 7.038-.883 10.619-2.775 6.542-3.472 10.51-9.332 10.51-14.385 0-1.396-.294-2.775-.992-4.062M1695.309 63.279c-1.783-3.286-5.55-5.07-10.123-5.07-3.364 0-7.038.993-10.619 2.884-6.541 3.473-10.51 9.317-10.51 14.386 0 1.38.295 2.775.992 4.062 1.783 3.27 5.55 4.96 10.123 4.96 3.364 0 7.038-.883 10.619-2.775 6.542-3.472 10.51-9.332 10.51-14.385 0-1.396-.294-2.775-.992-4.062M1824.169 75.681c-1.783-3.286-5.55-5.07-10.123-5.07-3.364 0-7.038.993-10.619 2.884-6.541 3.473-10.51 9.317-10.51 14.386 0 1.38.295 2.775.992 4.062 1.783 3.27 5.55 4.96 10.123 4.96 3.364 0 7.038-.883 10.619-2.775 6.541-3.472 10.51-9.332 10.51-14.385 0-1.396-.295-2.775-.992-4.062M1953.039 75.681c-1.783-3.286-5.55-5.07-10.123-5.07-3.364 0-7.038.993-10.619 2.884-6.541 3.473-10.51 9.317-10.51 14.386 0 1.38.295 2.775.992 4.062 1.783 3.27 5.55 4.96 10.123 4.96 3.364 0 7.038-.883 10.619-2.775 6.542-3.472 10.51-9.332 10.51-14.385 0-1.396-.294-2.775-.992-4.062M2103.332 88.036c-1.783-3.271-5.55-5.054-10.123-5.054-3.364 0-7.038.992-10.619 2.868-6.542 3.472-10.51 9.332-10.51 14.386 0 1.395.294 2.79.992 4.077 1.783 3.286 5.55 4.976 10.123 4.976 3.364 0 7.038-.9 10.619-2.775 6.542-3.488 10.51-9.348 10.51-14.417 0-1.38-.295-2.775-.992-4.061m-4.263 6.743c-1.69 1.69-5.07 3.767-8.635 5.767-3.565 1.984-7.146 3.472-9.518 3.968-.496.109-.992.202-1.488.202-1.597 0-2.79-.59-3.472-1.892a3.212 3.212 0 0 1-.497-1.69c0-1.084.683-2.387 1.783-3.472 1.69-1.69 4.96-3.767 8.526-5.751 3.581-1.984 7.147-3.472 9.534-3.968.496-.109.992-.202 1.488-.202 1.581 0 2.868.59 3.566 1.876.294.496.403 1.1.403 1.69 0 1.1-.605 2.278-1.69 3.472M2268.822 137.689c-1.783-3.286-5.55-5.07-10.123-5.07-3.364 0-7.038.993-10.619 2.884-6.542 3.473-10.51 9.317-10.51 14.386 0 1.38.294 2.775.992 4.062 1.783 3.27 5.55 4.96 10.123 4.96 3.364 0 7.038-.883 10.619-2.775 6.541-3.472 10.51-9.332 10.51-14.385 0-1.396-.295-2.775-.992-4.062M434.75 647.114c-1.784-3.287-5.55-5.07-10.124-5.07-3.364 0-7.038.993-10.618 2.884-6.542 3.473-10.51 9.317-10.51 14.386 0 1.38.294 2.775.991 4.061 1.783 3.271 5.55 4.961 10.123 4.961 3.364 0 7.038-.883 10.619-2.775 6.542-3.472 10.51-9.332 10.51-14.386 0-1.395-.294-2.774-.992-4.061M579.978 647.114c-1.783-3.287-5.55-5.07-10.123-5.07-3.364 0-7.038.993-10.618 2.884-6.542 3.473-10.51 9.317-10.51 14.386 0 1.38.294 2.775.991 4.061 1.783 3.271 5.55 4.961 10.123 4.961 3.364 0 7.038-.883 10.619-2.775 6.542-3.472 10.51-9.332 10.51-14.386 0-1.395-.294-2.774-.992-4.061M725.206 659.514c-1.783-3.287-5.55-5.07-10.123-5.07-3.364 0-7.038.993-10.618 2.884-6.542 3.473-10.51 9.317-10.51 14.386 0 1.38.294 2.775.991 4.061 1.783 3.271 5.55 4.961 10.123 4.961 3.364 0 7.038-.883 10.619-2.775 6.542-3.472 10.51-9.332 10.51-14.386 0-1.395-.294-2.774-.992-4.061M870.435 671.924c-1.783-3.287-5.55-5.07-10.123-5.07-3.364 0-7.038.993-10.618 2.884-6.542 3.473-10.51 9.317-10.51 14.386 0 1.38.294 2.775.991 4.061 1.783 3.271 5.55 4.961 10.123 4.961 3.364 0 7.038-.883 10.619-2.775 6.542-3.472 10.51-9.332 10.51-14.386 0-1.395-.294-2.774-.992-4.061M1042.657 634.667c-1.782-3.27-5.55-5.053-10.122-5.053-3.364 0-7.038.992-10.62 2.868-6.541 3.472-10.51 9.332-10.51 14.385 0 1.396.295 2.79.993 4.077 1.782 3.287 5.55 4.977 10.122 4.977 3.364 0 7.038-.9 10.62-2.775 6.541-3.488 10.51-9.348 10.51-14.417 0-1.38-.295-2.775-.993-4.062m-4.263 6.744c-1.69 1.69-5.069 3.767-8.634 5.766-3.566 1.985-7.147 3.473-9.518 3.97-.496.108-.993.2-1.489.2-1.596 0-2.79-.589-3.472-1.89a3.213 3.213 0 0 1-.496-1.69c0-1.086.682-2.388 1.783-3.473 1.69-1.69 4.96-3.767 8.526-5.751 3.58-1.984 7.146-3.473 9.533-3.969.497-.108.993-.201 1.489-.201 1.58 0 2.867.589 3.565 1.876.295.496.403 1.1.403 1.69 0 1.1-.605 2.278-1.69 3.472M1170.234 684.324c-1.783-3.287-5.55-5.07-10.123-5.07-3.364 0-7.038.993-10.619 2.884-6.542 3.473-10.51 9.317-10.51 14.386 0 1.38.294 2.775.992 4.061 1.783 3.271 5.55 4.961 10.123 4.961 3.364 0 7.038-.883 10.619-2.775 6.541-3.472 10.51-9.332 10.51-14.386 0-1.395-.295-2.774-.992-4.061M1320.874 684.324c-1.783-3.287-5.55-5.07-10.123-5.07-3.364 0-7.038.993-10.619 2.884-6.542 3.473-10.51 9.317-10.51 14.386 0 1.38.294 2.775.992 4.061 1.783 3.271 5.55 4.961 10.123 4.961 3.364 0 7.038-.883 10.619-2.775 6.541-3.472 10.51-9.332 10.51-14.386 0-1.395-.295-2.774-.992-4.061M1483.61 671.924c-1.782-3.287-5.55-5.07-10.122-5.07-3.364 0-7.038.993-10.62 2.884-6.541 3.473-10.51 9.317-10.51 14.386 0 1.38.295 2.775.993 4.061 1.782 3.271 5.55 4.961 10.122 4.961 3.364 0 7.038-.883 10.62-2.775 6.541-3.472 10.51-9.332 10.51-14.386 0-1.395-.295-2.774-.993-4.061M1622.28 671.924c-1.782-3.287-5.55-5.07-10.122-5.07-3.364 0-7.038.993-10.62 2.884-6.541 3.473-10.51 9.317-10.51 14.386 0 1.38.295 2.775.993 4.061 1.782 3.271 5.55 4.961 10.122 4.961 3.364 0 7.038-.883 10.62-2.775 6.541-3.472 10.51-9.332 10.51-14.386 0-1.395-.295-2.774-.993-4.061M1760.96 684.324c-1.782-3.287-5.55-5.07-10.122-5.07-3.364 0-7.038.993-10.62 2.884-6.541 3.473-10.51 9.317-10.51 14.386 0 1.38.295 2.775.992 4.061 1.783 3.271 5.55 4.961 10.123 4.961 3.364 0 7.038-.883 10.62-2.775 6.541-3.472 10.51-9.332 10.51-14.386 0-1.395-.295-2.774-.993-4.061M1847.63 671.924c-1.782-3.287-5.55-5.07-10.122-5.07-3.364 0-7.038.993-10.62 2.884-6.541 3.473-10.51 9.317-10.51 14.386 0 1.38.295 2.775.993 4.061 1.782 3.271 5.55 4.961 10.122 4.961 3.364 0 7.038-.883 10.62-2.775 6.541-3.472 10.51-9.332 10.51-14.386 0-1.395-.295-2.774-.993-4.061M1934.31 684.324c-1.782-3.287-5.55-5.07-10.122-5.07-3.364 0-7.038.993-10.62 2.884-6.541 3.473-10.51 9.317-10.51 14.386 0 1.38.295 2.775.993 4.061 1.782 3.271 5.55 4.961 10.122 4.961 3.364 0 7.038-.883 10.62-2.775 6.541-3.472 10.51-9.332 10.51-14.386 0-1.395-.295-2.774-.993-4.061M2121.77 696.677c-1.783-3.27-5.55-5.053-10.123-5.053-3.364 0-7.038.992-10.619 2.868-6.542 3.472-10.51 9.332-10.51 14.385 0 1.396.294 2.79.992 4.077 1.783 3.287 5.55 4.977 10.123 4.977 3.364 0 7.038-.9 10.618-2.775 6.542-3.488 10.51-9.348 10.51-14.417 0-1.38-.294-2.775-.991-4.062m-4.263 6.744c-1.69 1.69-5.07 3.767-8.635 5.767-3.565 1.984-7.146 3.472-9.518 3.968-.496.109-.992.202-1.488.202-1.597 0-2.79-.59-3.473-1.892a3.213 3.213 0 0 1-.496-1.69c0-1.085.682-2.387 1.783-3.472 1.69-1.69 4.96-3.767 8.526-5.751 3.581-1.984 7.146-3.473 9.534-3.969.496-.108.992-.201 1.488-.201 1.581 0 2.868.589 3.565 1.876.295.496.403 1.1.403 1.69 0 1.1-.604 2.278-1.69 3.472" style="stroke-width:.992126"/><path class="Clef" d="M144.123 384.24c-7.55 0-13.595 4.356-13.703 4.356-5.752 4.263-8.03 9.332-8.93 12.805-.496 1.783-.682 3.565-.682 5.255 0 2.387.388 4.558 1.287 6.449 1.194 2.682 3.472 4.557 6.449 5.55 1.193.403 2.48.604 3.767.604 2.185 0 4.464-.604 6.356-1.69 3.069-1.69 4.96-5.255 4.96-9.13 0-3.473-1.798-6.65-4.774-8.526-2.078-1.395-4.062-1.783-5.752-1.783-1.193 0-2.278.186-3.178.496-.992.388-2.666 1.38-3.472 2.077.31-1.891 1.488-4.759 2.589-6.356 1.085-1.58 3.27-3.565 4.96-4.464 2.48-1.38 5.659-1.984 9.131-1.984 10.123 0 15.084 8.138 15.084 24.803 0 9.24-3.473 18.06-6.45 23.92-3.286 6.541-7.642 12.804-11.517 16.276-10.325 9.426-20.044 13.89-20.137 13.89 0 0-1.489.884-1.101 2.372.31.992 1.194 1.194 1.798 1.194.093 0 .388-.093.496-.093.093 0 11.41-4.667 20.432-11.72 5.07-3.658 9.627-7.627 13.595-11.905a73.569 73.569 0 0 0 9.13-12.2c4.357-7.441 6.837-15.177 6.837-21.827 0-8.232-2.17-15.084-6.247-19.936-4.666-5.565-11.704-8.433-20.928-8.433m31.144 12.588c0 2.79 2.185 4.96 4.774 4.96 2.574 0 4.76-2.17 4.76-4.96 0-2.775-2.186-5.054-4.76-5.054-2.589 0-4.774 2.279-4.774 5.054m0 24.508c0 2.775 2.185 5.07 4.774 5.07 2.574 0 4.76-2.295 4.76-5.07 0-2.775-2.186-5.053-4.76-5.053-2.589 0-4.774 2.278-4.774 5.053M68.364 984.48c-7.55 0-13.595 4.356-13.704 4.356-5.75 4.263-8.03 9.332-8.929 12.805-.496 1.782-.682 3.565-.682 5.255 0 2.387.388 4.557 1.287 6.449 1.194 2.681 3.472 4.557 6.449 5.55 1.193.402 2.48.604 3.767.604 2.185 0 4.464-.605 6.356-1.69 3.069-1.69 4.96-5.255 4.96-9.13 0-3.473-1.798-6.65-4.774-8.527-2.078-1.395-4.062-1.782-5.752-1.782-1.193 0-2.279.186-3.178.496-.992.387-2.666 1.38-3.472 2.077.31-1.891 1.488-4.759 2.589-6.356 1.085-1.58 3.27-3.565 4.96-4.464 2.48-1.38 5.659-1.985 9.131-1.985 10.123 0 15.083 8.139 15.083 24.804 0 9.239-3.472 18.06-6.448 23.92-3.287 6.541-7.643 12.804-11.518 16.276-10.325 9.425-20.044 13.89-20.137 13.89 0 0-1.489.884-1.101 2.372.31.992 1.194 1.193 1.798 1.193.093 0 .388-.093.496-.093.093 0 11.41-4.666 20.432-11.72 5.069-3.658 9.627-7.626 13.595-11.905a73.569 73.569 0 0 0 9.13-12.2c4.357-7.44 6.837-15.176 6.837-21.827 0-8.231-2.17-15.083-6.247-19.935-4.666-5.565-11.704-8.433-20.928-8.433m31.144 12.587c0 2.79 2.185 4.961 4.774 4.961 2.574 0 4.76-2.17 4.76-4.96 0-2.775-2.186-5.054-4.76-5.054-2.589 0-4.774 2.279-4.774 5.053m0 24.51c0 2.774 2.185 5.068 4.774 5.068 2.574 0 4.76-2.294 4.76-5.069s-2.186-5.054-4.76-5.054c-2.589 0-4.774 2.28-4.774 5.054M181.778 115.04c-1.225-5.38-3.845-9.177-4.62-10.2-3.163-4.248-7.147-7.07-11.797-8.418-3.085-.868-6.061-.992-8.464-.806a2314.672 2314.672 0 0 1-2.93-17.207c5.41-6.124 9.007-11.875 11.27-16.138 3.441-6.526 4.573-11.068 4.635-11.27 1.705-5.177 2.062-12.82.961-20.959-.992-7.487-3.07-14.152-5.41-17.377-1.008-1.41-2.062-2.14-3.085-2.14-1.21 0-3.705 1.225-6.573 3.985-2.279 2.17-5.519 6.03-8.06 11.998-2.977 7.007-3.194 16.417-2.838 23.083.372 7.223 1.473 12.866 1.489 12.913.015.093.279 1.58.713 4.123-.217.233-.465.45-.713.698-1.024.992-2.202 2.108-3.581 3.488-.853.852-1.799 1.751-2.79 2.713-8.372 8.076-21.068 20.307-21.068 39.313 0 4.666.9 9.053 2.666 13.037 1.566 3.565 3.845 6.82 6.76 9.673 7.673 7.503 18.183 10.68 25.174 10.526 2.93-.078 5.55-.31 7.922-.76 1.814 9.534 2.945 16.51 2.976 21.811.047 6.465-1.596 10.418-5.456 13.162-2.419 1.72-5.21 2.666-8.278 2.805-2.574.125-4.822-.34-6.232-.744h-.016s-.279-.093-.294-.279c-.016-.186.34-.232.34-.232h.032c1.906-.434 5.44-1.659 7.782-4.93 1.782-2.511 2.65-7.1.821-11.006-1.1-2.372-3.58-5.302-9.161-5.751-2.48-.202-4.728.31-6.713 1.503-1.798 1.07-3.286 2.698-4.325 4.682-2.434 4.666-1.984 10.355 1.116 14.169 2.946 3.596 7.519 5.89 12.913 6.464.853.093 1.69.124 2.527.124 4.403 0 8.759-1.194 12.309-3.38 3.627-2.557 5.736-6.51 6.402-12.091.558-4.604.17-10.48-1.209-18.494-.357-2.077-.899-5.084-1.55-8.805 5.705-1.907 9.828-5.457 13.564-11.27 3.271-5.69 4.201-11.75 2.79-18.013m-33.949 26.012c-4.604-1.21-9.007-3.69-12.727-7.177-1.302-1.21-3.162-3.364-4.62-6.728-1.348-3.147-2.015-6.557-1.953-10.107.062-4.667 1.364-9.457 3.845-14.2 2.899-5.534 7.425-11.022 13.44-16.308a89.216 89.216 0 0 0 4.077-3.814c.76 4.232 1.581 8.883 2.45 13.72-3.814 1.255-8.527 4.387-11.612 9.998-3.519 6.511-3.38 11.999-2.65 15.456.93 4.418 3.44 8.154 6.867 10.231.93.558 5.022 2.666 6.852 2.093a1.16 1.16 0 0 0 .775-.667c.511-1.162-.512-1.798-2.047-2.744a27.278 27.278 0 0 1-1.984-1.317c-3.302-2.465-4.743-6.883-3.674-11.24a12.438 12.438 0 0 1 3.674-6.216c1.643-1.534 3.674-2.62 6.03-3.255 2.031 11.161 4.077 22.23 5.705 30.523.124.683.264 1.349.388 2.016-4.34.93-8.65.837-12.836-.264m11.24-32.942c10.261-.465 14.493 6.914 15.377 11.704.465 2.527.465 6.93-1.07 11.115-1.162 3.147-3.596 7.193-8.696 9.24-.062-.419-.14-.853-.217-1.272-1.535-8.712-3.457-19.625-5.395-30.787m-7.27-70.394c1.767-5.69 4.48-8.914 6.464-10.634 1.736-1.504 3.364-2.217 4.279-2.217.139 0 .263.03.356.062.465.14.992.697 1.457 1.566 2.294 4.247 1.55 10.913.217 15.315-1.612 5.364-4.51 10.93-13.238 20.463-.171-1.1-.326-2.14-.481-3.116-1.24-8.216-.915-15.44.946-21.439M106.018 711.279c-1.224-5.38-3.844-9.178-4.62-10.2-3.162-4.248-7.146-7.07-11.796-8.418-3.085-.868-6.061-.992-8.464-.806a2314.83 2314.83 0 0 1-2.93-17.208c5.41-6.123 9.007-11.874 11.27-16.137 3.441-6.526 4.573-11.068 4.635-11.27 1.705-5.178 2.062-12.82.961-20.959-.992-7.487-3.07-14.153-5.41-17.377-1.008-1.41-2.062-2.14-3.085-2.14-1.21 0-3.705 1.225-6.573 3.984-2.279 2.17-5.519 6.03-8.06 11.999-2.977 7.007-3.194 16.417-2.838 23.082.372 7.224 1.473 12.867 1.489 12.914.015.093.278 1.58.713 4.123-.217.233-.465.45-.713.698-1.024.992-2.202 2.108-3.581 3.488-.853.852-1.799 1.751-2.79 2.712-8.372 8.077-21.068 20.308-21.068 39.313 0 4.667.9 9.054 2.666 13.038 1.566 3.565 3.845 6.82 6.76 9.673 7.673 7.503 18.183 10.68 25.174 10.526 2.93-.078 5.55-.31 7.922-.76 1.814 9.534 2.945 16.51 2.976 21.811.047 6.465-1.596 10.418-5.456 13.162-2.419 1.72-5.21 2.666-8.279 2.805-2.573.124-4.82-.34-6.231-.744h-.016s-.279-.093-.294-.279c-.016-.186.34-.232.34-.232h.032c1.907-.434 5.441-1.659 7.782-4.93 1.782-2.511 2.65-7.1.821-11.006-1.1-2.372-3.58-5.302-9.161-5.752-2.48-.201-4.728.31-6.713 1.504-1.798 1.07-3.286 2.697-4.325 4.682-2.433 4.666-1.984 10.355 1.116 14.169 2.946 3.596 7.519 5.89 12.914 6.464.852.093 1.69.124 2.526.124 4.403 0 8.759-1.194 12.309-3.38 3.627-2.557 5.736-6.51 6.402-12.091.558-4.604.17-10.48-1.209-18.494-.356-2.077-.899-5.085-1.55-8.805 5.705-1.907 9.828-5.457 13.564-11.27 3.271-5.69 4.201-11.75 2.79-18.013M72.07 737.29c-4.604-1.21-9.006-3.69-12.727-7.177-1.302-1.21-3.162-3.364-4.62-6.728-1.348-3.147-2.015-6.558-1.953-10.108.062-4.666 1.364-9.456 3.845-14.2 2.899-5.534 7.425-11.021 13.44-16.307a89.216 89.216 0 0 0 4.077-3.814c.76 4.232 1.581 8.883 2.45 13.72-3.814 1.255-8.527 4.386-11.612 9.998-3.519 6.511-3.38 11.999-2.65 15.456.93 4.418 3.44 8.154 6.867 10.23.93.559 5.022 2.667 6.852 2.094a1.16 1.16 0 0 0 .775-.667c.511-1.163-.512-1.798-2.046-2.744a27.282 27.282 0 0 1-1.985-1.317c-3.302-2.465-4.743-6.883-3.674-11.24a12.437 12.437 0 0 1 3.674-6.216c1.643-1.534 3.674-2.62 6.03-3.255 2.031 11.161 4.078 22.23 5.705 30.523.124.682.264 1.349.388 2.016-4.34.93-8.65.837-12.836-.264m11.24-32.942c10.261-.465 14.493 6.914 15.377 11.704.465 2.527.465 6.93-1.07 11.115-1.162 3.147-3.596 7.193-8.696 9.24-.062-.42-.14-.853-.217-1.272-1.535-8.712-3.457-19.625-5.395-30.787m-7.27-70.394c1.767-5.69 4.48-8.914 6.464-10.634 1.736-1.504 3.364-2.217 4.279-2.217.14 0 .263.03.356.062.465.14.992.697 1.457 1.565 2.295 4.248 1.55 10.914.217 15.316-1.612 5.364-4.51 10.93-13.238 20.463-.17-1.1-.326-2.14-.48-3.116-1.241-8.216-.916-15.44.945-21.44" style="stroke-width:.992126"/><path class="KeySig" d="M303.94 426.102c-.589-3.86-2.976-7.534-8.03-7.534-4.96 0-7.843 3.07-8.34 3.674l.404-31.856c0-.79-.59-1.38-1.396-1.38H285.4c-.806 0-1.395.59-1.395 1.38l.496 59.636c0 .79.59 1.38 1.395 1.38.186 0 .59-.093.79-.186.388-.202 6.837-3.38 12.2-9.426 3.768-4.278 5.256-9.13 5.256-13.207 0-.884-.093-1.675-.201-2.48m-6.837 3.875c0 1.488-.403 6.046-2.883 9.828-1.69 2.573-5.054 5.255-6.945 6.743l.294-19.346c.202-.9 1.69-3.767 5.659-3.767 3.58 0 3.875 3.364 3.875 5.457v1.085M279.138 463.302c-.59-3.86-2.977-7.534-8.03-7.534-4.961 0-7.844 3.07-8.34 3.674l.403-31.856c0-.79-.59-1.38-1.396-1.38h-1.178c-.806 0-1.395.59-1.395 1.38l.496 59.636c0 .79.59 1.38 1.395 1.38.186 0 .59-.093.79-.186.388-.202 6.837-3.38 12.2-9.426 3.768-4.278 5.256-9.13 5.256-13.207 0-.884-.093-1.675-.201-2.48m-6.837 3.875c0 1.488-.403 6.046-2.883 9.828-1.69 2.573-5.054 5.255-6.945 6.743l.294-19.346c.202-.9 1.69-3.767 5.659-3.767 3.58 0 3.875 3.364 3.875 5.457v1.085M254.334 413.702c-.59-3.86-2.977-7.534-8.03-7.534-4.961 0-7.844 3.07-8.34 3.674l.403-31.856c0-.79-.59-1.38-1.396-1.38h-1.178c-.806 0-1.395.59-1.395 1.38l.496 59.636c0 .79.59 1.38 1.395 1.38.186 0 .59-.093.79-.186.388-.202 6.837-3.38 12.2-9.426 3.768-4.278 5.256-9.13 5.256-13.207 0-.884-.093-1.675-.201-2.48m-6.837 3.875c0 1.488-.403 6.046-2.883 9.828-1.69 2.573-5.054 5.255-6.945 6.743l.294-19.346c.202-.9 1.69-3.767 5.659-3.767 3.58 0 3.875 3.364 3.875 5.457v1.085M229.53 450.902c-.589-3.86-2.976-7.534-8.03-7.534-4.96 0-7.843 3.07-8.34 3.674l.404-31.856c0-.79-.59-1.38-1.396-1.38h-1.178c-.806 0-1.395.59-1.395 1.38l.496 59.636c0 .79.59 1.38 1.395 1.38.186 0 .59-.093.79-.186.388-.202 6.837-3.38 12.2-9.426 3.768-4.278 5.256-9.13 5.256-13.207 0-.884-.093-1.675-.201-2.48m-6.837 3.875c0 1.488-.403 6.046-2.883 9.828-1.69 2.573-5.054 5.255-6.945 6.743l.294-19.346c.202-.9 1.69-3.767 5.659-3.767 3.58 0 3.875 3.364 3.875 5.457v1.085M228.182 1026.342c-.59-3.86-2.977-7.534-8.03-7.534-4.961 0-7.844 3.07-8.34 3.674l.402-31.856c0-.79-.589-1.38-1.395-1.38h-1.178c-.806 0-1.395.59-1.395 1.38l.496 59.636c0 .79.59 1.38 1.395 1.38.186 0 .59-.094.79-.187.388-.201 6.837-3.38 12.2-9.425 3.768-4.278 5.256-9.13 5.256-13.207 0-.884-.093-1.675-.201-2.48m-6.837 3.875c0 1.488-.403 6.045-2.883 9.828-1.69 2.573-5.054 5.255-6.945 6.743l.294-19.346c.202-.9 1.69-3.767 5.659-3.767 3.58 0 3.875 3.364 3.875 5.457v1.085M203.379 1063.542c-.59-3.86-2.977-7.534-8.03-7.534-4.961 0-7.844 3.07-8.34 3.674l.402-31.856c0-.79-.589-1.38-1.395-1.38h-1.178c-.806 0-1.395.59-1.395 1.38l.496 59.636c0 .79.59 1.38 1.395 1.38.186 0 .59-.094.79-.187.388-.201 6.837-3.38 12.2-9.425 3.768-4.278 5.256-9.13 5.256-13.208 0-.883-.093-1.674-.201-2.48m-6.837 3.876c0 1.488-.403 6.045-2.883 9.828-1.69 2.573-5.054 5.255-6.945 6.743l.294-19.346c.202-.9 1.69-3.767 5.659-3.767 3.58 0 3.875 3.364 3.875 5.457v1.085M178.576 1013.932c-.59-3.86-2.977-7.534-8.03-7.534-4.961 0-7.844 3.07-8.34 3.674l.402-31.856c0-.79-.589-1.38-1.395-1.38h-1.178c-.806 0-1.395.59-1.395 1.38l.496 59.636c0 .79.59 1.38 1.395 1.38.186 0 .59-.094.79-.187.388-.201 6.837-3.38 12.2-9.425 3.768-4.278 5.256-9.13 5.256-13.207 0-.884-.093-1.675-.201-2.48m-6.837 3.875c0 1.488-.403 6.045-2.883 9.828-1.69 2.573-5.054 5.255-6.945 6.743l.294-19.346c.202-.9 1.69-3.767 5.659-3.767 3.58 0 3.875 3.364 3.875 5.457v1.085M153.773 1051.142c-.59-3.86-2.977-7.534-8.03-7.534-4.961 0-7.844 3.07-8.34 3.674l.402-31.856c0-.79-.589-1.38-1.395-1.38h-1.178c-.806 0-1.395.59-1.395 1.38l.496 59.636c0 .79.59 1.38 1.395 1.38.186 0 .59-.094.79-.187.388-.201 6.837-3.38 12.2-9.425 3.768-4.278 5.256-9.13 5.256-13.207 0-.884-.093-1.675-.201-2.48m-6.837 3.875c0 1.488-.403 6.045-2.883 9.828-1.69 2.573-5.054 5.255-6.945 6.743l.294-19.346c.202-.9 1.69-3.767 5.659-3.767 3.58 0 3.875 3.364 3.875 5.457v1.085M303.94 63.465c-.589-3.86-2.976-7.534-8.03-7.534-4.96 0-7.843 3.07-8.34 3.674l.404-31.857c0-.79-.59-1.38-1.396-1.38H285.4c-.806 0-1.395.59-1.395 1.38l.496 59.637c0 .79.59 1.38 1.395 1.38.186 0 .59-.094.79-.187.388-.201 6.837-3.38 12.2-9.425 3.768-4.278 5.256-9.13 5.256-13.208 0-.883-.093-1.674-.201-2.48m-6.837 3.876c0 1.488-.403 6.045-2.883 9.828-1.69 2.573-5.054 5.255-6.945 6.743l.294-19.346c.202-.9 1.69-3.767 5.659-3.767 3.58 0 3.875 3.364 3.875 5.456v1.086M279.138 100.67c-.59-3.86-2.977-7.534-8.03-7.534-4.961 0-7.844 3.07-8.34 3.674l.403-31.857c0-.79-.59-1.38-1.396-1.38h-1.178c-.806 0-1.395.59-1.395 1.38l.496 59.637c0 .79.59 1.38 1.395 1.38.186 0 .59-.094.79-.187.388-.201 6.837-3.38 12.2-9.425 3.768-4.278 5.256-9.13 5.256-13.208 0-.883-.093-1.674-.201-2.48m-6.837 3.876c0 1.488-.403 6.045-2.883 9.828-1.69 2.573-5.054 5.255-6.945 6.743l.294-19.346c.202-.9 1.69-3.767 5.659-3.767 3.58 0 3.875 3.364 3.875 5.456v1.086M254.334 51.064c-.59-3.86-2.977-7.534-8.03-7.534-4.961 0-7.844 3.07-8.34 3.674l.403-31.857c0-.79-.59-1.38-1.396-1.38h-1.178c-.806 0-1.395.59-1.395 1.38l.496 59.637c0 .79.59 1.38 1.395 1.38.186 0 .59-.094.79-.187.388-.201 6.837-3.38 12.2-9.425 3.768-4.278 5.256-9.13 5.256-13.208 0-.883-.093-1.674-.201-2.48m-6.837 3.876c0 1.488-.403 6.045-2.883 9.828-1.69 2.573-5.054 5.255-6.945 6.743l.294-19.346c.202-.9 1.69-3.767 5.659-3.767 3.58 0 3.875 3.364 3.875 5.456v1.086M229.53 88.268c-.589-3.86-2.976-7.534-8.03-7.534-4.96 0-7.843 3.07-8.34 3.674l.404-31.857c0-.79-.59-1.38-1.396-1.38h-1.178c-.806 0-1.395.59-1.395 1.38l.496 59.637c0 .79.59 1.38 1.395 1.38.186 0 .59-.094.79-.187.388-.201 6.837-3.38 12.2-9.425 3.768-4.278 5.256-9.13 5.256-13.208 0-.883-.093-1.674-.201-2.48m-6.837 3.876c0 1.488-.403 6.045-2.883 9.828-1.69 2.573-5.054 5.255-6.945 6.743l.294-19.346c.202-.9 1.69-3.767 5.659-3.767 3.58 0 3.875 3.364 3.875 5.456v1.086M228.182 659.7c-.59-3.86-2.977-7.534-8.03-7.534-4.961 0-7.844 3.07-8.34 3.674l.402-31.857c0-.79-.589-1.38-1.395-1.38h-1.178c-.806 0-1.395.59-1.395 1.38l.496 59.636c0 .791.59 1.38 1.395 1.38.186 0 .59-.093.79-.186.388-.201 6.837-3.38 12.2-9.425 3.768-4.279 5.256-9.13 5.256-13.208 0-.883-.093-1.674-.201-2.48m-6.837 3.875c0 1.489-.403 6.046-2.883 9.829-1.69 2.573-5.054 5.255-6.945 6.743l.294-19.346c.202-.9 1.69-3.767 5.659-3.767 3.58 0 3.875 3.364 3.875 5.456v1.085M203.379 696.91c-.59-3.86-2.977-7.534-8.03-7.534-4.961 0-7.844 3.07-8.34 3.674l.402-31.857c0-.79-.589-1.38-1.395-1.38h-1.178c-.806 0-1.395.59-1.395 1.38l.496 59.636c0 .791.59 1.38 1.395 1.38.186 0 .59-.093.79-.186.388-.201 6.837-3.38 12.2-9.425 3.768-4.279 5.256-9.13 5.256-13.208 0-.883-.093-1.674-.201-2.48m-6.837 3.875c0 1.489-.403 6.046-2.883 9.829-1.69 2.573-5.054 5.255-6.945 6.743l.294-19.346c.202-.9 1.69-3.767 5.659-3.767 3.58 0 3.875 3.364 3.875 5.456v1.085M178.576 647.3c-.59-3.86-2.977-7.534-8.03-7.534-4.961 0-7.844 3.07-8.34 3.674l.402-31.857c0-.79-.589-1.38-1.395-1.38h-1.178c-.806 0-1.395.59-1.395 1.38l.496 59.636c0 .791.59 1.38 1.395 1.38.186 0 .59-.093.79-.186.388-.201 6.837-3.38 12.2-9.425 3.768-4.279 5.256-9.13 5.256-13.208 0-.883-.093-1.674-.201-2.48m-6.837 3.875c0 1.489-.403 6.046-2.883 9.829-1.69 2.573-5.054 5.255-6.945 6.743l.294-19.346c.202-.9 1.69-3.767 5.659-3.767 3.58 0 3.875 3.364 3.875 5.456v1.085M153.773 684.51c-.59-3.86-2.977-7.534-8.03-7.534-4.961 0-7.844 3.07-8.34 3.674l.402-31.857c0-.79-.589-1.38-1.395-1.38h-1.178c-.806 0-1.395.59-1.395 1.38l.496 59.636c0 .791.59 1.38 1.395 1.38.186 0 .59-.093.79-.186.388-.201 6.837-3.38 12.2-9.425 3.768-4.279 5.256-9.13 5.256-13.208 0-.883-.093-1.674-.201-2.48m-6.837 3.875c0 1.489-.403 6.046-2.883 9.829-1.69 2.573-5.054 5.255-6.945 6.743l.294-19.346c.202-.9 1.69-3.767 5.659-3.767 3.58 0 3.875 3.364 3.875 5.456v1.085" style="stroke-width:.992126"/><path class="TimeSig" d="M361.19 416.181c-2.481 1.597-4.264 4.465-4.264 7.643 0 .403 0 .79.093 1.193.496 4.062 3.783 7.24 7.844 7.736h1.085c4.96 0 8.93-3.969 8.93-8.93v-.589c0-.403-.094-1.1-.187-1.488-.899-4.263-4.774-13.393-21.64-13.393-21.626 0-24.106 17.95-24.106 24.4 0 11.812 1.488 26.601 26.291 26.601 9.829 0 17.471-5.767 17.859-16.386 0-.496-.295-.79-.791-.79h-1.287c-.403 0-.79.403-.79.79-.403 8.248-6.263 13.208-14.99 13.208-8.635 0-12.805-4.666-12.805-13.394v-18.958c0-5.55 2.186-11.906 11.022-11.906 4.666 0 6.743 1.69 7.844 3.38.186.387.186.697-.109.883M361.19 78.347c-2.481 1.596-4.264 4.464-4.264 7.642 0 .403 0 .79.093 1.194.496 4.061 3.783 7.24 7.844 7.735h1.085c4.96 0 8.93-3.968 8.93-8.929V85.4c0-.403-.094-1.1-.187-1.488-.899-4.263-4.774-13.394-21.64-13.394-21.626 0-24.106 17.952-24.106 24.4 0 11.813 1.488 26.602 26.291 26.602 9.829 0 17.471-5.767 17.859-16.386 0-.496-.295-.79-.791-.79h-1.287c-.403 0-.79.403-.79.79-.403 8.247-6.263 13.208-14.99 13.208-8.635 0-12.805-4.666-12.805-13.394V85.99c0-5.55 2.186-11.905 11.022-11.905 4.666 0 6.743 1.69 7.844 3.38.186.387.186.697-.109.883" style="stroke-width:.992126"/><path class="Rest" d="m2183.12 450.72-.201-.31c-.093-.094-.295-.295-.59-.683l-11.409-14.09c-.31-.296-.201-1.102 0-1.49l10.107-15.284c.109-.202.202-.496.202-.698v-.883c0-.295-.093-.605-.295-.79l-16.075-21.735s-.79-1.193-1.783-.294c-.992.79-.201 2.077-.201 2.077l7.55 10.324c.387.59.387 1.783 0 2.372l-10.03 15.285c-.094.202-.202.59-.202.79v.9c0 .294.108.589.31.79l11.1 13.797c-.388-.108-1.287-.31-2.481-.31-1.674 0-3.86.403-5.643 1.984-2.186 1.985-3.38 4.775-3.38 7.255 0 1.38.295 2.775 1.086 3.86 2.093 3.178 9.534 12.603 9.534 12.603s.883 1.101 1.782.404c.9-.698.698-1.597.403-2.093-.31-.496-3.472-6.248-3.472-6.248s-.698-1.395-.698-3.177c0-1.287.388-2.868 1.69-4.17 1.178-1.179 2.573-1.582 3.86-1.582s2.387.403 3.178.9l3.876 2.48s1.178.589 1.782-.31c.496-.79.295-1.178 0-1.675M2248.008 1050.96l-.201-.31c-.093-.094-.295-.295-.59-.683l-11.409-14.091c-.31-.295-.201-1.1 0-1.488l10.107-15.285c.109-.202.202-.496.202-.698v-.883c0-.295-.093-.605-.295-.791l-16.075-21.734s-.79-1.193-1.783-.294c-.992.79-.201 2.077-.201 2.077l7.55 10.324c.387.59.387 1.783 0 2.372l-10.03 15.285c-.094.202-.202.59-.202.79v.9c0 .294.108.589.31.79l11.1 13.797c-.388-.108-1.287-.31-2.481-.31-1.674 0-3.86.403-5.643 1.984-2.186 1.985-3.38 4.775-3.38 7.255 0 1.38.295 2.775 1.086 3.86 2.093 3.178 9.534 12.603 9.534 12.603s.883 1.101 1.782.403c.9-.697.698-1.596.403-2.092-.31-.496-3.472-6.248-3.472-6.248s-.698-1.395-.698-3.178c0-1.286.388-2.867 1.69-4.17 1.178-1.178 2.573-1.58 3.86-1.58s2.387.402 3.178.898l3.876 2.48s1.178.59 1.782-.31c.496-.79.295-1.178 0-1.674" style="stroke-width:.992126"/><path class="Rest" d="m2183.12 450.72-.201-.31c-.093-.094-.295-.295-.59-.683l-11.409-14.09c-.31-.296-.201-1.102 0-1.49l10.107-15.284c.109-.202.202-.496.202-.698v-.883c0-.295-.093-.605-.295-.79l-16.075-21.735s-.79-1.193-1.783-.294c-.992.79-.201 2.077-.201 2.077l7.55 10.324c.387.59.387 1.783 0 2.372l-10.03 15.285c-.094.202-.202.59-.202.79v.9c0 .294.108.589.31.79l11.1 13.797c-.388-.108-1.287-.31-2.481-.31-1.674 0-3.86.403-5.643 1.984-2.186 1.985-3.38 4.775-3.38 7.255 0 1.38.295 2.775 1.086 3.86 2.093 3.178 9.534 12.603 9.534 12.603s.883 1.101 1.782.404c.9-.698.698-1.597.403-2.093-.31-.496-3.472-6.248-3.472-6.248s-.698-1.395-.698-3.177c0-1.287.388-2.868 1.69-4.17 1.178-1.179 2.573-1.582 3.86-1.582s2.387.403 3.178.9l3.876 2.48s1.178.589 1.782-.31c.496-.79.295-1.178 0-1.675M2248.008 1050.96l-.201-.31c-.093-.094-.295-.295-.59-.683l-11.409-14.091c-.31-.295-.201-1.1 0-1.488l10.107-15.285c.109-.202.202-.496.202-.698v-.883c0-.295-.093-.605-.295-.791l-16.075-21.734s-.79-1.193-1.783-.294c-.992.79-.201 2.077-.201 2.077l7.55 10.324c.387.59.387 1.783 0 2.372l-10.03 15.285c-.094.202-.202.59-.202.79v.9c0 .294.108.589.31.79l11.1 13.797c-.388-.108-1.287-.31-2.481-.31-1.674 0-3.86.403-5.643 1.984-2.186 1.985-3.38 4.775-3.38 7.255 0 1.38.295 2.775 1.086 3.86 2.093 3.178 9.534 12.603 9.534 12.603s.883 1.101 1.782.403c.9-.697.698-1.596.403-2.092-.31-.496-3.472-6.248-3.472-6.248s-.698-1.395-.698-3.178c0-1.286.388-2.867 1.69-4.17 1.178-1.178 2.573-1.58 3.86-1.58s2.387.402 3.178.898l3.876 2.48s1.178.59 1.782-.31c.496-.79.295-1.178 0-1.674M2183.12 112.885l-.201-.31c-.093-.093-.295-.294-.59-.682l-11.409-14.091c-.31-.295-.201-1.1 0-1.488l10.107-15.285c.109-.202.202-.496.202-.698v-.884c0-.294-.093-.604-.295-.79l-16.075-21.734s-.79-1.194-1.783-.294c-.992.79-.201 2.077-.201 2.077l7.55 10.324c.387.59.387 1.783 0 2.372l-10.03 15.285c-.094.201-.202.589-.202.79v.9c0 .294.108.589.31.79l11.1 13.797c-.388-.109-1.287-.31-2.481-.31-1.674 0-3.86.403-5.643 1.984-2.186 1.984-3.38 4.775-3.38 7.255 0 1.38.295 2.775 1.086 3.86 2.093 3.178 9.534 12.603 9.534 12.603s.883 1.1 1.782.403c.9-.697.698-1.596.403-2.093-.31-.496-3.472-6.247-3.472-6.247s-.698-1.395-.698-3.178c0-1.286.388-2.868 1.69-4.17 1.178-1.178 2.573-1.581 3.86-1.581s2.387.403 3.178.9l3.876 2.48s1.178.589 1.782-.31c.496-.791.295-1.179 0-1.675M2248.008 709.127l-.201-.31c-.093-.093-.295-.294-.59-.682l-11.409-14.091c-.31-.295-.201-1.1 0-1.489l10.107-15.284c.109-.202.202-.497.202-.698v-.884c0-.294-.093-.604-.295-.79l-16.075-21.734s-.79-1.194-1.783-.295c-.992.791-.201 2.078-.201 2.078l7.55 10.324c.387.59.387 1.783 0 2.372l-10.03 15.285c-.094.201-.202.589-.202.79v.9c0 .294.108.589.31.79l11.1 13.797c-.388-.109-1.287-.31-2.481-.31-1.674 0-3.86.403-5.643 1.984-2.186 1.984-3.38 4.775-3.38 7.255 0 1.38.295 2.775 1.086 3.86 2.093 3.178 9.534 12.603 9.534 12.603s.883 1.1 1.782.403c.9-.698.698-1.597.403-2.093-.31-.496-3.472-6.247-3.472-6.247s-.698-1.395-.698-3.178c0-1.287.388-2.868 1.69-4.17 1.178-1.178 2.573-1.581 3.86-1.581s2.387.403 3.178.9l3.876 2.48s1.178.588 1.782-.31c.496-.791.295-1.179 0-1.675" style="stroke-width:.992126"/><path class="Rest" d="m2183.12 112.885-.201-.31c-.093-.093-.295-.294-.59-.682l-11.409-14.091c-.31-.295-.201-1.1 0-1.488l10.107-15.285c.109-.202.202-.496.202-.698v-.884c0-.294-.093-.604-.295-.79l-16.075-21.734s-.79-1.194-1.783-.294c-.992.79-.201 2.077-.201 2.077l7.55 10.324c.387.59.387 1.783 0 2.372l-10.03 15.285c-.094.201-.202.589-.202.79v.9c0 .294.108.589.31.79l11.1 13.797c-.388-.109-1.287-.31-2.481-.31-1.674 0-3.86.403-5.643 1.984-2.186 1.984-3.38 4.775-3.38 7.255 0 1.38.295 2.775 1.086 3.86 2.093 3.178 9.534 12.603 9.534 12.603s.883 1.1 1.782.403c.9-.697.698-1.596.403-2.093-.31-.496-3.472-6.247-3.472-6.247s-.698-1.395-.698-3.178c0-1.286.388-2.868 1.69-4.17 1.178-1.178 2.573-1.581 3.86-1.581s2.387.403 3.178.9l3.876 2.48s1.178.589 1.782-.31c.496-.791.295-1.179 0-1.675M2248.008 709.127l-.201-.31c-.093-.093-.295-.294-.59-.682l-11.409-14.091c-.31-.295-.201-1.1 0-1.489l10.107-15.284c.109-.202.202-.497.202-.698v-.884c0-.294-.093-.604-.295-.79l-16.075-21.734s-.79-1.194-1.783-.295c-.992.791-.201 2.078-.201 2.078l7.55 10.324c.387.59.387 1.783 0 2.372l-10.03 15.285c-.094.201-.202.589-.202.79v.9c0 .294.108.589.31.79l11.1 13.797c-.388-.109-1.287-.31-2.481-.31-1.674 0-3.86.403-5.643 1.984-2.186 1.984-3.38 4.775-3.38 7.255 0 1.38.295 2.775 1.086 3.86 2.093 3.178 9.534 12.603 9.534 12.603s.883 1.1 1.782.403c.9-.698.698-1.597.403-2.093-.31-.496-3.472-6.247-3.472-6.247s-.698-1.395-.698-3.178c0-1.287.388-2.868 1.69-4.17 1.178-1.178 2.573-1.581 3.86-1.581s2.387.403 3.178.9l3.876 2.48s1.178.588 1.782-.31c.496-.791.295-1.179 0-1.675" style="stroke-width:.992126"/><path class="Articulation" d="M1354.05 363.638v26.99a.9.9 0 0 0 .899.898h2.976a.887.887 0 0 0 .884-.899v-26.989a.873.873 0 0 0-.884-.883h-2.976c-.496 0-.9.387-.9.883M1236.032 969.788v26.99a.9.9 0 0 0 .899.898h2.976a.887.887 0 0 0 .884-.899v-26.989a.873.873 0 0 0-.884-.884h-2.976c-.496 0-.9.388-.9.884M1356.5 28.231V55.22a.9.9 0 0 0 .899.9h2.976a.887.887 0 0 0 .884-.9V28.231a.873.873 0 0 0-.884-.884h-2.976c-.496 0-.9.388-.9.884M1228.692 625.976v26.989a.9.9 0 0 0 .899.899h2.976a.887.887 0 0 0 .884-.9v-26.988a.873.873 0 0 0-.884-.884h-2.976c-.496 0-.9.388-.9.884" style="stroke-width:.992126"/><path class="Beam" fill-rule="evenodd" d="m1729.708 816.354 89.4-6.4v12.43l-89.4 6.4v-12.43M1759.218 611.924l89.4-6.4v12.43l-89.4 6.4v-12.43"/><path class="Lyrics" d="M384.507 250.341c-1.687 2.047-6.296 3.594-10.89 3.703v2.141h4.39c2.907.062 3.204.36 3.11 3.156v20.047c0 2.562 0 2.656-.297 3.11-.406.5-1.359.702-4.156.702h-3.25v2.344h19.797V283.2h-2.75c-2.797 0-3.75-.203-4.14-.703-.36-.453-.36-.5-.36-3.109v-20.64c0-2.813.11-5.157.36-8.407h-1.814m18.75 29.656c-1.75 0-3.14 1.391-3.14 3.094 0 1.75 1.39 3.156 3.094 3.156a3.147 3.147 0 0 0 3.156-3.156c0-1.703-1.406-3.094-3.11-3.094m50.36-11.797v11.188c0 2.562 0 2.656-.297 3.11-.406.5-1.359.702-4.203.702h-.906v2.344h16.406V283.2h-.906c-2.844 0-3.797-.203-4.188-.703-.312-.453-.312-.5-.312-3.109v-23.797c0-2.594 0-2.656.312-3.094.438-.562 1.344-.703 4.188-.703h.906v-2.359h-16.203v2.36h.703c2.844 0 3.75.14 4.203.702.297.438.297.547.297 3.094v9.906h-16.75v-9.906c0-2.547 0-2.656.344-3.094.406-.562 1.296-.703 4.156-.703h.953v-2.359h-16.453v2.36h.89c2.86 0 3.75.14 4.204.702.296.438.296.547.296 3.094v23.797c0 2.5 0 2.656-.296 3.11-.39.5-1.344.702-4.204.702h-.89v2.344h16.453V283.2h-.953c-2.86-.062-3.75-.203-4.156-.703-.344-.453-.344-.547-.344-3.109V268.2h16.75m35.39 1.25c0-3.156-.546-4.75-2-5.953-1.64-1.359-4.093-2-7.296-2-5.64 0-9.75 2.641-9.75 6.297 0 1.844 1.156 3.047 2.906 3.047 1.594 0 2.703-1.047 2.703-2.547 0-.656-.25-1.344-.75-2.047-.313-.359-.359-.453-.359-.703 0-1 2-1.906 4.406-1.906 1.594 0 3.344.5 4.14 1.25.954.812 1.313 2 1.313 4.25v1.953c-5.203.906-6.859 1.297-9.313 2.25-4.343 1.61-6.39 3.906-6.39 7.11 0 3.593 2.797 5.843 7.25 5.843 3.453 0 6.547-1.406 8.703-3.953.797 2.547 2.047 3.547 4.391 3.547 2.25 0 4.61-1.438 4.61-2.89 0-.36-.204-.61-.5-.61-.204 0-.407.062-.75.203-.704.297-1 .36-1.407.36-1.407 0-1.907-.907-1.907-3.454V269.45m-4.687 6.094c0 3-.156 3.703-1 5-1.25 1.844-3.5 3.094-5.703 3.094-2.297 0-3.953-1.64-3.953-3.89 0-2.11 1.047-3.61 3.25-4.657 1.547-.75 3.5-1.203 7.406-1.844v2.297m11.437 10h40.657v-1.797h-.203c-3.297-.109-3.75-.359-3.75-2.203V266.044c.062-.703.11-1.047.312-1.297.344-.453 1.297-.656 3.438-.703h.203v-1.797h-12.297v1.797h.203c3.047.156 3.453.406 3.453 2.156v15.391c-.062.75-.203 1.11-.609 1.36-.39.25-1.297.39-3.094.437h-1.906c-3.25-.094-3.703-.344-3.703-2.14v-15.204c.046-.75.11-1 .296-1.297.313-.406 1.204-.656 3.11-.703h.203v-1.797h-12v1.797h.187c3.11.156 3.5.406 3.5 2.203v15.344c-.046.75-.187 1.11-.593 1.36-.453.296-1.297.39-3.157.437h-1.89c-3.25-.094-3.703-.344-3.703-2.14v-15.204c.047-.75.093-1 .297-1.297.296-.453 1.203-.656 3.156-.703h.203v-1.797h-12.313v1.797h.204c3.296.094 3.75.344 3.75 2.156v15.594c-.047.703-.094 1-.297 1.25-.344.453-1.297.656-3.453.703h-.204v1.797M594.767 265.497v-11.312c-.156-1.797.594-2.297 3.594-2.39h1.453c7.75.14 9.953 2.343 11.656 11.343h2.188l-1.047-13.703h-28.844v2.36h.891c2.86.046 3.797.202 4.203.702.297.438.297.547.297 3.094v23.797c0 2.562 0 2.656-.297 3.11-.406.5-1.344.702-4.203.702h-.89v2.344h17.5c8.843 0 13.546-3.453 13.546-9.844 0-3.703-1.656-6.656-4.75-8.453-2.203-1.297-4.609-1.75-9.656-1.75h-5.64m0 2.344h6.046c5.297 0 7.844 2.453 7.844 7.61 0 5.296-2.39 7.75-7.64 7.75h-3.204c-2.797 0-3.047-.25-3.047-2.563v-12.797m33.188-6.344c-6.14 0-10.89 5.453-10.89 12.453 0 6.844 4.796 12.344 10.796 12.344 6 0 10.797-5.5 10.797-12.406 0-6.844-4.797-12.39-10.703-12.39m0 2.14c3.5 0 5.453 3.656 5.453 10.25 0 6.656-1.953 10.25-5.547 10.25-3.594 0-5.547-3.594-5.547-10.188 0-6.812 1.891-10.312 5.641-10.312m13.75-1.39v1.796h.203c3.297.094 3.75.344 3.75 2.156v15.547c-.047.75-.094 1.047-.297 1.297-.344.453-1.297.656-3.453.703h-.203v1.797h12.656v-1.797h-.203c-3.344-.109-3.797-.359-3.797-2.156v-13.203c0-2.797 0-2.797.297-3.297.297-.453 1.25-.64 3.25-.703h.656c4 .156 5.25 1.75 5.797 7.5h2l-.5-9.64h-20.156m21 32.5c4.5-3.11 6.562-6.157 6.562-9.657 0-3-1.656-4.953-4.109-4.953-1.844 0-3.25 1.312-3.25 3 0 1.812 1.36 2.953 3.453 2.953.25 0 .594 0 .75-.047h.156c.25 0 .344.156.344.453 0 2.094-1.703 4.453-5.047 6.797l1.141 1.453M713.173 272.388v-6.391c.05-.703.1-1 .3-1.25.36-.453 1.36-.656 3.5-.703h.2v-1.797h-12.65v1.797h.2c3.3.094 3.75.344 3.75 2.156v15.548c-.05.702-.09 1.046-.3 1.296-.34.453-1.29.656-3.45.703h-.2v1.797h12.65v-1.797h-.2c-3.34-.109-3.8-.359-3.8-2.156V274.544h11V281.748c-.04.702-.09 1.046-.29 1.296-.36.453-1.36.656-3.5.703h-.21v1.797h12.66v-1.797h-.2c-3.3-.109-3.75-.359-3.75-2.156v-15.593c.04-.704.09-1 .29-1.25.36-.454 1.3-.657 3.46-.704h.2v-1.797h-12.66v1.797h.21c3.34.094 3.79.344 3.79 2.156V272.388h-11m43.6-2.938c0-3.156-.55-4.75-2-5.953-1.64-1.359-4.1-2-7.3-2-5.64 0-9.75 2.641-9.75 6.297 0 1.844 1.16 3.047 2.91 3.047 1.59 0 2.7-1.047 2.7-2.547 0-.656-.25-1.344-.75-2.047-.31-.359-.36-.453-.36-.703 0-1 2-1.906 4.41-1.906 1.59 0 3.34.5 4.14 1.25.95.812 1.31 2 1.31 4.25v1.953c-5.2.906-6.86 1.297-9.31 2.25-4.35 1.61-6.39 3.906-6.39 7.11 0 3.593 2.79 5.843 7.25 5.843 3.45 0 6.54-1.406 8.7-3.953.8 2.547 2.05 3.547 4.39 3.547 2.25 0 4.61-1.438 4.61-2.89 0-.36-.2-.61-.5-.61-.2 0-.41.062-.75.203-.7.297-1 .36-1.41.36-1.4 0-1.9-.907-1.9-3.454V269.45m-4.69 6.094c0 3-.16 3.703-1 5-1.25 1.844-3.5 3.094-5.7 3.094-2.3 0-3.96-1.64-3.96-3.89 0-2.11 1.05-3.61 3.25-4.657 1.55-.75 3.5-1.203 7.41-1.844v2.297m17.89-9.906 7.95 19.906h1.16l8.7-19.906v16.11c-.06.75-.11 1.046-.31 1.296-.34.453-1.34.656-3.5.703h-.2v1.797h12.65v-1.797h-.2c-3.3-.109-3.75-.359-3.75-2.156V266.044c.06-.75.11-1.047.31-1.297.35-.453 1.3-.656 3.44-.703h.2v-1.797h-9.29l-7.46 16.891-6.75-16.89h-9.4v1.796h.2c3.3.094 3.75.344 3.75 2.156v15.547c-.05.75-.09 1.047-.3 1.297-.34.453-1.29.656-3.45.703h-.2v1.797h10.45v-1.797h-.2c-3.35-.109-3.8-.359-3.8-2.156v-15.953M858.833 249.841c-.75 2-2.34 2.844-5.55 2.797h-1.79c-3.66 0-6 .797-8.05 2.75-3.2 3.047-4.75 8.406-4.75 16.25 0 4.203.5 6.812 1.7 8.906 1.94 3.547 5.44 5.75 9.14 5.75 6 0 10.8-5.5 10.8-12.406 0-6.89-4.8-12.39-10.8-12.39-3.7 0-6.34 1.796-8.45 5.64.5-7.75 3.25-10.5 10.36-10.203 5.45.062 7.95-1.938 8.84-7.094h-1.45m-9.19 13.797c3.5 0 5.44 3.656 5.44 10.25 0 6.656-1.94 10.25-5.55 10.25-3.59 0-5.54-3.594-5.54-10.188 0-6.812 1.9-10.312 5.65-10.312m17.6-1.39v1.796h.2c3.39.094 3.8.344 3.75 2.406v4.5c0 4.641-.3 7.891-.91 9.797-.54 1.797-1.45 2.844-2.45 2.844-.5 0-.75-.25-.75-.703 0-.094 0-.14.06-.25.1-.438.1-.5.1-.75 0-1.297-1.05-2.188-2.5-2.188-1.66 0-2.75 1.141-2.75 2.891 0 2.203 1.79 3.656 4.54 3.656 3.3 0 5.55-1.906 6.41-5.359.64-2.64.84-4.938.84-9.844v-3.547c.11-2.797.3-3 3.91-3.109h.64c3.2.11 3.66.36 3.7 1.953v15.407c-.04.75-.09 1.046-.29 1.296-.35.453-1.35.656-3.5.703h-.21v1.797h12.66v-1.797h-.2c-3.3-.109-3.75-.359-3.75-2.156V266.044c.04-.75.09-1.047.29-1.297.36-.453 1.32-.656 3.46-.703h.2v-1.797h-23.45m47.34 7.203c0-3.156-.55-4.75-2-5.953-1.64-1.359-4.09-2-7.3-2-5.64 0-9.75 2.641-9.75 6.297 0 1.844 1.16 3.047 2.91 3.047 1.59 0 2.7-1.047 2.7-2.547 0-.656-.25-1.344-.75-2.047-.31-.359-.36-.453-.36-.703 0-1 2-1.906 4.41-1.906 1.59 0 3.34.5 4.14 1.25.95.812 1.31 2 1.31 4.25v1.953c-5.2.906-6.86 1.297-9.31 2.25-4.34 1.61-6.39 3.906-6.39 7.11 0 3.593 2.8 5.843 7.25 5.843 3.45 0 6.55-1.406 8.7-3.953.8 2.547 2.05 3.547 4.39 3.547 2.25 0 4.61-1.438 4.61-2.89 0-.36-.2-.61-.5-.61-.2 0-.4.062-.75.203-.7.297-1 .36-1.4.36-1.41 0-1.91-.907-1.91-3.454V269.45m-4.69 6.094c0 3-.15 3.703-1 5-1.25 1.844-3.5 3.094-5.7 3.094-2.3 0-3.95-1.64-3.95-3.89 0-2.11 1.04-3.61 3.25-4.657 1.54-.75 3.5-1.203 7.4-1.844v2.297M985.143 262.247v1.797h.21c3.29.094 3.75.344 3.75 2.156v15.547c-.05.75-.1 1.047-.3 1.297-.34.453-1.3.656-3.45.703h-.21v1.797h12.66v-1.797h-.2c-3.35-.109-3.8-.359-3.8-2.156v-13.203c0-2.797 0-2.797.3-3.297.29-.453 1.25-.64 3.25-.703h.65c4 .156 5.25 1.75 5.8 7.5h2l-.5-9.64h-20.16m34.25-.75c-6.14 0-10.89 5.452-10.89 12.452 0 6.844 4.8 12.344 10.8 12.344 6 0 10.8-5.5 10.8-12.406 0-6.844-4.8-12.39-10.71-12.39m0 2.14c3.5 0 5.46 3.656 5.46 10.25 0 6.656-1.96 10.25-5.55 10.25s-5.55-3.594-5.55-10.188c0-6.812 1.89-10.312 5.64-10.312M1137.52 264.044h.21c3.4.094 3.79.344 3.75 2.406v1.891c-.16 5.297-.96 10.11-2.1 12.656-.81 2.047-1.95 2.75-4.45 2.75h-.2v9.141h1.84c.36-5.438 2.45-7.438 7.61-7.344h7.34c5.11-.094 7.21 1.906 7.61 7.344h1.85v-9.14h-.21c-3.29-.11-3.75-.36-3.75-2.157V266.044c.05-.75.11-1.047.3-1.297.36-.453 1.31-.656 3.45-.703h.21v-1.797h-23.46v1.797m2.75 19.344c2-1.844 3.3-7.547 3.5-14.938v-.953c.11-2.797.3-3 3.91-3.109h.95c3.19.11 3.64.36 3.69 1.953v15.25c-.05.75-.19 1.11-.59 1.36-.41.296-1.3.39-3.1.437h-8.36m45.05-13.938c0-3.156-.55-4.75-2-5.953-1.64-1.359-4.09-2-7.3-2-5.64 0-9.75 2.641-9.75 6.297 0 1.844 1.16 3.047 2.91 3.047 1.59 0 2.7-1.047 2.7-2.547 0-.656-.25-1.344-.75-2.047-.31-.359-.36-.453-.36-.703 0-1 2-1.906 4.41-1.906 1.59 0 3.34.5 4.14 1.25.95.812 1.31 2 1.31 4.25v1.953c-5.2.906-6.86 1.297-9.31 2.25-4.34 1.61-6.39 3.906-6.39 7.11 0 3.593 2.8 5.843 7.25 5.843 3.45 0 6.55-1.406 8.7-3.953.8 2.547 2.05 3.547 4.39 3.547 2.25 0 4.61-1.438 4.61-2.89 0-.36-.2-.61-.5-.61-.2 0-.4.062-.75.203-.7.297-1 .36-1.4.36-1.41 0-1.91-.907-1.91-3.454V269.45m-4.69 6.094c0 3-.15 3.703-1 5-1.25 1.844-3.5 3.094-5.7 3.094-2.3 0-3.95-1.64-3.95-3.89 0-2.11 1.04-3.61 3.25-4.657 1.54-.75 3.5-1.203 7.4-1.844v2.297M1281.61 283.747h-.35c-3.36-.109-3.81-.359-3.81-2.156v-16c0-.953.61-1.453 1.66-1.453 1.2 0 2.4.562 3.4 1.61 1.35 1.39 1.94 3.046 2.19 6.14h2l-.5-9.64h-22.19l-.5 9.64h2c.19-2.89.64-4.39 1.85-5.797 1-1.203 2.45-1.953 3.75-1.953 1.04 0 1.65.5 1.65 1.453v16.157c-.06.75-.11 1.046-.31 1.296-.34.453-1.3.656-3.44.703h-.36v1.797h12.96v-1.797m27.25-14.406v12.407c-.05.75-.1 1.046-.3 1.296-.36.453-1.36.656-3.5.703h-.2v1.797h12.65v-1.797h-.2c-3.3-.109-3.75-.359-3.75-2.156V266.044c.05-.75.09-1.047.3-1.297.35-.453 1.29-.656 3.45-.703h.2v-1.797h-12.65v1.797h.2c3.34.094 3.8.344 3.8 2.156l-11 12.75V266.044c.04-.75.09-1.047.29-1.297.36-.453 1.36-.656 3.5-.703h.21v-1.797h-12.66v1.797h.2c3.3.094 3.75.344 3.75 2.156v15.547c-.04.75-.09 1.047-.29 1.297-.35.453-1.3.656-3.46.703h-.2v1.797h12.66v-1.797h-.21c-3.09-.047-3.7-.359-3.79-1.703l11-12.703M1360.67 264.044h.2c3.41.094 3.8.344 3.75 2.406v1.891c-.15 5.297-.95 10.11-2.09 12.656-.81 2.047-1.95 2.75-4.45 2.75h-.21v9.141h1.85c.36-5.438 2.45-7.438 7.61-7.344h7.34c5.11-.094 7.2 1.906 7.61 7.344h1.84v-9.14h-.2c-3.3-.11-3.75-.36-3.75-2.157V266.044c.05-.75.11-1.047.3-1.297.36-.453 1.31-.656 3.45-.703h.2v-1.797h-23.45v1.797m2.75 19.344c2-1.844 3.3-7.547 3.5-14.938v-.953c.11-2.797.3-3 3.91-3.109h.95c3.19.11 3.64.36 3.69 1.953v15.25c-.05.75-.19 1.11-.6 1.36-.4.296-1.29.39-3.09.437h-8.36m35.05-21.89c-6.14 0-10.89 5.452-10.89 12.452 0 6.844 4.79 12.344 10.79 12.344 6 0 10.8-5.5 10.8-12.406 0-6.844-4.8-12.39-10.7-12.39m0 2.14c3.5 0 5.45 3.656 5.45 10.25 0 6.656-1.95 10.25-5.55 10.25-3.59 0-5.54-3.594-5.54-10.188 0-6.812 1.89-10.312 5.64-10.312M1532.667 278.2c-1.6 3.594-3.3 5.047-5.9 5.047-4 0-6.5-3.656-6.5-9.5 0-6.109 2.46-10.109 6.15-10.109 1.5 0 2.81.703 2.81 1.5 0 .156-.06.312-.31.61-.8.952-1 1.452-1 2.296 0 1.656 1.25 2.797 3 2.797 1.81 0 3.06-1.39 3.06-3.39 0-3.407-3.36-5.954-7.81-5.954-6.5 0-11.15 5.297-11.15 12.797 0 7.094 4.25 12 10.46 12 4.44 0 7-2.047 9.14-7.344l-1.95-.75m22.4 5.547h-.34c-3.36-.109-3.81-.359-3.81-2.156v-16c0-.953.6-1.453 1.65-1.453 1.2 0 2.41.562 3.41 1.61 1.34 1.39 1.94 3.046 2.19 6.14h2l-.5-9.64h-22.19l-.5 9.64h2c.19-2.89.64-4.39 1.84-5.797 1-1.203 2.45-1.953 3.75-1.953 1.05 0 1.66.5 1.66 1.453v16.157c-.06.75-.11 1.046-.31 1.296-.35.453-1.3.656-3.44.703h-.36v1.797h12.95v-1.797m27.85-14.297c0-3.156-.55-4.75-2-5.953-1.65-1.359-4.1-2-7.3-2-5.64 0-9.75 2.641-9.75 6.297 0 1.844 1.15 3.047 2.9 3.047 1.6 0 2.71-1.047 2.71-2.547 0-.656-.25-1.344-.75-2.047-.31-.359-.36-.453-.36-.703 0-1 2-1.906 4.4-1.906 1.6 0 3.35.5 4.15 1.25.95.812 1.31 2 1.31 4.25v1.953c-5.21.906-6.86 1.297-9.31 2.25-4.35 1.61-6.4 3.906-6.4 7.11 0 3.593 2.8 5.843 7.25 5.843 3.46 0 6.55-1.406 8.71-3.953.79 2.547 2.04 3.547 4.39 3.547 2.25 0 4.61-1.438 4.61-2.89 0-.36-.21-.61-.5-.61-.21 0-.41.062-.75.203-.71.297-1 .36-1.41.36-1.4 0-1.9-.907-1.9-3.454V269.45m-4.69 6.094c0 3-.16 3.703-1 5-1.25 1.844-3.5 3.094-5.71 3.094-2.29 0-3.95-1.64-3.95-3.89 0-2.11 1.05-3.61 3.25-4.657 1.55-.75 3.5-1.203 7.41-1.844v2.297M1659.927 283.747h-.34c-3.36-.109-3.81-.359-3.81-2.156v-16c0-.953.61-1.453 1.65-1.453 1.21 0 2.41.562 3.41 1.61 1.34 1.39 1.94 3.046 2.19 6.14h2l-.5-9.64h-22.19l-.5 9.64h2c.19-2.89.64-4.39 1.84-5.797 1-1.203 2.46-1.953 3.75-1.953 1.05 0 1.66.5 1.66 1.453v16.157c-.06.75-.11 1.046-.31 1.296-.35.453-1.3.656-3.44.703h-.36v1.797h12.95v-1.797m18.85-22.25c-6.14 0-10.89 5.453-10.89 12.453 0 6.844 4.79 12.344 10.79 12.344 6 0 10.8-5.5 10.8-12.406 0-6.844-4.8-12.39-10.7-12.39m0 2.14c3.5 0 5.45 3.656 5.45 10.25 0 6.656-1.95 10.25-5.55 10.25-3.59 0-5.54-3.594-5.54-10.188 0-6.812 1.89-10.312 5.64-10.312m31.75 15.75v2.406c-.05.703-.1 1-.35 1.25-.29.453-1.29.656-3.45.703h-.2v1.797h12.65v-1.797h-.2c-3.3-.109-3.75-.359-3.75-2.156V266.044c.05-.75.11-1.047.3-1.297.36-.453 1.31-.656 3.45-.703h.2v-1.797h-12.65v1.797h.2c3.36.094 3.8.344 3.8 2.156V273.794c-2.55 1.094-3.94 1.453-5.75 1.453-3.19 0-4.6-1.156-4.6-3.75V266.044c.05-.75.1-1.047.3-1.297.36-.453 1.3-.656 3.5-.703h.2v-1.797h-12.65v1.797h.2c3.3.094 3.75.344 3.75 2.156v5.548c0 3.843 2.41 5.702 7.41 5.702 2.75 0 5.34-.562 7.64-1.609v3.547M1791.037 272.388v-6.391c.05-.703.1-1 .3-1.25.36-.453 1.36-.656 3.5-.703h.2v-1.797h-12.65v1.797h.2c3.3.094 3.75.344 3.75 2.156v15.548c-.05.702-.09 1.046-.3 1.296-.34.453-1.29.656-3.45.703h-.2v1.797h12.65v-1.797h-.2c-3.34-.109-3.8-.359-3.8-2.156V274.544h11V281.748c-.04.702-.09 1.046-.29 1.296-.36.453-1.36.656-3.5.703h-.21v1.797h12.66v-1.797h-.2c-3.3-.109-3.75-.359-3.75-2.156v-15.593c.04-.704.09-1 .29-1.25.36-.454 1.3-.657 3.46-.704h.2v-1.797h-12.66v1.797h.21c3.34.094 3.79.344 3.79 2.156V272.388h-11m33.6-10.89c-6.14 0-10.89 5.452-10.89 12.452 0 6.844 4.79 12.344 10.79 12.344 6 0 10.8-5.5 10.8-12.406 0-6.844-4.8-12.39-10.7-12.39m0 2.14c3.5 0 5.45 3.656 5.45 10.25 0 6.656-1.95 10.25-5.55 10.25-3.59 0-5.54-3.594-5.54-10.188 0-6.812 1.89-10.312 5.64-10.312M1889.747 262.247v1.797h.2c3.3.094 3.75.344 3.75 2.156v15.547c-.05.75-.09 1.047-.3 1.297-.34.453-1.29.656-3.45.703h-.2v1.797h12.95c2.66 0 4.95-.297 6.16-.797 2.54-1.047 3.95-3.047 3.95-5.609 0-1.594-.56-2.938-1.66-3.938-1.04-.953-2.25-1.359-4.9-1.703 4.15-.797 5.9-2.453 5.9-5.609 0-3.688-2.79-5.64-8.25-5.64h-14.15m8.65 10.14V265.7c0-1.109.21-1.312 1.16-1.312h2.75c3.05 0 4.59 1.36 4.59 3.906 0 2.703-1.7 4.094-4.95 4.094h-3.55m0 2.156h3.5c3.91 0 5.66 1.344 5.66 4.344 0 2.812-1.86 4.5-5 4.5h-2.25c-1.66 0-1.86-.188-1.91-1.438v-7.406m31.35-12.297v1.797h.2c3.3.094 3.75.344 3.75 2.156v15.547c-.05.75-.09 1.047-.3 1.297-.34.453-1.29.656-3.45.703h-.2v1.797h12.65v-1.797h-.2c-3.34-.109-3.8-.359-3.8-2.156V266.2c.05-.75.21-1.109.6-1.359.4-.297 1.31-.39 3.11-.453h3.59c3.2.11 3.66.36 3.7 1.953v15.407c-.04.75-.09 1.046-.29 1.296-.36.453-1.36.656-3.5.703h-.21v1.797h12.66v-1.797h-.2c-3.3-.109-3.75-.359-3.75-2.156v-15.593c.04-.704.09-1 .29-1.25.36-.454 1.3-.657 3.46-.704h.2v-1.797h-28.31m44.65 16.953-5.5-12.859c-.2-.5-.29-.75-.29-1 0-.953.59-1.297 2.29-1.297h1.05v-1.797h-11.89v1.797h.55c1.7.047 2.34.547 3.39 2.703l8.15 18.453-.84 1.75c-1.81 3.797-4.16 6.438-5.75 6.438-.45 0-.81-.188-.81-.5 0-.094.06-.25.11-.438.14-.453.25-.906.25-1.312 0-1.297-1.05-2.25-2.55-2.25-1.75 0-3 1.312-3 3.11 0 2.25 1.89 3.843 4.55 3.843 2.64 0 4.89-1.297 6.89-4 1.56-2.047 2.56-4.14 4.75-9.594l5.7-14.156c1.16-2.953 2.25-4 4.2-4.047h.3v-1.797h-10v1.797h.8c1.9 0 2.7.547 2.7 1.844 0 .562-.14 1.156-.5 2l-4.55 11.312M2078.95 283.747h-.35c-3.36-.109-3.81-.359-3.81-2.156v-16c0-.953.61-1.453 1.66-1.453 1.2 0 2.4.562 3.4 1.61 1.35 1.39 1.94 3.046 2.19 6.14h2l-.5-9.64h-22.19l-.5 9.64h2c.19-2.89.64-4.39 1.85-5.797 1-1.203 2.45-1.953 3.75-1.953 1.04 0 1.65.5 1.65 1.453v16.157c-.06.75-.11 1.046-.31 1.296-.34.453-1.3.656-3.44.703h-.36v1.797h12.96v-1.797m27.25-14.406v12.407c-.05.75-.1 1.046-.3 1.296-.36.453-1.36.656-3.5.703h-.2v1.797h12.65v-1.797h-.2c-3.3-.109-3.75-.359-3.75-2.156V266.044c.05-.75.09-1.047.3-1.297.35-.453 1.29-.656 3.45-.703h.2v-1.797h-12.65v1.797h.2c3.34.094 3.8.344 3.8 2.156l-11 12.75V266.044c.04-.75.09-1.047.29-1.297.36-.453 1.36-.656 3.5-.703h.21v-1.797h-12.66v1.797h.2c3.3.094 3.75.344 3.75 2.156v15.547c-.04.75-.09 1.047-.29 1.297-.35.453-1.3.656-3.46.703h-.2v1.797h12.66v-1.797h-.21c-3.09-.047-3.7-.359-3.79-1.703l11-12.703m14.34 25.406c4.5-3.109 6.56-6.156 6.56-9.656 0-3-1.65-4.953-4.11-4.953-1.84 0-3.25 1.312-3.25 3 0 1.812 1.36 2.953 3.46 2.953.25 0 .59 0 .75-.047h.15c.25 0 .35.156.35.453 0 2.094-1.71 4.453-5.05 6.797l1.14 1.453M2221.53 279.388v2.406c-.04.703-.09 1-.34 1.25-.3.453-1.3.656-3.45.703h-.21v1.797h12.66v-1.797h-.2c-3.3-.109-3.75-.359-3.75-2.156V266.044c.04-.75.11-1.047.29-1.297.36-.453 1.32-.656 3.46-.703h.2v-1.797h-12.66v1.797h.21c3.36.094 3.79.344 3.79 2.156V273.794c-2.54 1.094-3.93 1.453-5.75 1.453-3.18 0-4.59-1.156-4.59-3.75V266.044c.05-.75.09-1.047.3-1.297.36-.453 1.29-.656 3.5-.703h.2v-1.797h-12.66v1.797h.21c3.29.094 3.75.344 3.75 2.156v5.548c0 3.843 2.4 5.702 7.4 5.702 2.75 0 5.35-.562 7.64-1.609v3.547m28.41 4.36h-.34c-3.36-.11-3.82-.36-3.82-2.157v-16c0-.953.61-1.453 1.66-1.453 1.2 0 2.41.562 3.41 1.61 1.34 1.39 1.93 3.046 2.18 6.14h2l-.5-9.64h-22.18l-.5 9.64h2c.18-2.89.64-4.39 1.84-5.797 1-1.203 2.45-1.953 3.75-1.953 1.05 0 1.66.5 1.66 1.453v16.157c-.07.75-.11 1.046-.32 1.296-.34.453-1.29.656-3.43.703h-.36v1.797h12.95v-1.797m18.84-22.25c-6.14 0-10.89 5.453-10.89 12.453 0 6.844 4.8 12.344 10.8 12.344 6 0 10.8-5.5 10.8-12.406 0-6.844-4.8-12.39-10.71-12.39m0 2.14c3.5 0 5.46 3.656 5.46 10.25 0 6.656-1.96 10.25-5.55 10.25s-5.55-3.594-5.55-10.188c0-6.812 1.89-10.312 5.64-10.312m34.25-13.797c-.75 2-2.34 2.844-5.54 2.797h-1.8c-3.66 0-6 .797-8.05 2.75-3.2 3.047-4.75 8.406-4.75 16.25 0 4.203.5 6.812 1.71 8.906 1.93 3.547 5.43 5.75 9.14 5.75 6 0 10.79-5.5 10.79-12.406 0-6.89-4.79-12.39-10.79-12.39-3.71 0-6.35 1.796-8.46 5.64.5-7.75 3.25-10.5 10.36-10.203 5.46.062 7.96-1.938 8.85-7.094h-1.46m-9.18 13.797c3.5 0 5.43 3.656 5.43 10.25 0 6.656-1.93 10.25-5.54 10.25-3.6 0-5.55-3.594-5.55-10.188 0-6.812 1.91-10.312 5.66-10.312M392.96 865.91v1.8h.202c3.297.09 3.75.34 3.75 2.15V885.41c-.047.75-.094 1.05-.297 1.3-.344.45-1.297.65-3.453.7h-.203v1.8h12.656v-1.8h-.203c-3.344-.11-3.797-.36-3.797-2.16V869.86c.047-.75.203-1.11.594-1.36.406-.29 1.312-.39 3.11-.45h3.593c3.203.11 3.656.36 3.703 1.95v15.41c-.047.75-.094 1.05-.297 1.3-.359.45-1.359.65-3.5.7h-.203v1.8h12.656v-1.8h-.203c-3.297-.11-3.75-.36-3.75-2.16v-15.59c.047-.7.094-1 .297-1.25.36-.45 1.297-.66 3.453-.7h.203v-1.8H392.96m42.25-.75c-6.14 0-10.89 5.45-10.89 12.45 0 6.85 4.796 12.35 10.796 12.35 6 0 10.797-5.5 10.797-12.41 0-6.84-4.797-12.39-10.703-12.39m0 2.14c3.5 0 5.453 3.66 5.453 10.25 0 6.66-1.953 10.25-5.547 10.25-3.594 0-5.547-3.59-5.547-10.19 0-6.81 1.891-10.31 5.641-10.31M555 853.1h-29.953l-.75 13.9h2.141c.36-2.5.75-4.4 1.36-6 1.296-3.7 3.702-5.54 7.093-5.54 1.656 0 2.36.54 2.36 1.79v25.8c0 2.56 0 2.66-.313 3.11-.39.5-1.344.7-4.188.7h-1.312v2.35h17.156v-2.35h-1.297c-2.797 0-3.75-.2-4.156-.7-.297-.45-.297-.55-.297-3.11v-25.8c0-1.25.703-1.79 2.344-1.79 3.062 0 5.515 1.7 6.765 4.7.75 1.84 1.25 4 1.641 6.84h2.156l-.75-13.9m3.688 12.81v1.8h.203c3.297.09 3.75.34 3.75 2.15V885.41c-.047.75-.094 1.05-.297 1.3-.344.45-1.297.65-3.453.7h-.203v1.8h12.953c2.656 0 4.953-.3 6.156-.8 2.547-1.05 3.953-3.05 3.953-5.61 0-1.59-.562-2.94-1.656-3.94-1.047-.95-2.25-1.36-4.906-1.7 4.156-.8 5.906-2.45 5.906-5.61 0-3.69-2.797-5.64-8.25-5.64h-14.156m8.656 10.14v-6.69c0-1.11.203-1.31 1.156-1.31h2.75c3.047 0 4.594 1.36 4.594 3.91 0 2.7-1.703 4.09-4.953 4.09h-3.547m0 2.16h3.5c3.906 0 5.656 1.34 5.656 4.34 0 2.81-1.859 4.5-5 4.5h-2.25c-1.656 0-1.859-.19-1.906-1.44v-7.4m28.594-13.05c-6.14 0-10.89 5.45-10.89 12.45 0 6.85 4.796 12.35 10.796 12.35 6 0 10.797-5.5 10.797-12.41 0-6.84-4.797-12.39-10.703-12.39m0 2.14c3.5 0 5.453 3.66 5.453 10.25 0 6.66-1.953 10.25-5.547 10.25-3.594 0-5.547-3.59-5.547-10.19 0-6.81 1.891-10.31 5.641-10.31M705.323 877.96c.046-7.5-4.204-12.8-10.297-12.8-6.407 0-11.203 5.55-11.203 13.05 0 7.04 4.546 11.75 11.296 11.75 4.797 0 8.157-2.35 10.204-7.1l-1.75-.95c-2.047 3.84-4.157 5.34-7.5 5.34-2.547 0-4.407-1.04-5.704-3.29-.89-1.5-1.296-3.25-1.25-6h16.204m-16.157-2.16c0-1.55.203-2.64.703-4.05 1.047-3 2.657-4.45 5.11-4.45 3 0 5 2.66 5 6.7 0 1.41-.453 1.8-2.063 1.8h-8.75m38.907-2.8v12.41c-.047.75-.094 1.05-.297 1.3-.36.45-1.36.65-3.5.7h-.203v1.8h12.656v-1.8h-.203c-3.297-.11-3.75-.36-3.75-2.16v-15.54c.047-.75.093-1.05.297-1.3.36-.45 1.296-.66 3.453-.7h.203v-1.8h-12.656v1.8h.203c3.343.09 3.797.34 3.797 2.15l-11 12.75v-12.9c.046-.75.093-1.05.296-1.3.36-.45 1.36-.66 3.5-.7h.204v-1.8h-12.657v1.8h.203c3.297.09 3.75.34 3.75 2.15V885.41c-.046.75-.093 1.05-.296 1.3-.344.45-1.297.65-3.454.7h-.203v1.8h12.657v-1.8h-.204c-3.093-.05-3.703-.36-3.796-1.7l11-12.71m-10.25-18.4c-1.657 0-2.954 1.2-2.954 2.7 0 3 3.297 5.16 7.86 5.16 4.75 0 8.047-2.11 8.047-5.16 0-1.5-1.297-2.7-2.953-2.7-1.407 0-2.547 1-2.547 2.31 0 .84.297 1.34 1.093 1.75.36.14.5.3.5.55 0 .75-1.546 1.25-4.046 1.25s-4.047-.5-4.047-1.25c0-.25.14-.41.5-.55.797-.41 1.093-.91 1.093-1.75 0-1.31-1.14-2.31-2.546-2.31M832.098 867.71h.203c3.407.09 3.797.34 3.75 2.4V872c-.156 5.3-.953 10.11-2.093 12.66-.813 2.05-1.954 2.75-4.454 2.75h-.203v9.14h1.844c.36-5.44 2.453-7.44 7.61-7.34h7.343c5.11-.1 7.203 1.9 7.61 7.34h1.843v-9.14h-.203c-3.297-.11-3.75-.36-3.75-2.16v-15.54c.047-.75.11-1.05.297-1.3.36-.45 1.313-.66 3.453-.7h.203v-1.8h-23.453v1.8m2.75 19.34c2-1.84 3.297-7.55 3.5-14.94v-.95c.11-2.8.297-3 3.906-3.11h.954c3.187.11 3.64.36 3.687 1.95v15.25c-.047.75-.187 1.11-.594 1.36-.406.3-1.297.39-3.093.44h-8.36m35.047-21.89c-6.14 0-10.89 5.45-10.89 12.45 0 6.85 4.796 12.35 10.796 12.35 6 0 10.797-5.5 10.797-12.41 0-6.84-4.797-12.39-10.703-12.39m0 2.14c3.5 0 5.453 3.66 5.453 10.25 0 6.66-1.953 10.25-5.547 10.25-3.593 0-5.547-3.59-5.547-10.19 0-6.81 1.891-10.31 5.641-10.31M1010.575 865.91l-8.64.55v2.15h1.8c1.89.05 2.14.35 2.14 2.5v24.44c-.05.7-.1 1-.3 1.25-.34.45-1.3.66-3.45.7h-.19v1.8h13v-1.8h-.56c-3.35-.09-3.8-.34-3.8-2.14v-9.45c1.66 2.89 3.5 4.05 6.61 4.05 3.05 0 5.55-1.3 7.34-3.75 1.75-2.41 2.75-5.5 2.75-8.75s-1-6.3-2.84-8.71c-1.86-2.39-4.16-3.59-6.95-3.59-3.11 0-5.16 1.3-6.91 4.3v-3.55m6 1.95c3.45 0 5.45 3.44 5.45 9.3 0 6.45-2 10.09-5.59 10.09-3.61 0-5.91-3.7-5.91-9.45 0-6.25 2.25-9.94 6.05-9.94m25.55-2.7c-6.14 0-10.89 5.45-10.89 12.45 0 6.85 4.79 12.35 10.79 12.35 6 0 10.8-5.5 10.8-12.41 0-6.84-4.8-12.39-10.7-12.39m0 2.14c3.5 0 5.45 3.66 5.45 10.25 0 6.66-1.95 10.25-5.55 10.25-3.59 0-5.54-3.59-5.54-10.19 0-6.81 1.89-10.31 5.64-10.31M1132.942 865.91v1.8h.2c3.3.09 3.75.34 3.75 2.15V885.41c-.05.75-.09 1.05-.3 1.3-.34.45-1.29.65-3.45.7h-.2v1.8h12.65v-1.8h-.2c-3.34-.11-3.8-.36-3.8-2.16v-13.2c0-2.8 0-2.8.3-3.3.3-.45 1.25-.64 3.25-.7h.66c4 .16 5.25 1.75 5.79 7.5h2l-.5-9.64h-20.15m43.9 12.05c.05-7.5-4.2-12.8-10.29-12.8-6.41 0-11.21 5.55-11.21 13.05 0 7.04 4.55 11.75 11.3 11.75 4.8 0 8.16-2.35 10.2-7.1l-1.75-.95c-2.04 3.84-4.15 5.34-7.5 5.34-2.54 0-4.4-1.04-5.7-3.29-.89-1.5-1.3-3.25-1.25-6h16.2m-16.15-2.16c0-1.55.2-2.64.7-4.05 1.05-3 2.66-4.45 5.11-4.45 3 0 5 2.66 5 6.7 0 1.41-.45 1.8-2.06 1.8h-8.75M1262.082 881.86c-1.59 3.6-3.29 5.05-5.89 5.05-4 0-6.5-3.66-6.5-9.5 0-6.11 2.46-10.11 6.14-10.11 1.5 0 2.82.7 2.82 1.5 0 .16-.07.31-.32.61-.79.95-1 1.45-1 2.3 0 1.65 1.25 2.79 3 2.79 1.82 0 3.07-1.39 3.07-3.39 0-3.4-3.36-5.95-7.82-5.95-6.5 0-11.14 5.3-11.14 12.8 0 7.09 4.25 12 10.46 12 4.43 0 7-2.05 9.14-7.35l-1.96-.75m22 1.19v2.41c-.04.7-.09 1-.34 1.25-.3.45-1.3.65-3.45.7h-.21v1.8h12.66v-1.8h-.2c-3.3-.11-3.75-.36-3.75-2.16v-15.54c.04-.75.11-1.05.29-1.3.36-.45 1.32-.66 3.46-.7h.2v-1.8h-12.66v1.8h.21c3.36.09 3.79.34 3.79 2.15v7.6c-2.54 1.09-3.93 1.45-5.75 1.45-3.18 0-4.59-1.16-4.59-3.75V869.71c.05-.75.09-1.05.3-1.3.36-.45 1.29-.66 3.5-.7h.2v-1.8h-12.66v1.8h.21c3.29.09 3.75.34 3.75 2.15v5.55c0 3.84 2.4 5.7 7.4 5.7 2.75 0 5.35-.56 7.64-1.61v3.55m32.25-9.94c0-3.15-.54-4.75-2-5.95-1.64-1.36-4.09-2-7.29-2-5.64 0-9.75 2.64-9.75 6.3 0 1.84 1.15 3.04 2.9 3.04 1.6 0 2.71-1.04 2.71-2.54 0-.66-.25-1.35-.75-2.05-.32-.36-.36-.45-.36-.7 0-1 2-1.91 4.4-1.91 1.6 0 3.35.5 4.14 1.25.96.81 1.32 2 1.32 4.25v1.95c-5.21.91-6.86 1.3-9.32 2.25-4.34 1.61-6.39 3.91-6.39 7.11 0 3.6 2.8 5.85 7.25 5.85 3.46 0 6.55-1.41 8.71-3.96.79 2.55 2.04 3.55 4.39 3.55 2.25 0 4.61-1.44 4.61-2.89 0-.36-.21-.61-.5-.61-.21 0-.41.06-.75.2-.71.3-1 .36-1.41.36-1.41 0-1.91-.9-1.91-3.45v-10.05m-4.68 6.1c0 3-.16 3.7-1 5-1.25 1.84-3.5 3.09-5.71 3.09-2.29 0-3.95-1.64-3.95-3.89 0-2.11 1.05-3.61 3.25-4.66 1.55-.75 3.5-1.2 7.41-1.84v2.3m29.43 2.65c-1.59 3.6-3.29 5.05-5.89 5.05-4 0-6.5-3.66-6.5-9.5 0-6.11 2.46-10.11 6.14-10.11 1.5 0 2.82.7 2.82 1.5 0 .16-.07.31-.32.61-.79.95-1 1.45-1 2.3 0 1.65 1.25 2.79 3 2.79 1.82 0 3.07-1.39 3.07-3.39 0-3.4-3.36-5.95-7.82-5.95-6.5 0-11.14 5.3-11.14 12.8 0 7.09 4.25 12 10.46 12 4.43 0 7-2.05 9.14-7.35l-1.96-.75m22.41 5.55h-.34c-3.36-.11-3.82-.36-3.82-2.16v-16c0-.95.61-1.45 1.66-1.45 1.2 0 2.41.56 3.41 1.61 1.34 1.39 1.93 3.05 2.18 6.14h2l-.5-9.64h-22.18l-.5 9.64h2c.18-2.89.64-4.39 1.84-5.8 1-1.2 2.45-1.95 3.75-1.95 1.05 0 1.66.5 1.66 1.45v16.16c-.07.75-.11 1.05-.32 1.3-.34.45-1.29.65-3.43.7h-.36v1.8h12.95v-1.8M1443.718 865.91v1.8h.21c3.39.09 3.79.34 3.75 2.4v4.5c0 4.64-.3 7.89-.91 9.8-.55 1.8-1.45 2.84-2.45 2.84-.5 0-.75-.25-.75-.7 0-.09 0-.14.06-.25.09-.44.09-.5.09-.75 0-1.3-1.04-2.19-2.5-2.19-1.65 0-2.75 1.14-2.75 2.89 0 2.21 1.8 3.66 4.55 3.66 3.3 0 5.55-1.91 6.41-5.36.64-2.64.84-4.94.84-9.84v-3.55c.11-2.8.3-3 3.91-3.11h.64c3.2.11 3.65.36 3.7 1.95v15.41c-.05.75-.09 1.05-.3 1.3-.34.45-1.34.65-3.5.7h-.2v1.8h12.66v-1.8h-.21c-3.29-.11-3.75-.36-3.75-2.16v-15.54c.05-.75.1-1.05.3-1.3.36-.45 1.31-.66 3.45-.7h.21v-1.8h-23.46m45.75 7.09v12.41c-.04.75-.09 1.05-.29 1.3-.36.45-1.36.65-3.5.7h-.21v1.8h12.66v-1.8h-.2c-3.3-.11-3.75-.36-3.75-2.16v-15.54c.04-.75.09-1.05.29-1.3.36-.45 1.3-.66 3.46-.7h.2v-1.8h-12.66v1.8h.21c3.34.09 3.79.34 3.79 2.15l-11 12.75v-12.9c.05-.75.1-1.05.3-1.3.36-.45 1.36-.66 3.5-.7h.2v-1.8h-12.65v1.8h.2c3.3.09 3.75.34 3.75 2.15V885.41c-.05.75-.09 1.05-.3 1.3-.34.45-1.29.65-3.45.7h-.2v1.8h12.65v-1.8h-.2c-3.09-.05-3.7-.36-3.8-1.7l11-12.71M1576.498 865.91v1.8h.2c3.3.09 3.75.34 3.75 2.15V885.41c-.05.75-.09 1.05-.3 1.3-.34.45-1.29.65-3.45.7h-.2v1.8h12.95c2.66 0 4.95-.3 6.16-.8 2.54-1.05 3.95-3.05 3.95-5.61 0-1.59-.56-2.94-1.66-3.94-1.04-.95-2.25-1.36-4.9-1.7 4.15-.8 5.9-2.45 5.9-5.61 0-3.69-2.79-5.64-8.25-5.64h-14.15m8.65 10.14v-6.69c0-1.11.21-1.31 1.16-1.31h2.75c3.05 0 4.59 1.36 4.59 3.91 0 2.7-1.7 4.09-4.95 4.09h-3.55m0 2.16h3.5c3.91 0 5.66 1.34 5.66 4.34 0 2.81-1.86 4.5-5 4.5h-2.25c-1.66 0-1.86-.19-1.91-1.44v-7.4m39.66 9.2v1.8h12.64v-1.8h-.19c-3.31-.11-3.75-.36-3.75-2.16v-15.59c0-.7.1-1 .3-1.25.34-.45 1.3-.66 3.45-.7h.19v-1.8h-12.64v1.8h.19c3.36.09 3.81.34 3.81 2.15V885.41c-.05.75-.11 1.05-.3 1.3-.36.45-1.36.65-3.51.7h-.19m-22.31 1.8h13.45c5.66 0 9.16-2.66 9.16-6.85 0-1.86-.75-3.5-2.11-4.61-1.44-1.2-3.35-1.7-6.64-1.7h-5.21v-6.39c.05-.7.1-1 .3-1.25.36-.45 1.36-.66 3.5-.7h.2v-1.8h-12.65v1.8h.2c3.3.09 3.75.34 3.75 2.15V885.41c-.05.75-.09 1.05-.3 1.3-.34.45-1.29.65-3.45.7h-.2v1.8m8.65-11h4.25c2.75 0 4.46 1.65 4.46 4.29 0 2.8-1.96 4.55-5.05 4.55h-1.86c-1.25-.05-1.8-.55-1.8-1.69v-7.15M1720.128 869.3l7.95 19.91h1.16l8.7-19.91v16.11c-.06.75-.11 1.05-.31 1.3-.35.45-1.35.65-3.5.7h-.21v1.8h12.66v-1.8h-.2c-3.3-.11-3.75-.36-3.75-2.16v-15.54c.06-.75.11-1.05.31-1.3.34-.45 1.3-.66 3.44-.7h.2v-1.8h-9.3l-7.45 16.89-6.75-16.89h-9.41v1.8h.21c3.29.09 3.75.34 3.75 2.15V885.41c-.05.75-.1 1.05-.3 1.3-.34.45-1.3.65-3.45.7h-.21v1.8h10.46v-1.8h-.21c-3.34-.11-3.79-.36-3.79-2.16V869.3m49.2 3.7v12.41c-.05.75-.09 1.05-.3 1.3-.36.45-1.36.65-3.5.7h-.2v1.8h12.66v-1.8h-.21c-3.29-.11-3.75-.36-3.75-2.16v-15.54c.05-.75.1-1.05.3-1.3.36-.45 1.3-.66 3.45-.7h.21v-1.8h-12.66v1.8h.2c3.35.09 3.8.34 3.8 2.15l-11 12.75v-12.9c.05-.75.09-1.05.3-1.3.36-.45 1.36-.66 3.5-.7h.2v-1.8h-12.66v1.8h.21c3.29.09 3.75.34 3.75 2.15V885.41c-.05.75-.1 1.05-.3 1.3-.34.45-1.3.65-3.45.7h-.21v1.8h12.66v-1.8h-.2c-3.1-.05-3.71-.36-3.8-1.7l11-12.71M1910.678 873v12.41c-.05.75-.1 1.05-.3 1.3-.36.45-1.36.65-3.5.7h-.2v1.8h12.65v-1.8h-.2c-3.3-.11-3.75-.36-3.75-2.16v-15.54c.05-.75.09-1.05.3-1.3.36-.45 1.29-.66 3.45-.7h.2v-1.8h-12.65v1.8h.2c3.34.09 3.8.34 3.8 2.15l-11 12.75v-12.9c.04-.75.09-1.05.29-1.3.36-.45 1.36-.66 3.5-.7h.21v-1.8h-12.66v1.8h.2c3.3.09 3.75.34 3.75 2.15V885.41c-.04.75-.09 1.05-.29 1.3-.35.45-1.3.65-3.46.7h-.2v1.8h12.66v-1.8h-.21c-3.09-.05-3.7-.36-3.79-1.7l11-12.71m12.79-5.29h.21c3.4.09 3.79.34 3.75 2.4V872c-.16 5.3-.96 10.11-2.1 12.66-.81 2.05-1.95 2.75-4.45 2.75h-.2v9.14h1.84c.36-5.44 2.45-7.44 7.61-7.34h7.34c5.11-.1 7.21 1.9 7.61 7.34h1.85v-9.14h-.21c-3.29-.11-3.75-.36-3.75-2.16v-15.54c.05-.75.11-1.05.3-1.3.36-.45 1.31-.66 3.45-.7h.21v-1.8h-23.46v1.8m2.75 19.34c2-1.84 3.3-7.55 3.5-14.94v-.95c.11-2.8.3-3 3.91-3.11h.95c3.19.11 3.64.36 3.69 1.95v15.25c-.05.75-.19 1.11-.59 1.36-.41.3-1.3.39-3.1.44h-8.36M2097.378 887.41h-.34c-3.36-.11-3.81-.36-3.81-2.16v-16c0-.95.61-1.45 1.65-1.45 1.21 0 2.41.56 3.41 1.61 1.34 1.39 1.94 3.05 2.19 6.14h2l-.5-9.64h-22.19l-.5 9.64h2c.19-2.89.64-4.39 1.84-5.8 1-1.2 2.46-1.95 3.75-1.95 1.05 0 1.66.5 1.66 1.45v16.16c-.06.75-.11 1.05-.31 1.3-.35.45-1.3.65-3.44.7h-.36v1.8h12.95v-1.8m27.25-14.41v12.41c-.04.75-.09 1.05-.29 1.3-.36.45-1.36.65-3.5.7h-.21v1.8h12.66v-1.8h-.2c-3.3-.11-3.75-.36-3.75-2.16v-15.54c.04-.75.09-1.05.29-1.3.36-.45 1.3-.66 3.46-.7h.2v-1.8h-12.66v1.8h.21c3.34.09 3.79.34 3.79 2.15l-11 12.75v-12.9c.05-.75.1-1.05.3-1.3.36-.45 1.36-.66 3.5-.7h.2v-1.8h-12.65v1.8h.2c3.3.09 3.75.34 3.75 2.15V885.41c-.05.75-.09 1.05-.3 1.3-.34.45-1.29.65-3.45.7h-.2v1.8h12.65v-1.8h-.2c-3.09-.05-3.7-.36-3.8-1.7l11-12.71m16.85 10.66c-1.75 0-3.14 1.39-3.14 3.09 0 1.75 1.39 3.16 3.09 3.16 1.75 0 3.16-1.41 3.16-3.16 0-1.7-1.41-3.09-3.11-3.09"/><path class="LyricsLineSegment" fill="none" stroke="#000" stroke-width="3.72" stroke-linejoin="bevel" d="M942.473 272.958h19.85M1060.05 272.958h19.85M1458.797 272.958h19.84M1604.827 272.958h19.84M1998.25 272.958h19.84M1740.687 272.958h19.84M1213.87 272.958h19.84M940.145 876.62h19.84M1985.778 876.62h19.84M634.787 876.62h19.842M1527.388 876.62h19.84M1391.992 876.62h19.84M1665.818 876.62h19.84M1084.778 876.62h19.84"/><path class="Bracket" fill="none" stroke="#000" stroke-width="10.91035328" stroke-linejoin="bevel" d="M81.216 28.648v476.54"/><path class="Bracket" d="M123.784 6.62c-.201-.094-.496-.203-.698-.203-.403 0-.852.156-1.085.497-.201.294-10.122 15.58-29.081 15.58H77.154c-.806 0-1.395.495-1.395 1.286v10.324h12.107c30.554 0 36.414-25.485 36.507-25.795.031-.093.109-.295.109-.496 0-.496-.31-.9-.698-1.194M123.784 523.441c.388-.294.698-.697.698-1.193 0-.202-.078-.403-.109-.496-.093-.31-5.953-25.796-36.507-25.796H75.759v10.325c0 .79.59 1.286 1.395 1.286H92.92c18.959 0 28.88 15.285 29.081 15.58.233.34.682.496 1.085.496.202 0 .497-.109.698-.202" style="stroke-width:.992126"/><path class="Bracket" fill="none" stroke="#000" stroke-width="10.90971861" stroke-linejoin="bevel" d="M5.457 624.884V1107.1"/><path class="Bracket" d="M48.025 602.859c-.201-.093-.496-.202-.698-.202-.403 0-.852.155-1.085.496-.201.295-10.122 15.58-29.081 15.58H1.395c-.806 0-1.395.496-1.395 1.287v10.324h12.107c30.554 0 36.414-25.485 36.507-25.795.031-.093.109-.295.109-.496 0-.496-.31-.9-.698-1.194M48.025 1123.671c.388-.294.698-.697.698-1.194 0-.201-.078-.403-.109-.496-.093-.31-5.953-25.795-36.507-25.795H0v10.325c0 .79.589 1.286 1.395 1.286h15.766c18.959 0 28.88 15.285 29.081 15.58.233.34.682.496 1.085.496.202 0 .497-.109.698-.202" style="stroke-width:.992126"/></svg>