<svg width="1813.717" height="1817.354" version="1.2" xmlns="http://www.w3.org/2000/svg"><path class="StaffLines" fill="none" stroke="#000" stroke-width="2.73" stroke-linejoin="bevel" d="M142.866 55.985h1670.851M142.866 80.788h1670.851M142.866 105.591h1670.851M142.866 130.394h1670.851M142.866 155.197h1670.851M142.866 473.256h1670.851M142.866 498.059h1670.851M142.866 522.862h1670.851M142.866 547.666h1670.851M142.866 572.469h1670.851M18.85 708.886h1794.867M18.85 733.694h1794.867M18.85 758.494h1794.867M18.85 783.294h1794.867M18.85 808.094h1794.867M18.85 1058.494h1794.867M18.85 1083.294h1794.867M18.85 1108.104h1794.867M18.85 1132.904h1794.867M18.85 1157.704h1794.867"/><path class="StaffLines" fill="none" stroke="#000" stroke-width="2.856" stroke-linejoin="bevel" transform="matrix(.91356 0 0 1 -129.305 -288.036)" d="M162.173 1582.16H1957.04M162.173 1606.96H1957.04M162.173 1631.77H1957.04M162.173 1656.57H1957.04M162.173 1681.37H1957.04M162.173 1944.17H1957.04M162.173 1968.97H1957.04M162.173 1993.78H1957.04M162.173 2018.58H1957.04M162.173 2043.38H1957.04"/><path class="MeasureNumber" d="M33.444 644.717c1.891-.593 2.641-.922 3.609-1.562 1.875-1.235 3.032-3.438 3.032-5.672 0-3.797-3.032-6.359-7.516-6.359-4.359 0-8.047 2.718-8.047 6 0 1.64 1 2.765 2.531 2.765 1.313 0 2.282-.969 2.282-2.281 0-.688-.203-1.172-.844-1.797-.406-.375-.563-.641-.563-.922 0-.969 2-1.969 3.875-1.969 2.688 0 4.282 1.485 4.282 3.969 0 3.547-2.516 6.906-5.203 6.906-.11 0-.469-.031-.907-.078-1.172-.078-1.172-.078-1.406-.078-.875 0-1.359.406-1.359 1.125 0 .641.437 1.031 1.156 1.031.203 0 .484-.031.797-.078a8.905 8.905 0 0 1 1.531-.156c1.875 0 3.156 1.688 3.156 4.156 0 1.922-.437 3.766-1.328 5.282-1.187 2.156-3.031 3.203-5.64 3.203-2.235 0-4.157-1.125-4.157-2.407 0-.437.172-.593.797-.875 1.172-.515 1.641-1.234 1.641-2.312 0-1.406-1.11-2.484-2.547-2.484-1.719 0-2.844 1.359-2.844 3.437 0 3.875 2.953 6.313 7.75 6.313 6.047 0 10.641-4.032 10.641-9.391 0-1.438-.438-2.688-1.281-3.688-.875-1.031-1.672-1.515-3.438-2.078M24.163 1231.124c.687-3.53 1.484-5.72 3-8.4 1.812-3.16 3.969-4.77 6.359-4.77 1.25 0 2 .49 2 1.25 0 .28-.078.44-.359.95-.36.69-.516 1.16-.516 1.77 0 1.28.953 2.16 2.313 2.16 1.64 0 2.765-1.21 2.765-3 0-2.72-2.562-4.72-6.125-4.72-3.75 0-7.109 2-9.828 5.84-2.797 3.95-4.484 9.03-4.484 13.47 0 5.89 2.922 9.44 7.797 9.44 3 0 5.687-1.19 7.609-3.31 1.75-2 2.828-4.88 2.828-7.52 0-4.08-2.75-6.92-6.75-6.92-2.797 0-4.969 1.2-6.609 3.76m5.328-1.45c2.484 0 3.844 1.72 3.844 4.84 0 5.08-2.688 8.96-6.25 8.96-2.563 0-4.078-1.88-4.078-5.08 0-5 2.765-8.72 6.484-8.72"/><path class="SlurSegment" stroke="#000" stroke-width="1.74" stroke-linecap="round" stroke-linejoin="round" fill-rule="evenodd" d="M1302.547 573.709c56.92 24.751 151.19-.052 188.56-49.606-35.6 56.27-129.88 81.073-188.56 49.606M858.045 1119.264c30.902 33.53 98.312 39.73 134.812 12.4-37.13 34.25-104.54 28.05-134.812-12.4M1324.737 380.691c49.85-49.382 154.18-54.56 208.67-10.356-54.14-37.268-158.48-32.09-208.67 10.356M890.277 1067.174c30.27-40.45 97.68-46.65 134.82-12.4-36.5-27.33-103.91-21.13-134.82 12.4M1295.237 260.005c68.34 5.759 144.292 1.15 197.37-49.341-41.383 60.4-125.36 60.996-197.37 49.341M964.417 1379.694c55.35 49.19 227.46 56.63 286.85 12.4-59.69 51.17-231.8 43.73-286.85-12.4M1334.787 77.067c50.07-41.49 144.35-35.289 188.55 12.402-44.66-40.761-138.93-46.962-188.55-12.402M890.277 722.524c37.14-34.242 104.55-28.041 134.82 12.41-30.9-33.536-98.31-39.737-134.82-12.41M996.647 1320.164c59.7-51.17 231.81-43.73 286.86 12.41-55.35-49.2-227.46-56.64-286.86-12.41"/><path class="BarLine" stroke="#000" stroke-width="4.46" stroke-linejoin="bevel" d="M145.098 471.892v101.941M622.623 471.892v101.941M1200.407 471.892v101.941M1811.487 471.892v101.941M21.083 1057.134v101.94M742.905 1057.134v101.94M1289.377 1057.134v101.94M1811.487 1057.134v101.94M21.083 1654.774v101.94M864.577 1654.774v101.94M1404.317 1654.774v101.94M1635.537 1654.774v101.94"/><path class="BarLine" stroke="#000" stroke-width="13.64" stroke-linejoin="bevel" d="M1652.897 1654.774v101.94"/><path class="BarLine" stroke="#000" stroke-width="4.46" stroke-linejoin="bevel" d="M145.098 54.62v418.636M622.623 54.62v101.941M1200.407 54.62v101.941M1811.487 54.62v101.941M21.083 707.522v350.972M742.905 707.522v101.942M1289.377 707.522v101.942M1811.487 707.522v101.942M21.083 1292.764v363.37M864.577 1292.764v101.94M1404.317 1292.764v101.94M1635.537 1292.764v101.94"/><path class="BarLine" stroke="#000" stroke-width="13.64" stroke-linejoin="bevel" d="M1652.897 1292.764v101.94"/><path class="Accidental" d="M1517.01 785.184c.605-.109 1.101-.807 1.101-1.396v-5.86c0-.79-.605-1.379-1.395-1.379h-.202l-3.27.698v-14.79h-2.775v15.379l-8.836 1.782v-13.982h-2.775v14.587l-3.876.79c-.589.094-1.085.791-1.085 1.38v5.953-.186c0 .79.59 1.38 1.395 1.38h.295l3.27-.698v16.37l-3.875.806c-.589.093-1.085.79-1.085 1.38v5.751c0 .806.59 1.395 1.395 1.395h.295l3.27-.697v14.789h2.776v-15.378l8.836-1.783v13.983h2.774V810.87l3.767-.697c.605-.093 1.101-.79 1.101-1.38v-5.86c0-.79-.605-1.38-1.395-1.38h-.202l-3.27.683v-16.37l3.767-.682m-15.378 19.532v-16.463l8.836-1.783v16.37l-8.836 1.876" style="stroke-width:.992126"/><path class="LedgerLine" stroke="#000" stroke-width="3.97" stroke-linejoin="bevel" d="M1388.147 448.453h49.6M1491.107 448.453h49.6M1515.627 1033.694h49.6M286.103 1631.334h49.599M493.29 1631.334h49.599M700.477 1631.334h49.598M947.057 1631.334h49.59M1251.267 1631.334h49.6"/><path class="Stem" stroke="#000" stroke-width="2.73" stroke-linejoin="bevel" d="M505.049 501.393v83.477M687.446 550.999v83.478M850.553 550.999v83.478M995.657 563.401v83.477M1275.237 550.999v83.478M1501.147 501.393v83.477M1665.887 501.393v83.477M242.148 1099.034v83.48M384.974 1099.034v77.28M474.24 1111.434v71.08M563.506 1123.834v64.88M652.771 1099.034v77.28M850.728 1099.034v83.48M1002.907 1111.434v83.48M1155.087 1086.634v83.47M1373.197 1049.424v170.29M1525.677 1061.824v170.29M1678.147 1074.234v170.28M296.148 1696.674v83.48M449.335 1721.474v83.48M710.522 1696.674v83.48M957.097 1671.874v83.47M1484.647 1733.874v83.48M534.557 494.885v-58.834M716.954 494.885v-58.834M880.057 494.885v-58.834M1043.167 494.885v-58.834M1324.737 494.885v-89.837M1427.697 432.877v-58.833M1530.657 445.278v-58.833M1695.387 494.885v-58.834M271.656 1055.324v-58.84M414.482 1055.324v-71.24M503.748 1042.914v-65.03M593.014 1055.324v-58.84M880.237 1055.324v-58.84M1032.417 1042.914v-58.83M1184.597 1080.124v-58.83M1402.707 1042.914v-58.83M1555.177 1030.514v-58.83M1707.657 1042.914v-58.83M325.656 1628.154v-58.83M532.843 1628.154v-58.83M740.03 1628.154v-58.83M986.607 1615.754v-58.83M1290.827 1628.154v-58.83M1514.157 1640.554v-58.83M505.049 146.129v58.675M687.446 170.932v58.675M850.553 170.932v58.675M1013.657 170.932v58.675M1295.237 170.932v64.875M1398.187 146.129v64.875M1501.147 146.129v58.675M1665.887 146.129v58.675M242.148 799.034v58.67M384.974 799.034v58.67M563.506 799.034v58.67M850.728 799.034v58.67M1155.087 799.034v58.67M1373.197 799.034v58.67M1525.677 799.034v58.67M1678.147 786.634v58.67M296.148 1371.864v58.68M503.335 1371.864v58.68M710.522 1371.864v58.68M957.097 1384.264v58.68M1261.317 1396.674v58.67M1484.647 1409.074v58.67M534.557 139.621V55.985M716.954 102.416V18.78M880.057 102.416V18.78M1043.167 77.613V6.378M1145.107 90.015V12.579M1324.737 102.416V18.78M1530.657 114.818V31.181M1695.387 139.621V55.985M271.656 742.914V659.28M414.482 742.914v-77.433M503.748 730.514V659.28M593.014 718.114v-65.035M682.279 742.914v-65.032M880.237 742.914V659.28M1032.417 755.314v-83.633M1184.597 792.524v-83.638M1402.707 730.514v-83.636M1555.177 730.514v-83.636M1707.657 730.514v-83.636M325.656 1328.154v-83.64M532.843 1303.354v-83.64M740.03 1328.154v-83.64M986.607 1340.554v-83.63M1290.827 1352.954v-83.63M1514.157 1340.554v-83.63"/><path class="Note" d="M534.937 490.029c-1.783-3.286-5.55-5.07-10.123-5.07-3.364 0-7.038.993-10.619 2.884-6.542 3.473-10.51 9.317-10.51 14.386 0 1.38.295 2.775.992 4.062 1.783 3.27 5.55 4.96 10.123 4.96 3.364 0 7.038-.883 10.619-2.775 6.542-3.472 10.51-9.332 10.51-14.386 0-1.395-.294-2.774-.992-4.061M717.334 539.636c-1.783-3.286-5.55-5.07-10.123-5.07-3.364 0-7.038.993-10.619 2.884-6.541 3.473-10.51 9.317-10.51 14.386 0 1.38.295 2.775.992 4.062 1.783 3.27 5.55 4.96 10.123 4.96 3.364 0 7.038-.883 10.619-2.775 6.542-3.472 10.51-9.332 10.51-14.386 0-1.395-.294-2.774-.992-4.061M880.441 539.636c-1.783-3.286-5.55-5.07-10.123-5.07-3.364 0-7.038.993-10.619 2.884-6.541 3.473-10.51 9.317-10.51 14.386 0 1.38.295 2.775.992 4.062 1.783 3.27 5.55 4.96 10.123 4.96 3.364 0 7.038-.883 10.619-2.775 6.542-3.472 10.51-9.332 10.51-14.386 0-1.395-.294-2.774-.992-4.061M1043.549 552.037c-1.783-3.287-5.55-5.07-10.123-5.07-3.364 0-7.038.993-10.619 2.884-6.542 3.473-10.51 9.317-10.51 14.386 0 1.38.294 2.775.992 4.062 1.783 3.27 5.55 4.96 10.123 4.96 3.364 0 7.038-.883 10.619-2.775 6.542-3.472 10.51-9.332 10.51-14.386 0-1.395-.295-2.774-.992-4.061M1325.119 539.636c-1.783-3.286-5.55-5.07-10.123-5.07-3.364 0-7.038.993-10.619 2.884-6.542 3.473-10.51 9.317-10.51 14.386 0 1.38.294 2.775.992 4.062 1.783 3.27 5.55 4.96 10.123 4.96 3.364 0 7.038-.883 10.619-2.775 6.542-3.472 10.51-9.332 10.51-14.386 0-1.395-.295-2.774-.992-4.061M1531.039 490.029c-1.783-3.286-5.55-5.07-10.123-5.07-3.364 0-7.038.993-10.619 2.884-6.542 3.473-10.51 9.317-10.51 14.386 0 1.38.294 2.775.992 4.062 1.783 3.27 5.55 4.96 10.123 4.96 3.364 0 7.038-.883 10.619-2.775 6.542-3.472 10.51-9.332 10.51-14.386 0-1.395-.295-2.774-.992-4.061M1695.769 490.029c-1.783-3.286-5.55-5.07-10.123-5.07-3.364 0-7.038.993-10.619 2.884-6.542 3.473-10.51 9.317-10.51 14.386 0 1.38.294 2.775.992 4.062 1.783 3.27 5.55 4.96 10.123 4.96 3.364 0 7.038-.883 10.619-2.775 6.542-3.472 10.51-9.332 10.51-14.386 0-1.395-.295-2.774-.992-4.061M272.036 1087.674c-1.783-3.287-5.55-5.07-10.123-5.07-3.364 0-7.038.993-10.619 2.884-6.541 3.473-10.51 9.317-10.51 14.386 0 1.38.295 2.775.992 4.062 1.783 3.27 5.55 4.96 10.123 4.96 3.364 0 7.038-.883 10.619-2.775 6.542-3.472 10.51-9.332 10.51-14.385 0-1.396-.294-2.775-.992-4.062M414.862 1087.674c-1.783-3.287-5.55-5.07-10.123-5.07-3.364 0-7.038.993-10.619 2.884-6.542 3.473-10.51 9.317-10.51 14.386 0 1.38.295 2.775.992 4.062 1.783 3.27 5.55 4.96 10.123 4.96 3.364 0 7.038-.883 10.619-2.775 6.542-3.472 10.51-9.332 10.51-14.385 0-1.396-.294-2.775-.992-4.062M504.128 1100.074c-1.783-3.287-5.55-5.07-10.123-5.07-3.364 0-7.038.993-10.619 2.884-6.541 3.473-10.51 9.317-10.51 14.386 0 1.38.295 2.775.992 4.062 1.783 3.27 5.55 4.96 10.123 4.96 3.364 0 7.038-.883 10.619-2.775 6.542-3.472 10.51-9.332 10.51-14.385 0-1.396-.294-2.775-.992-4.062M593.393 1112.474c-1.783-3.287-5.55-5.07-10.123-5.07-3.364 0-7.038.993-10.619 2.884-6.541 3.473-10.51 9.317-10.51 14.386 0 1.38.295 2.775.992 4.062 1.783 3.27 5.55 4.96 10.123 4.96 3.364 0 7.038-.883 10.619-2.775 6.542-3.472 10.51-9.332 10.51-14.385 0-1.396-.294-2.775-.992-4.062M682.659 1087.674c-1.783-3.287-5.55-5.07-10.123-5.07-3.364 0-7.038.993-10.619 2.884-6.542 3.473-10.51 9.317-10.51 14.386 0 1.38.295 2.775.992 4.062 1.783 3.27 5.55 4.96 10.123 4.96 3.364 0 7.038-.883 10.619-2.775 6.542-3.472 10.51-9.332 10.51-14.385 0-1.396-.294-2.775-.992-4.062M880.616 1087.674c-1.783-3.287-5.55-5.07-10.123-5.07-3.364 0-7.038.993-10.619 2.884-6.541 3.473-10.51 9.317-10.51 14.386 0 1.38.295 2.775.992 4.062 1.783 3.27 5.55 4.96 10.123 4.96 3.364 0 7.038-.883 10.619-2.775 6.542-3.472 10.51-9.332 10.51-14.385 0-1.396-.294-2.775-.992-4.062M1032.799 1100.074c-1.783-3.287-5.55-5.07-10.123-5.07-3.364 0-7.038.993-10.619 2.884-6.541 3.473-10.51 9.317-10.51 14.386 0 1.38.294 2.775.992 4.062 1.783 3.27 5.55 4.96 10.123 4.96 3.364 0 7.038-.883 10.619-2.775 6.542-3.472 10.51-9.332 10.51-14.385 0-1.396-.294-2.775-.992-4.062M1184.979 1075.264c-1.783-3.287-5.55-5.07-10.123-5.07-3.364 0-7.038.993-10.619 2.884-6.542 3.473-10.51 9.317-10.51 14.386 0 1.38.294 2.775.992 4.062 1.783 3.27 5.55 4.96 10.123 4.96 3.364 0 7.038-.883 10.619-2.775 6.542-3.472 10.51-9.332 10.51-14.385 0-1.396-.295-2.775-.992-4.062M1403.089 1124.874c-1.783-3.287-5.55-5.07-10.123-5.07-3.364 0-7.038.993-10.619 2.884-6.542 3.473-10.51 9.317-10.51 14.386 0 1.38.294 2.775.992 4.062 1.783 3.27 5.55 4.96 10.123 4.96 3.364 0 7.038-.883 10.619-2.775 6.542-3.472 10.51-9.332 10.51-14.385 0-1.396-.295-2.775-.992-4.062M1403.089 1038.064c-1.783-3.287-5.55-5.07-10.123-5.07-3.364 0-7.038.993-10.619 2.884-6.542 3.473-10.51 9.317-10.51 14.386 0 1.38.294 2.775.992 4.062 1.783 3.27 5.55 4.96 10.123 4.96 3.364 0 7.038-.883 10.619-2.775 6.542-3.472 10.51-9.332 10.51-14.385 0-1.396-.295-2.775-.992-4.062M1555.559 1137.274c-1.783-3.287-5.55-5.07-10.123-5.07-3.364 0-7.038.993-10.619 2.884-6.542 3.473-10.51 9.317-10.51 14.386 0 1.38.294 2.775.992 4.062 1.783 3.27 5.55 4.96 10.123 4.96 3.364 0 7.038-.883 10.619-2.775 6.542-3.472 10.51-9.332 10.51-14.385 0-1.396-.295-2.775-.992-4.062M1555.559 1050.464c-1.783-3.287-5.55-5.07-10.123-5.07-3.364 0-7.038.993-10.619 2.884-6.542 3.473-10.51 9.317-10.51 14.386 0 1.38.294 2.775.992 4.062 1.783 3.27 5.55 4.96 10.123 4.96 3.364 0 7.038-.883 10.619-2.775 6.542-3.472 10.51-9.332 10.51-14.385 0-1.396-.295-2.775-.992-4.062M1708.029 1149.674c-1.783-3.287-5.55-5.07-10.123-5.07-3.364 0-7.038.993-10.619 2.884-6.542 3.473-10.51 9.317-10.51 14.386 0 1.38.294 2.775.992 4.062 1.783 3.27 5.55 4.96 10.123 4.96 3.364 0 7.038-.883 10.619-2.775 6.542-3.472 10.51-9.332 10.51-14.385 0-1.396-.295-2.775-.992-4.062M1708.029 1062.864c-1.783-3.287-5.55-5.07-10.123-5.07-3.364 0-7.038.993-10.619 2.884-6.542 3.473-10.51 9.317-10.51 14.386 0 1.38.294 2.775.992 4.062 1.783 3.27 5.55 4.96 10.123 4.96 3.364 0 7.038-.883 10.619-2.775 6.542-3.472 10.51-9.332 10.51-14.385 0-1.396-.295-2.775-.992-4.062M326.036 1685.304c-1.783-3.287-5.55-5.07-10.123-5.07-3.364 0-7.038.993-10.619 2.884-6.541 3.473-10.51 9.317-10.51 14.386 0 1.38.295 2.775.992 4.062 1.783 3.27 5.55 4.96 10.123 4.96 3.364 0 7.038-.883 10.619-2.775 6.542-3.472 10.51-9.332 10.51-14.385 0-1.396-.294-2.775-.992-4.062M533.223 1710.114c-1.783-3.287-5.55-5.07-10.123-5.07-3.364 0-7.038.993-10.619 2.884-6.541 3.473-10.51 9.317-10.51 14.386 0 1.38.295 2.775.992 4.062 1.783 3.27 5.55 4.96 10.123 4.96 3.364 0 7.038-.883 10.619-2.775 6.542-3.472 10.51-9.332 10.51-14.385 0-1.396-.294-2.775-.992-4.062M740.41 1685.304c-1.783-3.287-5.55-5.07-10.123-5.07-3.364 0-7.038.993-10.619 2.884-6.541 3.473-10.51 9.317-10.51 14.386 0 1.38.295 2.775.992 4.062 1.783 3.27 5.55 4.96 10.123 4.96 3.364 0 7.038-.883 10.619-2.775 6.542-3.472 10.51-9.332 10.51-14.385 0-1.396-.294-2.775-.992-4.062M986.989 1660.457c-1.783-3.27-5.55-5.053-10.123-5.053-3.364 0-7.038.992-10.619 2.868-6.541 3.472-10.51 9.332-10.51 14.386 0 1.395.295 2.79.992 4.077 1.783 3.286 5.55 4.976 10.123 4.976 3.364 0 7.038-.9 10.619-2.775 6.542-3.488 10.51-9.348 10.51-14.417 0-1.38-.294-2.775-.992-4.061m-4.263 6.743c-1.69 1.69-5.07 3.767-8.635 5.767-3.565 1.984-7.146 3.472-9.518 3.968-.496.109-.992.202-1.488.202-1.597 0-2.79-.59-3.472-1.892a3.213 3.213 0 0 1-.497-1.69c0-1.084.683-2.387 1.783-3.472 1.69-1.69 4.96-3.767 8.526-5.751 3.581-1.984 7.147-3.473 9.534-3.969.496-.108.992-.201 1.488-.201 1.581 0 2.868.589 3.566 1.876.294.496.403 1.1.403 1.69 0 1.1-.605 2.278-1.69 3.472M1514.529 1722.467c-1.783-3.27-5.55-5.053-10.123-5.053-3.364 0-7.038.992-10.619 2.868-6.542 3.472-10.51 9.332-10.51 14.386 0 1.395.294 2.79.992 4.077 1.783 3.286 5.55 4.976 10.123 4.976 3.364 0 7.038-.9 10.619-2.775 6.542-3.488 10.51-9.348 10.51-14.417 0-1.38-.295-2.775-.992-4.061m-4.263 6.743c-1.69 1.69-5.07 3.767-8.635 5.767-3.565 1.984-7.146 3.472-9.518 3.968-.496.109-.992.202-1.488.202-1.597 0-2.79-.59-3.472-1.892a3.213 3.213 0 0 1-.497-1.69c0-1.084.682-2.387 1.783-3.472 1.69-1.69 4.96-3.767 8.526-5.751 3.581-1.984 7.147-3.473 9.534-3.969.496-.108.992-.201 1.488-.201 1.581 0 2.868.589 3.566 1.876.294.496.403 1.1.403 1.69 0 1.1-.605 2.278-1.69 3.472" style="stroke-width:.992126"/><path class="Note" d="M534.937 490.029c-1.783-3.286-5.55-5.07-10.123-5.07-3.364 0-7.038.993-10.619 2.884-6.542 3.473-10.51 9.317-10.51 14.386 0 1.38.295 2.775.992 4.062 1.783 3.27 5.55 4.96 10.123 4.96 3.364 0 7.038-.883 10.619-2.775 6.542-3.472 10.51-9.332 10.51-14.386 0-1.395-.294-2.774-.992-4.061M717.334 490.029c-1.783-3.286-5.55-5.07-10.123-5.07-3.364 0-7.038.993-10.619 2.884-6.541 3.473-10.51 9.317-10.51 14.386 0 1.38.295 2.775.992 4.062 1.783 3.27 5.55 4.96 10.123 4.96 3.364 0 7.038-.883 10.619-2.775 6.542-3.472 10.51-9.332 10.51-14.386 0-1.395-.294-2.774-.992-4.061M880.441 490.029c-1.783-3.286-5.55-5.07-10.123-5.07-3.364 0-7.038.993-10.619 2.884-6.541 3.473-10.51 9.317-10.51 14.386 0 1.38.295 2.775.992 4.062 1.783 3.27 5.55 4.96 10.123 4.96 3.364 0 7.038-.883 10.619-2.775 6.542-3.472 10.51-9.332 10.51-14.386 0-1.395-.294-2.774-.992-4.061M1043.549 490.029c-1.783-3.286-5.55-5.07-10.123-5.07-3.364 0-7.038.993-10.619 2.884-6.542 3.473-10.51 9.317-10.51 14.386 0 1.38.294 2.775.992 4.062 1.783 3.27 5.55 4.96 10.123 4.96 3.364 0 7.038-.883 10.619-2.775 6.542-3.472 10.51-9.332 10.51-14.386 0-1.395-.295-2.774-.992-4.061M1325.119 490.029c-1.783-3.286-5.55-5.07-10.123-5.07-3.364 0-7.038.993-10.619 2.884-6.542 3.473-10.51 9.317-10.51 14.386 0 1.38.294 2.775.992 4.062 1.783 3.27 5.55 4.96 10.123 4.96 3.364 0 7.038-.883 10.619-2.775 6.542-3.472 10.51-9.332 10.51-14.386 0-1.395-.295-2.774-.992-4.061M1428.079 428.021c-1.783-3.287-5.55-5.07-10.123-5.07-3.364 0-7.038.993-10.619 2.884-6.542 3.473-10.51 9.317-10.51 14.386 0 1.38.294 2.775.992 4.062 1.783 3.27 5.55 4.96 10.123 4.96 3.364 0 7.038-.883 10.619-2.775 6.542-3.472 10.51-9.332 10.51-14.386 0-1.395-.295-2.774-.992-4.061M1531.039 440.423c-1.783-3.286-5.55-5.07-10.123-5.07-3.364 0-7.038.993-10.619 2.884-6.542 3.473-10.51 9.317-10.51 14.386 0 1.38.294 2.775.992 4.062 1.783 3.27 5.55 4.96 10.123 4.96 3.364 0 7.038-.883 10.619-2.775 6.542-3.472 10.51-9.332 10.51-14.386 0-1.395-.295-2.774-.992-4.061M1695.769 490.029c-1.783-3.286-5.55-5.07-10.123-5.07-3.364 0-7.038.993-10.619 2.884-6.542 3.473-10.51 9.317-10.51 14.386 0 1.38.294 2.775.992 4.062 1.783 3.27 5.55 4.96 10.123 4.96 3.364 0 7.038-.883 10.619-2.775 6.542-3.472 10.51-9.332 10.51-14.386 0-1.395-.295-2.774-.992-4.061M272.036 1050.464c-1.783-3.287-5.55-5.07-10.123-5.07-3.364 0-7.038.993-10.619 2.884-6.541 3.473-10.51 9.317-10.51 14.386 0 1.38.295 2.775.992 4.062 1.783 3.27 5.55 4.96 10.123 4.96 3.364 0 7.038-.883 10.619-2.775 6.542-3.472 10.51-9.332 10.51-14.385 0-1.396-.294-2.775-.992-4.062M414.862 1050.464c-1.783-3.287-5.55-5.07-10.123-5.07-3.364 0-7.038.993-10.619 2.884-6.542 3.473-10.51 9.317-10.51 14.386 0 1.38.295 2.775.992 4.062 1.783 3.27 5.55 4.96 10.123 4.96 3.364 0 7.038-.883 10.619-2.775 6.542-3.472 10.51-9.332 10.51-14.385 0-1.396-.294-2.775-.992-4.062M504.128 1038.064c-1.783-3.287-5.55-5.07-10.123-5.07-3.364 0-7.038.993-10.619 2.884-6.541 3.473-10.51 9.317-10.51 14.386 0 1.38.295 2.775.992 4.062 1.783 3.27 5.55 4.96 10.123 4.96 3.364 0 7.038-.883 10.619-2.775 6.542-3.472 10.51-9.332 10.51-14.385 0-1.396-.294-2.775-.992-4.062M593.393 1050.464c-1.783-3.287-5.55-5.07-10.123-5.07-3.364 0-7.038.993-10.619 2.884-6.541 3.473-10.51 9.317-10.51 14.386 0 1.38.295 2.775.992 4.062 1.783 3.27 5.55 4.96 10.123 4.96 3.364 0 7.038-.883 10.619-2.775 6.542-3.472 10.51-9.332 10.51-14.385 0-1.396-.294-2.775-.992-4.062M880.616 1050.464c-1.783-3.287-5.55-5.07-10.123-5.07-3.364 0-7.038.993-10.619 2.884-6.541 3.473-10.51 9.317-10.51 14.386 0 1.38.295 2.775.992 4.062 1.783 3.27 5.55 4.96 10.123 4.96 3.364 0 7.038-.883 10.619-2.775 6.542-3.472 10.51-9.332 10.51-14.385 0-1.396-.294-2.775-.992-4.062M1032.799 1038.064c-1.783-3.287-5.55-5.07-10.123-5.07-3.364 0-7.038.993-10.619 2.884-6.541 3.473-10.51 9.317-10.51 14.386 0 1.38.294 2.775.992 4.062 1.783 3.27 5.55 4.96 10.123 4.96 3.364 0 7.038-.883 10.619-2.775 6.542-3.472 10.51-9.332 10.51-14.385 0-1.396-.294-2.775-.992-4.062M1184.979 1075.264c-1.783-3.287-5.55-5.07-10.123-5.07-3.364 0-7.038.993-10.619 2.884-6.542 3.473-10.51 9.317-10.51 14.386 0 1.38.294 2.775.992 4.062 1.783 3.27 5.55 4.96 10.123 4.96 3.364 0 7.038-.883 10.619-2.775 6.542-3.472 10.51-9.332 10.51-14.385 0-1.396-.295-2.775-.992-4.062M1403.089 1038.064c-1.783-3.287-5.55-5.07-10.123-5.07-3.364 0-7.038.993-10.619 2.884-6.542 3.473-10.51 9.317-10.51 14.386 0 1.38.294 2.775.992 4.062 1.783 3.27 5.55 4.96 10.123 4.96 3.364 0 7.038-.883 10.619-2.775 6.542-3.472 10.51-9.332 10.51-14.385 0-1.396-.295-2.775-.992-4.062M1555.559 1025.664c-1.783-3.287-5.55-5.07-10.123-5.07-3.364 0-7.038.993-10.619 2.884-6.542 3.473-10.51 9.317-10.51 14.386 0 1.38.294 2.775.992 4.062 1.783 3.27 5.55 4.96 10.123 4.96 3.364 0 7.038-.883 10.619-2.775 6.542-3.472 10.51-9.332 10.51-14.386 0-1.395-.295-2.774-.992-4.061M1708.029 1038.064c-1.783-3.287-5.55-5.07-10.123-5.07-3.364 0-7.038.993-10.619 2.884-6.542 3.473-10.51 9.317-10.51 14.386 0 1.38.294 2.775.992 4.062 1.783 3.27 5.55 4.96 10.123 4.96 3.364 0 7.038-.883 10.619-2.775 6.542-3.472 10.51-9.332 10.51-14.385 0-1.396-.295-2.775-.992-4.062M326.036 1623.304c-1.783-3.287-5.55-5.07-10.123-5.07-3.364 0-7.038.993-10.619 2.884-6.541 3.473-10.51 9.317-10.51 14.386 0 1.38.295 2.775.992 4.062 1.783 3.27 5.55 4.96 10.123 4.96 3.364 0 7.038-.883 10.619-2.775 6.542-3.472 10.51-9.332 10.51-14.385 0-1.396-.294-2.775-.992-4.062M533.223 1623.304c-1.783-3.287-5.55-5.07-10.123-5.07-3.364 0-7.038.993-10.619 2.884-6.541 3.473-10.51 9.317-10.51 14.386 0 1.38.295 2.775.992 4.062 1.783 3.27 5.55 4.96 10.123 4.96 3.364 0 7.038-.883 10.619-2.775 6.542-3.472 10.51-9.332 10.51-14.385 0-1.396-.294-2.775-.992-4.062M740.41 1623.304c-1.783-3.287-5.55-5.07-10.123-5.07-3.364 0-7.038.993-10.619 2.884-6.541 3.473-10.51 9.317-10.51 14.386 0 1.38.295 2.775.992 4.062 1.783 3.27 5.55 4.96 10.123 4.96 3.364 0 7.038-.883 10.619-2.775 6.542-3.472 10.51-9.332 10.51-14.385 0-1.396-.294-2.775-.992-4.062M986.989 1610.858c-1.783-3.271-5.55-5.054-10.123-5.054-3.364 0-7.038.992-10.619 2.868-6.541 3.472-10.51 9.332-10.51 14.386 0 1.395.295 2.79.992 4.077 1.783 3.286 5.55 4.976 10.123 4.976 3.364 0 7.038-.9 10.619-2.775 6.542-3.488 10.51-9.348 10.51-14.417 0-1.38-.294-2.775-.992-4.061m-4.263 6.743c-1.69 1.69-5.07 3.767-8.635 5.767-3.565 1.984-7.146 3.472-9.518 3.968-.496.109-.992.202-1.488.202-1.597 0-2.79-.59-3.472-1.892a3.213 3.213 0 0 1-.497-1.69c0-1.084.683-2.387 1.783-3.472 1.69-1.69 4.96-3.767 8.526-5.751 3.581-1.984 7.147-3.472 9.534-3.968.496-.11.992-.202 1.488-.202 1.581 0 2.868.589 3.566 1.876.294.496.403 1.1.403 1.69 0 1.1-.605 2.278-1.69 3.472M1291.209 1623.304c-1.783-3.287-5.55-5.07-10.123-5.07-3.364 0-7.038.993-10.619 2.884-6.542 3.473-10.51 9.317-10.51 14.386 0 1.38.294 2.775.992 4.062 1.783 3.27 5.55 4.96 10.123 4.96 3.364 0 7.038-.883 10.619-2.775 6.542-3.472 10.51-9.332 10.51-14.385 0-1.396-.295-2.775-.992-4.062M1514.529 1635.658c-1.783-3.271-5.55-5.054-10.123-5.054-3.364 0-7.038.992-10.619 2.868-6.542 3.472-10.51 9.332-10.51 14.386 0 1.395.294 2.79.992 4.077 1.783 3.286 5.55 4.976 10.123 4.976 3.364 0 7.038-.9 10.619-2.775 6.542-3.488 10.51-9.348 10.51-14.417 0-1.38-.295-2.775-.992-4.061m-4.263 6.743c-1.69 1.69-5.07 3.767-8.635 5.767-3.565 1.984-7.146 3.472-9.518 3.968-.496.109-.992.202-1.488.202-1.597 0-2.79-.59-3.472-1.892a3.213 3.213 0 0 1-.497-1.69c0-1.084.682-2.387 1.783-3.472 1.69-1.69 4.96-3.767 8.526-5.751 3.581-1.984 7.147-3.472 9.534-3.968.496-.11.992-.202 1.488-.202 1.581 0 2.868.589 3.566 1.876.294.496.403 1.1.403 1.69 0 1.1-.605 2.278-1.69 3.472M534.937 134.766c-1.783-3.286-5.55-5.07-10.123-5.07-3.364 0-7.038.993-10.619 2.884-6.542 3.473-10.51 9.317-10.51 14.386 0 1.38.295 2.775.992 4.062 1.783 3.27 5.55 4.96 10.123 4.96 3.364 0 7.038-.883 10.619-2.775 6.542-3.472 10.51-9.332 10.51-14.386 0-1.395-.294-2.774-.992-4.061M717.334 159.569c-1.783-3.286-5.55-5.07-10.123-5.07-3.364 0-7.038.993-10.619 2.884-6.541 3.473-10.51 9.317-10.51 14.386 0 1.38.295 2.775.992 4.062 1.783 3.27 5.55 4.96 10.123 4.96 3.364 0 7.038-.883 10.619-2.775 6.542-3.472 10.51-9.332 10.51-14.386 0-1.395-.294-2.774-.992-4.061M880.441 159.569c-1.783-3.286-5.55-5.07-10.123-5.07-3.364 0-7.038.993-10.619 2.884-6.541 3.473-10.51 9.317-10.51 14.386 0 1.38.295 2.775.992 4.062 1.783 3.27 5.55 4.96 10.123 4.96 3.364 0 7.038-.883 10.619-2.775 6.542-3.472 10.51-9.332 10.51-14.386 0-1.395-.294-2.774-.992-4.061M1043.549 159.569c-1.783-3.286-5.55-5.07-10.123-5.07-3.364 0-7.038.993-10.619 2.884-6.542 3.473-10.51 9.317-10.51 14.386 0 1.38.294 2.775.992 4.062 1.783 3.27 5.55 4.96 10.123 4.96 3.364 0 7.038-.883 10.619-2.775 6.542-3.472 10.51-9.332 10.51-14.386 0-1.395-.295-2.774-.992-4.061M1325.119 159.569c-1.783-3.286-5.55-5.07-10.123-5.07-3.364 0-7.038.993-10.619 2.884-6.542 3.473-10.51 9.317-10.51 14.386 0 1.38.294 2.775.992 4.062 1.783 3.27 5.55 4.96 10.123 4.96 3.364 0 7.038-.883 10.619-2.775 6.542-3.472 10.51-9.332 10.51-14.386 0-1.395-.295-2.774-.992-4.061M1428.079 134.766c-1.783-3.286-5.55-5.07-10.123-5.07-3.364 0-7.038.993-10.619 2.884-6.542 3.473-10.51 9.317-10.51 14.386 0 1.38.294 2.775.992 4.062 1.783 3.27 5.55 4.96 10.123 4.96 3.364 0 7.038-.883 10.619-2.775 6.542-3.472 10.51-9.332 10.51-14.386 0-1.395-.295-2.774-.992-4.061M1531.039 134.766c-1.783-3.286-5.55-5.07-10.123-5.07-3.364 0-7.038.993-10.619 2.884-6.542 3.473-10.51 9.317-10.51 14.386 0 1.38.294 2.775.992 4.062 1.783 3.27 5.55 4.96 10.123 4.96 3.364 0 7.038-.883 10.619-2.775 6.542-3.472 10.51-9.332 10.51-14.386 0-1.395-.295-2.774-.992-4.061M1695.769 134.766c-1.783-3.286-5.55-5.07-10.123-5.07-3.364 0-7.038.993-10.619 2.884-6.542 3.473-10.51 9.317-10.51 14.386 0 1.38.294 2.775.992 4.062 1.783 3.27 5.55 4.96 10.123 4.96 3.364 0 7.038-.883 10.619-2.775 6.542-3.472 10.51-9.332 10.51-14.386 0-1.395-.295-2.774-.992-4.061M272.036 787.664c-1.783-3.287-5.55-5.07-10.123-5.07-3.364 0-7.038.993-10.619 2.884-6.541 3.473-10.51 9.317-10.51 14.386 0 1.38.295 2.775.992 4.062 1.783 3.27 5.55 4.96 10.123 4.96 3.364 0 7.038-.883 10.619-2.775 6.542-3.472 10.51-9.332 10.51-14.386 0-1.395-.294-2.774-.992-4.061M414.862 787.664c-1.783-3.287-5.55-5.07-10.123-5.07-3.364 0-7.038.993-10.619 2.884-6.542 3.473-10.51 9.317-10.51 14.386 0 1.38.295 2.775.992 4.062 1.783 3.27 5.55 4.96 10.123 4.96 3.364 0 7.038-.883 10.619-2.775 6.542-3.472 10.51-9.332 10.51-14.386 0-1.395-.294-2.774-.992-4.061M593.393 787.664c-1.783-3.287-5.55-5.07-10.123-5.07-3.364 0-7.038.993-10.619 2.884-6.541 3.473-10.51 9.317-10.51 14.386 0 1.38.295 2.775.992 4.062 1.783 3.27 5.55 4.96 10.123 4.96 3.364 0 7.038-.883 10.619-2.775 6.542-3.472 10.51-9.332 10.51-14.386 0-1.395-.294-2.774-.992-4.061M880.616 787.617c-1.783-3.27-5.55-5.053-10.123-5.053-3.364 0-7.038.992-10.619 2.868-6.541 3.472-10.51 9.332-10.51 14.385 0 1.396.295 2.79.992 4.077 1.783 3.287 5.55 4.977 10.123 4.977 3.364 0 7.038-.9 10.619-2.775 6.542-3.488 10.51-9.348 10.51-14.417 0-1.38-.294-2.775-.992-4.062m-4.263 6.744c-1.69 1.69-5.07 3.767-8.635 5.767-3.565 1.984-7.146 3.472-9.518 3.968-.496.109-.992.202-1.488.202-1.597 0-2.79-.59-3.473-1.892a3.213 3.213 0 0 1-.496-1.69c0-1.085.683-2.387 1.783-3.472 1.69-1.69 4.96-3.767 8.526-5.751 3.581-1.984 7.147-3.473 9.534-3.969.496-.108.992-.201 1.488-.201 1.581 0 2.868.589 3.566 1.876.294.496.403 1.1.403 1.69 0 1.1-.605 2.278-1.69 3.472M1184.979 787.664c-1.783-3.287-5.55-5.07-10.123-5.07-3.364 0-7.038.993-10.619 2.884-6.542 3.473-10.51 9.317-10.51 14.386 0 1.38.294 2.775.992 4.062 1.783 3.27 5.55 4.96 10.123 4.96 3.364 0 7.038-.883 10.619-2.775 6.542-3.472 10.51-9.332 10.51-14.386 0-1.395-.295-2.774-.992-4.061M1403.089 787.664c-1.783-3.287-5.55-5.07-10.123-5.07-3.364 0-7.038.993-10.619 2.884-6.542 3.473-10.51 9.317-10.51 14.386 0 1.38.294 2.775.992 4.062 1.783 3.27 5.55 4.96 10.123 4.96 3.364 0 7.038-.883 10.619-2.775 6.542-3.472 10.51-9.332 10.51-14.386 0-1.395-.295-2.774-.992-4.061M1555.559 787.664c-1.783-3.287-5.55-5.07-10.123-5.07-3.364 0-7.038.993-10.619 2.884-6.542 3.473-10.51 9.317-10.51 14.386 0 1.38.294 2.775.992 4.062 1.783 3.27 5.55 4.96 10.123 4.96 3.364 0 7.038-.883 10.619-2.775 6.542-3.472 10.51-9.332 10.51-14.386 0-1.395-.295-2.774-.992-4.061M1708.029 775.264c-1.783-3.287-5.55-5.07-10.123-5.07-3.364 0-7.038.993-10.619 2.884-6.542 3.473-10.51 9.317-10.51 14.386 0 1.38.294 2.775.992 4.062 1.783 3.27 5.55 4.96 10.123 4.96 3.364 0 7.038-.883 10.619-2.775 6.542-3.472 10.51-9.332 10.51-14.386 0-1.395-.295-2.774-.992-4.061M326.036 1360.504c-1.783-3.287-5.55-5.07-10.123-5.07-3.364 0-7.038.993-10.619 2.884-6.541 3.473-10.51 9.317-10.51 14.386 0 1.38.295 2.775.992 4.062 1.783 3.27 5.55 4.96 10.123 4.96 3.364 0 7.038-.883 10.619-2.775 6.542-3.472 10.51-9.332 10.51-14.385 0-1.396-.294-2.775-.992-4.062M533.223 1360.504c-1.783-3.287-5.55-5.07-10.123-5.07-3.364 0-7.038.993-10.619 2.884-6.541 3.473-10.51 9.317-10.51 14.386 0 1.38.295 2.775.992 4.062 1.783 3.27 5.55 4.96 10.123 4.96 3.364 0 7.038-.883 10.619-2.775 6.542-3.472 10.51-9.332 10.51-14.385 0-1.396-.294-2.775-.992-4.062M740.41 1360.504c-1.783-3.287-5.55-5.07-10.123-5.07-3.364 0-7.038.993-10.619 2.884-6.541 3.473-10.51 9.317-10.51 14.386 0 1.38.295 2.775.992 4.062 1.783 3.27 5.55 4.96 10.123 4.96 3.364 0 7.038-.883 10.619-2.775 6.542-3.472 10.51-9.332 10.51-14.385 0-1.396-.294-2.775-.992-4.062M986.989 1372.858c-1.783-3.271-5.55-5.054-10.123-5.054-3.364 0-7.038.992-10.619 2.868-6.541 3.472-10.51 9.332-10.51 14.386 0 1.395.295 2.79.992 4.077 1.783 3.286 5.55 4.976 10.123 4.976 3.364 0 7.038-.9 10.619-2.775 6.542-3.488 10.51-9.348 10.51-14.417 0-1.38-.294-2.775-.992-4.061m-4.263 6.743c-1.69 1.69-5.07 3.767-8.635 5.767-3.565 1.984-7.146 3.472-9.518 3.968-.496.109-.992.202-1.488.202-1.597 0-2.79-.59-3.472-1.892a3.213 3.213 0 0 1-.497-1.69c0-1.084.683-2.387 1.783-3.472 1.69-1.69 4.96-3.767 8.526-5.751 3.581-1.984 7.147-3.472 9.534-3.968.496-.11.992-.202 1.488-.202 1.581 0 2.868.589 3.566 1.876.294.496.403 1.1.403 1.69 0 1.1-.605 2.278-1.69 3.472M1291.209 1385.304c-1.783-3.287-5.55-5.07-10.123-5.07-3.364 0-7.038.993-10.619 2.884-6.542 3.473-10.51 9.317-10.51 14.386 0 1.38.294 2.775.992 4.062 1.783 3.27 5.55 4.96 10.123 4.96 3.364 0 7.038-.883 10.619-2.775 6.542-3.472 10.51-9.332 10.51-14.385 0-1.396-.295-2.775-.992-4.062M1514.529 1397.658c-1.783-3.271-5.55-5.054-10.123-5.054-3.364 0-7.038.992-10.619 2.868-6.542 3.472-10.51 9.332-10.51 14.386 0 1.395.294 2.79.992 4.077 1.783 3.286 5.55 4.976 10.123 4.976 3.364 0 7.038-.9 10.619-2.775 6.542-3.488 10.51-9.348 10.51-14.417 0-1.38-.295-2.775-.992-4.061m-4.263 6.743c-1.69 1.69-5.07 3.767-8.635 5.767-3.565 1.984-7.146 3.472-9.518 3.968-.496.109-.992.202-1.488.202-1.597 0-2.79-.59-3.472-1.892a3.213 3.213 0 0 1-.497-1.69c0-1.084.682-2.387 1.783-3.472 1.69-1.69 4.96-3.767 8.526-5.751 3.581-1.984 7.147-3.472 9.534-3.968.496-.11.992-.202 1.488-.202 1.581 0 2.868.589 3.566 1.876.294.496.403 1.1.403 1.69 0 1.1-.605 2.278-1.69 3.472" style="stroke-width:.992126"/><path class="Note" d="M534.937 134.766c-1.783-3.286-5.55-5.07-10.123-5.07-3.364 0-7.038.993-10.619 2.884-6.542 3.473-10.51 9.317-10.51 14.386 0 1.38.295 2.775.992 4.062 1.783 3.27 5.55 4.96 10.123 4.96 3.364 0 7.038-.883 10.619-2.775 6.542-3.472 10.51-9.332 10.51-14.386 0-1.395-.294-2.774-.992-4.061M717.334 97.561c-1.783-3.286-5.55-5.07-10.123-5.07-3.364 0-7.038.993-10.619 2.884-6.541 3.473-10.51 9.317-10.51 14.386 0 1.38.295 2.775.992 4.062 1.783 3.27 5.55 4.96 10.123 4.96 3.364 0 7.038-.883 10.619-2.775 6.542-3.472 10.51-9.332 10.51-14.386 0-1.395-.294-2.774-.992-4.061M880.441 97.561c-1.783-3.286-5.55-5.07-10.123-5.07-3.364 0-7.038.993-10.619 2.884-6.541 3.473-10.51 9.317-10.51 14.386 0 1.38.295 2.775.992 4.062 1.783 3.27 5.55 4.96 10.123 4.96 3.364 0 7.038-.883 10.619-2.775 6.542-3.472 10.51-9.332 10.51-14.386 0-1.395-.294-2.774-.992-4.061M1043.549 72.758c-1.783-3.286-5.55-5.07-10.123-5.07-3.364 0-7.038.993-10.619 2.884-6.542 3.473-10.51 9.317-10.51 14.386 0 1.38.294 2.775.992 4.062 1.783 3.27 5.55 4.96 10.123 4.96 3.364 0 7.038-.883 10.619-2.775 6.542-3.472 10.51-9.332 10.51-14.386 0-1.395-.295-2.774-.992-4.061M1145.489 85.159c-1.783-3.286-5.55-5.07-10.123-5.07-3.364 0-7.038.993-10.619 2.884-6.542 3.473-10.51 9.317-10.51 14.386 0 1.38.294 2.775.992 4.062 1.783 3.27 5.55 4.96 10.123 4.96 3.364 0 7.038-.883 10.619-2.775 6.542-3.472 10.51-9.332 10.51-14.386 0-1.395-.295-2.774-.992-4.061M1325.119 97.561c-1.783-3.286-5.55-5.07-10.123-5.07-3.364 0-7.038.993-10.619 2.884-6.542 3.473-10.51 9.317-10.51 14.386 0 1.38.294 2.775.992 4.062 1.783 3.27 5.55 4.96 10.123 4.96 3.364 0 7.038-.883 10.619-2.775 6.542-3.472 10.51-9.332 10.51-14.386 0-1.395-.295-2.774-.992-4.061M1531.039 109.962c-1.783-3.287-5.55-5.07-10.123-5.07-3.364 0-7.038.993-10.619 2.884-6.542 3.473-10.51 9.317-10.51 14.386 0 1.38.294 2.775.992 4.062 1.783 3.27 5.55 4.96 10.123 4.96 3.364 0 7.038-.883 10.619-2.775 6.542-3.472 10.51-9.332 10.51-14.386 0-1.395-.295-2.774-.992-4.061M1695.769 134.766c-1.783-3.286-5.55-5.07-10.123-5.07-3.364 0-7.038.993-10.619 2.884-6.542 3.473-10.51 9.317-10.51 14.386 0 1.38.294 2.775.992 4.062 1.783 3.27 5.55 4.96 10.123 4.96 3.364 0 7.038-.883 10.619-2.775 6.542-3.472 10.51-9.332 10.51-14.386 0-1.395-.295-2.774-.992-4.061M272.036 738.064c-1.783-3.287-5.55-5.07-10.123-5.07-3.364 0-7.038.993-10.619 2.884-6.541 3.473-10.51 9.317-10.51 14.386 0 1.38.295 2.775.992 4.062 1.783 3.27 5.55 4.96 10.123 4.96 3.364 0 7.038-.883 10.619-2.775 6.542-3.472 10.51-9.332 10.51-14.386 0-1.395-.294-2.774-.992-4.061M414.862 738.064c-1.783-3.287-5.55-5.07-10.123-5.07-3.364 0-7.038.993-10.619 2.884-6.542 3.473-10.51 9.317-10.51 14.386 0 1.38.295 2.775.992 4.062 1.783 3.27 5.55 4.96 10.123 4.96 3.364 0 7.038-.883 10.619-2.775 6.542-3.472 10.51-9.332 10.51-14.386 0-1.395-.294-2.774-.992-4.061M504.128 725.664c-1.783-3.287-5.55-5.07-10.123-5.07-3.364 0-7.038.993-10.619 2.884-6.541 3.473-10.51 9.317-10.51 14.386 0 1.38.295 2.775.992 4.062 1.783 3.27 5.55 4.96 10.123 4.96 3.364 0 7.038-.883 10.619-2.775 6.542-3.472 10.51-9.332 10.51-14.386 0-1.395-.294-2.774-.992-4.061M593.393 713.254c-1.783-3.286-5.55-5.07-10.123-5.07-3.364 0-7.038.993-10.619 2.884-6.541 3.473-10.51 9.317-10.51 14.386 0 1.38.295 2.775.992 4.062 1.783 3.27 5.55 4.96 10.123 4.96 3.364 0 7.038-.883 10.619-2.775 6.542-3.472 10.51-9.332 10.51-14.386 0-1.395-.294-2.774-.992-4.061M682.659 738.064c-1.783-3.287-5.55-5.07-10.123-5.07-3.364 0-7.038.993-10.619 2.884-6.542 3.473-10.51 9.317-10.51 14.386 0 1.38.295 2.775.992 4.062 1.783 3.27 5.55 4.96 10.123 4.96 3.364 0 7.038-.883 10.619-2.775 6.542-3.472 10.51-9.332 10.51-14.386 0-1.395-.294-2.774-.992-4.061M880.616 738.064c-1.783-3.287-5.55-5.07-10.123-5.07-3.364 0-7.038.993-10.619 2.884-6.541 3.473-10.51 9.317-10.51 14.386 0 1.38.295 2.775.992 4.062 1.783 3.27 5.55 4.96 10.123 4.96 3.364 0 7.038-.883 10.619-2.775 6.542-3.472 10.51-9.332 10.51-14.386 0-1.395-.294-2.774-.992-4.061M1032.799 750.464c-1.783-3.287-5.55-5.07-10.123-5.07-3.364 0-7.038.993-10.619 2.884-6.541 3.473-10.51 9.317-10.51 14.386 0 1.38.294 2.775.992 4.062 1.783 3.27 5.55 4.96 10.123 4.96 3.364 0 7.038-.883 10.619-2.775 6.542-3.472 10.51-9.332 10.51-14.386 0-1.395-.294-2.774-.992-4.061M1184.979 787.664c-1.783-3.287-5.55-5.07-10.123-5.07-3.364 0-7.038.993-10.619 2.884-6.542 3.473-10.51 9.317-10.51 14.386 0 1.38.294 2.775.992 4.062 1.783 3.27 5.55 4.96 10.123 4.96 3.364 0 7.038-.883 10.619-2.775 6.542-3.472 10.51-9.332 10.51-14.386 0-1.395-.295-2.774-.992-4.061M1403.089 725.664c-1.783-3.287-5.55-5.07-10.123-5.07-3.364 0-7.038.993-10.619 2.884-6.542 3.473-10.51 9.317-10.51 14.386 0 1.38.294 2.775.992 4.062 1.783 3.27 5.55 4.96 10.123 4.96 3.364 0 7.038-.883 10.619-2.775 6.542-3.472 10.51-9.332 10.51-14.386 0-1.395-.295-2.774-.992-4.061M1555.559 725.664c-1.783-3.287-5.55-5.07-10.123-5.07-3.364 0-7.038.993-10.619 2.884-6.542 3.473-10.51 9.317-10.51 14.386 0 1.38.294 2.775.992 4.062 1.783 3.27 5.55 4.96 10.123 4.96 3.364 0 7.038-.883 10.619-2.775 6.542-3.472 10.51-9.332 10.51-14.386 0-1.395-.295-2.774-.992-4.061M1708.029 725.664c-1.783-3.287-5.55-5.07-10.123-5.07-3.364 0-7.038.993-10.619 2.884-6.542 3.473-10.51 9.317-10.51 14.386 0 1.38.294 2.775.992 4.062 1.783 3.27 5.55 4.96 10.123 4.96 3.364 0 7.038-.883 10.619-2.775 6.542-3.472 10.51-9.332 10.51-14.386 0-1.395-.295-2.774-.992-4.061M326.036 1323.304c-1.783-3.287-5.55-5.07-10.123-5.07-3.364 0-7.038.993-10.619 2.884-6.541 3.473-10.51 9.317-10.51 14.386 0 1.38.295 2.775.992 4.062 1.783 3.27 5.55 4.96 10.123 4.96 3.364 0 7.038-.883 10.619-2.775 6.542-3.472 10.51-9.332 10.51-14.385 0-1.396-.294-2.775-.992-4.062M533.223 1298.494c-1.783-3.287-5.55-5.07-10.123-5.07-3.364 0-7.038.993-10.619 2.884-6.541 3.473-10.51 9.317-10.51 14.386 0 1.38.295 2.775.992 4.062 1.783 3.27 5.55 4.96 10.123 4.96 3.364 0 7.038-.883 10.619-2.775 6.542-3.472 10.51-9.332 10.51-14.385 0-1.396-.294-2.775-.992-4.062M740.41 1323.304c-1.783-3.287-5.55-5.07-10.123-5.07-3.364 0-7.038.993-10.619 2.884-6.541 3.473-10.51 9.317-10.51 14.386 0 1.38.295 2.775.992 4.062 1.783 3.27 5.55 4.96 10.123 4.96 3.364 0 7.038-.883 10.619-2.775 6.542-3.472 10.51-9.332 10.51-14.385 0-1.396-.294-2.775-.992-4.062M986.989 1335.658c-1.783-3.271-5.55-5.054-10.123-5.054-3.364 0-7.038.992-10.619 2.868-6.541 3.472-10.51 9.332-10.51 14.386 0 1.395.295 2.79.992 4.077 1.783 3.286 5.55 4.976 10.123 4.976 3.364 0 7.038-.9 10.619-2.775 6.542-3.488 10.51-9.348 10.51-14.417 0-1.38-.294-2.775-.992-4.061m-4.263 6.743c-1.69 1.69-5.07 3.767-8.635 5.767-3.565 1.984-7.146 3.472-9.518 3.968-.496.109-.992.202-1.488.202-1.597 0-2.79-.59-3.472-1.892a3.213 3.213 0 0 1-.497-1.69c0-1.084.683-2.387 1.783-3.472 1.69-1.69 4.96-3.767 8.526-5.751 3.581-1.984 7.147-3.472 9.534-3.968.496-.11.992-.202 1.488-.202 1.581 0 2.868.589 3.566 1.876.294.496.403 1.1.403 1.69 0 1.1-.605 2.278-1.69 3.472M1291.209 1348.104c-1.783-3.287-5.55-5.07-10.123-5.07-3.364 0-7.038.993-10.619 2.884-6.542 3.473-10.51 9.317-10.51 14.386 0 1.38.294 2.775.992 4.062 1.783 3.27 5.55 4.96 10.123 4.96 3.364 0 7.038-.883 10.619-2.775 6.542-3.472 10.51-9.332 10.51-14.385 0-1.396-.295-2.775-.992-4.062M1514.529 1335.658c-1.783-3.271-5.55-5.054-10.123-5.054-3.364 0-7.038.992-10.619 2.868-6.542 3.472-10.51 9.332-10.51 14.386 0 1.395.294 2.79.992 4.077 1.783 3.286 5.55 4.976 10.123 4.976 3.364 0 7.038-.9 10.619-2.775 6.542-3.488 10.51-9.348 10.51-14.417 0-1.38-.295-2.775-.992-4.061m-4.263 6.743c-1.69 1.69-5.07 3.767-8.635 5.767-3.565 1.984-7.146 3.472-9.518 3.968-.496.109-.992.202-1.488.202-1.597 0-2.79-.59-3.472-1.892a3.213 3.213 0 0 1-.497-1.69c0-1.084.682-2.387 1.783-3.472 1.69-1.69 4.96-3.767 8.526-5.751 3.581-1.984 7.147-3.472 9.534-3.968.496-.11.992-.202 1.488-.202 1.581 0 2.868.589 3.566 1.876.294.496.403 1.1.403 1.69 0 1.1-.605 2.278-1.69 3.472" style="stroke-width:.992126"/><path class="Clef" d="M192.38 473.163c-7.55 0-13.596 4.356-13.704 4.356-5.752 4.263-8.03 9.332-8.93 12.804-.496 1.783-.682 3.566-.682 5.256 0 2.387.388 4.557 1.287 6.448 1.194 2.682 3.472 4.558 6.449 5.55 1.193.403 2.48.605 3.767.605 2.185 0 4.464-.605 6.356-1.69 3.069-1.69 4.96-5.255 4.96-9.13 0-3.473-1.798-6.65-4.774-8.527-2.078-1.395-4.062-1.782-5.752-1.782-1.193 0-2.278.186-3.178.496-.992.387-2.666 1.38-3.472 2.077.31-1.891 1.488-4.76 2.589-6.356 1.085-1.581 3.27-3.565 4.96-4.464 2.48-1.38 5.659-1.985 9.131-1.985 10.123 0 15.084 8.139 15.084 24.803 0 9.24-3.473 18.06-6.45 23.92-3.286 6.542-7.642 12.805-11.517 16.277-10.325 9.425-20.044 13.89-20.137 13.89 0 0-1.489.883-1.101 2.372.31.992 1.194 1.193 1.798 1.193.093 0 .388-.093.496-.093.093 0 11.41-4.666 20.432-11.72 5.07-3.658 9.627-7.626 13.595-11.905a73.567 73.567 0 0 0 9.13-12.2c4.357-7.44 6.837-15.176 6.837-21.827 0-8.231-2.17-15.083-6.247-19.935-4.666-5.565-11.704-8.433-20.928-8.433m31.144 12.587c0 2.79 2.185 4.961 4.774 4.961 2.574 0 4.76-2.17 4.76-4.96 0-2.775-2.186-5.054-4.76-5.054-2.589 0-4.774 2.279-4.774 5.053m0 24.509c0 2.775 2.185 5.07 4.774 5.07 2.574 0 4.76-2.295 4.76-5.07 0-2.775-2.186-5.054-4.76-5.054-2.589 0-4.774 2.28-4.774 5.054M68.363 1058.398c-7.55 0-13.595 4.356-13.703 4.356-5.752 4.263-8.03 9.332-8.93 12.805-.496 1.782-.682 3.565-.682 5.255 0 2.387.388 4.557 1.287 6.448 1.194 2.682 3.472 4.558 6.449 5.55 1.193.403 2.48.605 3.767.605 2.185 0 4.464-.605 6.356-1.69 3.069-1.69 4.96-5.255 4.96-9.13 0-3.473-1.798-6.65-4.774-8.527-2.078-1.395-4.062-1.782-5.752-1.782-1.193 0-2.278.186-3.178.496-.992.387-2.666 1.38-3.472 2.077.31-1.891 1.488-4.76 2.589-6.356 1.085-1.581 3.27-3.565 4.96-4.465 2.48-1.38 5.659-1.984 9.131-1.984 10.123 0 15.084 8.139 15.084 24.803 0 9.24-3.473 18.06-6.45 23.92-3.286 6.542-7.642 12.805-11.517 16.277-10.325 9.425-20.044 13.89-20.137 13.89 0 0-1.489.883-1.101 2.372.31.992 1.194 1.193 1.798 1.193.093 0 .388-.093.496-.093.093 0 11.41-4.666 20.432-11.72 5.07-3.658 9.627-7.626 13.595-11.905a73.569 73.569 0 0 0 9.13-12.2c4.357-7.44 6.837-15.176 6.837-21.827 0-8.231-2.17-15.083-6.247-19.935-4.666-5.565-11.704-8.433-20.928-8.433m31.144 12.587c0 2.79 2.185 4.961 4.774 4.961 2.574 0 4.76-2.17 4.76-4.96 0-2.776-2.186-5.054-4.76-5.054-2.589 0-4.774 2.278-4.774 5.053m0 24.509c0 2.775 2.185 5.07 4.774 5.07 2.574 0 4.76-2.295 4.76-5.07 0-2.775-2.186-5.054-4.76-5.054-2.589 0-4.774 2.28-4.774 5.054M68.363 1656.038c-7.55 0-13.595 4.356-13.703 4.356-5.752 4.263-8.03 9.332-8.93 12.805-.496 1.782-.682 3.565-.682 5.255 0 2.387.388 4.557 1.287 6.449 1.194 2.681 3.472 4.557 6.449 5.55 1.193.402 2.48.604 3.767.604 2.185 0 4.464-.605 6.356-1.69 3.069-1.69 4.96-5.255 4.96-9.13 0-3.473-1.798-6.65-4.774-8.527-2.078-1.395-4.062-1.782-5.752-1.782-1.193 0-2.278.186-3.178.496-.992.387-2.666 1.38-3.472 2.077.31-1.891 1.488-4.76 2.589-6.356 1.085-1.581 3.27-3.565 4.96-4.465 2.48-1.38 5.659-1.984 9.131-1.984 10.123 0 15.084 8.139 15.084 24.803 0 9.24-3.473 18.06-6.45 23.92-3.286 6.542-7.642 12.805-11.517 16.277-10.325 9.425-20.044 13.89-20.137 13.89 0 0-1.489.883-1.101 2.372.31.992 1.194 1.193 1.798 1.193.093 0 .388-.093.496-.093.093 0 11.41-4.666 20.432-11.72 5.07-3.658 9.627-7.626 13.595-11.905a73.569 73.569 0 0 0 9.13-12.2c4.357-7.44 6.837-15.176 6.837-21.827 0-8.231-2.17-15.083-6.247-19.935-4.666-5.565-11.704-8.433-20.928-8.433m31.144 12.587c0 2.79 2.185 4.961 4.774 4.961 2.574 0 4.76-2.17 4.76-4.96 0-2.776-2.186-5.054-4.76-5.054-2.589 0-4.774 2.278-4.774 5.053m0 24.509c0 2.775 2.185 5.07 4.774 5.07 2.574 0 4.76-2.295 4.76-5.07 0-2.775-2.186-5.054-4.76-5.054-2.589 0-4.774 2.28-4.774 5.054M230.034 124.519c-1.225-5.38-3.845-9.177-4.62-10.2-3.163-4.248-7.147-7.07-11.797-8.418-3.085-.868-6.061-.992-8.464-.806a2314.645 2314.645 0 0 1-2.93-17.207c5.41-6.124 9.007-11.875 11.27-16.138 3.441-6.526 4.573-11.068 4.635-11.27 1.705-5.178 2.062-12.82.961-20.959-.992-7.487-3.07-14.152-5.41-17.377-1.008-1.41-2.062-2.14-3.085-2.14-1.21 0-3.705 1.225-6.573 3.984-2.279 2.17-5.519 6.03-8.06 11.999-2.977 7.007-3.194 16.417-2.838 23.082.372 7.224 1.473 12.867 1.489 12.914.015.093.279 1.58.713 4.123-.217.233-.465.45-.713.698-1.024.992-2.202 2.108-3.581 3.488-.853.852-1.799 1.751-2.79 2.713-8.372 8.076-21.068 20.307-21.068 39.312 0 4.667.9 9.054 2.666 13.038 1.566 3.565 3.845 6.82 6.76 9.673 7.673 7.503 18.183 10.68 25.174 10.526 2.93-.078 5.55-.31 7.922-.76 1.814 9.534 2.945 16.51 2.976 21.811.047 6.465-1.596 10.418-5.456 13.162-2.419 1.72-5.21 2.666-8.278 2.805-2.574.124-4.822-.34-6.232-.744h-.016s-.279-.093-.294-.279c-.016-.186.34-.232.34-.232h.032c1.907-.434 5.441-1.659 7.782-4.93 1.782-2.511 2.65-7.1.821-11.006-1.1-2.372-3.58-5.302-9.161-5.752-2.48-.201-4.728.31-6.713 1.504-1.798 1.07-3.286 2.698-4.325 4.682-2.433 4.666-1.984 10.355 1.116 14.169 2.946 3.596 7.519 5.89 12.914 6.464.852.093 1.69.124 2.526.124 4.403 0 8.759-1.194 12.309-3.38 3.627-2.557 5.736-6.51 6.402-12.091.558-4.604.17-10.48-1.209-18.494-.356-2.077-.899-5.085-1.55-8.805 5.705-1.907 9.828-5.457 13.564-11.27 3.271-5.69 4.201-11.75 2.79-18.013m-33.949 26.012c-4.604-1.21-9.006-3.69-12.727-7.177-1.302-1.21-3.162-3.364-4.62-6.728-1.348-3.147-2.015-6.558-1.953-10.108.062-4.666 1.364-9.456 3.845-14.2 2.899-5.534 7.425-11.021 13.44-16.307a89.216 89.216 0 0 0 4.077-3.814c.76 4.232 1.581 8.883 2.45 13.72-3.814 1.255-8.527 4.386-11.612 9.998-3.519 6.511-3.38 11.999-2.65 15.456.93 4.418 3.44 8.154 6.867 10.23.93.559 5.022 2.667 6.852 2.094a1.16 1.16 0 0 0 .775-.667c.511-1.163-.512-1.798-2.046-2.744a27.278 27.278 0 0 1-1.985-1.317c-3.302-2.465-4.743-6.883-3.674-11.24a12.438 12.438 0 0 1 3.674-6.216c1.643-1.534 3.674-2.62 6.03-3.255 2.031 11.161 4.078 22.23 5.705 30.523.124.682.264 1.349.388 2.016-4.34.93-8.65.837-12.836-.264m11.24-32.942c10.261-.465 14.493 6.914 15.377 11.704.465 2.527.465 6.93-1.07 11.115-1.162 3.147-3.596 7.193-8.696 9.24-.062-.42-.14-.853-.217-1.272-1.535-8.712-3.457-19.625-5.395-30.787m-7.27-70.394c1.767-5.69 4.48-8.914 6.464-10.634 1.736-1.504 3.364-2.217 4.279-2.217.14 0 .263.03.356.062.465.14.992.697 1.457 1.565 2.295 4.248 1.55 10.914.217 15.316-1.612 5.364-4.51 10.93-13.238 20.463-.17-1.1-.326-2.14-.48-3.116-1.241-8.216-.916-15.44.945-21.44M106.018 777.419c-1.225-5.38-3.845-9.177-4.62-10.2-3.163-4.248-7.147-7.07-11.797-8.418-3.085-.868-6.061-.992-8.464-.806a2314.832 2314.832 0 0 1-2.93-17.207c5.41-6.124 9.007-11.875 11.27-16.138 3.441-6.526 4.573-11.068 4.635-11.27 1.705-5.178 2.062-12.82.961-20.959-.992-7.487-3.07-14.152-5.41-17.377-1.008-1.41-2.062-2.14-3.085-2.14-1.21 0-3.705 1.225-6.573 3.984-2.279 2.17-5.519 6.03-8.06 11.999-2.977 7.007-3.194 16.417-2.838 23.082.372 7.224 1.473 12.867 1.489 12.914.015.093.279 1.58.713 4.123-.217.233-.465.45-.713.698-1.024.992-2.202 2.108-3.581 3.488-.853.852-1.799 1.751-2.79 2.712-8.372 8.077-21.068 20.308-21.068 39.313 0 4.667.9 9.054 2.666 13.038 1.566 3.565 3.845 6.82 6.76 9.673 7.673 7.503 18.183 10.68 25.174 10.526 2.93-.078 5.55-.31 7.922-.76 1.814 9.534 2.945 16.51 2.976 21.811.047 6.465-1.596 10.418-5.456 13.162-2.419 1.72-5.209 2.666-8.278 2.805-2.574.124-4.822-.34-6.232-.744h-.016s-.279-.093-.294-.279c-.016-.186.34-.232.34-.232h.032c1.907-.434 5.441-1.659 7.782-4.93 1.782-2.511 2.65-7.1.821-11.006-1.1-2.372-3.58-5.302-9.161-5.752-2.48-.201-4.728.31-6.713 1.504-1.798 1.07-3.286 2.698-4.325 4.682-2.433 4.666-1.984 10.355 1.116 14.169 2.946 3.596 7.519 5.89 12.914 6.464.852.093 1.69.124 2.526.124 4.403 0 8.759-1.194 12.309-3.38 3.627-2.557 5.736-6.51 6.402-12.091.558-4.604.17-10.48-1.209-18.494-.356-2.077-.899-5.085-1.55-8.805 5.705-1.907 9.828-5.457 13.564-11.27 3.271-5.69 4.201-11.75 2.79-18.013M72.069 803.43c-4.604-1.21-9.006-3.69-12.727-7.177-1.302-1.21-3.162-3.364-4.62-6.728-1.348-3.147-2.015-6.558-1.953-10.108.062-4.666 1.364-9.456 3.845-14.2 2.899-5.534 7.425-11.021 13.44-16.307a89.16 89.16 0 0 0 4.077-3.814c.76 4.232 1.581 8.883 2.45 13.72-3.814 1.255-8.527 4.386-11.612 9.998-3.519 6.511-3.38 11.999-2.65 15.456.93 4.418 3.44 8.154 6.867 10.23.93.559 5.022 2.667 6.852 2.094a1.16 1.16 0 0 0 .775-.667c.511-1.163-.512-1.798-2.046-2.744a27.285 27.285 0 0 1-1.985-1.317c-3.302-2.465-4.743-6.883-3.674-11.24a12.438 12.438 0 0 1 3.674-6.216c1.643-1.534 3.674-2.62 6.03-3.255 2.031 11.161 4.078 22.23 5.705 30.523.124.682.264 1.349.388 2.016-4.34.93-8.65.837-12.836-.264m11.24-32.942c10.261-.465 14.493 6.914 15.377 11.704.465 2.527.465 6.93-1.07 11.115-1.162 3.147-3.596 7.193-8.696 9.24-.062-.42-.14-.853-.217-1.272-1.535-8.712-3.457-19.625-5.395-30.787m-7.27-70.394c1.767-5.69 4.48-8.914 6.464-10.634 1.736-1.504 3.364-2.217 4.279-2.217.14 0 .263.03.356.062.465.14.992.697 1.457 1.565 2.295 4.248 1.55 10.914.217 15.316-1.612 5.364-4.51 10.93-13.238 20.463-.17-1.1-.326-2.14-.48-3.116-1.241-8.216-.916-15.44.945-21.44M106.018 1362.659c-1.225-5.38-3.845-9.177-4.62-10.2-3.163-4.248-7.147-7.07-11.797-8.418-3.085-.868-6.061-.992-8.464-.806a2314.832 2314.832 0 0 1-2.93-17.207c5.41-6.124 9.007-11.875 11.27-16.138 3.441-6.526 4.573-11.068 4.635-11.27 1.705-5.178 2.062-12.82.961-20.959-.992-7.487-3.07-14.153-5.41-17.377-1.008-1.41-2.062-2.14-3.085-2.14-1.21 0-3.705 1.225-6.573 3.984-2.279 2.17-5.519 6.03-8.06 11.999-2.977 7.007-3.194 16.417-2.838 23.082.372 7.224 1.473 12.867 1.489 12.914.015.093.279 1.58.713 4.123-.217.233-.465.45-.713.698-1.024.992-2.202 2.108-3.581 3.488-.853.852-1.799 1.751-2.79 2.712-8.372 8.077-21.068 20.308-21.068 39.313 0 4.667.9 9.054 2.666 13.038 1.566 3.565 3.845 6.82 6.76 9.673 7.673 7.503 18.183 10.68 25.174 10.526 2.93-.078 5.55-.31 7.922-.76 1.814 9.534 2.945 16.51 2.976 21.811.047 6.465-1.596 10.418-5.456 13.162-2.419 1.72-5.209 2.666-8.278 2.805-2.574.124-4.822-.34-6.232-.744h-.016s-.279-.093-.294-.279c-.016-.186.34-.232.34-.232h.032c1.907-.434 5.441-1.659 7.782-4.93 1.782-2.511 2.65-7.1.821-11.006-1.1-2.372-3.58-5.302-9.161-5.752-2.48-.201-4.728.31-6.713 1.504-1.798 1.07-3.286 2.698-4.325 4.682-2.433 4.666-1.984 10.355 1.116 14.169 2.946 3.596 7.519 5.89 12.914 6.464.852.093 1.69.124 2.526.124 4.403 0 8.759-1.194 12.309-3.38 3.627-2.557 5.736-6.51 6.402-12.091.558-4.604.17-10.48-1.209-18.494-.356-2.077-.899-5.085-1.55-8.805 5.705-1.907 9.828-5.457 13.564-11.27 3.271-5.69 4.201-11.75 2.79-18.013m-33.949 26.012c-4.604-1.21-9.006-3.69-12.727-7.177-1.302-1.21-3.162-3.364-4.62-6.728-1.348-3.147-2.015-6.558-1.953-10.108.062-4.666 1.364-9.456 3.845-14.2 2.899-5.534 7.425-11.021 13.44-16.307a89.16 89.16 0 0 0 4.077-3.814c.76 4.232 1.581 8.883 2.45 13.72-3.814 1.255-8.527 4.386-11.612 9.998-3.519 6.511-3.38 11.999-2.65 15.456.93 4.418 3.44 8.154 6.867 10.23.93.559 5.022 2.667 6.852 2.094a1.16 1.16 0 0 0 .775-.667c.511-1.163-.512-1.798-2.046-2.744a27.285 27.285 0 0 1-1.985-1.317c-3.302-2.465-4.743-6.883-3.674-11.24a12.438 12.438 0 0 1 3.674-6.216c1.643-1.534 3.674-2.62 6.03-3.255 2.031 11.161 4.078 22.23 5.705 30.523.124.682.264 1.349.388 2.016-4.34.93-8.65.837-12.836-.264m11.24-32.942c10.261-.465 14.493 6.914 15.377 11.704.465 2.527.465 6.93-1.07 11.115-1.162 3.147-3.596 7.193-8.696 9.24-.062-.42-.14-.853-.217-1.272-1.535-8.712-3.457-19.625-5.395-30.787m-7.27-70.394c1.767-5.69 4.48-8.914 6.464-10.634 1.736-1.504 3.364-2.217 4.279-2.217.14 0 .263.03.356.062.465.14.992.697 1.457 1.565 2.295 4.248 1.55 10.914.217 15.316-1.612 5.364-4.51 10.93-13.238 20.463-.17-1.1-.326-2.14-.48-3.116-1.241-8.216-.916-15.44.945-21.44" style="stroke-width:.992126"/><path class="KeySig" d="M302.59 502.617c-.589-3.86-2.976-7.534-8.03-7.534-4.96 0-7.843 3.07-8.34 3.674l.403-31.857c0-.79-.589-1.38-1.395-1.38h-1.178c-.806 0-1.395.59-1.395 1.38l.496 59.637c0 .79.59 1.38 1.395 1.38.186 0 .59-.094.79-.187.388-.201 6.837-3.38 12.2-9.425 3.768-4.279 5.256-9.13 5.256-13.208 0-.883-.093-1.674-.201-2.48m-6.837 3.875c0 1.489-.403 6.046-2.883 9.829-1.69 2.573-5.054 5.255-6.945 6.743l.294-19.346c.202-.9 1.69-3.767 5.659-3.767 3.58 0 3.875 3.364 3.875 5.456v1.085M277.788 539.822c-.59-3.86-2.977-7.534-8.03-7.534-4.961 0-7.844 3.07-8.34 3.674l.402-31.857c0-.79-.589-1.38-1.395-1.38h-1.178c-.806 0-1.395.59-1.395 1.38l.496 59.637c0 .79.59 1.38 1.395 1.38.186 0 .59-.094.79-.187.388-.201 6.837-3.38 12.2-9.425 3.768-4.279 5.256-9.13 5.256-13.208 0-.883-.093-1.674-.201-2.48m-6.837 3.875c0 1.489-.403 6.046-2.883 9.829-1.69 2.573-5.054 5.255-6.945 6.743l.294-19.346c.202-.9 1.69-3.767 5.659-3.767 3.58 0 3.875 3.364 3.875 5.456v1.085M178.575 1087.86c-.59-3.86-2.977-7.534-8.03-7.534-4.961 0-7.844 3.07-8.34 3.674l.402-31.857c0-.79-.589-1.38-1.395-1.38h-1.178c-.806 0-1.395.59-1.395 1.38l.496 59.636c0 .791.59 1.38 1.395 1.38.186 0 .59-.093.79-.186.388-.201 6.837-3.38 12.2-9.425 3.768-4.279 5.256-9.13 5.256-13.208 0-.883-.093-1.674-.201-2.48m-6.837 3.876c0 1.488-.403 6.045-2.883 9.828-1.69 2.573-5.054 5.255-6.945 6.743l.294-19.346c.202-.9 1.69-3.767 5.659-3.767 3.58 0 3.875 3.364 3.875 5.456v1.085M153.772 1125.06c-.59-3.86-2.977-7.534-8.03-7.534-4.961 0-7.844 3.07-8.34 3.674l.403-31.857c0-.79-.59-1.38-1.396-1.38h-1.178c-.806 0-1.395.59-1.395 1.38l.496 59.636c0 .791.59 1.38 1.395 1.38.186 0 .59-.093.79-.186.388-.201 6.837-3.38 12.2-9.425 3.768-4.279 5.256-9.13 5.256-13.208 0-.883-.093-1.674-.201-2.48m-6.837 3.876c0 1.488-.403 6.045-2.883 9.828-1.69 2.573-5.054 5.255-6.945 6.743l.294-19.346c.202-.9 1.69-3.767 5.659-3.767 3.58 0 3.875 3.364 3.875 5.456v1.085M178.575 1685.49c-.59-3.86-2.977-7.534-8.03-7.534-4.961 0-7.844 3.07-8.34 3.674l.402-31.857c0-.79-.589-1.38-1.395-1.38h-1.178c-.806 0-1.395.59-1.395 1.38l.496 59.636c0 .791.59 1.38 1.395 1.38.186 0 .59-.093.79-.186.388-.201 6.837-3.38 12.2-9.425 3.768-4.279 5.256-9.13 5.256-13.208 0-.883-.093-1.674-.201-2.48m-6.837 3.876c0 1.488-.403 6.045-2.883 9.828-1.69 2.573-5.054 5.255-6.945 6.743l.294-19.346c.202-.9 1.69-3.767 5.659-3.767 3.58 0 3.875 3.364 3.875 5.456v1.085M153.772 1722.7c-.59-3.86-2.977-7.534-8.03-7.534-4.961 0-7.844 3.07-8.34 3.674l.403-31.857c0-.79-.59-1.38-1.396-1.38h-1.178c-.806 0-1.395.59-1.395 1.38l.496 59.636c0 .791.59 1.38 1.395 1.38.186 0 .59-.093.79-.186.388-.201 6.837-3.38 12.2-9.425 3.768-4.279 5.256-9.13 5.256-13.208 0-.883-.093-1.674-.201-2.48m-6.837 3.876c0 1.488-.403 6.045-2.883 9.828-1.69 2.573-5.054 5.255-6.945 6.743l.294-19.346c.202-.9 1.69-3.767 5.659-3.767 3.58 0 3.875 3.364 3.875 5.456v1.085M302.59 60.542c-.589-3.86-2.976-7.534-8.03-7.534-4.96 0-7.843 3.07-8.34 3.674l.403-31.857c0-.79-.589-1.38-1.395-1.38h-1.178c-.806 0-1.395.59-1.395 1.38l.496 59.637c0 .79.59 1.38 1.395 1.38.186 0 .59-.094.79-.187.388-.201 6.837-3.38 12.2-9.425 3.768-4.279 5.256-9.13 5.256-13.208 0-.883-.093-1.674-.201-2.48m-6.837 3.875c0 1.489-.403 6.046-2.883 9.829-1.69 2.573-5.054 5.255-6.945 6.743l.294-19.346c.202-.9 1.69-3.767 5.659-3.767 3.58 0 3.875 3.364 3.875 5.456v1.085M277.788 97.747c-.59-3.86-2.977-7.534-8.03-7.534-4.961 0-7.844 3.07-8.34 3.674l.402-31.857c0-.79-.589-1.38-1.395-1.38h-1.178c-.806 0-1.395.59-1.395 1.38l.496 59.637c0 .79.59 1.38 1.395 1.38.186 0 .59-.094.79-.187.388-.201 6.837-3.38 12.2-9.425 3.768-4.279 5.256-9.13 5.256-13.208 0-.883-.093-1.674-.201-2.48m-6.837 3.875c0 1.489-.403 6.046-2.883 9.829-1.69 2.573-5.054 5.255-6.945 6.743l.294-19.346c.202-.9 1.69-3.767 5.659-3.767 3.58 0 3.875 3.364 3.875 5.456v1.085M178.575 713.44c-.59-3.86-2.977-7.534-8.03-7.534-4.961 0-7.844 3.07-8.34 3.674l.402-31.857c0-.79-.589-1.38-1.395-1.38h-1.178c-.806 0-1.395.59-1.395 1.38l.496 59.636c0 .791.59 1.38 1.395 1.38.186 0 .59-.093.79-.186.388-.201 6.837-3.38 12.2-9.425 3.768-4.279 5.256-9.13 5.256-13.208 0-.883-.093-1.674-.201-2.48m-6.837 3.875c0 1.489-.403 6.046-2.883 9.829-1.69 2.573-5.054 5.255-6.945 6.743l.294-19.346c.202-.9 1.69-3.767 5.659-3.767 3.58 0 3.875 3.364 3.875 5.456v1.085M153.772 750.65c-.59-3.86-2.977-7.534-8.03-7.534-4.961 0-7.844 3.07-8.34 3.674l.403-31.857c0-.79-.59-1.38-1.396-1.38h-1.178c-.806 0-1.395.59-1.395 1.38l.496 59.636c0 .791.59 1.38 1.395 1.38.186 0 .59-.093.79-.186.388-.201 6.837-3.38 12.2-9.425 3.768-4.279 5.256-9.13 5.256-13.208 0-.883-.093-1.674-.201-2.48m-6.837 3.875c0 1.489-.403 6.046-2.883 9.829-1.69 2.573-5.054 5.255-6.945 6.743l.294-19.346c.202-.9 1.69-3.767 5.659-3.767 3.58 0 3.875 3.364 3.875 5.456v1.085M178.575 1298.68c-.59-3.86-2.977-7.534-8.03-7.534-4.961 0-7.844 3.07-8.34 3.674l.402-31.857c0-.79-.589-1.38-1.395-1.38h-1.178c-.806 0-1.395.59-1.395 1.38l.496 59.636c0 .791.59 1.38 1.395 1.38.186 0 .59-.093.79-.186.388-.201 6.837-3.38 12.2-9.425 3.768-4.279 5.256-9.13 5.256-13.208 0-.883-.093-1.674-.201-2.48m-6.837 3.876c0 1.488-.403 6.045-2.883 9.828-1.69 2.573-5.054 5.255-6.945 6.743l.294-19.346c.202-.9 1.69-3.767 5.659-3.767 3.58 0 3.875 3.364 3.875 5.456v1.085M153.772 1335.89c-.59-3.86-2.977-7.534-8.03-7.534-4.961 0-7.844 3.07-8.34 3.674l.403-31.857c0-.79-.59-1.38-1.396-1.38h-1.178c-.806 0-1.395.59-1.395 1.38l.496 59.636c0 .791.59 1.38 1.395 1.38.186 0 .59-.093.79-.186.388-.201 6.837-3.38 12.2-9.425 3.768-4.279 5.256-9.13 5.256-13.208 0-.883-.093-1.674-.201-2.48m-6.837 3.876c0 1.488-.403 6.045-2.883 9.828-1.69 2.573-5.054 5.255-6.945 6.743l.294-19.346c.202-.9 1.69-3.767 5.659-3.767 3.58 0 3.875 3.364 3.875 5.456v1.085" style="stroke-width:.992126"/><path class="TimeSig" d="M356.956 496.974h.201c7.937-3.085 8.434-8.247 8.434-10.03v-.496c0-.884-.295-12.107-17.363-12.107-17.067 0-16.571 12.107-16.571 12.107h.108l-.108.201c0 3.566 2.883 6.356 6.449 6.356 3.58 0 6.355-2.79 6.355-6.356 0-2.883-2.185-5.658-4.96-6.247l.294-.294c1.395-.993 3.271-1.489 5.162-1.489 4.17 0 8.635 2.48 8.635 7.829 0 6.247-4.666 7.146-5.86 7.348-1.193.201-6.743.589-7.937.589-1.193 0-1.286 1.395-1.286 1.395v1.984s.201 1.086 1.286 1.194c1.69.093 3.969.093 7.147.59 4.356.588 6.65 3.565 6.65 10.51 0 6.65-4.465 8.433-8.635 8.433-2.774 0-5.363-.791-6.448-1.582 3.27-.201 5.952-3.069 5.952-6.355 0-3.566-2.775-6.45-6.355-6.45a6.444 6.444 0 0 0-6.45 6.45s-.495 4.464 3.876 8.541c3.86 3.566 8.728 3.674 10.914 3.674 9.518 0 19.842-3.286 19.842-14.091 0-7.24-4.96-10.325-9.332-11.704M329.796 560.06h17.037v7.394h-8.154c-.775 0-1.41.62-1.41 1.395v1.891c0 .776.635 1.396 1.41 1.396h30.012a1.39 1.39 0 0 0 1.395-1.396v-1.89a1.39 1.39 0 0 0-1.395-1.396h-8.867v-7.394h8.867a1.39 1.39 0 0 0 1.395-1.396v-1.89a1.39 1.39 0 0 0-1.395-1.396h-8.867v-15.843c0-.527-.31-1.008-.775-1.24l-1.21-.605a1.446 1.446 0 0 0-1.58.233l-8.976 8.247c-.28.279-.45.635-.45 1.038v8.17h-11.425s11.038-11.937 22.788-27.578c.853-1.147.357-2.186.17-2.372l-2.154-2.186a1.41 1.41 0 0 0-.992-.418c-.59 0-14.045.03-14.758 0-.713-.016-1.24.604-1.318 1.209 0 0-.527 7.301-3.116 15.378-2.573 8.045-5.487 12.99-8.123 16.587 0 0-.542.977-.186 1.72.341.745.977 1.815.977 1.815s.248.527 1.1.527M356.956 79.703h.201c7.937-3.085 8.434-8.247 8.434-10.03v-.496c0-.884-.295-12.107-17.363-12.107-17.067 0-16.571 12.107-16.571 12.107h.108l-.108.201c0 3.566 2.883 6.356 6.449 6.356 3.58 0 6.355-2.79 6.355-6.356 0-2.883-2.185-5.658-4.96-6.247l.294-.294c1.395-.993 3.271-1.489 5.162-1.489 4.17 0 8.635 2.48 8.635 7.829 0 6.247-4.666 7.146-5.86 7.348-1.193.201-6.743.589-7.937.589-1.193 0-1.286 1.395-1.286 1.395v1.984s.201 1.086 1.286 1.194c1.69.093 3.969.093 7.147.59 4.356.588 6.65 3.565 6.65 10.51 0 6.65-4.465 8.433-8.635 8.433-2.774 0-5.363-.791-6.448-1.582 3.27-.201 5.952-3.069 5.952-6.355 0-3.566-2.775-6.45-6.355-6.45a6.444 6.444 0 0 0-6.45 6.45s-.495 4.464 3.876 8.541c3.86 3.566 8.728 3.674 10.914 3.674 9.518 0 19.842-3.286 19.842-14.091 0-7.24-4.96-10.325-9.332-11.704M329.796 142.788h17.037v7.394h-8.154c-.775 0-1.41.62-1.41 1.395v1.891c0 .776.635 1.396 1.41 1.396h30.012a1.39 1.39 0 0 0 1.395-1.396v-1.89a1.39 1.39 0 0 0-1.395-1.396h-8.867v-7.394h8.867a1.39 1.39 0 0 0 1.395-1.396v-1.89a1.39 1.39 0 0 0-1.395-1.396h-8.867v-15.843c0-.527-.31-1.008-.775-1.24l-1.21-.605a1.446 1.446 0 0 0-1.58.233l-8.976 8.247c-.28.279-.45.635-.45 1.038v8.17h-11.425s11.038-11.937 22.788-27.578c.853-1.147.357-2.186.17-2.372l-2.154-2.186a1.41 1.41 0 0 0-.992-.418c-.59 0-14.045.03-14.758 0-.713-.016-1.24.604-1.318 1.209 0 0-.527 7.301-3.116 15.378-2.573 8.045-5.487 12.99-8.123 16.587 0 0-.542.977-.186 1.72.341.745.977 1.815.977 1.815s.248.527 1.1.527" style="stroke-width:.992126"/><path class="Articulation" d="M1601.497 453.295v26.989a.9.9 0 0 0 .9.899h2.976a.887.887 0 0 0 .883-.9v-26.988a.873.873 0 0 0-.884-.884h-2.976c-.496 0-.899.388-.899.884M1100.507 1042.686v26.989a.9.9 0 0 0 .9.899h2.976a.887.887 0 0 0 .883-.9v-26.988a.873.873 0 0 0-.884-.884h-2.976c-.496 0-.899.388-.899.884M1601.497 37.62v26.99a.9.9 0 0 0 .9.899h2.976a.887.887 0 0 0 .883-.9V37.622a.873.873 0 0 0-.884-.884h-2.976c-.496 0-.899.388-.899.884M1100.507 691.866v26.989a.9.9 0 0 0 .9.899h2.976a.887.887 0 0 0 .883-.9v-26.988a.873.873 0 0 0-.884-.884h-2.976c-.496 0-.899.388-.899.884" style="stroke-width:.992126"/><path class="Beam" fill-rule="evenodd" d="m383.61 1170.094 91.994 6.39v12.43l-91.994-6.39v-12.43M562.141 1182.454l91.995-12.78v12.52l-91.995 12.78v-12.52M1323.377 399.393l105.69-31.825v12.951l-105.69 31.826v-12.952M413.118 978.054l91.994-6.39v12.44l-91.994 6.39v-12.44M1293.867 229.429l105.69-25.46v12.756l-105.69 25.461v-12.757M1041.807 0l104.67 6.367v12.424l-104.67-6.366V0M413.118 659.454l91.994-6.39v12.432l-91.994 6.39v-12.432M591.649 645.885l91.995 25.561v12.872l-91.995-25.561v-12.872"/><path class="Lyrics" d="M463.778 291.613c-1.687 2.047-6.296 3.594-10.89 3.704v2.14h4.39c2.907.063 3.204.36 3.11 3.156v20.047c0 2.563 0 2.657-.297 3.11-.406.5-1.359.703-4.156.703h-3.25v2.344h19.797v-2.344h-2.75c-2.797 0-3.75-.203-4.141-.703-.359-.453-.359-.5-.359-3.11v-20.64c0-2.813.109-5.157.359-8.407h-1.813m18.75 29.657c-1.75 0-3.14 1.39-3.14 3.093 0 1.75 1.39 3.157 3.094 3.157a3.148 3.148 0 0 0 3.156-3.157c0-1.703-1.406-3.093-3.11-3.093m27.25-30.907h-1.937l-.703 14.454h2.203c1-3.454 1.641-5.157 2.391-6.657 2-3.843 5.109-5.843 9.203-5.843 4.5 0 7.343 2.843 7.343 7.39 0 2.906-1.093 5.203-3.046 6.516-1.25.844-2.75 1.187-5.141 1.187h-1.859v2.703h1.859c2.547 0 4.344.36 5.75 1.204 1.937 1.156 3.094 3.343 3.094 5.953 0 4.89-3.657 7.953-9.5 7.953-2.657 0-5.094-.703-6.844-1.953-1.203-.86-2-1.953-2-2.75 0-.547.187-.797.641-.797h.156c1.39 0 2.703-1.5 2.703-3.11 0-2.25-1.75-3.843-4.156-3.843-2.5 0-4.344 2.047-4.344 4.89 0 2.063 1.094 4.36 2.844 6.11 2.593 2.547 6.406 3.797 11.547 3.797 4.796 0 8.796-1 11.453-2.907 2.609-1.797 4.109-4.547 4.109-7.437 0-2.5-1.156-4.75-3.109-6.25-1.594-1.203-3.297-1.813-6.797-2.313 2.344-.297 3.656-.687 5.094-1.64 2.656-1.657 4.156-4.5 4.156-7.75 0-5.75-5-9.313-13.11-9.313-4.5 0-6.296.61-10 3.36l-2-2.954m50.5 20.36c0-3.156-.546-4.75-2-5.953-1.64-1.36-4.093-2-7.296-2-5.641 0-9.75 2.64-9.75 6.297 0 1.843 1.156 3.046 2.906 3.046 1.594 0 2.703-1.046 2.703-2.546 0-.657-.25-1.344-.75-2.047-.313-.36-.359-.453-.359-.703 0-1 2-1.907 4.406-1.907 1.594 0 3.344.5 4.14 1.25.954.813 1.313 2 1.313 4.25v1.953c-5.203.907-6.859 1.297-9.313 2.25-4.343 1.61-6.39 3.907-6.39 7.11 0 3.594 2.797 5.844 7.25 5.844 3.453 0 6.547-1.407 8.703-3.954.797 2.547 2.047 3.547 4.391 3.547 2.25 0 4.609-1.437 4.609-2.89 0-.36-.203-.61-.5-.61-.203 0-.406.063-.75.203-.703.297-1 .36-1.406.36-1.407 0-1.907-.906-1.907-3.453v-10.047m-4.687 6.094c0 3-.156 3.703-1 5-1.25 1.843-3.5 3.093-5.703 3.093-2.297 0-3.953-1.64-3.953-3.89 0-2.11 1.047-3.61 3.25-4.657 1.547-.75 3.5-1.203 7.406-1.843v2.297M699.044 291.113c-.75 2-2.344 2.844-5.547 2.797H691.7c-3.656 0-6 .797-8.047 2.75-3.203 3.047-4.75 8.407-4.75 16.25 0 4.203.5 6.813 1.703 8.907 1.938 3.546 5.438 5.75 9.141 5.75 6 0 10.797-5.5 10.797-12.407 0-6.89-4.797-12.39-10.797-12.39-3.703 0-6.344 1.797-8.453 5.64.5-7.75 3.25-10.5 10.359-10.203 5.453.063 7.953-1.937 8.844-7.094h-1.453m-9.188 13.797c3.5 0 5.438 3.657 5.438 10.25 0 6.657-1.938 10.25-5.547 10.25-3.594 0-5.547-3.593-5.547-10.187 0-6.813 1.906-10.313 5.656-10.313m24.938-2.14c-6.141 0-10.891 5.453-10.891 12.453 0 6.844 4.797 12.344 10.797 12.344 6 0 10.797-5.5 10.797-12.407 0-6.843-4.797-12.39-10.703-12.39m0 2.14c3.5 0 5.453 3.657 5.453 10.25 0 6.657-1.953 10.25-5.547 10.25-3.594 0-5.547-3.593-5.547-10.187 0-6.813 1.891-10.313 5.641-10.313M853.057 325.02h-.344c-3.359-.11-3.812-.36-3.812-2.157v-16c0-.953.609-1.453 1.656-1.453 1.203 0 2.406.563 3.406 1.61 1.344 1.39 1.938 3.047 2.188 6.14h2l-.5-9.64h-22.188l-.5 9.64h2c.188-2.89.641-4.39 1.844-5.797 1-1.203 2.453-1.953 3.75-1.953 1.047 0 1.656.5 1.656 1.453v16.157c-.062.75-.109 1.047-.312 1.297-.344.453-1.297.656-3.438.703h-.359v1.797h12.953v-1.797m29.91 0v1.797h12.64v-1.797h-.19c-3.31-.11-3.75-.36-3.75-2.157V307.27c0-.703.09-1 .3-1.25.34-.453 1.29-.657 3.45-.703h.19v-1.797h-12.64v1.797h.18c3.36.093 3.82.343 3.82 2.156V323.02c-.05.75-.11 1.047-.3 1.297-.36.453-1.36.656-3.52.703h-.18m-22.316 1.797h13.453c5.653 0 9.153-2.657 9.153-6.844 0-1.86-.75-3.5-2.11-4.61-1.43-1.203-3.34-1.703-6.637-1.703h-5.203V307.27c.047-.703.094-1 .297-1.25.359-.453 1.359-.657 3.5-.703h.203v-1.797h-12.656v1.797h.203c3.297.093 3.75.343 3.75 2.156V323.02c-.047.75-.094 1.047-.297 1.297-.344.453-1.297.656-3.453.703h-.203v1.797m8.656-11h4.25c2.75 0 4.45 1.656 4.45 4.296 0 2.797-1.95 4.547-5.044 4.547h-1.859c-1.25-.047-1.797-.547-1.797-1.687v-7.156M1033.917 310.613v12.407c-.05.75-.1 1.047-.3 1.297-.36.453-1.36.656-3.5.703h-.2v1.797h12.65v-1.797h-.2c-3.3-.11-3.75-.36-3.75-2.157v-15.546c.05-.75.09-1.047.3-1.297.36-.453 1.29-.657 3.45-.703h.2v-1.797h-12.65v1.797h.2c3.34.093 3.8.343 3.8 2.156l-11 12.75v-12.906c.04-.75.09-1.047.29-1.297.36-.453 1.36-.657 3.5-.703h.21v-1.797h-12.66v1.797h.2c3.3.093 3.75.343 3.75 2.156V323.02c-.04.75-.09 1.047-.29 1.297-.35.453-1.3.656-3.46.703h-.2v1.797h12.66v-1.797h-.21c-3.09-.047-3.7-.36-3.79-1.703l11-12.704M1278.827 291.113c-.75 2-2.34 2.844-5.54 2.797h-1.8c-3.66 0-6 .797-8.05 2.75-3.2 3.047-4.75 8.407-4.75 16.25 0 4.203.5 6.813 1.71 8.907 1.93 3.546 5.43 5.75 9.14 5.75 6 0 10.79-5.5 10.79-12.407 0-6.89-4.79-12.39-10.79-12.39-3.71 0-6.35 1.797-8.46 5.64.5-7.75 3.25-10.5 10.36-10.203 5.46.063 7.96-1.937 8.85-7.094h-1.46m-9.18 13.797c3.5 0 5.43 3.657 5.43 10.25 0 6.657-1.93 10.25-5.54 10.25-3.6 0-5.55-3.593-5.55-10.187 0-6.813 1.91-10.313 5.66-10.313m24.93-2.14c-6.14 0-10.89 5.453-10.89 12.453 0 6.844 4.8 12.344 10.8 12.344 6 0 10.8-5.5 10.8-12.407 0-6.843-4.8-12.39-10.71-12.39m0 2.14c3.5 0 5.46 3.657 5.46 10.25 0 6.657-1.96 10.25-5.55 10.25s-5.55-3.593-5.55-10.187c0-6.813 1.89-10.313 5.64-10.313m17.66-1.39v1.797h.2c3.39.093 3.8.343 3.75 2.406v4.5c0 4.64-.29 7.89-.9 9.797-.55 1.797-1.46 2.843-2.46 2.843-.5 0-.75-.25-.75-.703 0-.093 0-.14.07-.25.09-.437.09-.5.09-.75 0-1.297-1.05-2.187-2.5-2.187-1.66 0-2.75 1.14-2.75 2.89 0 2.204 1.8 3.657 4.55 3.657 3.29 0 5.54-1.907 6.4-5.36.64-2.64.85-4.937.85-9.843v-3.547c.11-2.797.29-3 3.9-3.11h.64c3.21.11 3.66.36 3.71 1.953v15.407c-.05.75-.1 1.047-.3 1.297-.34.453-1.34.656-3.5.703h-.2v1.797h12.65v-1.797h-.2c-3.3-.11-3.75-.36-3.75-2.157v-15.546c.05-.75.09-1.047.3-1.297.36-.453 1.31-.657 3.45-.703h.2v-1.797h-23.45m26.09 23.297h14.16c5.59 0 9.09-2.657 9.09-6.844 0-1.86-.75-3.453-2.09-4.61-1.45-1.203-3.34-1.703-6.59-1.703h-5.91V307.27c.05-.703.09-1 .3-1.25.36-.453 1.36-.657 3.5-.703h.2v-1.797h-12.66v1.797h.21c3.29.093 3.75.343 3.75 2.156V323.02c-.05.75-.1 1.047-.3 1.297-.34.453-1.3.656-3.45.703h-.21v1.797m8.66-11h4.95c2.71 0 4.39 1.656 4.39 4.296 0 2.797-1.93 4.547-5.04 4.547h-2.5c-1.25-.047-1.8-.547-1.8-1.687v-7.156M228.746 944.514h18.86c5.14-.09 7.203 1.91 7.593 7.35h1.86v-9.14h-.203c-3.297-.11-3.75-.36-3.75-2.16V925.014c.046-.75.093-1.04.296-1.29.36-.46 1.297-.66 3.454-.71h.203v-1.79h-12.657v1.79h.204c3.343.1 3.796.35 3.796 2.16V940.564c-.046.75-.203 1.11-.593 1.36-.407.3-1.313.39-3.11.44h-3.593c-3.25-.1-3.704-.35-3.704-2.14V925.014c.047-.75.094-1.04.297-1.29.36-.46 1.36-.66 3.5-.71h.203v-1.79h-12.656v1.79h.203c3.297.1 3.75.35 3.75 2.16V940.764c-.047.71-.093 1-.297 1.25-.343.46-1.296.66-3.453.71h-.203v1.79m44.656-6.34-5.5-12.86c-.203-.5-.296-.75-.296-1 0-.95.593-1.3 2.296-1.3h1.047v-1.79h-11.89v1.79h.547c1.703.05 2.343.55 3.39 2.71l8.156 18.45-.843 1.75c-1.813 3.8-4.157 6.44-5.75 6.44-.453 0-.813-.19-.813-.5 0-.1.063-.25.11-.44.14-.45.25-.91.25-1.31 0-1.3-1.047-2.25-2.547-2.25-1.75 0-3 1.31-3 3.11 0 2.25 1.89 3.84 4.547 3.84 2.64 0 4.89-1.3 6.89-4 1.563-2.05 2.563-4.14 4.75-9.59l5.703-14.16c1.157-2.95 2.25-4 4.203-4.05h.297v-1.79h-10v1.79h.797c1.906 0 2.703.55 2.703 1.85 0 .56-.14 1.15-.5 2l-4.547 11.31M337.572 921.224v1.79h.203c3.297.1 3.75.35 3.75 2.16V940.724c-.047.75-.094 1.04-.297 1.29-.344.46-1.297.66-3.453.71h-.203v1.79h12.953c2.656 0 4.953-.29 6.156-.79 2.547-1.05 3.953-3.05 3.953-5.61 0-1.6-.562-2.94-1.656-3.94-1.047-.95-2.25-1.36-4.906-1.7 4.156-.8 5.906-2.46 5.906-5.61 0-3.69-2.797-5.64-8.25-5.64h-14.156m8.656 10.14v-6.69c0-1.11.203-1.31 1.156-1.31h2.75c3.047 0 4.594 1.36 4.594 3.9 0 2.71-1.703 4.1-4.953 4.1h-3.547m0 2.15h3.5c3.906 0 5.656 1.35 5.656 4.35 0 2.81-1.859 4.5-5 4.5h-2.25c-1.656 0-1.859-.19-1.906-1.44v-7.41m20.797-3.95c.297-2.59.859-3.95 2.156-5.2 1.141-1.1 2.703-1.75 4.203-1.75 2.641 0 4.25 1.56 4.25 4.11 0 3.14-1.953 5-5.203 5h-1.75v2.14h1.797c3.5 0 5.5 1.61 5.5 4.4 0 2.91-2.203 4.85-5.453 4.85-2.453 0-4.453-1-4.453-2.25 0-.3.109-.55.5-1.1.562-.84.812-1.45.812-2.15 0-1.55-1.203-2.69-2.859-2.69-1.703 0-2.953 1.34-2.953 3.19 0 4.2 4.062 7.15 9.906 7.15 5.797 0 9.75-2.9 9.75-7.15 0-2.94-1.594-4.55-5.547-5.5 3.391-.69 5.203-2.8 5.203-6 0-3.85-3.203-6.14-8.562-6.14-2.438 0-4.297.59-6.594 2.09l-.656-1.39h-1.75v8.39h1.703m17.547 8.45c.25 5.1 1.703 7.21 5.109 7.21 2.641 0 3.5-1 4.391-5.11 1-4.94 1.953-6.1 5.062-6.1h4.344V940.724c-.047.75-.094 1.04-.297 1.29-.359.46-1.359.66-3.5.71h-.203v1.79h12.656v-1.79h-.203c-3.297-.11-3.75-.36-3.75-2.21v-15.5c.047-.75.094-1.04.297-1.29.344-.46 1.297-.66 3.453-.71h.203v-1.79h-14.156c-5.547 0-9.094 2.5-9.094 6.45 0 3 2.5 5.14 6.141 5.39-2.344.3-4 1.86-4.703 4.36-.938 4-1.25 4.64-2.188 4.64-.953 0-1.359-1.05-1.609-4.05h-1.953m18.906-6.15h-4.953c-2.703 0-4.391-1.6-4.391-4.14 0-2.66 1.938-4.36 5.047-4.36h2.5c1.25.06 1.797.56 1.797 1.7v6.8m28.5 10.86h-.344c-3.359-.11-3.812-.36-3.812-2.16v-16c0-.95.609-1.45 1.656-1.45 1.203 0 2.406.56 3.406 1.61 1.344 1.39 1.938 3.04 2.188 6.14h2l-.5-9.64h-22.188l-.5 9.64h2c.188-2.89.641-4.39 1.844-5.8 1-1.2 2.453-1.95 3.75-1.95 1.047 0 1.656.5 1.656 1.45v16.16c-.062.75-.109 1.04-.312 1.29-.344.46-1.297.66-3.438.71h-.359v1.79h12.953v-1.79m7.594 1.79h14.156c5.594 0 9.094-2.65 9.094-6.84 0-1.86-.75-3.45-2.094-4.61-1.453-1.2-3.344-1.7-6.594-1.7h-5.906v-6.39c.047-.71.094-1 .297-1.25.359-.46 1.359-.66 3.5-.71h.203v-1.79h-12.656v1.79h.203c3.297.1 3.75.35 3.75 2.16V940.724c-.047.75-.094 1.04-.297 1.29-.344.46-1.297.66-3.453.71h-.203v1.79m8.656-11h4.953c2.703 0 4.391 1.66 4.391 4.3 0 2.8-1.938 4.55-5.047 4.55h-2.5c-1.25-.05-1.797-.55-1.797-1.69v-7.16M551.603 921.224v1.79h.203c3.297.1 3.75.35 3.75 2.16V940.724c-.046.75-.093 1.04-.296 1.29-.344.46-1.297.66-3.454.71h-.203v1.79h12.657v-1.79h-.204c-3.343-.11-3.796-.36-3.796-2.16V925.174c.046-.75.203-1.11.593-1.36.407-.3 1.313-.39 3.11-.45h3.593c3.204.11 3.657.36 3.704 1.95v15.41c-.047.75-.094 1.04-.297 1.29-.36.46-1.36.66-3.5.71h-.203v1.79h12.656v-1.79h-.203c-3.297-.11-3.75-.36-3.75-2.16v-15.59c.047-.71.093-1 .297-1.25.359-.46 1.296-.66 3.453-.71h.203v-1.79h-28.313m42.25-.75c-6.14 0-10.89 5.45-10.89 12.45 0 6.84 4.797 12.34 10.797 12.34 6 0 10.796-5.5 10.796-12.4 0-6.85-4.796-12.39-10.703-12.39m0 2.14c3.5 0 5.453 3.65 5.453 10.25 0 6.65-1.953 10.25-5.546 10.25-3.594 0-5.547-3.6-5.547-10.19 0-6.81 1.89-10.31 5.64-10.31M806.279 929.564c.297-2.59.859-3.95 2.156-5.2 1.141-1.1 2.703-1.75 4.203-1.75 2.641 0 4.25 1.56 4.25 4.11 0 3.14-1.953 5-5.203 5h-1.75v2.14h1.797c3.5 0 5.5 1.61 5.5 4.4 0 2.91-2.203 4.85-5.453 4.85-2.453 0-4.453-1-4.453-2.25 0-.3.109-.55.5-1.1.562-.84.812-1.45.812-2.15 0-1.55-1.203-2.69-2.859-2.69-1.703 0-2.953 1.34-2.953 3.19 0 4.2 4.062 7.15 9.906 7.15 5.797 0 9.75-2.9 9.75-7.15 0-2.94-1.594-4.55-5.547-5.5 3.391-.69 5.203-2.8 5.203-6 0-3.85-3.203-6.14-8.562-6.14-2.438 0-4.297.59-6.594 2.09l-.656-1.39h-1.75v8.39h1.703m18.547-8.34v1.79h.203c3.297.1 3.75.35 3.75 2.16V940.724c-.047.75-.094 1.04-.297 1.29-.344.46-1.297.66-3.453.71h-.203v1.79h12.953c2.656 0 4.953-.29 6.156-.79 2.547-1.05 3.953-3.05 3.953-5.61 0-1.6-.562-2.94-1.656-3.94-1.047-.95-2.25-1.36-4.906-1.7 4.156-.8 5.906-2.46 5.906-5.61 0-3.69-2.797-5.64-8.25-5.64h-14.156m8.656 10.14v-6.69c0-1.11.203-1.31 1.156-1.31h2.75c3.047 0 4.594 1.36 4.594 3.9 0 2.71-1.703 4.1-4.953 4.1h-3.547m0 2.15h3.5c3.906 0 5.656 1.35 5.656 4.35 0 2.81-1.859 4.5-5 4.5h-2.25c-1.656 0-1.859-.19-1.906-1.44v-7.41m28.594-13.04c-6.141 0-10.891 5.45-10.891 12.45 0 6.84 4.797 12.34 10.797 12.34 6 0 10.797-5.5 10.797-12.4 0-6.85-4.797-12.39-10.703-12.39m0 2.14c3.5 0 5.453 3.65 5.453 10.25 0 6.65-1.953 10.25-5.547 10.25-3.594 0-5.547-3.6-5.547-10.19 0-6.81 1.891-10.31 5.641-10.31m17.661-1.39v1.79h.2c3.39.1 3.8.35 3.75 2.41v4.5c0 4.64-.3 7.89-.91 9.8-.54 1.79-1.45 2.84-2.45 2.84-.5 0-.75-.25-.75-.7 0-.1 0-.14.06-.25.1-.44.1-.5.1-.75 0-1.3-1.05-2.19-2.505-2.19-1.656 0-2.75 1.14-2.75 2.89 0 2.2 1.797 3.66 4.545 3.66 3.3 0 5.55-1.91 6.41-5.36.64-2.64.84-4.94.84-9.85v-3.54c.11-2.8.3-3 3.91-3.11h.64c3.2.11 3.66.36 3.7 1.95v15.41c-.04.75-.09 1.04-.29 1.29-.35.46-1.35.66-3.5.71h-.21v1.79h12.66v-1.79h-.2c-3.3-.11-3.75-.36-3.75-2.16V925.014c.04-.75.09-1.04.29-1.29.36-.46 1.31-.66 3.46-.71h.2v-1.79h-23.45m26.09 23.29h14.16c5.59 0 9.09-2.65 9.09-6.84 0-1.86-.75-3.45-2.09-4.61-1.46-1.2-3.35-1.7-6.6-1.7h-5.9v-6.39c.04-.71.09-1 .29-1.25.36-.46 1.36-.66 3.5-.71h.21v-1.79h-12.66v1.79h.2c3.3.1 3.75.35 3.75 2.16V940.724c-.04.75-.09 1.04-.29 1.29-.35.46-1.3.66-3.46.71h-.2v1.79m8.66-11h4.95c2.7 0 4.39 1.66 4.39 4.3 0 2.8-1.94 4.55-5.05 4.55h-2.5c-1.25-.05-1.79-.55-1.79-1.69v-7.16m23.45 1.46c.05-8.86.25-11.3 1.2-16 .69-3.46.89-5 .89-6.5 0-3.21-1-4.75-3.04-4.75-2.05 0-3.1 1.59-3.1 4.68 0 1.5.19 3.07.89 6.57.96 4.7 1.11 7.04 1.21 16h1.95m-.95 4c-1.75 0-3.16 1.39-3.16 3.09 0 1.75 1.41 3.16 3.11 3.16 1.75 0 3.14-1.41 3.14-3.16 0-1.7-1.39-3.09-3.09-3.09M1154.497 907.654c-4.45 0-8.31 1.41-11.31 4.21-3.85 3.54-6.1 8.95-6.1 14.65 0 5.6 2.3 11.05 6.1 14.55 3 2.75 6.81 4.2 11.11 4.2 9.79 0 17.2-8.09 17.2-18.79 0-10.61-7.41-18.82-17-18.82m-.06 2.36c3.36 0 6.15 1.5 7.95 4.3 1.86 2.95 2.5 6 2.5 12.16 0 6.09-.64 9.14-2.5 12.14-1.8 2.81-4.55 4.31-8.09 4.31-3.55 0-6.3-1.5-8.11-4.31-1.89-3.05-2.5-6-2.5-12.25 0-6 .65-9.05 2.5-12.05 1.86-2.91 4.5-4.3 8.25-4.3m29.4 21.35v-6.39c.05-.71.1-1 .3-1.25.36-.46 1.36-.66 3.5-.71h.2v-1.79h-12.65v1.79h.2c3.3.1 3.75.35 3.75 2.16V940.724c-.05.7-.09 1.04-.3 1.29-.34.46-1.29.66-3.45.71h-.2v1.79h12.65v-1.79h-.2c-3.34-.11-3.8-.36-3.8-2.16v-7.05h11V940.724c-.04.7-.09 1.04-.29 1.29-.36.46-1.36.66-3.5.71h-.21v1.79h12.66v-1.79h-.2c-3.3-.11-3.75-.36-3.75-2.16v-15.59c.04-.71.09-1 .29-1.25.36-.46 1.3-.66 3.46-.71h.2v-1.79h-12.66v1.79h.21c3.34.1 3.79.35 3.79 2.16V931.364h-11m35-.19v3.05h50v-3.05h-50M1378.607 908.404h-29.95l-.75 13.91h2.14c.36-2.5.75-4.41 1.36-6 1.3-3.7 3.7-5.55 7.09-5.55 1.66 0 2.36.55 2.36 1.8v25.8c0 2.56 0 2.65-.31 3.11-.39.5-1.34.7-4.19.7h-1.31v2.34h17.16v-2.34h-1.3c-2.8 0-3.75-.2-4.16-.7-.29-.46-.29-.55-.29-3.11v-25.8c0-1.25.7-1.8 2.34-1.8 3.06 0 5.52 1.71 6.77 4.71.75 1.84 1.25 4 1.64 6.84h2.15l-.75-13.91m12.94 12.07c-6.14 0-10.89 5.45-10.89 12.45 0 6.84 4.8 12.34 10.8 12.34 6 0 10.79-5.5 10.79-12.4 0-6.85-4.79-12.39-10.7-12.39m0 2.14c3.5 0 5.45 3.65 5.45 10.25 0 6.65-1.95 10.25-5.54 10.25-3.6 0-5.55-3.6-5.55-10.19 0-6.81 1.89-10.31 5.64-10.31m31.16 20.11h-.35c-3.36-.11-3.81-.36-3.81-2.16v-16c0-.95.61-1.45 1.66-1.45 1.2 0 2.4.56 3.4 1.61 1.35 1.39 1.94 3.04 2.19 6.14h2l-.5-9.64h-22.19l-.5 9.64h2c.19-2.89.64-4.39 1.85-5.8 1-1.2 2.45-1.95 3.75-1.95 1.04 0 1.65.5 1.65 1.45v16.16c-.06.75-.11 1.04-.31 1.29-.34.46-1.3.66-3.44.71h-.36v1.79h12.96v-1.79m7.59 11c4.5-3.11 6.56-6.16 6.56-9.66 0-3-1.65-4.95-4.11-4.95-1.84 0-3.25 1.31-3.25 3 0 1.81 1.36 2.95 3.46 2.95.25 0 .59 0 .75-.05h.15c.25 0 .35.16.35.46 0 2.09-1.71 4.45-5.05 6.79l1.14 1.46M1512.517 931.724v-6.71c.07-.75.11-1.04.32-1.29.34-.46 1.34-.66 3.5-.71h.18v-1.79h-12.68v1.79h.18c3.36.1 3.82.35 3.82 2.16V940.724c-.07.75-.11 1.04-.32 1.29-.34.46-1.34.66-3.5.71h-.18v1.79h12.68v-1.79h-.18c-3.36-.11-3.82-.36-3.82-2.16v-6.7h1.21c4.04-.14 4.86.61 6.15 5.81.55 2.25.75 2.84 1.21 3.64.75 1.3 1.84 1.91 3.43 1.91 2.75 0 4.61-2.21 4.61-5.55v-1.11h-1.86v.95c0 1.6-.64 2.75-1.59 2.75-.75 0-1.09-.59-1.75-3.2-1.05-4.3-2.5-5.89-6-6.45 2.05-.64 2.8-1.69 3.59-5.1.75-3.29.96-3.7 1.46-3.7.36 0 .61.25.61.5 0 .11 0 .2-.07.36-.09.3-.09.44-.09.59 0 1.1 1.09 2 2.41 2 1.84 0 3.04-1.25 3.04-3.09 0-2-1.5-3.25-3.95-3.25-2.59 0-4.2 1.44-5 4.55-1.3 5.84-1.66 6.2-6 6.25h-1.41m35.16 11h-.34c-3.36-.11-3.82-.36-3.82-2.16v-16c0-.95.61-1.45 1.66-1.45 1.2 0 2.41.56 3.41 1.61 1.34 1.39 1.93 3.04 2.18 6.14h2l-.5-9.64h-22.18l-.5 9.64h2c.18-2.89.64-4.39 1.84-5.8 1-1.2 2.45-1.95 3.75-1.95 1.05 0 1.66.5 1.66 1.45v16.16c-.07.75-.11 1.04-.32 1.29-.34.46-1.29.66-3.43.71h-.36v1.79h12.95v-1.79m18.84-22.25c-6.14 0-10.89 5.45-10.89 12.45 0 6.84 4.8 12.34 10.8 12.34 6 0 10.8-5.5 10.8-12.4 0-6.85-4.8-12.39-10.71-12.39m0 2.14c3.5 0 5.46 3.65 5.46 10.25 0 6.65-1.96 10.25-5.55 10.25s-5.55-3.6-5.55-10.19c0-6.81 1.89-10.31 5.64-10.31M1666.247 921.224v1.79h.2c3.3.1 3.75.35 3.75 2.16V940.724c-.05.75-.1 1.04-.3 1.29-.34.46-1.3.66-3.45.71h-.2v1.79h12.65v-1.79h-.2c-3.35-.11-3.8-.36-3.8-2.16V925.174c.05-.75.2-1.11.6-1.36.4-.3 1.31-.39 3.1-.45h3.6c3.2.11 3.65.36 3.7 1.95v15.41c-.05.75-.09 1.04-.3 1.29-.35.46-1.35.66-3.5.71h-.2v1.79h12.66v-1.79h-.21c-3.29-.11-3.75-.36-3.75-2.16v-15.59c.05-.71.1-1 .3-1.25.36-.46 1.3-.66 3.45-.71h.21v-1.79h-28.31m42.25-.75c-6.15 0-10.9 5.45-10.9 12.45 0 6.84 4.8 12.34 10.8 12.34 6 0 10.8-5.5 10.8-12.4 0-6.85-4.8-12.39-10.7-12.39m0 2.14c3.5 0 5.45 3.65 5.45 10.25 0 6.65-1.95 10.25-5.55 10.25-3.59 0-5.55-3.6-5.55-10.19 0-6.81 1.9-10.31 5.65-10.31M260.699 1509.844l7.953 19.91h1.157l8.703-19.91v16.11c-.063.75-.11 1.05-.313 1.3-.343.45-1.343.66-3.5.7h-.203v1.8h12.656v-1.8h-.203c-3.297-.11-3.75-.36-3.75-2.15v-15.55c.063-.75.11-1.05.313-1.3.344-.45 1.297-.65 3.437-.7h.203v-1.8h-9.296l-7.454 16.89-6.75-16.89h-9.406v1.8h.203c3.297.09 3.75.34 3.75 2.16V1525.954c-.047.75-.093 1.05-.297 1.3-.343.45-1.296.66-3.453.7h-.203v1.8h10.453v-1.8h-.203c-3.344-.11-3.797-.36-3.797-2.15v-15.96m40.797-4.14c-6.14 0-10.89 5.46-10.89 12.46 0 6.84 4.796 12.34 10.796 12.34 6 0 10.797-5.5 10.797-12.41 0-6.84-4.797-12.39-10.703-12.39m0 2.14c3.5 0 5.453 3.66 5.453 10.25 0 6.66-1.953 10.25-5.547 10.25-3.593 0-5.546-3.59-5.546-10.18 0-6.82 1.89-10.32 5.64-10.32m31.75 15.75v2.41c-.047.7-.094 1-.344 1.25-.296.45-1.296.66-3.453.7h-.203v1.8h12.656v-1.8h-.203c-3.297-.11-3.75-.36-3.75-2.15v-15.55c.047-.75.11-1.05.297-1.3.36-.45 1.313-.65 3.453-.7h.203v-1.8h-12.656v1.8h.203c3.36.09 3.797.34 3.797 2.16v7.59c-2.547 1.09-3.937 1.45-5.75 1.45-3.187 0-4.594-1.15-4.594-3.75v-5.45c.047-.75.094-1.05.297-1.3.36-.45 1.297-.65 3.5-.7h.203v-1.8h-12.656v1.8h.203c3.297.09 3.75.34 3.75 2.16v5.54c0 3.85 2.407 5.71 7.407 5.71 2.75 0 5.343-.57 7.64-1.61v3.54m11 6.16h14.156c5.594 0 9.094-2.66 9.094-6.84 0-1.86-.75-3.46-2.094-4.61-1.453-1.21-3.343-1.71-6.593-1.71h-5.907v-6.39c.047-.7.094-1 .297-1.25.36-.45 1.36-.65 3.5-.7h.203v-1.8h-12.656v1.8h.203c3.297.09 3.75.34 3.75 2.16V1525.954c-.047.75-.093 1.05-.297 1.3-.343.45-1.296.66-3.453.7h-.203v1.8m8.656-11h4.954c2.703 0 4.39 1.66 4.39 4.3 0 2.79-1.937 4.54-5.047 4.54h-2.5c-1.25-.04-1.797-.54-1.797-1.68v-7.16M512.339 1527.954h-.344c-3.359-.11-3.812-.36-3.812-2.15v-16c0-.96.609-1.46 1.656-1.46 1.203 0 2.406.57 3.406 1.61 1.344 1.39 1.938 3.05 2.188 6.14h2l-.5-9.64h-22.188l-.5 9.64h2c.188-2.89.641-4.39 1.844-5.79 1-1.21 2.453-1.96 3.75-1.96 1.047 0 1.656.5 1.656 1.46v16.15c-.062.75-.109 1.05-.312 1.3-.344.45-1.297.66-3.438.7h-.359v1.8h12.953v-1.8m29.5-9.45c.047-7.5-4.203-12.8-10.297-12.8-6.406 0-11.203 5.55-11.203 13.05 0 7.05 4.547 11.75 11.297 11.75 4.797 0 8.156-2.34 10.203-7.09l-1.75-.96c-2.047 3.85-4.156 5.35-7.5 5.35-2.547 0-4.406-1.05-5.703-3.3-.891-1.5-1.297-3.25-1.25-6h16.203m-16.156-2.16c0-1.54.203-2.64.703-4.04 1.047-3 2.656-4.46 5.109-4.46 3 0 5 2.66 5 6.71 0 1.4-.453 1.79-2.062 1.79h-8.75M722.12 1494.054c-.75 2-2.344 2.84-5.547 2.79h-1.797c-3.656 0-6 .8-8.047 2.75-3.203 3.05-4.75 8.41-4.75 16.25 0 4.21.5 6.82 1.703 8.91 1.938 3.55 5.438 5.75 9.141 5.75 6 0 10.797-5.5 10.797-12.41 0-6.89-4.797-12.39-10.797-12.39-3.703 0-6.344 1.8-8.453 5.64.5-7.75 3.25-10.5 10.359-10.2 5.453.06 7.953-1.94 8.844-7.09h-1.453m-9.188 13.79c3.5 0 5.438 3.66 5.438 10.25 0 6.66-1.938 10.25-5.547 10.25-3.594 0-5.547-3.59-5.547-10.18 0-6.82 1.906-10.32 5.656-10.32m35.594 10.66c.047-7.5-4.203-12.8-10.297-12.8-6.406 0-11.203 5.55-11.203 13.05 0 7.05 4.547 11.75 11.297 11.75 4.797 0 8.156-2.34 10.203-7.09l-1.75-.96c-2.047 3.85-4.156 5.35-7.5 5.35-2.547 0-4.406-1.05-5.703-3.3-.891-1.5-1.297-3.25-1.25-6h16.203m-16.156-2.16c0-1.54.203-2.64.703-4.04 1.047-3 2.656-4.46 5.109-4.46 3 0 5 2.66 5 6.71 0 1.4-.453 1.79-2.062 1.79h-8.75M956.077 1506.454v1.8h.2c3.3.09 3.75.34 3.75 2.16V1525.954c-.04.75-.09 1.05-.29 1.3-.35.45-1.3.66-3.46.7h-.2v1.8h12.95c2.66 0 4.96-.3 6.16-.8 2.55-1.04 3.95-3.04 3.95-5.61 0-1.59-.56-2.93-1.65-3.93-1.05-.96-2.25-1.36-4.91-1.71 4.16-.79 5.91-2.45 5.91-5.61 0-3.68-2.8-5.64-8.25-5.64h-14.16m8.66 10.14v-6.68c0-1.11.2-1.32 1.15-1.32h2.75c3.05 0 4.6 1.36 4.6 3.91 0 2.7-1.71 4.09-4.96 4.09h-3.54m0 2.16h3.5c3.9 0 5.65 1.34 5.65 4.34 0 2.82-1.86 4.5-5 4.5h-2.25c-1.65 0-1.86-.18-1.9-1.43v-7.41m49.34 3.66c-1.59 3.59-3.3 5.04-5.89 5.04-4 0-6.5-3.65-6.5-9.5 0-6.11 2.45-10.11 6.14-10.11 1.5 0 2.81.71 2.81 1.5 0 .16-.06.32-.31.61-.8.96-1 1.46-1 2.3 0 1.66 1.25 2.8 3 2.8 1.81 0 3.06-1.39 3.06-3.39 0-3.41-3.36-5.96-7.81-5.96-6.5 0-11.14 5.3-11.14 12.8 0 7.09 4.25 12 10.45 12 4.44 0 7-2.05 9.14-7.34l-1.95-.75m23.66-8.86V1525.954c-.05.75-.1 1.05-.3 1.3-.36.45-1.36.66-3.5.7h-.2v1.8h12.65v-1.8h-.2c-3.3-.11-3.75-.36-3.75-2.15v-15.55c.05-.75.09-1.05.3-1.3.36-.45 1.29-.65 3.45-.7h.2v-1.8h-12.65v1.8h.2c3.34.09 3.8.34 3.8 2.16l-11 12.75v-12.91c.04-.75.09-1.05.29-1.3.36-.45 1.36-.65 3.5-.7h.21v-1.8h-12.66v1.8h.2c3.3.09 3.75.34 3.75 2.16V1525.954c-.04.75-.09 1.05-.29 1.3-.35.45-1.3.66-3.46.7h-.2v1.8h12.66v-1.8h-.21c-3.09-.04-3.7-.36-3.79-1.7l11-12.7M1477.147 1506.454v1.8h.2c3.39.09 3.8.34 3.75 2.41v4.5c0 4.64-.29 7.89-.9 9.79-.55 1.8-1.46 2.85-2.46 2.85-.5 0-.75-.25-.75-.71 0-.09 0-.14.07-.25.09-.43.09-.5.09-.75 0-1.29-1.05-2.18-2.5-2.18-1.66 0-2.75 1.14-2.75 2.89 0 2.2 1.8 3.65 4.55 3.65 3.29 0 5.54-1.9 6.4-5.36.64-2.64.85-4.93.85-9.84v-3.55c.11-2.79.29-3 3.9-3.11h.64c3.21.11 3.66.36 3.71 1.96v15.4c-.05.75-.1 1.05-.3 1.3-.34.45-1.34.66-3.5.7h-.2v1.8h12.65v-1.8h-.2c-3.3-.11-3.75-.36-3.75-2.15v-15.55c.05-.75.09-1.05.3-1.3.36-.45 1.31-.65 3.45-.7h.2v-1.8h-23.45m48 12.05c.05-7.5-4.2-12.8-10.3-12.8-6.4 0-11.2 5.55-11.2 13.05 0 7.05 4.55 11.75 11.3 11.75 4.79 0 8.15-2.34 10.2-7.09l-1.75-.96c-2.05 3.85-4.16 5.35-7.5 5.35-2.55 0-4.41-1.05-5.7-3.3-.89-1.5-1.3-3.25-1.25-6h16.2m-16.16-2.16c0-1.54.21-2.64.71-4.04 1.04-3 2.65-4.46 5.11-4.46 3 0 5 2.66 5 6.71 0 1.4-.46 1.79-2.07 1.79h-8.75m24.75 7.86c-1.75 0-3.14 1.39-3.14 3.1 0 1.75 1.39 3.15 3.1 3.15 1.75 0 3.15-1.4 3.15-3.15 0-1.71-1.4-3.1-3.11-3.1"/><path class="LyricsLineSegment" fill="none" stroke="#000" stroke-width="3.72" stroke-linejoin="bevel" d="M770.332 314.231h19.843M611.021 314.231h19.843M1765.647 314.231h19.84M1765.277 931.934h19.84M1258.397 1517.164h19.84M612.011 1517.164h19.843"/><path class="NoteDot" d="M1000.377 1668.534a4.955 4.955 0 0 0 4.96 4.96 4.955 4.955 0 0 0 4.961-4.96 4.955 4.955 0 0 0-4.96-4.96 4.955 4.955 0 0 0-4.961 4.96" style="stroke-width:.992126"/><path class="Bracket" fill="none" stroke="#000" stroke-width="10.91" stroke-linejoin="bevel" d="M129.472 38.126v552.201"/><path class="Bracket" d="M172.041 16.098c-.201-.093-.496-.202-.698-.202-.403 0-.852.155-1.085.496-.201.295-10.122 15.58-29.081 15.58H125.41c-.806 0-1.395.496-1.395 1.287v10.324h12.107c30.554 0 36.414-25.485 36.507-25.795.031-.093.109-.295.109-.496 0-.496-.31-.9-.698-1.194M172.041 612.355c.388-.295.698-.698.698-1.194 0-.201-.078-.403-.109-.496-.093-.31-5.953-25.795-36.507-25.795h-12.107v10.325c0 .79.59 1.286 1.395 1.286h15.766c18.959 0 28.88 15.285 29.081 15.58.233.34.682.496 1.085.496.202 0 .497-.109.698-.202" style="stroke-width:.992126"/><path class="Bracket" fill="none" stroke="#000" stroke-width="10.91" stroke-linejoin="bevel" d="M5.457 691.028v484.536"/><path class="Bracket" d="M48.025 669c-.201-.093-.496-.202-.698-.202-.403 0-.852.155-1.085.496-.201.295-10.122 15.58-29.081 15.58H1.395c-.806 0-1.395.496-1.395 1.287v10.324h12.107c30.554 0 36.414-25.485 36.507-25.795.031-.093.109-.295.109-.496 0-.496-.31-.9-.698-1.194M48.025 1197.589c.388-.294.698-.698.698-1.194 0-.201-.078-.403-.109-.496-.093-.31-5.953-25.795-36.507-25.795H0v10.325c0 .79.59 1.286 1.395 1.286h15.766c18.959 0 28.88 15.285 29.081 15.58.233.34.682.496 1.085.496.202 0 .497-.109.698-.202" style="stroke-width:.992126"/><path class="Bracket" fill="none" stroke="#000" stroke-width="10.91" stroke-linejoin="bevel" d="M5.457 1276.264v496.94"/><path class="Bracket" d="M48.025 1254.239c-.201-.093-.496-.202-.698-.202-.403 0-.852.155-1.085.496-.201.295-10.122 15.58-29.081 15.58H1.395c-.806 0-1.395.496-1.395 1.287v10.324h12.107c30.554 0 36.414-25.485 36.507-25.795.031-.093.109-.295.109-.496 0-.496-.31-.9-.698-1.194M48.025 1795.229c.388-.294.698-.698.698-1.194 0-.201-.078-.403-.109-.496-.093-.31-5.953-25.795-36.507-25.795H0v10.325c0 .79.59 1.286 1.395 1.286h15.766c18.959 0 28.88 15.285 29.081 15.58.233.34.682.496 1.085.496.202 0 .497-.109.698-.202" style="stroke-width:.992126"/><path class="Lyrics" d="M1715.387 325.02h-.34c-3.36-.11-3.82-.36-3.82-2.157v-16c0-.953.61-1.453 1.66-1.453 1.2 0 2.41.563 3.41 1.61 1.34 1.39 1.93 3.047 2.18 6.14h2l-.5-9.64h-22.18l-.5 9.64h2c.18-2.89.64-4.39 1.84-5.797 1-1.203 2.45-1.953 3.75-1.953 1.05 0 1.66.5 1.66 1.453v16.157c-.07.75-.11 1.047-.32 1.297-.34.453-1.29.656-3.43.703h-.36v1.797h12.95v-1.797M1671.639 289.281c-4.45 0-8.31 1.41-11.31 4.21-3.85 3.54-6.1 8.95-6.1 14.65 0 5.6 2.3 11.05 6.1 14.55 3 2.75 6.81 4.2 11.11 4.2 9.79 0 17.2-8.09 17.2-18.79 0-10.61-7.41-18.82-17-18.82m-.06 2.36c3.36 0 6.15 1.5 7.95 4.3 1.86 2.95 2.5 6 2.5 12.16 0 6.09-.64 9.14-2.5 12.14-1.8 2.81-4.55 4.31-8.09 4.31-3.55 0-6.3-1.5-8.11-4.31-1.89-3.05-2.5-6-2.5-12.25 0-6 .65-9.05 2.5-12.05 1.86-2.91 4.5-4.3 8.25-4.3"/><path class="LyricsLineSegment" fill="none" stroke="#000" stroke-width="3.72" stroke-linejoin="bevel" d="M685.505 932.41h19.84"/></svg>